<svg width="494" height="194" viewBox="0 0 494 194" fill="none" xmlns="http://www.w3.org/2000/svg">
<path d="M0.5 28C0.5 12.536 13.036 0 28.5 0H465.5C480.964 0 493.5 12.536 493.5 28V166C493.5 181.464 480.964 194 465.5 194H28.5C13.036 194 0.5 181.464 0.5 166V28Z" fill="url(#paint0_linear_757_4724)"/>
<path fill-rule="evenodd" clip-rule="evenodd" d="M266.735 62.4523C266.022 62.0361 258.232 62.0361 257.519 62.4523L257.513 92.4788L266.756 83.4152C266.758 83.3485 266.759 83.2778 266.759 83.2036C266.806 76.3328 266.818 69.3206 266.735 62.4523ZM257.513 92.7811L257.512 94.0688L257.514 94.0668L257.512 92.7811H257.513ZM295.916 85.3648C295.973 83.6388 297.5 82.0282 298.356 81.4279C303.319 77.9474 309.686 81.1908 310.02 85.3628L295.916 85.3653V85.3648ZM318.323 95.508H308.68C308.45 95.5942 306.033 99.3019 301.003 97.941C298.276 97.2034 296.131 95.2352 295.737 92.2145H319.456C321.225 82.5993 314.563 74.2157 307.186 72.592C296.911 70.33 289.37 76.4782 287.021 84.0059C281.492 101.73 303.922 113.563 315.152 100.503C315.949 99.5747 318.056 96.9822 318.323 95.5075L318.323 95.508ZM151.708 89.072C151.708 102.771 166.844 111.189 179.108 102.674C181.324 101.135 184.822 96.7892 185.386 92.891H175.718C173.474 98.9624 161.3 99.2829 161.3 88.8438C161.3 80.2907 171.147 79.0155 174.711 83.7521C176.591 86.2498 174.417 85.4806 185.354 85.4806C183.967 77.7835 176.302 71.3489 166.922 72.2385C158.447 73.0423 151.708 79.8399 151.708 89.0715V89.072ZM254.863 92.9411C243.934 92.8859 246.243 92.1037 244.071 94.657C243.451 95.3866 243.013 95.7437 242.191 96.1925C240.517 97.1066 238.445 97.4245 236.319 96.9211C232.99 96.1333 230.822 93.0484 230.797 89.072C230.771 85.1075 233.007 81.9469 236.356 81.2374C239.311 80.6111 242.111 81.3482 244.009 83.5551C246.234 86.142 243.122 85.4811 254.799 85.4811C253.506 77.29 245.081 71.38 236.253 72.251C227.825 73.0819 221.182 80.0354 221.204 89.075C221.24 103.334 236.998 111.009 248.629 102.631C251.038 100.895 254.005 97.1943 254.863 92.9416V92.9411ZM339.753 105.095V96.54C330.532 96.381 332.177 91.699 332.177 81.2108L341.207 81.2063L341.291 73.2494L332.176 73.2118L332.166 62.3024L322.79 62.2698C322.492 63.8573 322.583 89.0138 322.723 92.0415C323.205 102.382 329.53 105.082 339.753 105.095H339.753ZM188.367 104.986L197.898 105.039C197.898 100.019 197.907 95.001 197.897 89.9841C197.885 83.6915 199.505 83.0055 205.374 82.4659V73.3005C201.518 72.8247 199.154 74.9082 197.298 77.6335C197.298 76.2796 197.52 74.4669 197.139 73.2138L188.461 73.2188L188.368 104.986L188.367 104.986Z" fill="black"/>
<path fill-rule="evenodd" clip-rule="evenodd" d="M268.166 95.6855C268.627 94.9158 274.172 89.3768 274.957 88.9451C275.515 87.9763 284.483 79.1589 286.443 77.268C287.342 76.4 289.787 74.3445 290.313 73.2459L278.159 73.2278C276.467 73.2544 276.402 73.8496 275.496 74.7607C274.977 75.2822 273.781 76.4967 272.448 77.8346C271.041 79.2457 269.48 80.7931 268.395 81.8085L257.512 92.4788C257.517 98.3251 257.551 105.052 257.696 105.851L265.378 98.1807C266.325 97.3974 267.332 96.206 268.165 95.6855H268.166Z" fill="#60A730"/>
<path fill-rule="evenodd" clip-rule="evenodd" d="M208.951 104.93C210.751 105.18 216.285 105.042 218.456 105.036C218.456 100.353 218.628 75.8017 218.377 73.2108L210.886 73.2083C209.75 73.1912 209.095 72.9029 208.94 73.805L208.951 104.93ZM268.166 95.6855C270.029 97.8422 276.194 105.05 278.388 105.051L290.321 105.036C274.763 88.7505 290.321 105.036 274.958 88.9446C274.171 89.3768 268.626 94.9153 268.166 95.685L268.166 95.6855ZM156.618 115.933L152.888 115.94L157.188 130.245H160.16C161.36 127.736 161.696 123.96 162.896 121.349C163.129 122.608 165.109 129.472 165.561 130.255L168.428 130.132C169.133 129.301 172.748 116.267 172.81 115.926L169.195 115.934L166.898 125.409L165.476 120.813C165.17 119.722 164.713 116.944 163.915 116.382H161.863C160.823 117.098 159.654 123.912 158.937 125.407L156.618 115.934V115.933ZM192.711 121.564C193.475 117.077 199.858 117.338 200.741 121.564H192.711ZM203.581 125.84H200.406C198.995 126.851 198.883 128.166 195.853 127.638C194.033 127.321 192.825 126.063 192.651 124.194H204.087C204.815 113.782 191.751 112.743 189.412 120.965C187.534 127.568 194.407 132.874 200.265 129.754C201.445 129.125 203.231 127.321 203.581 125.84H203.581ZM216.092 121.564C216.975 117.033 223.477 117.45 224.124 121.564H216.092ZM212.543 123.281C212.543 126.841 215.355 129.945 218.484 130.525C222.466 131.263 226.394 128.626 226.931 125.84H223.897C222.867 126.246 222.81 127.721 220.476 127.721C217.944 127.721 216.368 126.629 216.036 124.196L227.496 124.143C227.785 119.453 225.141 115.866 220.705 115.514C218.286 115.322 216.119 116.296 214.884 117.46C213.55 118.716 212.544 120.813 212.544 123.281H212.543ZM242.791 126.068C242.558 132.02 253.515 132.43 253.562 126.017C253.587 122.578 250.986 122.285 248.216 121.313C243.664 119.716 248.719 116.216 249.861 119.81H253.097C252.804 113.115 241.463 114.685 243.076 120.963C243.769 123.66 247.181 123.621 249.25 124.845C250.529 125.602 250.444 127.436 248.923 127.81C247.051 128.27 246.451 127.302 246.026 126.068H242.791ZM233.054 126.068H229.783C229.787 131.014 236.926 132.195 239.735 128.623C241.252 126.695 240.59 123.774 239.022 122.752C237.255 121.599 234.185 121.713 233.397 119.861C233.206 118.602 235.878 116.876 236.888 119.811H240.097C240.159 116.955 237.611 115.295 234.61 115.478C231.89 115.643 229.329 117.842 230.112 120.932C230.764 123.507 234.171 123.79 236.101 124.766C237.542 125.496 237.515 127.322 236.119 127.764C233.824 128.492 233.372 126.83 233.054 126.068H233.054ZM208.986 70.2287L218.405 70.3265L218.377 62.2638C216.449 62.2673 211.029 62 209.541 62.2557C208.558 62.4252 208.95 63.1789 208.951 65.8095C208.951 67.2351 208.884 68.8246 208.986 70.2287H208.986ZM206.706 130.233L209.91 130.245C210.492 127.941 210.043 114.408 210.043 110.958L206.611 111.016L206.706 130.233ZM184.5 117.572L184.469 115.925H181.249L181.258 130.245H184.556C184.899 128.596 184.64 124.728 184.666 122.815C184.711 119.597 185.656 119.438 188.405 118.806L188.445 115.601C186.476 115.252 185.248 116.606 184.5 117.572L184.5 117.572ZM174.602 115.925C174.602 118.515 174.276 128.495 174.742 130.249L177.998 130.209L178.006 115.941L174.602 115.925ZM174.602 113.989H177.144L178.007 113.951L178.006 111.016L177.144 110.956L174.602 110.966V113.989Z" fill="black"/>
<defs>
<linearGradient id="paint0_linear_757_4724" x1="247" y1="0" x2="247" y2="194" gradientUnits="userSpaceOnUse">
<stop stop-color="#D3EFC3"/>
<stop offset="1" stop-color="#FCE8CF"/>
</linearGradient>
</defs>
</svg>
