<svg width="494" height="666" viewBox="0 0 494 666" fill="none" xmlns="http://www.w3.org/2000/svg">
<g clip-path="url(#clip0_620_1505)">
<path d="M0.5 28C0.5 12.536 13.036 0 28.5 0H465.5C480.964 0 493.5 12.536 493.5 28V638C493.5 653.464 480.964 666 465.5 666H28.5C13.036 666 0.5 653.464 0.5 638V28Z" fill="url(#paint0_linear_620_1505)"/>
<g opacity="0.1">
<path d="M-20.25 -77.2499L-112.5 681L31.5 489.75H-2.25L101.25 82.5001L371.25 39.7501L256.5 197.25L171 231L31.5 462.75L607.5 -120L-20.25 -77.2499Z" fill="#080808"/>
<path d="M515.25 638.25L607.5 -120L463.5 71.2504H497.25L393.75 478.5L123.75 521.25L238.5 363.75L324 330L463.5 98.2504L-112.5 681L515.25 638.25Z" fill="#080808"/>
</g>
<g clip-path="url(#clip1_620_1505)">
<path d="M256.503 107.574C256.876 108.643 257.478 109.619 258.268 110.431C259.058 111.243 260.017 111.872 261.077 112.273C262.136 112.675 263.271 112.84 264.402 112.756C265.532 112.672 266.63 112.341 267.619 111.787L334.861 133.337L357.116 115.893L270.382 100.719C269.341 99.1215 267.749 97.9609 265.908 97.4574C264.068 96.9539 262.106 97.1425 260.396 97.9874C258.685 98.8323 257.344 100.275 256.626 102.042C255.909 103.808 255.865 105.777 256.503 107.574Z" fill="#EDB18B"/>
<path d="M381.05 136.373C381.05 136.373 380.44 134.88 372.394 138.128C362.407 142.16 309.238 139.464 306.291 124.98C305.35 125.95 304.113 126.58 302.775 126.77C301.437 126.961 300.073 126.701 298.898 126.031L307.21 107.804C311.537 106.422 313.888 105.4 314.168 107.16L327.176 106.396L379.86 115.256L381.316 133.426L381.05 136.373Z" fill="#F2F2F2"/>
<path d="M364.482 118.098L390.645 115.835L415.173 127.038L428.947 317.402L374.895 292.427L351.705 298.837L364.482 118.098Z" fill="#F2F2F2"/>
<path d="M428.85 450.332L418.926 450.331L414.205 412.086L428.852 412.087L428.85 450.332Z" fill="#EDB18B"/>
<path d="M431.381 459.943L399.382 459.942V459.537C399.382 456.237 400.694 453.072 403.03 450.738C405.366 448.405 408.534 447.094 411.837 447.093L417.683 442.663L428.589 447.094L431.382 447.094L431.381 459.943Z" fill="#2F2E41"/>
<path d="M390.393 444.083L380.712 446.267L367.675 410.001L381.962 406.777L390.393 444.083Z" fill="#EDB18B"/>
<path d="M394.98 452.902L363.767 459.943L363.677 459.548C362.95 456.329 363.532 452.953 365.296 450.163C367.06 447.372 369.861 445.396 373.083 444.669L373.084 444.669L377.808 439.061L389.423 440.983L392.148 440.368L394.98 452.902Z" fill="#2F2E41"/>
<path d="M441.42 216.522C446.073 230.543 445.581 245.762 440.301 262.096L438.044 354.062C441.775 358.165 442.346 394.872 436.599 406.85C428.924 422.845 435.982 424.983 430.557 435.594H414.821L407.548 387.521L407.03 348.555C404.94 343.611 406.656 326.212 406.656 326.212L406.052 290.133L377.679 353.334C390.533 364.327 389.376 399.836 389.588 415.586L393.803 434.171L374.436 435.901L365.889 410.697L356.28 395.166C351.383 367.647 349.932 347.444 354.106 339.191L382.588 233.317L441.42 216.522Z" fill="#2F2E41"/>
<path d="M443.436 211.843L440.842 206.66C437.666 187.004 434.529 168.671 438.791 152.18C439.059 137.785 434.606 124.26 422.24 116.875L416.662 113.542L413.838 106.386L387.837 107.02L387.76 116.401L378.448 131.24V131.301L379.03 212.049L381.601 220.383L377.721 230.077L379.78 236.262L431.04 228.074L437.001 227.118C437.689 226.898 438.353 226.608 438.982 226.254C441.121 225.067 442.798 223.196 443.742 220.941C443.795 220.811 443.841 220.688 443.887 220.558C444.289 219.506 444.522 218.396 444.576 217.271C444.669 215.394 444.276 213.524 443.436 211.843Z" fill="#3F3D56"/>
<path opacity="0.2" d="M444.576 217.271C444.522 218.396 444.289 219.506 443.887 220.558L438.982 226.254C438.353 226.609 437.689 226.898 437 227.118L431.04 228.074L439.663 211.874L420.709 170.414L444.576 217.271Z" fill="black"/>
<path d="M41.8573 384.777C35.8347 384.838 29.8168 384.422 23.8601 383.532C18.3138 382.595 15.5015 381.264 15.5015 379.575L15.5035 379.545L25.8502 300.838L20.6392 285.913C20.4204 285.286 20.3559 284.616 20.4509 283.959C20.546 283.303 20.7979 282.678 21.1854 282.139C21.5729 281.6 22.0846 281.162 22.6772 280.862C23.2698 280.562 23.926 280.409 24.5902 280.416L58.8589 280.773C59.511 280.78 60.1522 280.94 60.7304 281.242C61.3085 281.543 61.8072 281.977 62.1857 282.508C62.5643 283.038 62.812 283.65 62.9086 284.295C63.0053 284.939 62.9481 285.597 62.7419 286.215L57.8641 300.836L68.211 379.545C68.2131 383.682 51.6463 384.777 41.8573 384.777Z" fill="#F2F2F2"/>
<path d="M39.0649 373.698H22.3257V374.638H39.0649V373.698Z" fill="#CCCCCC"/>
<path d="M39.0649 368.055H22.3257V368.995H39.0649V368.055Z" fill="#CCCCCC"/>
<path d="M39.0649 362.412H22.3257V363.353H39.0649V362.412Z" fill="#CCCCCC"/>
<path d="M39.0649 356.77H22.3257V357.71H39.0649V356.77Z" fill="#CCCCCC"/>
<path d="M39.0649 351.127H22.3257V352.067H39.0649V351.127Z" fill="#CCCCCC"/>
<path d="M192.462 384.777C186.439 384.838 180.421 384.422 174.465 383.532C168.918 382.595 166.106 381.264 166.106 379.575L166.108 379.545L176.455 300.838L171.244 285.913C171.025 285.286 170.96 284.616 171.055 283.959C171.15 283.303 171.402 282.678 171.79 282.139C172.177 281.6 172.689 281.162 173.282 280.862C173.874 280.562 174.53 280.409 175.195 280.416L209.463 280.773C210.115 280.78 210.757 280.94 211.335 281.242C211.913 281.543 212.412 281.977 212.79 282.508C213.169 283.038 213.416 283.65 213.513 284.295C213.61 284.939 213.553 285.597 213.346 286.215L208.469 300.836L218.815 379.545C218.818 383.682 202.251 384.777 192.462 384.777Z" fill="#F2F2F2"/>
<path d="M189.669 373.698H172.93V374.638H189.669V373.698Z" fill="#CCCCCC"/>
<path d="M189.669 368.055H172.93V368.995H189.669V368.055Z" fill="#CCCCCC"/>
<path d="M189.669 362.412H172.93V363.353H189.669V362.412Z" fill="#CCCCCC"/>
<path d="M189.669 356.77H172.93V357.71H189.669V356.77Z" fill="#CCCCCC"/>
<path d="M189.669 351.127H172.93V352.067H189.669V351.127Z" fill="#CCCCCC"/>
<path d="M121.866 384.777C115.844 384.838 109.826 384.422 103.869 383.532C98.3226 382.595 95.5103 381.264 95.5103 379.575L95.5123 379.545L105.859 300.838L100.648 285.913C100.429 285.286 100.365 284.616 100.46 283.959C100.555 283.303 100.807 282.678 101.194 282.139C101.582 281.6 102.093 281.162 102.686 280.862C103.279 280.562 103.935 280.409 104.599 280.416L138.868 280.773C139.52 280.78 140.161 280.94 140.739 281.242C141.317 281.543 141.816 281.977 142.195 282.508C142.573 283.038 142.821 283.65 142.917 284.295C143.014 284.939 142.957 285.597 142.751 286.215L137.873 300.836L148.22 379.545C148.222 383.682 131.655 384.777 121.866 384.777Z" fill="#F2F2F2"/>
<path d="M119.074 373.698H102.334V374.638H119.074V373.698Z" fill="#CCCCCC"/>
<path d="M119.074 368.055H102.334V368.995H119.074V368.055Z" fill="#CCCCCC"/>
<path d="M119.074 362.412H102.334V363.353H119.074V362.412Z" fill="#CCCCCC"/>
<path d="M119.074 356.77H102.334V357.71H119.074V356.77Z" fill="#CCCCCC"/>
<path d="M119.074 351.127H102.334V352.067H119.074V351.127Z" fill="#CCCCCC"/>
<path d="M233.172 390.626H201.169V337.02H233.172C234.92 337.02 236.596 336.327 237.831 335.092C239.067 333.858 239.761 332.183 239.761 330.437C239.761 328.691 239.067 327.017 237.831 325.782C236.596 324.548 234.92 323.854 233.172 323.854H10.0889C8.34145 323.854 6.66553 324.548 5.42986 325.782C4.19419 327.017 3.5 328.691 3.5 330.437C3.5 332.183 4.19419 333.858 5.42986 335.092C6.66553 336.327 8.34145 337.02 10.0889 337.02H37.386V390.626H10.0889C8.34145 390.626 6.66553 391.319 5.42986 392.554C4.1942 393.788 3.5 395.463 3.5 397.209C3.5 398.955 4.1942 400.629 5.42986 401.864C6.66553 403.098 8.34145 403.792 10.0889 403.792H233.172C234.038 403.793 234.896 403.623 235.696 403.293C236.496 402.962 237.223 402.478 237.836 401.866C238.448 401.255 238.934 400.529 239.266 399.73C239.597 398.931 239.768 398.074 239.768 397.209C239.768 396.344 239.597 395.487 239.266 394.688C238.934 393.889 238.448 393.163 237.836 392.551C237.223 391.94 236.496 391.455 235.696 391.125C234.896 390.794 234.038 390.625 233.172 390.626ZM50.564 390.626V337.02H187.991V390.626H50.564Z" fill="#CCCCCC"/>
<path d="M227.989 460.032C211.62 460.032 196.353 458.974 185.002 457.056C170.999 454.689 164.192 451.25 164.192 446.542L164.2 446.394L188.778 259.41L176.473 224.167C175.882 222.509 175.705 220.732 175.957 218.99C176.209 217.248 176.883 215.594 177.919 214.171C178.931 212.726 180.286 211.553 181.861 210.757C183.437 209.961 185.185 209.566 186.95 209.608L268.433 210.456C270.161 210.474 271.859 210.9 273.39 211.698C274.922 212.496 276.242 213.645 277.245 215.05C278.248 216.455 278.904 218.077 279.16 219.784C279.416 221.491 279.264 223.234 278.718 224.871L267.199 259.397L291.782 446.397V446.469C291.785 451.545 284.078 455.149 268.221 457.487C252.644 459.784 234.897 460.032 227.989 460.032Z" fill="white"/>
<path d="M227.989 460.032C211.62 460.032 196.353 458.974 185.002 457.056C170.999 454.689 164.192 451.25 164.192 446.542L164.2 446.394L188.778 259.41L176.473 224.167C175.882 222.509 175.705 220.732 175.957 218.99C176.209 217.248 176.883 215.594 177.919 214.171C178.931 212.726 180.286 211.553 181.861 210.757C183.437 209.961 185.185 209.566 186.95 209.608L268.433 210.456C270.161 210.474 271.859 210.9 273.39 211.698C274.922 212.496 276.242 213.645 277.245 215.05C278.248 216.455 278.904 218.077 279.16 219.784C279.416 221.491 279.264 223.234 278.718 224.871L267.199 259.397L291.782 446.397V446.469C291.785 451.545 284.078 455.149 268.221 457.487C252.644 459.784 234.897 460.032 227.989 460.032ZM186.725 211.843C185.353 211.841 184.002 212.171 182.785 212.803C181.569 213.436 180.523 214.353 179.737 215.476C178.913 216.608 178.377 217.925 178.176 219.311C177.976 220.697 178.116 222.111 178.586 223.43L191.067 259.174L191.032 259.438L166.426 446.616C166.43 448.449 168.892 452.065 185.376 454.85C196.608 456.749 211.741 457.795 227.989 457.795C242.271 457.795 257.189 456.853 267.895 455.275C281.57 453.259 289.448 450.076 289.542 446.537L264.913 259.179L276.594 224.164C277.029 222.861 277.149 221.474 276.946 220.116C276.742 218.758 276.22 217.467 275.422 216.349C274.624 215.231 273.573 214.317 272.355 213.681C271.136 213.046 269.785 212.707 268.41 212.693L186.914 211.845C186.851 211.843 186.787 211.843 186.725 211.843Z" fill="#3F3D56"/>
<path opacity="0.5" d="M274.439 423.664H181.541L196.267 324.172L196.668 321.43L202.803 280.011C203.178 277.484 206.089 279.446 208.147 277.932C220.928 268.529 233.861 268.256 246.907 277.319C248.923 278.72 251.709 277.08 252.085 279.505L258.53 321.05L259.153 325.069L274.439 423.664Z" fill="#F3901B"/>
<path d="M262.973 437.596H192.907C191.07 437.596 189.255 437.201 187.585 436.437C185.915 435.673 184.429 434.558 183.229 433.169C182.029 431.779 181.142 430.148 180.63 428.385C180.118 426.623 179.992 424.771 180.261 422.955L200.732 284.648C200.838 283.941 201.129 283.274 201.575 282.715C202.022 282.156 202.608 281.725 203.275 281.465C203.941 281.206 204.665 281.127 205.372 281.236C206.079 281.346 206.745 281.64 207.302 282.089C219.778 292.075 233.376 291.85 247.716 281.424C248.273 281.018 248.924 280.762 249.609 280.683C250.293 280.603 250.986 280.702 251.621 280.97C252.269 281.235 252.837 281.664 253.269 282.214C253.702 282.765 253.984 283.417 254.089 284.109L275.607 422.869C275.889 424.69 275.773 426.55 275.268 428.322C274.763 430.094 273.88 431.736 272.68 433.135C271.48 434.534 269.991 435.658 268.315 436.428C266.64 437.198 264.818 437.596 262.973 437.596Z" fill="#F3901B"/>
<path d="M234.78 421.382H194.972V423.618H234.78V421.382Z" fill="white"/>
<path d="M234.78 407.962H194.972V410.199H234.78V407.962Z" fill="white"/>
<path d="M234.78 394.543H194.972V396.78H234.78V394.543Z" fill="white"/>
<path d="M234.78 381.124H194.972V383.361H234.78V381.124Z" fill="white"/>
<path d="M234.78 367.705H194.972V369.941H234.78V367.705Z" fill="white"/>
<path d="M261.03 332.502C257.942 335.565 254.228 337.925 250.142 339.419C246.056 340.913 241.695 341.506 237.358 341.157C232.411 340.71 227.9 338.865 223.557 336.539C219.069 334.135 214.726 331.261 209.757 329.919C205.403 328.745 200.243 328.588 196.505 331.496C196.199 331.732 195.826 331.865 195.44 331.875C195.053 331.885 194.673 331.772 194.356 331.551L194.781 328.644C198.945 325.737 204.004 325.289 208.962 326.284C218.946 328.297 226.523 336.55 236.753 337.736C241.166 338.232 245.633 337.625 249.753 335.97C253.874 334.315 257.518 331.663 260.358 328.253L260.37 328.241L261.03 332.502Z" fill="white"/>
<path d="M491.5 460.09C491.5 460.21 491.477 460.328 491.432 460.439C491.386 460.549 491.319 460.65 491.234 460.734C491.15 460.819 491.049 460.886 490.938 460.931C490.828 460.977 490.709 461 490.589 461H4.47064C4.22914 461 3.99753 460.904 3.82676 460.733C3.65599 460.563 3.56006 460.331 3.56006 460.09C3.56006 459.849 3.65599 459.617 3.82676 459.447C3.99753 459.276 4.22914 459.18 4.47064 459.18H490.589C490.709 459.18 490.828 459.203 490.938 459.249C491.049 459.295 491.15 459.362 491.234 459.446C491.319 459.531 491.386 459.631 491.432 459.742C491.477 459.852 491.5 459.971 491.5 460.09Z" fill="#CCCCCC"/>
<path d="M390.498 115.805L416.662 113.542L441.19 124.744L454.964 315.108L400.912 290.133L377.721 296.544L390.498 115.805Z" fill="#F2F2F2"/>
<path d="M261.369 115.57C263.905 115.57 265.961 113.516 265.961 110.983C265.961 108.45 263.905 106.396 261.369 106.396C258.834 106.396 256.778 108.45 256.778 110.983C256.778 113.516 258.834 115.57 261.369 115.57Z" fill="#F3901B"/>
<path d="M253.718 171.38C256.253 171.38 258.309 169.326 258.309 166.793C258.309 164.259 256.253 162.205 253.718 162.205C251.182 162.205 249.126 164.259 249.126 166.793C249.126 169.326 251.182 171.38 253.718 171.38Z" fill="#F3901B"/>
<path d="M229.232 204.254C231.767 204.254 233.823 202.2 233.823 199.667C233.823 197.133 231.767 195.08 229.232 195.08C226.696 195.08 224.641 197.133 224.641 199.667C224.641 202.2 226.696 204.254 229.232 204.254Z" fill="#F3901B"/>
<path d="M343.847 239.794V190.552C343.848 189.555 344.245 188.6 344.95 187.895C345.655 187.19 346.612 186.794 347.609 186.793H384.831C385.828 186.794 386.785 187.19 387.49 187.895C388.195 188.6 388.592 189.555 388.593 190.552V239.794C388.592 240.791 388.195 241.746 387.49 242.451C386.785 243.156 385.828 243.552 384.831 243.553H347.609C346.612 243.552 345.655 243.156 344.95 242.451C344.245 241.746 343.848 240.791 343.847 239.794Z" fill="#E6E6E6"/>
<path d="M346.702 224.921V193.264C346.703 192.33 347.074 191.435 347.735 190.775C348.395 190.115 349.291 189.744 350.225 189.743H382.214C383.148 189.744 384.044 190.115 384.705 190.775C385.365 191.435 385.737 192.33 385.738 193.264V237.082C385.737 238.016 385.365 238.911 384.705 239.571C384.044 240.231 383.148 240.602 382.214 240.603H362.398C358.236 240.598 354.247 238.945 351.304 236.005C348.362 233.065 346.706 229.079 346.702 224.921Z" fill="white"/>
<path d="M351.881 202.097C351.882 201.185 352.245 200.31 352.89 199.665C353.536 199.02 354.411 198.657 355.324 198.656H377.515C378.428 198.656 379.304 199.019 379.95 199.664C380.595 200.309 380.958 201.184 380.958 202.097C380.958 203.009 380.595 203.884 379.95 204.529C379.304 205.174 378.428 205.537 377.515 205.537H355.324C354.411 205.536 353.536 205.173 352.89 204.528C352.245 203.883 351.882 203.009 351.881 202.097Z" fill="#E6E6E6"/>
<path d="M351.881 212.8C351.882 211.888 352.245 211.013 352.89 210.368C353.536 209.723 354.411 209.36 355.324 209.359H377.515C378.428 209.359 379.304 209.722 379.95 210.367C380.595 211.012 380.958 211.887 380.958 212.8C380.958 213.712 380.595 214.587 379.95 215.232C379.304 215.878 378.428 216.24 377.515 216.24H355.324C354.411 216.239 353.536 215.876 352.89 215.231C352.245 214.586 351.882 213.712 351.881 212.8Z" fill="#E6E6E6"/>
<path d="M351.881 223.503C351.882 222.591 352.245 221.716 352.89 221.071C353.536 220.426 354.411 220.064 355.324 220.063H377.515C378.428 220.063 379.304 220.425 379.95 221.07C380.595 221.716 380.958 222.591 380.958 223.503C380.958 224.415 380.595 225.29 379.95 225.936C379.304 226.581 378.428 226.943 377.515 226.943H355.324C354.411 226.942 353.536 226.58 352.89 225.935C352.245 225.29 351.882 224.415 351.881 223.503Z" fill="#E6E6E6"/>
<path d="M374.169 248.289C375.216 247.857 376.156 247.2 376.922 246.365C377.688 245.531 378.262 244.538 378.602 243.458C378.943 242.378 379.042 241.236 378.894 240.114C378.745 238.991 378.352 237.915 377.741 236.96L404.73 212.465L414.197 175.874L397.395 174.477L392.258 203.191L366.523 234.839C364.986 235.97 363.918 237.624 363.521 239.489C363.123 241.354 363.424 243.299 364.367 244.957C365.309 246.615 366.827 247.87 368.634 248.484C370.441 249.098 372.41 249.029 374.169 248.289Z" fill="#EDB18B"/>
<path d="M416.786 142.829C416.786 142.829 420.882 142.889 419.037 151.361C417.56 158.144 411.958 196.312 407.486 204.851C408.509 205.734 409.21 206.931 409.477 208.256C409.744 209.58 409.562 210.955 408.961 212.165L390.271 204.92C388.642 200.684 391.373 199.367 393.116 198.987L392.774 185.699L395.454 151.828L413.827 142.732L416.786 142.829Z" fill="#F2F2F2"/>
<path d="M422.291 80.125C421.42 86.4781 418.059 92.2255 412.948 96.1044C407.837 99.9833 401.394 101.676 395.035 100.812C388.675 99.9468 382.919 96.5949 379.032 91.4924C375.144 86.3899 373.443 79.9543 374.303 73.5994L374.349 73.256C375.353 66.9865 378.783 61.3623 383.899 57.5967C389.015 53.831 395.408 52.2256 401.699 53.1269C407.989 54.0282 413.673 57.3638 417.524 62.4143C421.375 67.4648 423.085 73.8254 422.284 80.1239L422.291 80.125Z" fill="#EDB18B"/>
<path d="M416.128 92.5868C417.372 90.0629 418.649 87.3532 418.3 84.5619C417.95 81.7705 415.211 79.1025 412.52 79.9321C410.911 80.4281 409.695 82.0154 408.014 82.0966C405.7 82.2083 404.373 79.5625 403.653 77.3626L400.72 68.4032C397.903 70.5965 394.636 72.1415 391.153 72.928C387.669 73.7144 384.055 73.7229 380.568 72.9528C377.845 72.3307 375.093 71.1177 373.496 68.8278C371.898 66.538 371.908 62.986 374.099 61.2544C375.173 60.4054 376.603 60.0828 377.63 59.1768C378.267 58.6148 378.706 57.8628 378.882 57.0322C379.058 56.2016 378.962 55.3364 378.607 54.5648C378.253 53.7931 377.659 53.1559 376.914 52.7475C376.169 52.3391 375.312 52.1812 374.471 52.2972L381.856 51.3749L379.656 47.3984C381.241 48.6473 383.448 48.8152 385.435 48.4577C387.422 48.1003 389.294 47.2828 391.238 46.7377C400.57 44.1207 411.416 48.6709 416.08 57.1601C417.898 56.5538 419.857 56.5135 421.698 57.0446C423.539 57.5757 425.174 58.6531 426.389 60.1341C428.366 62.6413 428.904 65.9871 428.98 69.1781C429.124 75.47 427.751 81.704 424.977 87.3543C424.181 89.149 423.038 90.7689 421.614 92.1207C420.897 92.7909 420.041 93.2963 419.108 93.6012C418.174 93.9062 417.186 94.0034 416.211 93.8861" fill="#2F2E41"/>
</g>
<rect width="493" height="666" transform="matrix(1 0 0 -1 0.5 666)" fill="url(#paint1_diamond_620_1505)"/>
<path d="M48.284 511L55.772 494.2H59.612L67.124 511H63.044L56.9 496.168H58.436L52.268 511H48.284ZM52.028 507.4L53.06 504.448H61.7L62.756 507.4H52.028ZM68.603 511V493.192H72.347V511H68.603ZM82.0618 511.192C80.6698 511.192 79.4298 510.912 78.3418 510.352C77.2538 509.776 76.3978 508.984 75.7738 507.976C75.1658 506.968 74.8618 505.824 74.8618 504.544C74.8618 503.248 75.1658 502.104 75.7738 501.112C76.3978 500.104 77.2538 499.32 78.3418 498.76C79.4298 498.184 80.6698 497.896 82.0618 497.896C83.4218 497.896 84.6058 498.184 85.6138 498.76C86.6218 499.32 87.3658 500.128 87.8458 501.184L84.9418 502.744C84.6058 502.136 84.1818 501.688 83.6698 501.4C83.1738 501.112 82.6298 500.968 82.0378 500.968C81.3978 500.968 80.8218 501.112 80.3098 501.4C79.7978 501.688 79.3898 502.096 79.0858 502.624C78.7978 503.152 78.6538 503.792 78.6538 504.544C78.6538 505.296 78.7978 505.936 79.0858 506.464C79.3898 506.992 79.7978 507.4 80.3098 507.688C80.8218 507.976 81.3978 508.12 82.0378 508.12C82.6298 508.12 83.1738 507.984 83.6698 507.712C84.1818 507.424 84.6058 506.968 84.9418 506.344L87.8458 507.928C87.3658 508.968 86.6218 509.776 85.6138 510.352C84.6058 510.912 83.4218 511.192 82.0618 511.192ZM97.7791 497.896C98.8031 497.896 99.7151 498.104 100.515 498.52C101.331 498.92 101.971 499.544 102.435 500.392C102.899 501.224 103.131 502.296 103.131 503.608V511H99.3871V504.184C99.3871 503.144 99.1551 502.376 98.6911 501.88C98.2431 501.384 97.6031 501.136 96.7711 501.136C96.1791 501.136 95.6431 501.264 95.1631 501.52C94.6991 501.76 94.3311 502.136 94.0591 502.648C93.8031 503.16 93.6751 503.816 93.6751 504.616V511H89.9311V493.192H93.6751V501.664L92.8351 500.584C93.2991 499.72 93.9631 499.056 94.8271 498.592C95.6911 498.128 96.6751 497.896 97.7791 497.896ZM113.027 511.192C111.555 511.192 110.259 510.904 109.139 510.328C108.035 509.752 107.179 508.968 106.571 507.976C105.963 506.968 105.659 505.824 105.659 504.544C105.659 503.248 105.955 502.104 106.547 501.112C107.155 500.104 107.979 499.32 109.019 498.76C110.059 498.184 111.235 497.896 112.547 497.896C113.811 497.896 114.947 498.168 115.955 498.712C116.979 499.24 117.787 500.008 118.379 501.016C118.971 502.008 119.267 503.2 119.267 504.592C119.267 504.736 119.259 504.904 119.243 505.096C119.227 505.272 119.211 505.44 119.195 505.6H108.707V503.416H117.227L115.787 504.064C115.787 503.392 115.651 502.808 115.379 502.312C115.107 501.816 114.731 501.432 114.251 501.16C113.771 500.872 113.211 500.728 112.571 500.728C111.931 500.728 111.363 500.872 110.867 501.16C110.387 501.432 110.011 501.824 109.739 502.336C109.467 502.832 109.331 503.424 109.331 504.112V504.688C109.331 505.392 109.483 506.016 109.787 506.56C110.107 507.088 110.547 507.496 111.107 507.784C111.683 508.056 112.355 508.192 113.123 508.192C113.811 508.192 114.411 508.088 114.923 507.88C115.451 507.672 115.931 507.36 116.363 506.944L118.355 509.104C117.763 509.776 117.019 510.296 116.123 510.664C115.227 511.016 114.195 511.192 113.027 511.192ZM138.295 497.896C139.319 497.896 140.223 498.104 141.007 498.52C141.807 498.92 142.431 499.544 142.879 500.392C143.343 501.224 143.575 502.296 143.575 503.608V511H139.831V504.184C139.831 503.144 139.615 502.376 139.183 501.88C138.751 501.384 138.143 501.136 137.359 501.136C136.815 501.136 136.327 501.264 135.895 501.52C135.463 501.76 135.127 502.128 134.887 502.624C134.647 503.12 134.527 503.752 134.527 504.52V511H130.783V504.184C130.783 503.144 130.567 502.376 130.135 501.88C129.719 501.384 129.119 501.136 128.335 501.136C127.791 501.136 127.303 501.264 126.871 501.52C126.439 501.76 126.103 502.128 125.863 502.624C125.623 503.12 125.503 503.752 125.503 504.52V511H121.759V498.088H125.335V501.616L124.663 500.584C125.111 499.704 125.743 499.04 126.559 498.592C127.391 498.128 128.335 497.896 129.391 497.896C130.575 497.896 131.607 498.2 132.487 498.808C133.383 499.4 133.975 500.312 134.263 501.544L132.943 501.184C133.375 500.176 134.063 499.376 135.007 498.784C135.967 498.192 137.063 497.896 138.295 497.896ZM146.931 511V498.088H150.675V511H146.931ZM148.803 496.288C148.115 496.288 147.555 496.088 147.123 495.688C146.691 495.288 146.475 494.792 146.475 494.2C146.475 493.608 146.691 493.112 147.123 492.712C147.555 492.312 148.115 492.112 148.803 492.112C149.491 492.112 150.051 492.304 150.483 492.688C150.915 493.056 151.131 493.536 151.131 494.128C151.131 494.752 150.915 495.272 150.483 495.688C150.067 496.088 149.507 496.288 148.803 496.288ZM158.494 511.192C157.39 511.192 156.326 511.064 155.302 510.808C154.294 510.536 153.494 510.2 152.902 509.8L154.15 507.112C154.742 507.48 155.438 507.784 156.238 508.024C157.054 508.248 157.854 508.36 158.638 508.36C159.502 508.36 160.11 508.256 160.462 508.048C160.83 507.84 161.014 507.552 161.014 507.184C161.014 506.88 160.87 506.656 160.582 506.512C160.31 506.352 159.942 506.232 159.478 506.152C159.014 506.072 158.502 505.992 157.942 505.912C157.398 505.832 156.846 505.728 156.286 505.6C155.726 505.456 155.214 505.248 154.75 504.976C154.286 504.704 153.91 504.336 153.622 503.872C153.35 503.408 153.214 502.808 153.214 502.072C153.214 501.256 153.446 500.536 153.91 499.912C154.39 499.288 155.078 498.8 155.974 498.448C156.87 498.08 157.942 497.896 159.19 497.896C160.07 497.896 160.966 497.992 161.878 498.184C162.79 498.376 163.55 498.656 164.158 499.024L162.91 501.688C162.286 501.32 161.654 501.072 161.014 500.944C160.39 500.8 159.782 500.728 159.19 500.728C158.358 500.728 157.75 500.84 157.366 501.064C156.982 501.288 156.79 501.576 156.79 501.928C156.79 502.248 156.926 502.488 157.198 502.648C157.486 502.808 157.862 502.936 158.326 503.032C158.79 503.128 159.294 503.216 159.838 503.296C160.398 503.36 160.958 503.464 161.518 503.608C162.078 503.752 162.582 503.96 163.03 504.232C163.494 504.488 163.87 504.848 164.158 505.312C164.446 505.76 164.59 506.352 164.59 507.088C164.59 507.888 164.35 508.6 163.87 509.224C163.39 509.832 162.694 510.312 161.782 510.664C160.886 511.016 159.79 511.192 158.494 511.192ZM172.18 511.192C170.66 511.192 169.476 510.808 168.628 510.04C167.78 509.256 167.356 508.096 167.356 506.56V495.232H171.1V506.512C171.1 507.056 171.244 507.48 171.532 507.784C171.82 508.072 172.212 508.216 172.708 508.216C173.3 508.216 173.804 508.056 174.22 507.736L175.228 510.376C174.844 510.648 174.38 510.856 173.836 511C173.308 511.128 172.756 511.192 172.18 511.192ZM165.364 501.256V498.376H174.316V501.256H165.364ZM184.126 511V498.088H187.87V511H184.126ZM185.998 496.288C185.31 496.288 184.75 496.088 184.318 495.688C183.886 495.288 183.67 494.792 183.67 494.2C183.67 493.608 183.886 493.112 184.318 492.712C184.75 492.312 185.31 492.112 185.998 492.112C186.686 492.112 187.246 492.304 187.678 492.688C188.11 493.056 188.326 493.536 188.326 494.128C188.326 494.752 188.11 495.272 187.678 495.688C187.262 496.088 186.702 496.288 185.998 496.288ZM195.689 511.192C194.585 511.192 193.521 511.064 192.497 510.808C191.489 510.536 190.689 510.2 190.097 509.8L191.345 507.112C191.937 507.48 192.633 507.784 193.433 508.024C194.249 508.248 195.049 508.36 195.833 508.36C196.697 508.36 197.305 508.256 197.657 508.048C198.025 507.84 198.209 507.552 198.209 507.184C198.209 506.88 198.065 506.656 197.777 506.512C197.505 506.352 197.137 506.232 196.673 506.152C196.209 506.072 195.697 505.992 195.137 505.912C194.593 505.832 194.041 505.728 193.481 505.6C192.921 505.456 192.409 505.248 191.945 504.976C191.481 504.704 191.105 504.336 190.817 503.872C190.545 503.408 190.409 502.808 190.409 502.072C190.409 501.256 190.641 500.536 191.105 499.912C191.585 499.288 192.273 498.8 193.169 498.448C194.065 498.08 195.137 497.896 196.385 497.896C197.265 497.896 198.161 497.992 199.073 498.184C199.985 498.376 200.745 498.656 201.353 499.024L200.105 501.688C199.481 501.32 198.849 501.072 198.209 500.944C197.585 500.8 196.977 500.728 196.385 500.728C195.553 500.728 194.945 500.84 194.561 501.064C194.177 501.288 193.985 501.576 193.985 501.928C193.985 502.248 194.121 502.488 194.393 502.648C194.681 502.808 195.057 502.936 195.521 503.032C195.985 503.128 196.489 503.216 197.033 503.296C197.593 503.36 198.153 503.464 198.713 503.608C199.273 503.752 199.777 503.96 200.225 504.232C200.689 504.488 201.065 504.848 201.353 505.312C201.641 505.76 201.785 506.352 201.785 507.088C201.785 507.888 201.545 508.6 201.065 509.224C200.585 509.832 199.889 510.312 198.977 510.664C198.081 511.016 196.985 511.192 195.689 511.192ZM213.844 511L209.188 498.088H212.716L216.58 509.2H214.9L218.932 498.088H222.1L226.012 509.2H224.332L228.316 498.088H231.628L226.948 511H223.324L219.892 501.472H220.996L217.444 511H213.844ZM239.161 511.192C237.785 511.192 236.561 510.904 235.489 510.328C234.433 509.752 233.593 508.968 232.969 507.976C232.361 506.968 232.057 505.824 232.057 504.544C232.057 503.248 232.361 502.104 232.969 501.112C233.593 500.104 234.433 499.32 235.489 498.76C236.561 498.184 237.785 497.896 239.161 497.896C240.521 497.896 241.737 498.184 242.809 498.76C243.881 499.32 244.721 500.096 245.329 501.088C245.937 502.08 246.241 503.232 246.241 504.544C246.241 505.824 245.937 506.968 245.329 507.976C244.721 508.968 243.881 509.752 242.809 510.328C241.737 510.904 240.521 511.192 239.161 511.192ZM239.161 508.12C239.785 508.12 240.345 507.976 240.841 507.688C241.337 507.4 241.729 506.992 242.017 506.464C242.305 505.92 242.449 505.28 242.449 504.544C242.449 503.792 242.305 503.152 242.017 502.624C241.729 502.096 241.337 501.688 240.841 501.4C240.345 501.112 239.785 500.968 239.161 500.968C238.537 500.968 237.977 501.112 237.481 501.4C236.985 501.688 236.585 502.096 236.281 502.624C235.993 503.152 235.849 503.792 235.849 504.544C235.849 505.28 235.993 505.92 236.281 506.464C236.585 506.992 236.985 507.4 237.481 507.688C237.977 507.976 238.537 508.12 239.161 508.12ZM248.744 511V498.088H252.32V501.736L251.816 500.68C252.2 499.768 252.816 499.08 253.664 498.616C254.512 498.136 255.544 497.896 256.76 497.896V501.352C256.6 501.336 256.456 501.328 256.328 501.328C256.2 501.312 256.064 501.304 255.92 501.304C254.896 501.304 254.064 501.6 253.424 502.192C252.8 502.768 252.488 503.672 252.488 504.904V511H248.744ZM262.105 508.36L262.201 503.8L268.225 498.088H272.689L266.905 503.968L264.961 505.552L262.105 508.36ZM259.009 511V493.192H262.753V511H259.009ZM268.633 511L264.265 505.576L266.617 502.672L273.169 511H268.633ZM274.853 511V498.088H278.597V511H274.853ZM276.725 496.288C276.037 496.288 275.477 496.088 275.045 495.688C274.613 495.288 274.397 494.792 274.397 494.2C274.397 493.608 274.613 493.112 275.045 492.712C275.477 492.312 276.037 492.112 276.725 492.112C277.413 492.112 277.973 492.304 278.405 492.688C278.837 493.056 279.053 493.536 279.053 494.128C279.053 494.752 278.837 495.272 278.405 495.688C277.989 496.088 277.429 496.288 276.725 496.288ZM289.92 497.896C290.944 497.896 291.856 498.104 292.656 498.52C293.472 498.92 294.112 499.544 294.576 500.392C295.04 501.224 295.272 502.296 295.272 503.608V511H291.528V504.184C291.528 503.144 291.296 502.376 290.832 501.88C290.384 501.384 289.744 501.136 288.912 501.136C288.32 501.136 287.784 501.264 287.304 501.52C286.84 501.76 286.472 502.136 286.2 502.648C285.944 503.16 285.816 503.816 285.816 504.616V511H282.072V498.088H285.648V501.664L284.976 500.584C285.44 499.72 286.104 499.056 286.968 498.592C287.832 498.128 288.816 497.896 289.92 497.896ZM304.831 515.848C303.615 515.848 302.439 515.696 301.303 515.392C300.183 515.104 299.247 514.664 298.495 514.072L299.983 511.384C300.527 511.832 301.215 512.184 302.047 512.44C302.895 512.712 303.727 512.848 304.543 512.848C305.871 512.848 306.831 512.552 307.423 511.96C308.031 511.368 308.335 510.488 308.335 509.32V507.376L308.575 504.136L308.527 500.872V498.088H312.079V508.84C312.079 511.24 311.455 513.008 310.207 514.144C308.959 515.28 307.167 515.848 304.831 515.848ZM304.255 510.376C303.055 510.376 301.967 510.12 300.991 509.608C300.031 509.08 299.255 508.352 298.663 507.424C298.087 506.48 297.799 505.384 297.799 504.136C297.799 502.872 298.087 501.776 298.663 500.848C299.255 499.904 300.031 499.176 300.991 498.664C301.967 498.152 303.055 497.896 304.255 497.896C305.343 497.896 306.303 498.12 307.135 498.568C307.967 499 308.615 499.68 309.079 500.608C309.543 501.52 309.775 502.696 309.775 504.136C309.775 505.56 309.543 506.736 309.079 507.664C308.615 508.576 307.967 509.256 307.135 509.704C306.303 510.152 305.343 510.376 304.255 510.376ZM304.999 507.304C305.655 507.304 306.239 507.176 306.751 506.92C307.263 506.648 307.663 506.272 307.951 505.792C308.239 505.312 308.383 504.76 308.383 504.136C308.383 503.496 308.239 502.944 307.951 502.48C307.663 502 307.263 501.632 306.751 501.376C306.239 501.104 305.655 500.968 304.999 500.968C304.343 500.968 303.759 501.104 303.247 501.376C302.735 501.632 302.327 502 302.023 502.48C301.735 502.944 301.591 503.496 301.591 504.136C301.591 504.76 301.735 505.312 302.023 505.792C302.327 506.272 302.735 506.648 303.247 506.92C303.759 507.176 304.343 507.304 304.999 507.304ZM330.209 497.896C331.233 497.896 332.145 498.104 332.945 498.52C333.761 498.92 334.401 499.544 334.865 500.392C335.329 501.224 335.561 502.296 335.561 503.608V511H331.817V504.184C331.817 503.144 331.585 502.376 331.121 501.88C330.673 501.384 330.033 501.136 329.201 501.136C328.609 501.136 328.073 501.264 327.593 501.52C327.129 501.76 326.761 502.136 326.489 502.648C326.233 503.16 326.105 503.816 326.105 504.616V511H322.361V493.192H326.105V501.664L325.265 500.584C325.729 499.72 326.393 499.056 327.257 498.592C328.121 498.128 329.105 497.896 330.209 497.896ZM346.875 511V508.48L346.635 507.928V503.416C346.635 502.616 346.387 501.992 345.891 501.544C345.411 501.096 344.667 500.872 343.659 500.872C342.971 500.872 342.291 500.984 341.619 501.208C340.963 501.416 340.403 501.704 339.939 502.072L338.595 499.456C339.299 498.96 340.147 498.576 341.139 498.304C342.131 498.032 343.139 497.896 344.163 497.896C346.131 497.896 347.659 498.36 348.747 499.288C349.835 500.216 350.379 501.664 350.379 503.632V511H346.875ZM342.939 511.192C341.931 511.192 341.067 511.024 340.347 510.688C339.627 510.336 339.075 509.864 338.691 509.272C338.307 508.68 338.115 508.016 338.115 507.28C338.115 506.512 338.299 505.84 338.667 505.264C339.051 504.688 339.651 504.24 340.467 503.92C341.283 503.584 342.347 503.416 343.659 503.416H347.091V505.6H344.067C343.187 505.6 342.579 505.744 342.243 506.032C341.923 506.32 341.763 506.68 341.763 507.112C341.763 507.592 341.947 507.976 342.315 508.264C342.699 508.536 343.219 508.672 343.875 508.672C344.499 508.672 345.059 508.528 345.555 508.24C346.051 507.936 346.411 507.496 346.635 506.92L347.211 508.648C346.939 509.48 346.443 510.112 345.723 510.544C345.003 510.976 344.075 511.192 342.939 511.192ZM353.767 511V498.088H357.343V501.736L356.839 500.68C357.223 499.768 357.839 499.08 358.687 498.616C359.535 498.136 360.567 497.896 361.783 497.896V501.352C361.623 501.336 361.479 501.328 361.351 501.328C361.223 501.312 361.087 501.304 360.943 501.304C359.919 501.304 359.087 501.6 358.447 502.192C357.823 502.768 357.511 503.672 357.511 504.904V511H353.767ZM369.46 511.192C368.244 511.192 367.148 510.92 366.172 510.376C365.196 509.816 364.42 509.04 363.844 508.048C363.284 507.056 363.004 505.888 363.004 504.544C363.004 503.184 363.284 502.008 363.844 501.016C364.42 500.024 365.196 499.256 366.172 498.712C367.148 498.168 368.244 497.896 369.46 497.896C370.548 497.896 371.5 498.136 372.316 498.616C373.132 499.096 373.764 499.824 374.212 500.8C374.66 501.776 374.884 503.024 374.884 504.544C374.884 506.048 374.668 507.296 374.236 508.288C373.804 509.264 373.18 509.992 372.364 510.472C371.564 510.952 370.596 511.192 369.46 511.192ZM370.108 508.12C370.716 508.12 371.268 507.976 371.764 507.688C372.26 507.4 372.652 506.992 372.94 506.464C373.244 505.92 373.396 505.28 373.396 504.544C373.396 503.792 373.244 503.152 372.94 502.624C372.652 502.096 372.26 501.688 371.764 501.4C371.268 501.112 370.716 500.968 370.108 500.968C369.484 500.968 368.924 501.112 368.428 501.4C367.932 501.688 367.532 502.096 367.228 502.624C366.94 503.152 366.796 503.792 366.796 504.544C366.796 505.28 366.94 505.92 367.228 506.464C367.532 506.992 367.932 507.4 368.428 507.688C368.924 507.976 369.484 508.12 370.108 508.12ZM373.492 511V508.36L373.564 504.52L373.324 500.704V493.192H377.068V511H373.492ZM393.474 511.192C392.098 511.192 390.874 510.904 389.802 510.328C388.746 509.752 387.906 508.968 387.282 507.976C386.674 506.968 386.37 505.824 386.37 504.544C386.37 503.248 386.674 502.104 387.282 501.112C387.906 500.104 388.746 499.32 389.802 498.76C390.874 498.184 392.098 497.896 393.474 497.896C394.834 497.896 396.05 498.184 397.122 498.76C398.194 499.32 399.034 500.096 399.642 501.088C400.25 502.08 400.554 503.232 400.554 504.544C400.554 505.824 400.25 506.968 399.642 507.976C399.034 508.968 398.194 509.752 397.122 510.328C396.05 510.904 394.834 511.192 393.474 511.192ZM393.474 508.12C394.098 508.12 394.658 507.976 395.154 507.688C395.65 507.4 396.042 506.992 396.33 506.464C396.618 505.92 396.762 505.28 396.762 504.544C396.762 503.792 396.618 503.152 396.33 502.624C396.042 502.096 395.65 501.688 395.154 501.4C394.658 501.112 394.098 500.968 393.474 500.968C392.85 500.968 392.29 501.112 391.794 501.4C391.298 501.688 390.898 502.096 390.594 502.624C390.306 503.152 390.162 503.792 390.162 504.544C390.162 505.28 390.306 505.92 390.594 506.464C390.898 506.992 391.298 507.4 391.794 507.688C392.29 507.976 392.85 508.12 393.474 508.12ZM410.904 497.896C411.928 497.896 412.84 498.104 413.64 498.52C414.456 498.92 415.096 499.544 415.56 500.392C416.024 501.224 416.256 502.296 416.256 503.608V511H412.512V504.184C412.512 503.144 412.28 502.376 411.816 501.88C411.368 501.384 410.728 501.136 409.896 501.136C409.304 501.136 408.768 501.264 408.288 501.52C407.824 501.76 407.456 502.136 407.184 502.648C406.928 503.16 406.8 503.816 406.8 504.616V511H403.056V498.088H406.632V501.664L405.96 500.584C406.424 499.72 407.088 499.056 407.952 498.592C408.816 498.128 409.8 497.896 410.904 497.896ZM58.076 526.896C59.1 526.896 60.012 527.104 60.812 527.52C61.628 527.92 62.268 528.544 62.732 529.392C63.196 530.224 63.428 531.296 63.428 532.608V540H59.684V533.184C59.684 532.144 59.452 531.376 58.988 530.88C58.54 530.384 57.9 530.136 57.068 530.136C56.476 530.136 55.94 530.264 55.46 530.52C54.996 530.76 54.628 531.136 54.356 531.648C54.1 532.16 53.972 532.816 53.972 533.616V540H50.228V527.088H53.804V530.664L53.132 529.584C53.596 528.72 54.26 528.056 55.124 527.592C55.988 527.128 56.972 526.896 58.076 526.896ZM73.3235 540.192C71.8515 540.192 70.5555 539.904 69.4355 539.328C68.3315 538.752 67.4755 537.968 66.8675 536.976C66.2595 535.968 65.9555 534.824 65.9555 533.544C65.9555 532.248 66.2515 531.104 66.8435 530.112C67.4515 529.104 68.2755 528.32 69.3155 527.76C70.3555 527.184 71.5315 526.896 72.8435 526.896C74.1075 526.896 75.2435 527.168 76.2515 527.712C77.2755 528.24 78.0835 529.008 78.6755 530.016C79.2675 531.008 79.5635 532.2 79.5635 533.592C79.5635 533.736 79.5555 533.904 79.5395 534.096C79.5235 534.272 79.5075 534.44 79.4915 534.6H69.0035V532.416H77.5235L76.0835 533.064C76.0835 532.392 75.9475 531.808 75.6755 531.312C75.4035 530.816 75.0275 530.432 74.5475 530.16C74.0675 529.872 73.5075 529.728 72.8675 529.728C72.2275 529.728 71.6595 529.872 71.1635 530.16C70.6835 530.432 70.3075 530.824 70.0355 531.336C69.7635 531.832 69.6275 532.424 69.6275 533.112V533.688C69.6275 534.392 69.7795 535.016 70.0835 535.56C70.4035 536.088 70.8435 536.496 71.4035 536.784C71.9795 537.056 72.6515 537.192 73.4195 537.192C74.1075 537.192 74.7075 537.088 75.2195 536.88C75.7475 536.672 76.2275 536.36 76.6595 535.944L78.6515 538.104C78.0595 538.776 77.3155 539.296 76.4195 539.664C75.5235 540.016 74.4915 540.192 73.3235 540.192ZM84.7738 540L80.1178 527.088H83.6458L87.5098 538.2H85.8298L89.8618 527.088H93.0298L96.9418 538.2H95.2618L99.2458 527.088H102.558L97.8778 540H94.2538L90.8218 530.472H91.9258L88.3738 540H84.7738ZM118.727 540.192C117.639 540.192 116.687 539.952 115.871 539.472C115.055 538.992 114.415 538.264 113.951 537.288C113.503 536.296 113.279 535.048 113.279 533.544C113.279 532.024 113.495 530.776 113.927 529.8C114.359 528.824 114.983 528.096 115.799 527.616C116.615 527.136 117.591 526.896 118.727 526.896C119.943 526.896 121.031 527.176 121.991 527.736C122.967 528.28 123.735 529.048 124.295 530.04C124.871 531.032 125.159 532.2 125.159 533.544C125.159 534.904 124.871 536.08 124.295 537.072C123.735 538.064 122.967 538.832 121.991 539.376C121.031 539.92 119.943 540.192 118.727 540.192ZM111.095 544.656V527.088H114.671V529.728L114.599 533.568L114.839 537.384V544.656H111.095ZM118.079 537.12C118.703 537.12 119.255 536.976 119.735 536.688C120.231 536.4 120.623 535.992 120.911 535.464C121.215 534.92 121.367 534.28 121.367 533.544C121.367 532.792 121.215 532.152 120.911 531.624C120.623 531.096 120.231 530.688 119.735 530.4C119.255 530.112 118.703 529.968 118.079 529.968C117.455 529.968 116.895 530.112 116.399 530.4C115.903 530.688 115.511 531.096 115.223 531.624C114.935 532.152 114.791 532.792 114.791 533.544C114.791 534.28 114.935 534.92 115.223 535.464C115.511 535.992 115.903 536.4 116.399 536.688C116.895 536.976 117.455 537.12 118.079 537.12ZM133.81 540.192C132.434 540.192 131.21 539.904 130.138 539.328C129.082 538.752 128.242 537.968 127.618 536.976C127.01 535.968 126.706 534.824 126.706 533.544C126.706 532.248 127.01 531.104 127.618 530.112C128.242 529.104 129.082 528.32 130.138 527.76C131.21 527.184 132.434 526.896 133.81 526.896C135.17 526.896 136.386 527.184 137.458 527.76C138.53 528.32 139.37 529.096 139.978 530.088C140.586 531.08 140.89 532.232 140.89 533.544C140.89 534.824 140.586 535.968 139.978 536.976C139.37 537.968 138.53 538.752 137.458 539.328C136.386 539.904 135.17 540.192 133.81 540.192ZM133.81 537.12C134.434 537.12 134.994 536.976 135.49 536.688C135.986 536.4 136.378 535.992 136.666 535.464C136.954 534.92 137.098 534.28 137.098 533.544C137.098 532.792 136.954 532.152 136.666 531.624C136.378 531.096 135.986 530.688 135.49 530.4C134.994 530.112 134.434 529.968 133.81 529.968C133.186 529.968 132.626 530.112 132.13 530.4C131.634 530.688 131.234 531.096 130.93 531.624C130.642 532.152 130.498 532.792 130.498 533.544C130.498 534.28 130.642 534.92 130.93 535.464C131.234 535.992 131.634 536.4 132.13 536.688C132.626 536.976 133.186 537.12 133.81 537.12ZM148.672 540.192C147.152 540.192 145.968 539.808 145.12 539.04C144.272 538.256 143.848 537.096 143.848 535.56V524.232H147.592V535.512C147.592 536.056 147.736 536.48 148.024 536.784C148.312 537.072 148.704 537.216 149.2 537.216C149.792 537.216 150.296 537.056 150.712 536.736L151.72 539.376C151.336 539.648 150.872 539.856 150.328 540C149.8 540.128 149.248 540.192 148.672 540.192ZM141.856 530.256V527.376H150.808V530.256H141.856ZM153.822 540V527.088H157.566V540H153.822ZM155.694 525.288C155.006 525.288 154.446 525.088 154.014 524.688C153.582 524.288 153.366 523.792 153.366 523.2C153.366 522.608 153.582 522.112 154.014 521.712C154.446 521.312 155.006 521.112 155.694 521.112C156.382 521.112 156.942 521.304 157.374 521.688C157.806 522.056 158.022 522.536 158.022 523.128C158.022 523.752 157.806 524.272 157.374 524.688C156.958 525.088 156.398 525.288 155.694 525.288ZM167.185 540.192C165.809 540.192 164.585 539.904 163.513 539.328C162.457 538.752 161.617 537.968 160.993 536.976C160.385 535.968 160.081 534.824 160.081 533.544C160.081 532.248 160.385 531.104 160.993 530.112C161.617 529.104 162.457 528.32 163.513 527.76C164.585 527.184 165.809 526.896 167.185 526.896C168.545 526.896 169.761 527.184 170.833 527.76C171.905 528.32 172.745 529.096 173.353 530.088C173.961 531.08 174.265 532.232 174.265 533.544C174.265 534.824 173.961 535.968 173.353 536.976C172.745 537.968 171.905 538.752 170.833 539.328C169.761 539.904 168.545 540.192 167.185 540.192ZM167.185 537.12C167.809 537.12 168.369 536.976 168.865 536.688C169.361 536.4 169.753 535.992 170.041 535.464C170.329 534.92 170.473 534.28 170.473 533.544C170.473 532.792 170.329 532.152 170.041 531.624C169.753 531.096 169.361 530.688 168.865 530.4C168.369 530.112 167.809 529.968 167.185 529.968C166.561 529.968 166.001 530.112 165.505 530.4C165.009 530.688 164.609 531.096 164.305 531.624C164.017 532.152 163.873 532.792 163.873 533.544C163.873 534.28 164.017 534.92 164.305 535.464C164.609 535.992 165.009 536.4 165.505 536.688C166.001 536.976 166.561 537.12 167.185 537.12ZM184.615 526.896C185.639 526.896 186.551 527.104 187.351 527.52C188.167 527.92 188.807 528.544 189.271 529.392C189.735 530.224 189.967 531.296 189.967 532.608V540H186.223V533.184C186.223 532.144 185.991 531.376 185.527 530.88C185.079 530.384 184.439 530.136 183.607 530.136C183.015 530.136 182.479 530.264 181.999 530.52C181.535 530.76 181.167 531.136 180.895 531.648C180.639 532.16 180.511 532.816 180.511 533.616V540H176.767V527.088H180.343V530.664L179.671 529.584C180.135 528.72 180.799 528.056 181.663 527.592C182.527 527.128 183.511 526.896 184.615 526.896ZM197.705 540.192C196.601 540.192 195.537 540.064 194.513 539.808C193.505 539.536 192.705 539.2 192.113 538.8L193.361 536.112C193.953 536.48 194.649 536.784 195.449 537.024C196.265 537.248 197.065 537.36 197.849 537.36C198.713 537.36 199.321 537.256 199.673 537.048C200.041 536.84 200.225 536.552 200.225 536.184C200.225 535.88 200.081 535.656 199.793 535.512C199.521 535.352 199.153 535.232 198.689 535.152C198.225 535.072 197.713 534.992 197.153 534.912C196.609 534.832 196.057 534.728 195.497 534.6C194.937 534.456 194.425 534.248 193.961 533.976C193.497 533.704 193.121 533.336 192.833 532.872C192.561 532.408 192.425 531.808 192.425 531.072C192.425 530.256 192.657 529.536 193.121 528.912C193.601 528.288 194.289 527.8 195.185 527.448C196.081 527.08 197.153 526.896 198.401 526.896C199.281 526.896 200.177 526.992 201.089 527.184C202.001 527.376 202.761 527.656 203.369 528.024L202.121 530.688C201.497 530.32 200.865 530.072 200.225 529.944C199.601 529.8 198.993 529.728 198.401 529.728C197.569 529.728 196.961 529.84 196.577 530.064C196.193 530.288 196.001 530.576 196.001 530.928C196.001 531.248 196.137 531.488 196.409 531.648C196.697 531.808 197.073 531.936 197.537 532.032C198.001 532.128 198.505 532.216 199.049 532.296C199.609 532.36 200.169 532.464 200.729 532.608C201.289 532.752 201.793 532.96 202.241 533.232C202.705 533.488 203.081 533.848 203.369 534.312C203.657 534.76 203.801 535.352 203.801 536.088C203.801 536.888 203.561 537.6 203.081 538.224C202.601 538.832 201.905 539.312 200.993 539.664C200.097 540.016 199.001 540.192 197.705 540.192ZM207.527 540.192C206.887 540.192 206.335 539.976 205.871 539.544C205.423 539.096 205.199 538.528 205.199 537.84C205.199 537.152 205.423 536.6 205.871 536.184C206.335 535.752 206.887 535.536 207.527 535.536C208.183 535.536 208.735 535.752 209.183 536.184C209.631 536.6 209.855 537.152 209.855 537.84C209.855 538.528 209.631 539.096 209.183 539.544C208.735 539.976 208.183 540.192 207.527 540.192ZM56.012 569.288C54.668 569.288 53.38 569.112 52.148 568.76C50.916 568.392 49.924 567.92 49.172 567.344L50.492 564.416C51.212 564.928 52.06 565.352 53.036 565.688C54.028 566.008 55.028 566.168 56.036 566.168C56.804 566.168 57.42 566.096 57.884 565.952C58.364 565.792 58.716 565.576 58.94 565.304C59.164 565.032 59.276 564.72 59.276 564.368C59.276 563.92 59.1 563.568 58.748 563.312C58.396 563.04 57.932 562.824 57.356 562.664C56.78 562.488 56.14 562.328 55.436 562.184C54.748 562.024 54.052 561.832 53.348 561.608C52.66 561.384 52.028 561.096 51.452 560.744C50.876 560.392 50.404 559.928 50.036 559.352C49.684 558.776 49.508 558.04 49.508 557.144C49.508 556.184 49.764 555.312 50.276 554.528C50.804 553.728 51.588 553.096 52.628 552.632C53.684 552.152 55.004 551.912 56.588 551.912C57.644 551.912 58.684 552.04 59.708 552.296C60.732 552.536 61.636 552.904 62.42 553.4L61.22 556.352C60.436 555.904 59.652 555.576 58.868 555.368C58.084 555.144 57.316 555.032 56.564 555.032C55.812 555.032 55.196 555.12 54.716 555.296C54.236 555.472 53.892 555.704 53.684 555.992C53.476 556.264 53.372 556.584 53.372 556.952C53.372 557.384 53.548 557.736 53.9 558.008C54.252 558.264 54.716 558.472 55.292 558.632C55.868 558.792 56.5 558.952 57.188 559.112C57.892 559.272 58.588 559.456 59.276 559.664C59.98 559.872 60.62 560.152 61.196 560.504C61.772 560.856 62.236 561.32 62.588 561.896C62.956 562.472 63.14 563.2 63.14 564.08C63.14 565.024 62.876 565.888 62.348 566.672C61.82 567.456 61.028 568.088 59.972 568.568C58.932 569.048 57.612 569.288 56.012 569.288ZM70.8127 569.192C69.2927 569.192 68.1087 568.808 67.2607 568.04C66.4127 567.256 65.9887 566.096 65.9887 564.56V553.232H69.7327V564.512C69.7327 565.056 69.8767 565.48 70.1647 565.784C70.4527 566.072 70.8447 566.216 71.3407 566.216C71.9327 566.216 72.4367 566.056 72.8527 565.736L73.8607 568.376C73.4767 568.648 73.0127 568.856 72.4687 569C71.9407 569.128 71.3887 569.192 70.8127 569.192ZM63.9967 559.256V556.376H72.9487V559.256H63.9967ZM83.8824 569V566.48L83.6424 565.928V561.416C83.6424 560.616 83.3944 559.992 82.8984 559.544C82.4184 559.096 81.6744 558.872 80.6664 558.872C79.9784 558.872 79.2984 558.984 78.6264 559.208C77.9704 559.416 77.4104 559.704 76.9464 560.072L75.6024 557.456C76.3064 556.96 77.1544 556.576 78.1464 556.304C79.1384 556.032 80.1464 555.896 81.1704 555.896C83.1384 555.896 84.6664 556.36 85.7544 557.288C86.8424 558.216 87.3864 559.664 87.3864 561.632V569H83.8824ZM79.9464 569.192C78.9384 569.192 78.0744 569.024 77.3544 568.688C76.6344 568.336 76.0824 567.864 75.6984 567.272C75.3144 566.68 75.1224 566.016 75.1224 565.28C75.1224 564.512 75.3064 563.84 75.6744 563.264C76.0584 562.688 76.6584 562.24 77.4744 561.92C78.2904 561.584 79.3544 561.416 80.6664 561.416H84.0984V563.6H81.0744C80.1944 563.6 79.5864 563.744 79.2504 564.032C78.9304 564.32 78.7704 564.68 78.7704 565.112C78.7704 565.592 78.9544 565.976 79.3224 566.264C79.7064 566.536 80.2264 566.672 80.8824 566.672C81.5064 566.672 82.0664 566.528 82.5624 566.24C83.0584 565.936 83.4184 565.496 83.6424 564.92L84.2184 566.648C83.9464 567.48 83.4504 568.112 82.7304 568.544C82.0104 568.976 81.0824 569.192 79.9464 569.192ZM92.1725 573.848C91.5005 573.848 90.8365 573.744 90.1805 573.536C89.5245 573.328 88.9885 573.04 88.5725 572.672L89.9405 570.008C90.2285 570.264 90.5565 570.464 90.9245 570.608C91.3085 570.752 91.6845 570.824 92.0525 570.824C92.5805 570.824 92.9965 570.696 93.3005 570.44C93.6205 570.2 93.9085 569.792 94.1645 569.216L94.8365 567.632L95.1245 567.224L99.7565 556.088H103.357L97.5245 569.792C97.1085 570.832 96.6285 571.648 96.0845 572.24C95.5565 572.832 94.9645 573.248 94.3085 573.488C93.6685 573.728 92.9565 573.848 92.1725 573.848ZM94.3805 569.504L88.6205 556.088H92.4845L96.9485 566.888L94.3805 569.504ZM116.961 569.192C115.441 569.192 114.257 568.808 113.409 568.04C112.561 567.256 112.137 566.096 112.137 564.56V553.232H115.881V564.512C115.881 565.056 116.025 565.48 116.313 565.784C116.601 566.072 116.993 566.216 117.489 566.216C118.081 566.216 118.585 566.056 119.001 565.736L120.009 568.376C119.625 568.648 119.161 568.856 118.617 569C118.089 569.128 117.537 569.192 116.961 569.192ZM110.145 559.256V556.376H119.097V559.256H110.145ZM127.559 569.192C126.487 569.192 125.527 568.984 124.679 568.568C123.847 568.152 123.199 567.52 122.735 566.672C122.271 565.808 122.039 564.712 122.039 563.384V556.088H125.783V562.832C125.783 563.904 126.007 564.696 126.455 565.208C126.919 565.704 127.567 565.952 128.399 565.952C128.975 565.952 129.487 565.832 129.935 565.592C130.383 565.336 130.735 564.952 130.991 564.44C131.247 563.912 131.375 563.256 131.375 562.472V556.088H135.119V569H131.567V565.448L132.215 566.48C131.783 567.376 131.143 568.056 130.295 568.52C129.463 568.968 128.551 569.192 127.559 569.192ZM146.435 555.896C147.459 555.896 148.371 556.104 149.171 556.52C149.987 556.92 150.627 557.544 151.091 558.392C151.555 559.224 151.787 560.296 151.787 561.608V569H148.043V562.184C148.043 561.144 147.811 560.376 147.347 559.88C146.899 559.384 146.259 559.136 145.427 559.136C144.835 559.136 144.299 559.264 143.819 559.52C143.355 559.76 142.987 560.136 142.715 560.648C142.459 561.16 142.331 561.816 142.331 562.616V569H138.587V556.088H142.163V559.664L141.491 558.584C141.955 557.72 142.619 557.056 143.483 556.592C144.347 556.128 145.331 555.896 146.435 555.896ZM161.683 569.192C160.211 569.192 158.915 568.904 157.795 568.328C156.691 567.752 155.835 566.968 155.227 565.976C154.619 564.968 154.315 563.824 154.315 562.544C154.315 561.248 154.611 560.104 155.203 559.112C155.811 558.104 156.635 557.32 157.675 556.76C158.715 556.184 159.891 555.896 161.203 555.896C162.467 555.896 163.603 556.168 164.611 556.712C165.635 557.24 166.443 558.008 167.035 559.016C167.627 560.008 167.923 561.2 167.923 562.592C167.923 562.736 167.915 562.904 167.899 563.096C167.883 563.272 167.867 563.44 167.851 563.6H157.363V561.416H165.883L164.443 562.064C164.443 561.392 164.307 560.808 164.035 560.312C163.763 559.816 163.387 559.432 162.907 559.16C162.427 558.872 161.867 558.728 161.227 558.728C160.587 558.728 160.019 558.872 159.523 559.16C159.043 559.432 158.667 559.824 158.395 560.336C158.123 560.832 157.987 561.424 157.987 562.112V562.688C157.987 563.392 158.139 564.016 158.443 564.56C158.763 565.088 159.203 565.496 159.763 565.784C160.339 566.056 161.011 566.192 161.779 566.192C162.467 566.192 163.067 566.088 163.579 565.88C164.107 565.672 164.587 565.36 165.019 564.944L167.011 567.104C166.419 567.776 165.675 568.296 164.779 568.664C163.883 569.016 162.851 569.192 161.683 569.192ZM175.96 569.192C174.744 569.192 173.648 568.92 172.672 568.376C171.696 567.816 170.92 567.04 170.344 566.048C169.784 565.056 169.504 563.888 169.504 562.544C169.504 561.184 169.784 560.008 170.344 559.016C170.92 558.024 171.696 557.256 172.672 556.712C173.648 556.168 174.744 555.896 175.96 555.896C177.048 555.896 178 556.136 178.816 556.616C179.632 557.096 180.264 557.824 180.712 558.8C181.16 559.776 181.384 561.024 181.384 562.544C181.384 564.048 181.168 565.296 180.736 566.288C180.304 567.264 179.68 567.992 178.864 568.472C178.064 568.952 177.096 569.192 175.96 569.192ZM176.608 566.12C177.216 566.12 177.768 565.976 178.264 565.688C178.76 565.4 179.152 564.992 179.44 564.464C179.744 563.92 179.896 563.28 179.896 562.544C179.896 561.792 179.744 561.152 179.44 560.624C179.152 560.096 178.76 559.688 178.264 559.4C177.768 559.112 177.216 558.968 176.608 558.968C175.984 558.968 175.424 559.112 174.928 559.4C174.432 559.688 174.032 560.096 173.728 560.624C173.44 561.152 173.296 561.792 173.296 562.544C173.296 563.28 173.44 563.92 173.728 564.464C174.032 564.992 174.432 565.4 174.928 565.688C175.424 565.976 175.984 566.12 176.608 566.12ZM179.992 569V566.36L180.064 562.52L179.824 558.704V551.192H183.568V569H179.992ZM194.286 569V555.8C194.286 554.344 194.718 553.184 195.582 552.32C196.446 551.44 197.678 551 199.278 551C199.822 551 200.342 551.056 200.838 551.168C201.35 551.28 201.782 551.456 202.134 551.696L201.15 554.408C200.942 554.264 200.71 554.152 200.454 554.072C200.198 553.992 199.926 553.952 199.638 553.952C199.094 553.952 198.67 554.112 198.366 554.432C198.078 554.736 197.934 555.2 197.934 555.824V557.024L198.03 558.632V569H194.286ZM192.294 559.256V556.376H201.246V559.256H192.294ZM209.091 569.192C207.715 569.192 206.491 568.904 205.419 568.328C204.363 567.752 203.523 566.968 202.899 565.976C202.291 564.968 201.987 563.824 201.987 562.544C201.987 561.248 202.291 560.104 202.899 559.112C203.523 558.104 204.363 557.32 205.419 556.76C206.491 556.184 207.715 555.896 209.091 555.896C210.451 555.896 211.667 556.184 212.739 556.76C213.811 557.32 214.651 558.096 215.259 559.088C215.867 560.08 216.171 561.232 216.171 562.544C216.171 563.824 215.867 564.968 215.259 565.976C214.651 566.968 213.811 567.752 212.739 568.328C211.667 568.904 210.451 569.192 209.091 569.192ZM209.091 566.12C209.715 566.12 210.275 565.976 210.771 565.688C211.267 565.4 211.659 564.992 211.947 564.464C212.235 563.92 212.379 563.28 212.379 562.544C212.379 561.792 212.235 561.152 211.947 560.624C211.659 560.096 211.267 559.688 210.771 559.4C210.275 559.112 209.715 558.968 209.091 558.968C208.467 558.968 207.907 559.112 207.411 559.4C206.915 559.688 206.515 560.096 206.211 560.624C205.923 561.152 205.779 561.792 205.779 562.544C205.779 563.28 205.923 563.92 206.211 564.464C206.515 564.992 206.915 565.4 207.411 565.688C207.907 565.976 208.467 566.12 209.091 566.12ZM218.673 569V556.088H222.249V559.736L221.745 558.68C222.129 557.768 222.745 557.08 223.593 556.616C224.441 556.136 225.473 555.896 226.689 555.896V559.352C226.529 559.336 226.385 559.328 226.257 559.328C226.129 559.312 225.993 559.304 225.849 559.304C224.825 559.304 223.993 559.6 223.353 560.192C222.729 560.768 222.417 561.672 222.417 562.904V569H218.673ZM252.342 555.896C253.366 555.896 254.27 556.104 255.054 556.52C255.854 556.92 256.478 557.544 256.926 558.392C257.39 559.224 257.622 560.296 257.622 561.608V569H253.878V562.184C253.878 561.144 253.662 560.376 253.23 559.88C252.798 559.384 252.19 559.136 251.406 559.136C250.862 559.136 250.374 559.264 249.942 559.52C249.51 559.76 249.174 560.128 248.934 560.624C248.694 561.12 248.574 561.752 248.574 562.52V569H244.83V562.184C244.83 561.144 244.614 560.376 244.182 559.88C243.766 559.384 243.166 559.136 242.382 559.136C241.838 559.136 241.35 559.264 240.918 559.52C240.486 559.76 240.15 560.128 239.91 560.624C239.67 561.12 239.55 561.752 239.55 562.52V569H235.806V556.088H239.382V559.616L238.71 558.584C239.158 557.704 239.79 557.04 240.606 556.592C241.438 556.128 242.382 555.896 243.438 555.896C244.622 555.896 245.654 556.2 246.534 556.808C247.43 557.4 248.022 558.312 248.31 559.544L246.99 559.184C247.422 558.176 248.11 557.376 249.054 556.784C250.014 556.192 251.11 555.896 252.342 555.896ZM267.216 569.192C265.84 569.192 264.616 568.904 263.544 568.328C262.488 567.752 261.648 566.968 261.024 565.976C260.416 564.968 260.112 563.824 260.112 562.544C260.112 561.248 260.416 560.104 261.024 559.112C261.648 558.104 262.488 557.32 263.544 556.76C264.616 556.184 265.84 555.896 267.216 555.896C268.576 555.896 269.792 556.184 270.864 556.76C271.936 557.32 272.776 558.096 273.384 559.088C273.992 560.08 274.296 561.232 274.296 562.544C274.296 563.824 273.992 564.968 273.384 565.976C272.776 566.968 271.936 567.752 270.864 568.328C269.792 568.904 268.576 569.192 267.216 569.192ZM267.216 566.12C267.84 566.12 268.4 565.976 268.896 565.688C269.392 565.4 269.784 564.992 270.072 564.464C270.36 563.92 270.504 563.28 270.504 562.544C270.504 561.792 270.36 561.152 270.072 560.624C269.784 560.096 269.392 559.688 268.896 559.4C268.4 559.112 267.84 558.968 267.216 558.968C266.592 558.968 266.032 559.112 265.536 559.4C265.04 559.688 264.64 560.096 264.336 560.624C264.048 561.152 263.904 561.792 263.904 562.544C263.904 563.28 264.048 563.92 264.336 564.464C264.64 564.992 265.04 565.4 265.536 565.688C266.032 565.976 266.592 566.12 267.216 566.12ZM276.798 569V556.088H280.374V559.736L279.87 558.68C280.254 557.768 280.87 557.08 281.718 556.616C282.566 556.136 283.598 555.896 284.814 555.896V559.352C284.654 559.336 284.51 559.328 284.382 559.328C284.254 559.312 284.118 559.304 283.974 559.304C282.95 559.304 282.118 559.6 281.478 560.192C280.854 560.768 280.542 561.672 280.542 562.904V569H276.798ZM293.355 569.192C291.883 569.192 290.587 568.904 289.467 568.328C288.363 567.752 287.507 566.968 286.899 565.976C286.291 564.968 285.987 563.824 285.987 562.544C285.987 561.248 286.283 560.104 286.875 559.112C287.483 558.104 288.307 557.32 289.347 556.76C290.387 556.184 291.563 555.896 292.875 555.896C294.139 555.896 295.275 556.168 296.283 556.712C297.307 557.24 298.115 558.008 298.707 559.016C299.299 560.008 299.595 561.2 299.595 562.592C299.595 562.736 299.587 562.904 299.571 563.096C299.555 563.272 299.539 563.44 299.523 563.6H289.035V561.416H297.555L296.115 562.064C296.115 561.392 295.979 560.808 295.707 560.312C295.435 559.816 295.059 559.432 294.579 559.16C294.099 558.872 293.539 558.728 292.899 558.728C292.259 558.728 291.691 558.872 291.195 559.16C290.715 559.432 290.339 559.824 290.067 560.336C289.795 560.832 289.659 561.424 289.659 562.112V562.688C289.659 563.392 289.811 564.016 290.115 564.56C290.435 565.088 290.875 565.496 291.435 565.784C292.011 566.056 292.683 566.192 293.451 566.192C294.139 566.192 294.739 566.088 295.251 565.88C295.779 565.672 296.259 565.36 296.691 564.944L298.683 567.104C298.091 567.776 297.347 568.296 296.451 568.664C295.555 569.016 294.523 569.192 293.355 569.192ZM314.428 569.192C313.212 569.192 312.116 568.92 311.14 568.376C310.164 567.816 309.388 567.04 308.812 566.048C308.252 565.056 307.972 563.888 307.972 562.544C307.972 561.184 308.252 560.008 308.812 559.016C309.388 558.024 310.164 557.256 311.14 556.712C312.116 556.168 313.212 555.896 314.428 555.896C315.516 555.896 316.468 556.136 317.284 556.616C318.1 557.096 318.732 557.824 319.18 558.8C319.628 559.776 319.852 561.024 319.852 562.544C319.852 564.048 319.636 565.296 319.204 566.288C318.772 567.264 318.148 567.992 317.332 568.472C316.532 568.952 315.564 569.192 314.428 569.192ZM315.076 566.12C315.684 566.12 316.236 565.976 316.732 565.688C317.228 565.4 317.62 564.992 317.908 564.464C318.212 563.92 318.364 563.28 318.364 562.544C318.364 561.792 318.212 561.152 317.908 560.624C317.62 560.096 317.228 559.688 316.732 559.4C316.236 559.112 315.684 558.968 315.076 558.968C314.452 558.968 313.892 559.112 313.396 559.4C312.9 559.688 312.5 560.096 312.196 560.624C311.908 561.152 311.764 561.792 311.764 562.544C311.764 563.28 311.908 563.92 312.196 564.464C312.5 564.992 312.9 565.4 313.396 565.688C313.892 565.976 314.452 566.12 315.076 566.12ZM318.46 569V566.36L318.532 562.52L318.292 558.704V551.192H322.036V569H318.46ZM331.909 569.192C330.437 569.192 329.141 568.904 328.021 568.328C326.917 567.752 326.061 566.968 325.453 565.976C324.845 564.968 324.541 563.824 324.541 562.544C324.541 561.248 324.837 560.104 325.429 559.112C326.037 558.104 326.861 557.32 327.901 556.76C328.941 556.184 330.117 555.896 331.429 555.896C332.693 555.896 333.829 556.168 334.837 556.712C335.861 557.24 336.669 558.008 337.261 559.016C337.853 560.008 338.149 561.2 338.149 562.592C338.149 562.736 338.141 562.904 338.125 563.096C338.109 563.272 338.093 563.44 338.077 563.6H327.589V561.416H336.109L334.669 562.064C334.669 561.392 334.533 560.808 334.261 560.312C333.989 559.816 333.613 559.432 333.133 559.16C332.653 558.872 332.093 558.728 331.453 558.728C330.813 558.728 330.245 558.872 329.749 559.16C329.269 559.432 328.893 559.824 328.621 560.336C328.349 560.832 328.213 561.424 328.213 562.112V562.688C328.213 563.392 328.365 564.016 328.669 564.56C328.989 565.088 329.429 565.496 329.989 565.784C330.565 566.056 331.237 566.192 332.005 566.192C332.693 566.192 333.293 566.088 333.805 565.88C334.333 565.672 334.813 565.36 335.245 564.944L337.237 567.104C336.645 567.776 335.901 568.296 335.005 568.664C334.109 569.016 333.077 569.192 331.909 569.192ZM344.986 569.192C343.882 569.192 342.818 569.064 341.794 568.808C340.786 568.536 339.986 568.2 339.394 567.8L340.642 565.112C341.234 565.48 341.93 565.784 342.73 566.024C343.546 566.248 344.346 566.36 345.13 566.36C345.994 566.36 346.602 566.256 346.954 566.048C347.322 565.84 347.506 565.552 347.506 565.184C347.506 564.88 347.362 564.656 347.074 564.512C346.802 564.352 346.434 564.232 345.97 564.152C345.506 564.072 344.994 563.992 344.434 563.912C343.89 563.832 343.338 563.728 342.778 563.6C342.218 563.456 341.706 563.248 341.242 562.976C340.778 562.704 340.402 562.336 340.114 561.872C339.842 561.408 339.706 560.808 339.706 560.072C339.706 559.256 339.938 558.536 340.402 557.912C340.882 557.288 341.57 556.8 342.466 556.448C343.362 556.08 344.434 555.896 345.682 555.896C346.562 555.896 347.458 555.992 348.37 556.184C349.282 556.376 350.042 556.656 350.65 557.024L349.402 559.688C348.778 559.32 348.146 559.072 347.506 558.944C346.882 558.8 346.274 558.728 345.682 558.728C344.85 558.728 344.242 558.84 343.858 559.064C343.474 559.288 343.282 559.576 343.282 559.928C343.282 560.248 343.418 560.488 343.69 560.648C343.978 560.808 344.354 560.936 344.818 561.032C345.282 561.128 345.786 561.216 346.33 561.296C346.89 561.36 347.45 561.464 348.01 561.608C348.57 561.752 349.074 561.96 349.522 562.232C349.986 562.488 350.362 562.848 350.65 563.312C350.938 563.76 351.082 564.352 351.082 565.088C351.082 565.888 350.842 566.6 350.362 567.224C349.882 567.832 349.186 568.312 348.274 568.664C347.378 569.016 346.282 569.192 344.986 569.192ZM353.392 569V556.088H357.136V569H353.392ZM355.264 554.288C354.576 554.288 354.016 554.088 353.584 553.688C353.152 553.288 352.936 552.792 352.936 552.2C352.936 551.608 353.152 551.112 353.584 550.712C354.016 550.312 354.576 550.112 355.264 550.112C355.952 550.112 356.512 550.304 356.944 550.688C357.376 551.056 357.592 551.536 357.592 552.128C357.592 552.752 357.376 553.272 356.944 553.688C356.528 554.088 355.968 554.288 355.264 554.288ZM366.683 573.848C365.467 573.848 364.291 573.696 363.155 573.392C362.035 573.104 361.099 572.664 360.347 572.072L361.835 569.384C362.379 569.832 363.067 570.184 363.899 570.44C364.747 570.712 365.579 570.848 366.395 570.848C367.723 570.848 368.683 570.552 369.275 569.96C369.883 569.368 370.187 568.488 370.187 567.32V565.376L370.427 562.136L370.379 558.872V556.088H373.931V566.84C373.931 569.24 373.307 571.008 372.059 572.144C370.811 573.28 369.019 573.848 366.683 573.848ZM366.107 568.376C364.907 568.376 363.819 568.12 362.843 567.608C361.883 567.08 361.107 566.352 360.515 565.424C359.939 564.48 359.651 563.384 359.651 562.136C359.651 560.872 359.939 559.776 360.515 558.848C361.107 557.904 361.883 557.176 362.843 556.664C363.819 556.152 364.907 555.896 366.107 555.896C367.195 555.896 368.155 556.12 368.987 556.568C369.819 557 370.467 557.68 370.931 558.608C371.395 559.52 371.627 560.696 371.627 562.136C371.627 563.56 371.395 564.736 370.931 565.664C370.467 566.576 369.819 567.256 368.987 567.704C368.155 568.152 367.195 568.376 366.107 568.376ZM366.851 565.304C367.507 565.304 368.091 565.176 368.603 564.92C369.115 564.648 369.515 564.272 369.803 563.792C370.091 563.312 370.235 562.76 370.235 562.136C370.235 561.496 370.091 560.944 369.803 560.48C369.515 560 369.115 559.632 368.603 559.376C368.091 559.104 367.507 558.968 366.851 558.968C366.195 558.968 365.611 559.104 365.099 559.376C364.587 559.632 364.179 560 363.875 560.48C363.587 560.944 363.443 561.496 363.443 562.136C363.443 562.76 363.587 563.312 363.875 563.792C364.179 564.272 364.587 564.648 365.099 564.92C365.611 565.176 366.195 565.304 366.851 565.304ZM385.264 555.896C386.288 555.896 387.2 556.104 388 556.52C388.816 556.92 389.456 557.544 389.92 558.392C390.384 559.224 390.616 560.296 390.616 561.608V569H386.872V562.184C386.872 561.144 386.64 560.376 386.176 559.88C385.728 559.384 385.088 559.136 384.256 559.136C383.664 559.136 383.128 559.264 382.648 559.52C382.184 559.76 381.816 560.136 381.544 560.648C381.288 561.16 381.16 561.816 381.16 562.616V569H377.416V556.088H380.992V559.664L380.32 558.584C380.784 557.72 381.448 557.056 382.312 556.592C383.176 556.128 384.16 555.896 385.264 555.896ZM58.148 598V595.48L57.908 594.928V590.416C57.908 589.616 57.66 588.992 57.164 588.544C56.684 588.096 55.94 587.872 54.932 587.872C54.244 587.872 53.564 587.984 52.892 588.208C52.236 588.416 51.676 588.704 51.212 589.072L49.868 586.456C50.572 585.96 51.42 585.576 52.412 585.304C53.404 585.032 54.412 584.896 55.436 584.896C57.404 584.896 58.932 585.36 60.02 586.288C61.108 587.216 61.652 588.664 61.652 590.632V598H58.148ZM54.212 598.192C53.204 598.192 52.34 598.024 51.62 597.688C50.9 597.336 50.348 596.864 49.964 596.272C49.58 595.68 49.388 595.016 49.388 594.28C49.388 593.512 49.572 592.84 49.94 592.264C50.324 591.688 50.924 591.24 51.74 590.92C52.556 590.584 53.62 590.416 54.932 590.416H58.364V592.6H55.34C54.46 592.6 53.852 592.744 53.516 593.032C53.196 593.32 53.036 593.68 53.036 594.112C53.036 594.592 53.22 594.976 53.588 595.264C53.972 595.536 54.492 595.672 55.148 595.672C55.772 595.672 56.332 595.528 56.828 595.24C57.324 594.936 57.684 594.496 57.908 593.92L58.484 595.648C58.212 596.48 57.716 597.112 56.996 597.544C56.276 597.976 55.348 598.192 54.212 598.192ZM72.8885 584.896C73.9125 584.896 74.8245 585.104 75.6245 585.52C76.4405 585.92 77.0805 586.544 77.5445 587.392C78.0085 588.224 78.2405 589.296 78.2405 590.608V598H74.4965V591.184C74.4965 590.144 74.2645 589.376 73.8005 588.88C73.3525 588.384 72.7125 588.136 71.8805 588.136C71.2885 588.136 70.7525 588.264 70.2725 588.52C69.8085 588.76 69.4405 589.136 69.1685 589.648C68.9125 590.16 68.7845 590.816 68.7845 591.616V598H65.0405V585.088H68.6165V588.664L67.9445 587.584C68.4085 586.72 69.0725 586.056 69.9365 585.592C70.8005 585.128 71.7845 584.896 72.8885 584.896ZM87.272 598.192C86.056 598.192 84.96 597.92 83.984 597.376C83.008 596.816 82.232 596.04 81.656 595.048C81.096 594.056 80.816 592.888 80.816 591.544C80.816 590.184 81.096 589.008 81.656 588.016C82.232 587.024 83.008 586.256 83.984 585.712C84.96 585.168 86.056 584.896 87.272 584.896C88.36 584.896 89.312 585.136 90.128 585.616C90.944 586.096 91.576 586.824 92.024 587.8C92.472 588.776 92.696 590.024 92.696 591.544C92.696 593.048 92.48 594.296 92.048 595.288C91.616 596.264 90.992 596.992 90.176 597.472C89.376 597.952 88.408 598.192 87.272 598.192ZM87.92 595.12C88.528 595.12 89.08 594.976 89.576 594.688C90.072 594.4 90.464 593.992 90.752 593.464C91.056 592.92 91.208 592.28 91.208 591.544C91.208 590.792 91.056 590.152 90.752 589.624C90.464 589.096 90.072 588.688 89.576 588.4C89.08 588.112 88.528 587.968 87.92 587.968C87.296 587.968 86.736 588.112 86.24 588.4C85.744 588.688 85.344 589.096 85.04 589.624C84.752 590.152 84.608 590.792 84.608 591.544C84.608 592.28 84.752 592.92 85.04 593.464C85.344 593.992 85.744 594.4 86.24 594.688C86.736 594.976 87.296 595.12 87.92 595.12ZM91.304 598V595.36L91.376 591.52L91.136 587.704V580.192H94.88V598H91.304ZM110.686 598.192C109.47 598.192 108.374 597.92 107.398 597.376C106.422 596.816 105.646 596.04 105.07 595.048C104.51 594.056 104.23 592.888 104.23 591.544C104.23 590.184 104.51 589.008 105.07 588.016C105.646 587.024 106.422 586.256 107.398 585.712C108.374 585.168 109.47 584.896 110.686 584.896C111.774 584.896 112.726 585.136 113.542 585.616C114.358 586.096 114.99 586.824 115.438 587.8C115.886 588.776 116.11 590.024 116.11 591.544C116.11 593.048 115.894 594.296 115.462 595.288C115.03 596.264 114.406 596.992 113.59 597.472C112.79 597.952 111.822 598.192 110.686 598.192ZM111.334 595.12C111.942 595.12 112.494 594.976 112.99 594.688C113.486 594.4 113.878 593.992 114.166 593.464C114.47 592.92 114.622 592.28 114.622 591.544C114.622 590.792 114.47 590.152 114.166 589.624C113.878 589.096 113.486 588.688 112.99 588.4C112.494 588.112 111.942 587.968 111.334 587.968C110.71 587.968 110.15 588.112 109.654 588.4C109.158 588.688 108.758 589.096 108.454 589.624C108.166 590.152 108.022 590.792 108.022 591.544C108.022 592.28 108.166 592.92 108.454 593.464C108.758 593.992 109.158 594.4 109.654 594.688C110.15 594.976 110.71 595.12 111.334 595.12ZM114.718 598V595.36L114.79 591.52L114.55 587.704V580.192H118.294V598H114.718ZM128.167 598.192C126.695 598.192 125.399 597.904 124.279 597.328C123.175 596.752 122.319 595.968 121.711 594.976C121.103 593.968 120.799 592.824 120.799 591.544C120.799 590.248 121.095 589.104 121.687 588.112C122.295 587.104 123.119 586.32 124.159 585.76C125.199 585.184 126.375 584.896 127.687 584.896C128.951 584.896 130.087 585.168 131.095 585.712C132.119 586.24 132.927 587.008 133.519 588.016C134.111 589.008 134.407 590.2 134.407 591.592C134.407 591.736 134.399 591.904 134.383 592.096C134.367 592.272 134.351 592.44 134.335 592.6H123.847V590.416H132.367L130.927 591.064C130.927 590.392 130.791 589.808 130.519 589.312C130.247 588.816 129.871 588.432 129.391 588.16C128.911 587.872 128.351 587.728 127.711 587.728C127.071 587.728 126.503 587.872 126.007 588.16C125.527 588.432 125.151 588.824 124.879 589.336C124.607 589.832 124.471 590.424 124.471 591.112V591.688C124.471 592.392 124.623 593.016 124.927 593.56C125.247 594.088 125.687 594.496 126.247 594.784C126.823 595.056 127.495 595.192 128.263 595.192C128.951 595.192 129.551 595.088 130.063 594.88C130.591 594.672 131.071 594.36 131.503 593.944L133.495 596.104C132.903 596.776 132.159 597.296 131.263 597.664C130.367 598.016 129.335 598.192 128.167 598.192ZM140.17 598L134.745 585.088H138.61L143.122 596.2H141.202L145.882 585.088H149.482L144.034 598H140.17ZM160.758 598L156.102 585.088H159.63L163.494 596.2H161.814L165.846 585.088H169.014L172.926 596.2H171.246L175.23 585.088H178.542L173.862 598H170.238L166.806 588.472H167.91L164.358 598H160.758ZM186.075 598.192C184.699 598.192 183.475 597.904 182.403 597.328C181.347 596.752 180.507 595.968 179.883 594.976C179.275 593.968 178.971 592.824 178.971 591.544C178.971 590.248 179.275 589.104 179.883 588.112C180.507 587.104 181.347 586.32 182.403 585.76C183.475 585.184 184.699 584.896 186.075 584.896C187.435 584.896 188.651 585.184 189.723 585.76C190.795 586.32 191.635 587.096 192.243 588.088C192.851 589.08 193.155 590.232 193.155 591.544C193.155 592.824 192.851 593.968 192.243 594.976C191.635 595.968 190.795 596.752 189.723 597.328C188.651 597.904 187.435 598.192 186.075 598.192ZM186.075 595.12C186.699 595.12 187.259 594.976 187.755 594.688C188.251 594.4 188.643 593.992 188.931 593.464C189.219 592.92 189.363 592.28 189.363 591.544C189.363 590.792 189.219 590.152 188.931 589.624C188.643 589.096 188.251 588.688 187.755 588.4C187.259 588.112 186.699 587.968 186.075 587.968C185.451 587.968 184.891 588.112 184.395 588.4C183.899 588.688 183.499 589.096 183.195 589.624C182.907 590.152 182.763 590.792 182.763 591.544C182.763 592.28 182.907 592.92 183.195 593.464C183.499 593.992 183.899 594.4 184.395 594.688C184.891 594.976 185.451 595.12 186.075 595.12ZM195.658 598V585.088H199.234V588.736L198.73 587.68C199.114 586.768 199.73 586.08 200.578 585.616C201.426 585.136 202.458 584.896 203.674 584.896V588.352C203.514 588.336 203.37 588.328 203.242 588.328C203.114 588.312 202.978 588.304 202.834 588.304C201.81 588.304 200.978 588.6 200.338 589.192C199.714 589.768 199.402 590.672 199.402 591.904V598H195.658ZM209.019 595.36L209.115 590.8L215.139 585.088H219.603L213.819 590.968L211.875 592.552L209.019 595.36ZM205.923 598V580.192H209.667V598H205.923ZM215.547 598L211.179 592.576L213.531 589.672L220.083 598H215.547ZM225.689 598.192C224.585 598.192 223.521 598.064 222.497 597.808C221.489 597.536 220.689 597.2 220.097 596.8L221.345 594.112C221.937 594.48 222.633 594.784 223.433 595.024C224.249 595.248 225.049 595.36 225.833 595.36C226.697 595.36 227.305 595.256 227.657 595.048C228.025 594.84 228.209 594.552 228.209 594.184C228.209 593.88 228.065 593.656 227.777 593.512C227.505 593.352 227.137 593.232 226.673 593.152C226.209 593.072 225.697 592.992 225.137 592.912C224.593 592.832 224.041 592.728 223.481 592.6C222.921 592.456 222.409 592.248 221.945 591.976C221.481 591.704 221.105 591.336 220.817 590.872C220.545 590.408 220.409 589.808 220.409 589.072C220.409 588.256 220.641 587.536 221.105 586.912C221.585 586.288 222.273 585.8 223.169 585.448C224.065 585.08 225.137 584.896 226.385 584.896C227.265 584.896 228.161 584.992 229.073 585.184C229.985 585.376 230.745 585.656 231.353 586.024L230.105 588.688C229.481 588.32 228.849 588.072 228.209 587.944C227.585 587.8 226.977 587.728 226.385 587.728C225.553 587.728 224.945 587.84 224.561 588.064C224.177 588.288 223.985 588.576 223.985 588.928C223.985 589.248 224.121 589.488 224.393 589.648C224.681 589.808 225.057 589.936 225.521 590.032C225.985 590.128 226.489 590.216 227.033 590.296C227.593 590.36 228.153 590.464 228.713 590.608C229.273 590.752 229.777 590.96 230.225 591.232C230.689 591.488 231.065 591.848 231.353 592.312C231.641 592.76 231.785 593.352 231.785 594.088C231.785 594.888 231.545 595.6 231.065 596.224C230.585 596.832 229.889 597.312 228.977 597.664C228.081 598.016 226.985 598.192 225.689 598.192ZM235.511 598.192C234.871 598.192 234.319 597.976 233.855 597.544C233.407 597.096 233.183 596.528 233.183 595.84C233.183 595.152 233.407 594.6 233.855 594.184C234.319 593.752 234.871 593.536 235.511 593.536C236.167 593.536 236.719 593.752 237.167 594.184C237.615 594.6 237.839 595.152 237.839 595.84C237.839 596.528 237.615 597.096 237.167 597.544C236.719 597.976 236.167 598.192 235.511 598.192ZM241.792 598.192C241.152 598.192 240.6 597.976 240.136 597.544C239.688 597.096 239.464 596.528 239.464 595.84C239.464 595.152 239.688 594.6 240.136 594.184C240.6 593.752 241.152 593.536 241.792 593.536C242.448 593.536 243 593.752 243.448 594.184C243.896 594.6 244.12 595.152 244.12 595.84C244.12 596.528 243.896 597.096 243.448 597.544C243 597.976 242.448 598.192 241.792 598.192Z" fill="#F7F7F7"/>
</g>
<defs>
<linearGradient id="paint0_linear_620_1505" x1="247" y1="0" x2="247" y2="666" gradientUnits="userSpaceOnUse">
<stop stop-color="#F7F7F7" stop-opacity="0"/>
<stop offset="1" stop-color="#E2E8FE"/>
</linearGradient>
<radialGradient id="paint1_diamond_620_1505" cx="0" cy="0" r="1" gradientUnits="userSpaceOnUse" gradientTransform="translate(140.5 106.5) rotate(68.0935) scale(658.013 509.7)">
<stop offset="0.128842" stop-color="#505050"/>
<stop offset="1" stop-color="#A1A1A1" stop-opacity="0"/>
</radialGradient>
<clipPath id="clip0_620_1505">
<path d="M0.5 28C0.5 12.536 13.036 0 28.5 0H465.5C480.964 0 493.5 12.536 493.5 28V638C493.5 653.464 480.964 666 465.5 666H28.5C13.036 666 0.5 653.464 0.5 638V28Z" fill="white"/>
</clipPath>
<clipPath id="clip1_620_1505">
<rect width="488" height="415" fill="white" transform="translate(3.5 46)"/>
</clipPath>
</defs>
</svg>
