<svg width="1440" height="560" viewBox="0 0 1440 560" fill="none" xmlns="http://www.w3.org/2000/svg">
<circle opacity="0.5" cx="1242.5" cy="228.5" r="228.163" stroke="#FAA5A8" stroke-width="0.673049"/>
<circle opacity="0.5" cx="181.25" cy="378.25" r="132.348" transform="rotate(120 181.25 378.25)" stroke="#FAA5A8" stroke-width="0.673049"/>
<path opacity="0.5" d="M137 228.663C108.467 228.663 85.3365 205.533 85.3365 177C85.3365 148.467 108.467 125.337 137 125.337C165.533 125.337 188.663 148.467 188.663 177C188.663 205.533 165.533 228.663 137 228.663Z" stroke="#FAA5A8" stroke-width="0.673049"/>
<path opacity="0.5" d="M137 541.663C108.467 541.663 85.3365 518.533 85.3365 490C85.3365 461.467 108.467 438.337 137 438.337C165.533 438.337 188.663 461.467 188.663 490C188.663 518.533 165.533 541.663 137 541.663Z" stroke="#FAA5A8" stroke-width="0.673049"/>
<path opacity="0.5" d="M402 387.663C373.467 387.663 350.337 364.533 350.337 336C350.337 307.467 373.467 284.337 402 284.337C430.533 284.337 453.663 307.467 453.663 336C453.663 364.533 430.533 387.663 402 387.663Z" stroke="#FAA5A8" stroke-width="0.673049"/>
<circle opacity="0.5" cx="1046.5" cy="113.5" r="18.1635" fill="#FAA5A8" stroke="#FAA5A8" stroke-width="0.673049"/>
<circle opacity="0.5" cx="282.675" cy="291.675" r="10.406" transform="rotate(120 282.675 291.675)" fill="#FDD8DA" stroke="#FAA5A8" stroke-width="0.673049"/>
</svg>
