<svg width="50" height="50" viewBox="0 0 50 50" fill="none" xmlns="http://www.w3.org/2000/svg">
<g filter="url(#filter0_d_1796_3671)">
<path d="M49 25C49 38.2548 38.2548 49 25 49C11.7452 49 1 38.2548 1 25C1 11.7452 11.7452 1 25 1C38.2548 1 49 11.7452 49 25Z" fill="#FCFCFC"/>
<path d="M25 1C30.9309 1 36.3594 3.15135 40.5476 6.71626C40.4605 6.71495 40.3732 6.71429 40.2857 6.71429C31.1893 6.71429 23.7615 13.8588 23.3077 22.8425C21.8686 21.0239 19.642 19.8571 17.1429 19.8571C12.8035 19.8571 9.28572 23.3749 9.28572 27.7143C9.28572 30.6921 10.9423 33.283 13.3842 34.6157C10.261 35.1229 7.47411 36.6326 5.3646 38.8039C2.61479 34.8996 1 30.1384 1 25C1 11.7452 11.7452 1 25 1Z" fill="url(#paint0_radial_1796_3671)"/>
<path d="M30.1372 48.4489C35.4071 47.2997 40.0301 44.4192 43.3804 40.4333C42.3769 40.6178 41.3426 40.7143 40.2857 40.7143C36.4099 40.7143 32.837 39.4172 29.9775 37.2335C30.0844 37.5162 30.1429 37.8227 30.1429 38.1429C30.1429 39.5445 29.0214 40.6842 27.6268 40.7137C29.1425 42.9267 30.0576 45.5834 30.1372 48.4489Z" fill="url(#paint1_radial_1796_3671)"/>
<path d="M25.0189 37.8292C25.1737 36.557 26.2575 35.5714 27.5714 35.5714C27.7784 35.5714 27.9797 35.5959 28.1726 35.6421C26.6547 34.1007 25.4287 32.271 24.5844 30.2426C23.8323 32.457 22.1195 34.2276 19.9425 35.058C21.8279 35.635 23.5492 36.5879 25.0189 37.8292Z" fill="url(#paint2_radial_1796_3671)"/>
<path d="M48.9073 25C48.9073 30.8424 46.8116 36.1954 43.3309 40.3481C42.3432 40.5278 41.3254 40.6216 40.2857 40.6216C36.4309 40.6216 32.8777 39.3317 30.0337 37.1599L29.7762 36.9632L29.8908 37.2663C29.9938 37.5387 30.0502 37.8341 30.0502 38.1429C30.0502 39.494 28.9691 40.5927 27.6248 40.6211L27.4535 40.6247L27.5503 40.7661C29.0427 42.945 29.949 45.5568 30.0422 48.3747C28.4167 48.7236 26.7298 48.9073 25 48.9073C16.9425 48.9073 9.81596 44.9212 5.48481 38.8134C7.57438 36.6855 10.3225 35.2067 13.399 34.7072L13.6658 34.6639L13.4285 34.5344C11.0152 33.2173 9.37838 30.6569 9.37838 27.7143C9.37838 23.4261 12.8547 19.9498 17.1429 19.9498C19.6125 19.9498 21.8128 21.1027 23.235 22.9L23.3878 23.0931L23.4002 22.8471C23.8516 13.9125 31.2389 6.80695 40.2857 6.80695C40.3616 6.80695 40.4373 6.80745 40.5129 6.80845C45.6502 11.1935 48.9073 17.7163 48.9073 25ZM40.2857 40.8069C41.2594 40.8069 42.2141 40.7255 43.1434 40.5691C40.0054 44.2227 35.7827 46.9177 30.9748 48.1547C30.7268 48.2185 30.4773 48.2784 30.2263 48.3344C30.1278 45.5517 29.2463 42.9682 27.7955 40.7977C29.162 40.6839 30.2355 39.5387 30.2355 38.1429C30.2355 37.9144 30.2067 37.6926 30.1526 37.4808C32.988 39.5714 36.4927 40.8069 40.2857 40.8069ZM5.37645 38.6593C4.21189 36.9894 3.25505 35.1639 2.54335 33.2201C1.81001 31.2173 1.33696 29.0889 1.16519 26.8761C1.11714 26.257 1.09266 25.6314 1.09266 25C1.09266 11.7963 11.7963 1.09266 25 1.09266C25.4126 1.09266 25.8228 1.10312 26.2303 1.12377C28.5937 1.24357 30.8665 1.70659 33 2.46398C35.6484 3.40417 38.082 4.79797 40.2073 6.55194C40.2354 6.5751 40.2634 6.59833 40.2913 6.62162C40.2895 6.62162 40.2876 6.62162 40.2857 6.62162C31.2203 6.62162 23.8033 13.6789 23.2288 22.5993C21.7707 20.8661 19.5854 19.7645 17.1429 19.7645C12.7523 19.7645 9.19305 23.3237 9.19305 27.7143C9.19305 30.6341 10.7672 33.1862 13.1128 34.5683C10.1116 35.1112 7.43145 36.5763 5.37645 38.6593ZM24.9592 37.9L25.0902 38.0107L25.1109 37.8404C25.2601 36.6141 26.3049 35.6641 27.5714 35.6641C27.7711 35.6641 27.9652 35.6877 28.151 35.7322L28.4656 35.8075L28.2386 35.5771C26.7289 34.044 25.5096 32.2243 24.6699 30.207L24.5756 29.9803L24.4966 30.2128C23.7534 32.401 22.0608 34.1508 19.9095 34.9714L19.6573 35.0676L19.9154 35.1466C21.7886 35.7199 23.4988 36.6666 24.9592 37.9ZM27.5714 35.4788C26.2675 35.4788 25.1824 36.4155 24.9523 37.6528C23.5665 36.5089 21.9648 35.6171 20.2174 35.0477C22.2317 34.2022 23.8242 32.5511 24.5919 30.4974C25.398 32.36 26.5259 34.0507 27.9056 35.4995C27.7961 35.4858 27.6846 35.4788 27.5714 35.4788Z" stroke="#F64C53" stroke-width="0.185328"/>
</g>
<defs>
<filter id="filter0_d_1796_3671" x="0.514286" y="0.514286" width="48.9714" height="48.9714" filterUnits="userSpaceOnUse" color-interpolation-filters="sRGB">
<feFlood flood-opacity="0" result="BackgroundImageFix"/>
<feColorMatrix in="SourceAlpha" type="matrix" values="0 0 0 0 0 0 0 0 0 0 0 0 0 0 0 0 0 0 127 0" result="hardAlpha"/>
<feOffset/>
<feGaussianBlur stdDeviation="0.242857"/>
<feComposite in2="hardAlpha" operator="out"/>
<feColorMatrix type="matrix" values="0 0 0 0 0.389583 0 0 0 0 0.0340885 0 0 0 0 0.0340885 0 0 0 0.2 0"/>
<feBlend mode="normal" in2="BackgroundImageFix" result="effect1_dropShadow_1796_3671"/>
<feBlend mode="normal" in="SourceGraphic" in2="effect1_dropShadow_1796_3671" result="shape"/>
</filter>
<radialGradient id="paint0_radial_1796_3671" cx="0" cy="0" r="1" gradientUnits="userSpaceOnUse" gradientTransform="translate(22.1902 24.7245) rotate(90) scale(23.7245 21.1902)">
<stop stop-color="#F64C53"/>
<stop offset="1" stop-color="#FDD8DA"/>
</radialGradient>
<radialGradient id="paint1_radial_1796_3671" cx="0" cy="0" r="1" gradientUnits="userSpaceOnUse" gradientTransform="translate(22.1902 24.7245) rotate(90) scale(23.7245 21.1902)">
<stop stop-color="#F64C53"/>
<stop offset="1" stop-color="#FDD8DA"/>
</radialGradient>
<radialGradient id="paint2_radial_1796_3671" cx="0" cy="0" r="1" gradientUnits="userSpaceOnUse" gradientTransform="translate(22.1902 24.7245) rotate(90) scale(23.7245 21.1902)">
<stop stop-color="#F64C53"/>
<stop offset="1" stop-color="#FDD8DA"/>
</radialGradient>
</defs>
</svg>
