<svg width="104" height="32" viewBox="0 0 104 32" fill="none" xmlns="http://www.w3.org/2000/svg">
<g clip-path="url(#clip0_960_211)">
<path fill-rule="evenodd" clip-rule="evenodd" d="M64.3809 24.6034C58.3773 29.0424 49.6449 31.4075 42.1131 31.4075C31.5614 31.4075 22.1012 27.5143 14.897 21.0377C14.3512 20.5283 14.8242 19.837 15.5155 20.2372C23.2656 24.749 32.8349 27.4415 42.7317 27.4415C49.3902 27.4415 56.74 26.0588 63.5077 23.1844C64.5264 22.7842 65.3633 23.8757 64.3809 24.6034Z" fill="#787878"/>
<path fill-rule="evenodd" clip-rule="evenodd" d="M66.8916 21.7291C66.1275 20.7467 61.7977 21.2561 59.8693 21.5108C59.2871 21.5836 59.178 21.0742 59.7237 20.7103C63.1803 18.2725 68.82 19.0002 69.475 19.8007C70.1299 20.6011 69.2931 26.2772 66.0548 28.9698C65.5454 29.37 65.0724 29.1517 65.2907 28.6059C66.0184 26.7866 67.6557 22.7479 66.8916 21.7291Z" fill="#787878"/>
<path fill-rule="evenodd" clip-rule="evenodd" d="M59.9783 3.60918V1.24413C59.9783 0.880282 60.2329 0.661969 60.5604 0.661969H71.1121C71.4396 0.661969 71.7307 0.916668 71.7307 1.24413V3.24532C71.7307 3.57279 71.4396 4.00942 70.9302 4.73712L65.4724 12.5236C67.51 12.4872 69.6567 12.7783 71.476 13.797C71.8762 14.0154 71.9854 14.3792 72.0218 14.7067V17.2173C72.0218 17.5811 71.6579 17.9813 71.2577 17.763C68.0194 16.0529 63.6896 15.871 60.1238 17.7994C59.7599 17.9813 59.3597 17.6175 59.3597 17.2536V14.8522C59.3597 14.4884 59.3597 13.8334 59.7599 13.2513L66.091 4.19134H60.5968C60.2693 4.19134 59.9783 3.93664 59.9783 3.60918ZM21.5191 18.2724H18.3172C18.0261 18.236 17.7714 18.0177 17.735 17.7266V1.28052C17.735 0.953055 18.0261 0.698356 18.3535 0.698356H21.3371C21.6646 0.698356 21.8829 0.953053 21.9193 1.24413V3.39086H21.9921C22.7562 1.3169 24.2479 0.334504 26.2127 0.334504C28.2139 0.334504 29.4874 1.3169 30.3607 3.39086C31.1248 1.3169 32.9076 0.334504 34.7997 0.334504C36.1459 0.334504 37.6013 0.880282 38.511 2.15377C39.5298 3.53641 39.3114 5.5376 39.3114 7.32048V17.7266C39.3114 18.0541 39.0204 18.3088 38.6929 18.3088H35.5274C35.1999 18.2724 34.9452 18.0177 34.9452 17.7266V8.99419C34.9452 8.30287 35.018 6.55638 34.8724 5.90144C34.6177 4.80988 33.9264 4.48242 32.9804 4.48242C32.2163 4.48242 31.3795 4.99182 31.052 5.82868C30.7245 6.66554 30.7609 8.04817 30.7609 8.99419V17.7266C30.7609 18.0541 30.4698 18.3088 30.1424 18.3088H26.9405C26.613 18.2724 26.3583 18.0177 26.3583 17.7266V8.99419C26.3583 7.17493 26.6494 4.44603 24.3935 4.44603C22.1012 4.44603 22.174 7.06577 22.174 8.99419V17.7266C22.1376 18.0177 21.8829 18.2724 21.5191 18.2724ZM80.827 0.334504C85.5935 0.334504 88.1768 4.40965 88.1768 9.61274C88.1768 14.6339 85.3388 18.6363 80.827 18.6363C76.1697 18.6363 73.6227 14.5611 73.6227 9.4672C73.5863 4.33688 76.1697 0.334504 80.827 0.334504ZM80.827 3.71833C78.462 3.71833 78.3164 6.95662 78.3164 8.95781C78.3164 10.959 78.28 15.2525 80.7906 15.2525C83.2648 15.2525 83.4104 11.7959 83.4104 9.68552C83.4104 8.30288 83.3376 6.62916 82.9373 5.31929C82.5735 4.15496 81.8458 3.71833 80.827 3.71833ZM94.3259 18.2724H91.124C90.7966 18.236 90.5419 17.9814 90.5419 17.6903V1.20775C90.5782 0.916665 90.8329 0.661969 91.1604 0.661969H94.144C94.4351 0.661969 94.6534 0.880287 94.7262 1.13498V3.64556H94.7989C95.7086 1.38968 96.9457 0.334504 99.1652 0.334504C100.584 0.334504 102.003 0.843893 102.913 2.26292C103.75 3.57279 103.75 5.79229 103.75 7.39324V17.763C103.713 18.0541 103.459 18.2724 103.131 18.2724H99.9293C99.6382 18.236 99.3835 18.0177 99.3471 17.763V8.81226C99.3471 6.993 99.5654 4.37327 97.3459 4.37327C96.5818 4.37327 95.8541 4.88266 95.4902 5.68314C95.0536 6.70193 94.9809 7.68432 94.9809 8.81226V17.6903C94.9445 18.0177 94.6534 18.2724 94.3259 18.2724ZM51.5733 10.4132C51.5733 11.6503 51.6096 12.7055 50.9911 13.8334C50.4817 14.7431 49.6812 15.2888 48.7716 15.2888C47.5345 15.2888 46.8068 14.3428 46.8068 12.9602C46.8068 10.2313 49.2446 9.72189 51.5733 9.72189V10.4132ZM54.8116 18.236C54.5932 18.418 54.3022 18.4544 54.0475 18.3088C52.9923 17.4356 52.774 16.9989 52.1918 16.1621C50.4453 17.945 49.1718 18.4907 46.9159 18.4907C44.2234 18.4907 42.1131 16.817 42.1131 13.506C42.1131 10.8862 43.5321 9.13973 45.5333 8.26648C47.2798 7.50239 49.7176 7.35686 51.5733 7.13855V6.73831C51.5733 5.97422 51.646 5.06459 51.173 4.40966C50.7728 3.82749 50.0451 3.57279 49.3902 3.57279C48.1531 3.57279 47.0615 4.19134 46.8068 5.50121C46.734 5.79229 46.5521 6.08337 46.261 6.08337L43.1683 5.7559C42.9136 5.68313 42.6225 5.50121 42.6953 5.10097C43.423 1.31691 46.8068 0.188965 49.8632 0.188965C51.4277 0.188965 53.4653 0.5892 54.7024 1.78991C56.267 3.24532 56.1214 5.21013 56.1214 7.32048V12.3052C56.1214 13.797 56.74 14.452 57.3221 15.2888C57.5404 15.5799 57.5768 15.9438 57.3221 16.1257C56.6308 16.6715 55.4665 17.6903 54.8116 18.236ZM9.54831 10.4132C9.54831 11.6503 9.58469 12.7055 8.96614 13.8334C8.45675 14.7431 7.65627 15.2888 6.74664 15.2888C5.50954 15.2888 4.78184 14.3428 4.78184 12.9602C4.78184 10.2313 7.21965 9.72189 9.54831 9.72189V10.4132ZM12.7502 18.236C12.5319 18.418 12.2408 18.4544 11.9861 18.3088C10.9309 17.4356 10.7126 16.9989 10.1305 16.1621C8.38398 17.945 7.11049 18.4907 4.85461 18.4907C2.1621 18.4907 0.0517578 16.817 0.0517578 13.506C0.0517578 10.8862 1.47078 9.13973 3.47197 8.26648C5.21846 7.50239 7.65627 7.35686 9.51192 7.13855V6.73831C9.51192 5.97422 9.58469 5.06459 9.11168 4.40966C8.71144 3.82749 7.98374 3.57279 7.32881 3.57279C6.09171 3.57279 5.00015 4.19134 4.74545 5.50121C4.67268 5.79229 4.49076 6.08337 4.19967 6.08337L1.10693 5.7559C0.852231 5.68313 0.561153 5.50121 0.633924 5.10097C1.36163 1.31691 4.74546 0.188965 7.80182 0.188965C9.36638 0.188965 11.404 0.5892 12.6411 1.78991C14.2056 3.24532 14.0601 5.21013 14.0601 7.32048V12.3052C14.0601 13.797 14.6786 14.452 15.2608 15.2888C15.4791 15.5799 15.5155 15.9438 15.2608 16.1257C14.5695 16.6715 13.4051 17.6903 12.7502 18.236Z" fill="#787878"/>
</g>
<defs>
<clipPath id="clip0_960_211">
<rect width="104" height="31.4971" fill="white" transform="matrix(-1 0 0 -1 104 31.4972)"/>
</clipPath>
</defs>
</svg>
