<svg width="123" height="38" viewBox="0 0 123 38" fill="none" xmlns="http://www.w3.org/2000/svg">
<g clip-path="url(#clip0_1558_3737)">
<path fill-rule="evenodd" clip-rule="evenodd" d="M75.661 28.9141C68.6056 34.1308 58.3432 36.9102 49.4919 36.9102C37.0915 36.9102 25.9739 32.3349 17.5075 24.7236C16.8661 24.1249 17.4219 23.3125 18.2344 23.7829C27.3423 29.0851 38.5881 32.2493 50.2188 32.2493C58.0439 32.2493 66.6814 30.6245 74.6348 27.2464C75.8321 26.7761 76.8155 28.0589 75.661 28.9141Z" fill="#3E3E3E"/>
<path fill-rule="evenodd" clip-rule="evenodd" d="M78.6116 25.5361C77.7136 24.3815 72.6252 24.9802 70.3589 25.2795C69.6748 25.365 69.5465 24.7664 70.1879 24.3388C74.2501 21.4739 80.8779 22.3291 81.6476 23.2698C82.4172 24.2105 81.4338 30.8811 77.6281 34.0453C77.0295 34.5157 76.4736 34.2591 76.7302 33.6177C77.5854 31.4797 79.5096 26.7333 78.6116 25.5361Z" fill="#3E3E3E"/>
<path fill-rule="evenodd" clip-rule="evenodd" d="M70.4871 4.2416V1.4622C70.4871 1.0346 70.7864 0.778042 71.1712 0.778042H83.5716C83.9565 0.778042 84.2985 1.07736 84.2985 1.4622V3.814C84.2985 4.19884 83.9565 4.71197 83.3578 5.56716L76.9438 14.7178C79.3384 14.675 81.8612 15.0171 83.9992 16.2144C84.4696 16.471 84.5979 16.8986 84.6406 17.2834V20.2338C84.6406 20.6614 84.213 21.1318 83.7427 20.8752C79.937 18.8655 74.8486 18.6517 70.6581 20.918C70.2305 21.1318 69.7602 20.7042 69.7602 20.2766V17.4544C69.7602 17.0268 69.7602 16.2572 70.2305 15.573L77.6707 4.92577H71.214C70.8291 4.92577 70.4871 4.62644 70.4871 4.2416ZM25.2898 21.4739H21.5269C21.1848 21.4311 20.8855 21.1745 20.8427 20.8325V1.50497C20.8427 1.12013 21.1848 0.820805 21.5697 0.820805H25.076C25.4608 0.820805 25.7174 1.12012 25.7601 1.4622V3.98504H25.8457C26.7436 1.54772 28.4968 0.393205 30.8058 0.393205C33.1576 0.393205 34.6542 1.54772 35.6805 3.98504C36.5784 1.54772 38.6737 0.393205 40.8972 0.393205C42.4793 0.393205 44.1897 1.0346 45.2587 2.5312C46.456 4.15608 46.1994 6.50789 46.1994 8.60313V20.8325C46.1994 21.2173 45.8573 21.5166 45.4725 21.5166H41.7524C41.3675 21.4739 41.0682 21.1745 41.0682 20.8325V10.5701C41.0682 9.75763 41.1537 7.70516 40.9827 6.93548C40.6834 5.65268 39.8709 5.26784 38.7592 5.26784C37.8612 5.26784 36.8777 5.86648 36.4929 6.84996C36.1081 7.83344 36.1508 9.45831 36.1508 10.5701V20.8325C36.1508 21.2173 35.8087 21.5166 35.4239 21.5166H31.661C31.2762 21.4739 30.9769 21.1745 30.9769 20.8325V10.5701C30.9769 8.43207 31.3189 5.22508 28.6678 5.22508C25.9739 5.22508 26.0595 8.30379 26.0595 10.5701V20.8325C26.0167 21.1745 25.7174 21.4739 25.2898 21.4739ZM94.9885 0.393205C100.59 0.393205 103.626 5.18232 103.626 11.297C103.626 17.1979 100.291 21.9015 94.9885 21.9015C89.5153 21.9015 86.5221 17.1124 86.5221 11.126C86.4793 5.0968 89.5153 0.393205 94.9885 0.393205ZM94.9885 4.36988C92.2091 4.36988 92.0381 8.17553 92.0381 10.5273C92.0381 12.8791 91.9953 17.9248 94.9458 17.9248C97.8534 17.9248 98.0245 13.8626 98.0245 11.3825C98.0245 9.75764 97.939 7.79069 97.4686 6.25133C97.041 4.88301 96.1858 4.36988 94.9885 4.36988ZM110.852 21.4739H107.09C106.705 21.4311 106.405 21.1318 106.405 20.7897V1.41944C106.448 1.07736 106.748 0.778042 107.132 0.778042H110.639C110.981 0.778042 111.237 1.03461 111.323 1.33393V4.28437H111.408C112.477 1.63325 113.931 0.393205 116.54 0.393205C118.207 0.393205 119.875 0.99184 120.944 2.65948C121.927 4.19884 121.927 6.8072 121.927 8.68864V20.8752C121.885 21.2173 121.585 21.4739 121.2 21.4739H117.438C117.095 21.4311 116.796 21.1745 116.753 20.8752V10.3563C116.753 8.21828 117.01 5.13956 114.402 5.13956C113.504 5.13956 112.648 5.73821 112.221 6.67893C111.708 7.87621 111.622 9.03071 111.622 10.3563V20.7897C111.579 21.1746 111.237 21.4739 110.852 21.4739ZM60.6095 12.2377C60.6095 13.6916 60.6523 14.9316 59.9254 16.2572C59.3267 17.3262 58.386 17.9676 57.317 17.9676C55.8632 17.9676 55.008 16.8558 55.008 15.2309C55.008 12.0239 57.8729 11.4253 60.6095 11.4253V12.2377ZM64.4152 21.4311C64.1586 21.6449 63.8165 21.6877 63.5172 21.5166C62.2772 20.4904 62.0206 19.9773 61.3364 18.9938C59.284 21.089 57.7874 21.7304 55.1362 21.7304C51.972 21.7304 49.4919 19.7635 49.4919 15.8723C49.4919 12.7936 51.1596 10.7411 53.5114 9.71487C55.5638 8.81691 58.4288 8.64589 60.6095 8.38933V7.91896C60.6095 7.021 60.695 5.95201 60.1392 5.18233C59.6688 4.49817 58.8136 4.19884 58.0439 4.19884C56.5901 4.19884 55.3073 4.92577 55.008 6.46513C54.9224 6.80721 54.7086 7.14928 54.3666 7.14928L50.732 6.76444C50.4326 6.67892 50.0906 6.46512 50.1761 5.99476C51.0313 1.54773 55.008 0.222168 58.5998 0.222168C60.4385 0.222168 62.833 0.692525 64.2869 2.1036C66.1256 3.814 65.9545 6.12305 65.9545 8.60313V14.4612C65.9545 16.2144 66.6814 16.9841 67.3656 17.9676C67.6222 18.3096 67.6649 18.7372 67.3656 18.951C66.5532 19.5924 65.1848 20.7897 64.4152 21.4311ZM11.2218 12.2377C11.2218 13.6916 11.2645 14.9316 10.5376 16.2572C9.93895 17.3262 8.99823 17.9676 7.92923 17.9676C6.47539 17.9676 5.6202 16.8558 5.6202 15.2309C5.6202 12.0239 8.48512 11.4253 11.2218 11.4253V12.2377ZM14.9846 21.4311C14.7281 21.6449 14.386 21.6877 14.0867 21.5166C12.8466 20.4904 12.5901 19.9773 11.9059 18.9938C9.85343 21.089 8.35683 21.7304 5.70572 21.7304C2.54148 21.7304 0.0614014 19.7635 0.0614014 15.8723C0.0614014 12.7936 1.72904 10.7411 4.08084 9.71487C6.13331 8.81691 8.99823 8.64589 11.179 8.38933V7.91896C11.179 7.021 11.2645 5.95201 10.7086 5.18233C10.2383 4.49817 9.38307 4.19884 8.6134 4.19884C7.15956 4.19884 5.87675 4.92577 5.57744 6.46513C5.49191 6.80721 5.27812 7.14928 4.93604 7.14928L1.30144 6.76444C1.00212 6.67892 0.660044 6.46512 0.745564 5.99476C1.60076 1.54773 5.57744 0.222168 9.16928 0.222168C11.008 0.222168 13.4025 0.692525 14.8564 2.1036C16.695 3.814 16.524 6.12305 16.524 8.60313V14.4612C16.524 16.2144 17.2509 16.9841 17.9351 17.9676C18.1916 18.3096 18.2344 18.7372 17.9351 18.951C17.1226 19.5924 15.7543 20.7897 14.9846 21.4311Z" fill="#3E3E3E"/>
</g>
<defs>
<clipPath id="clip0_1558_3737">
<rect width="122.221" height="37.0155" fill="white" transform="matrix(-1 0 0 -1 122.221 37.0155)"/>
</clipPath>
</defs>
</svg>
