<svg width="340" height="44" viewBox="0 0 340 44" fill="none" xmlns="http://www.w3.org/2000/svg">
<path d="M1.88636 12H0.409091L4.68182 0.363636H6.13636L10.4091 12H8.93182L5.45455 2.20455H5.36364L1.88636 12ZM2.43182 7.45455H8.38636V8.70455H2.43182V7.45455ZM18.2216 5.22727L17.017 5.56818C16.9413 5.36742 16.8295 5.17235 16.6818 4.98295C16.5379 4.78977 16.3409 4.63068 16.0909 4.50568C15.8409 4.38068 15.5208 4.31818 15.1307 4.31818C14.5966 4.31818 14.1515 4.44129 13.7955 4.6875C13.4432 4.92992 13.267 5.23864 13.267 5.61364C13.267 5.94697 13.3883 6.21023 13.6307 6.40341C13.8731 6.59659 14.2519 6.75758 14.767 6.88636L16.0625 7.20455C16.8428 7.39394 17.4242 7.68371 17.8068 8.07386C18.1894 8.46023 18.3807 8.95833 18.3807 9.56818C18.3807 10.0682 18.2367 10.5152 17.9489 10.9091C17.6648 11.303 17.267 11.6136 16.7557 11.8409C16.2443 12.0682 15.6496 12.1818 14.9716 12.1818C14.0814 12.1818 13.3447 11.9886 12.7614 11.6023C12.178 11.2159 11.8087 10.6515 11.6534 9.90909L12.9261 9.59091C13.0473 10.0606 13.2765 10.4129 13.6136 10.6477C13.9545 10.8826 14.3996 11 14.9489 11C15.5739 11 16.0701 10.8674 16.4375 10.6023C16.8087 10.3333 16.9943 10.0114 16.9943 9.63636C16.9943 9.33333 16.8883 9.07955 16.6761 8.875C16.464 8.66667 16.1383 8.51136 15.6989 8.40909L14.2443 8.06818C13.4451 7.87879 12.858 7.58523 12.483 7.1875C12.1117 6.78598 11.9261 6.28409 11.9261 5.68182C11.9261 5.18939 12.0644 4.75379 12.3409 4.375C12.6212 3.99621 13.0019 3.69886 13.483 3.48295C13.9678 3.26705 14.517 3.15909 15.1307 3.15909C15.9943 3.15909 16.6723 3.34848 17.1648 3.72727C17.661 4.10606 18.0133 4.60606 18.2216 5.22727ZM25.7628 15.2727C25.5355 15.2727 25.3329 15.2538 25.1548 15.2159C24.9768 15.1818 24.8537 15.1477 24.7855 15.1136L25.1264 13.9318C25.4522 14.0152 25.7401 14.0455 25.9901 14.0227C26.2401 14 26.4616 13.8883 26.6548 13.6875C26.8518 13.4905 27.0317 13.1705 27.1946 12.7273L27.4446 12.0455L24.2173 3.27273H25.6719L28.081 10.2273H28.1719L30.581 3.27273H32.0355L28.331 13.2727C28.1643 13.7235 27.9579 14.0966 27.7116 14.392C27.4654 14.6913 27.1795 14.9129 26.8537 15.0568C26.5317 15.2008 26.1681 15.2727 25.7628 15.2727ZM37.0384 12.1818C36.2505 12.1818 35.5592 11.9943 34.9645 11.6193C34.3736 11.2443 33.9115 10.7197 33.5781 10.0455C33.2486 9.37121 33.0838 8.58333 33.0838 7.68182C33.0838 6.77273 33.2486 5.97917 33.5781 5.30114C33.9115 4.62311 34.3736 4.09659 34.9645 3.72159C35.5592 3.34659 36.2505 3.15909 37.0384 3.15909C37.8262 3.15909 38.5156 3.34659 39.1065 3.72159C39.7012 4.09659 40.1634 4.62311 40.4929 5.30114C40.8262 5.97917 40.9929 6.77273 40.9929 7.68182C40.9929 8.58333 40.8262 9.37121 40.4929 10.0455C40.1634 10.7197 39.7012 11.2443 39.1065 11.6193C38.5156 11.9943 37.8262 12.1818 37.0384 12.1818ZM37.0384 10.9773C37.6368 10.9773 38.1293 10.8239 38.5156 10.517C38.902 10.2102 39.188 9.80682 39.3736 9.30682C39.5592 8.80682 39.652 8.26515 39.652 7.68182C39.652 7.09848 39.5592 6.55492 39.3736 6.05114C39.188 5.54735 38.902 5.14015 38.5156 4.82955C38.1293 4.51894 37.6368 4.36364 37.0384 4.36364C36.4399 4.36364 35.9474 4.51894 35.5611 4.82955C35.1747 5.14015 34.8887 5.54735 34.7031 6.05114C34.5175 6.55492 34.4247 7.09848 34.4247 7.68182C34.4247 8.26515 34.5175 8.80682 34.7031 9.30682C34.8887 9.80682 35.1747 10.2102 35.5611 10.517C35.9474 10.8239 36.4399 10.9773 37.0384 10.9773ZM48.5398 8.43182V3.27273H49.8807V12H48.5398V10.5227H48.4489C48.2443 10.9659 47.9261 11.3428 47.4943 11.6534C47.0625 11.9602 46.517 12.1136 45.858 12.1136C45.3125 12.1136 44.8277 11.9943 44.4034 11.7557C43.9792 11.5133 43.6458 11.1496 43.4034 10.6648C43.161 10.1761 43.0398 9.56061 43.0398 8.81818V3.27273H44.3807V8.72727C44.3807 9.36364 44.5587 9.87121 44.9148 10.25C45.2746 10.6288 45.733 10.8182 46.2898 10.8182C46.6231 10.8182 46.9621 10.733 47.3068 10.5625C47.6553 10.392 47.947 10.1307 48.1818 9.77841C48.4205 9.42614 48.5398 8.97727 48.5398 8.43182ZM59.4048 12.2045C58.8518 12.2045 58.3499 12.1004 57.8991 11.892C57.4484 11.6799 57.0904 11.375 56.8253 10.9773C56.5601 10.5758 56.4276 10.0909 56.4276 9.52273C56.4276 9.02273 56.526 8.61742 56.723 8.30682C56.92 7.99242 57.1832 7.74621 57.5128 7.56818C57.8423 7.39015 58.206 7.25758 58.6037 7.17045C59.0052 7.07955 59.4086 7.00758 59.8139 6.95455C60.3442 6.88636 60.7741 6.83523 61.1037 6.80114C61.437 6.76326 61.6795 6.70076 61.831 6.61364C61.9863 6.52652 62.0639 6.375 62.0639 6.15909V6.11364C62.0639 5.55303 61.9105 5.11742 61.6037 4.80682C61.3007 4.49621 60.8404 4.34091 60.223 4.34091C59.5829 4.34091 59.081 4.48106 58.7173 4.76136C58.3537 5.04167 58.098 5.34091 57.9503 5.65909L56.6776 5.20455C56.9048 4.67424 57.2079 4.26136 57.5866 3.96591C57.9692 3.66667 58.3859 3.45833 58.8366 3.34091C59.2912 3.2197 59.7382 3.15909 60.1776 3.15909C60.4579 3.15909 60.7798 3.19318 61.1435 3.26136C61.5109 3.32576 61.8651 3.46023 62.206 3.66477C62.5507 3.86932 62.8366 4.17803 63.0639 4.59091C63.2912 5.00379 63.4048 5.55682 63.4048 6.25V12H62.0639V10.8182H61.9957C61.9048 11.0076 61.7533 11.2102 61.5412 11.4261C61.3291 11.642 61.0469 11.8258 60.6946 11.9773C60.3423 12.1288 59.9124 12.2045 59.4048 12.2045ZM59.6094 11C60.1397 11 60.5866 10.8958 60.9503 10.6875C61.3177 10.4792 61.5942 10.2102 61.7798 9.88068C61.9692 9.55114 62.0639 9.20455 62.0639 8.84091V7.61364C62.0071 7.68182 61.8821 7.74432 61.6889 7.80114C61.4995 7.85417 61.2798 7.90151 61.0298 7.94318C60.7836 7.98106 60.5431 8.01515 60.3082 8.04545C60.0772 8.07197 59.8897 8.0947 59.7457 8.11364C59.3973 8.15909 59.0715 8.23295 58.7685 8.33523C58.4692 8.43371 58.2268 8.58333 58.0412 8.78409C57.8594 8.98106 57.7685 9.25 57.7685 9.59091C57.7685 10.0568 57.9408 10.4091 58.2855 10.6477C58.634 10.8826 59.0753 11 59.6094 11ZM67.1932 0.363636V12H65.8523V0.363636H67.1932ZM69.6491 12V3.27273H70.9446V4.59091H71.0355C71.1946 4.15909 71.4825 3.80871 71.8991 3.53977C72.3158 3.27083 72.7855 3.13636 73.3082 3.13636C73.4067 3.13636 73.5298 3.13826 73.6776 3.14205C73.8253 3.14583 73.937 3.15152 74.0128 3.15909V4.52273C73.9673 4.51136 73.8632 4.49432 73.7003 4.47159C73.5412 4.44508 73.3726 4.43182 73.1946 4.43182C72.7704 4.43182 72.3916 4.52083 72.0582 4.69886C71.7287 4.87311 71.4673 5.11553 71.2741 5.42614C71.0848 5.73295 70.9901 6.08333 70.9901 6.47727V12H69.6491ZM78.9957 12.1818C78.1548 12.1818 77.4295 11.9962 76.8196 11.625C76.2135 11.25 75.7457 10.7273 75.4162 10.0568C75.0904 9.38258 74.9276 8.59848 74.9276 7.70455C74.9276 6.81061 75.0904 6.02273 75.4162 5.34091C75.7457 4.6553 76.2041 4.12121 76.7912 3.73864C77.3821 3.35227 78.0715 3.15909 78.8594 3.15909C79.3139 3.15909 79.7628 3.23485 80.206 3.38636C80.6491 3.53788 81.0526 3.78409 81.4162 4.125C81.7798 4.46212 82.0696 4.90909 82.2855 5.46591C82.5014 6.02273 82.6094 6.70833 82.6094 7.52273V8.09091H75.8821V6.93182H81.2457C81.2457 6.43939 81.1473 6 80.9503 5.61364C80.7571 5.22727 80.4806 4.92235 80.1207 4.69886C79.7647 4.47538 79.3442 4.36364 78.8594 4.36364C78.3253 4.36364 77.8632 4.49621 77.473 4.76136C77.0866 5.02273 76.7893 5.36364 76.581 5.78409C76.3726 6.20455 76.2685 6.6553 76.2685 7.13636V7.90909C76.2685 8.56818 76.3821 9.12689 76.6094 9.58523C76.8404 10.0398 77.1605 10.3864 77.5696 10.625C77.9787 10.8598 78.4541 10.9773 78.9957 10.9773C79.348 10.9773 79.6662 10.928 79.9503 10.8295C80.2382 10.7273 80.4863 10.5758 80.6946 10.375C80.9029 10.1705 81.0639 9.91667 81.1776 9.61364L82.473 9.97727C82.3366 10.4167 82.1075 10.803 81.7855 11.1364C81.4635 11.4659 81.0658 11.7235 80.5923 11.9091C80.1188 12.0909 79.5866 12.1818 78.9957 12.1818ZM87.2173 12.2045C86.6643 12.2045 86.1624 12.1004 85.7116 11.892C85.2609 11.6799 84.9029 11.375 84.6378 10.9773C84.3726 10.5758 84.2401 10.0909 84.2401 9.52273C84.2401 9.02273 84.3385 8.61742 84.5355 8.30682C84.7325 7.99242 84.9957 7.74621 85.3253 7.56818C85.6548 7.39015 86.0185 7.25758 86.4162 7.17045C86.8177 7.07955 87.2211 7.00758 87.6264 6.95455C88.1567 6.88636 88.5866 6.83523 88.9162 6.80114C89.2495 6.76326 89.492 6.70076 89.6435 6.61364C89.7988 6.52652 89.8764 6.375 89.8764 6.15909V6.11364C89.8764 5.55303 89.723 5.11742 89.4162 4.80682C89.1132 4.49621 88.6529 4.34091 88.0355 4.34091C87.3954 4.34091 86.8935 4.48106 86.5298 4.76136C86.1662 5.04167 85.9105 5.34091 85.7628 5.65909L84.4901 5.20455C84.7173 4.67424 85.0204 4.26136 85.3991 3.96591C85.7817 3.66667 86.1984 3.45833 86.6491 3.34091C87.1037 3.2197 87.5507 3.15909 87.9901 3.15909C88.2704 3.15909 88.5923 3.19318 88.956 3.26136C89.3234 3.32576 89.6776 3.46023 90.0185 3.66477C90.3632 3.86932 90.6491 4.17803 90.8764 4.59091C91.1037 5.00379 91.2173 5.55682 91.2173 6.25V12H89.8764V10.8182H89.8082C89.7173 11.0076 89.5658 11.2102 89.3537 11.4261C89.1416 11.642 88.8594 11.8258 88.5071 11.9773C88.1548 12.1288 87.7249 12.2045 87.2173 12.2045ZM87.4219 11C87.9522 11 88.3991 10.8958 88.7628 10.6875C89.1302 10.4792 89.4067 10.2102 89.5923 9.88068C89.7817 9.55114 89.8764 9.20455 89.8764 8.84091V7.61364C89.8196 7.68182 89.6946 7.74432 89.5014 7.80114C89.312 7.85417 89.0923 7.90151 88.8423 7.94318C88.5961 7.98106 88.3556 8.01515 88.1207 8.04545C87.8897 8.07197 87.7022 8.0947 87.5582 8.11364C87.2098 8.15909 86.884 8.23295 86.581 8.33523C86.2817 8.43371 86.0393 8.58333 85.8537 8.78409C85.6719 8.98106 85.581 9.25 85.581 9.59091C85.581 10.0568 85.7533 10.4091 86.098 10.6477C86.4465 10.8826 86.8878 11 87.4219 11ZM96.9602 12.1818C96.233 12.1818 95.5909 11.9981 95.0341 11.6307C94.4773 11.2595 94.0417 10.7367 93.7273 10.0625C93.4129 9.38447 93.2557 8.58333 93.2557 7.65909C93.2557 6.74242 93.4129 5.94697 93.7273 5.27273C94.0417 4.59848 94.4792 4.07765 95.0398 3.71023C95.6004 3.3428 96.2481 3.15909 96.983 3.15909C97.5511 3.15909 98 3.25379 98.3295 3.44318C98.6629 3.62879 98.9167 3.84091 99.0909 4.07955C99.2689 4.31439 99.4072 4.50758 99.5057 4.65909H99.6193V0.363636H100.96V12H99.6648V10.6591H99.5057C99.4072 10.8182 99.267 11.0189 99.0852 11.2614C98.9034 11.5 98.6439 11.714 98.3068 11.9034C97.9697 12.089 97.5208 12.1818 96.9602 12.1818ZM97.142 10.9773C97.6799 10.9773 98.1345 10.8371 98.5057 10.5568C98.8769 10.2727 99.1591 9.88068 99.3523 9.38068C99.5455 8.87689 99.642 8.29545 99.642 7.63636C99.642 6.98485 99.5473 6.41477 99.358 5.92614C99.1686 5.43371 98.8883 5.05114 98.517 4.77841C98.1458 4.50189 97.6875 4.36364 97.142 4.36364C96.5739 4.36364 96.1004 4.50947 95.7216 4.80114C95.3466 5.08902 95.0644 5.48106 94.875 5.97727C94.6894 6.4697 94.5966 7.02273 94.5966 7.63636C94.5966 8.25758 94.6913 8.82197 94.8807 9.32955C95.0739 9.83333 95.358 10.2348 95.733 10.5341C96.1117 10.8295 96.5814 10.9773 97.142 10.9773ZM104.466 15.2727C104.239 15.2727 104.036 15.2538 103.858 15.2159C103.68 15.1818 103.557 15.1477 103.489 15.1136L103.83 13.9318C104.155 14.0152 104.443 14.0455 104.693 14.0227C104.943 14 105.165 13.8883 105.358 13.6875C105.555 13.4905 105.735 13.1705 105.898 12.7273L106.148 12.0455L102.92 3.27273H104.375L106.784 10.2273H106.875L109.284 3.27273H110.739L107.034 13.2727C106.867 13.7235 106.661 14.0966 106.415 14.392C106.169 14.6913 105.883 14.9129 105.557 15.0568C105.235 15.2008 104.871 15.2727 104.466 15.2727ZM118.259 8.81818L118.236 7.15909H118.509L122.327 3.27273H123.986L119.918 7.38636H119.804L118.259 8.81818ZM117.009 12V0.363636H118.349V12H117.009ZM122.554 12L119.145 7.68182L120.099 6.75L124.259 12H122.554ZM127.053 6.75V12H125.712V3.27273H127.007V4.63636H127.121C127.325 4.19318 127.636 3.83712 128.053 3.56818C128.469 3.29545 129.007 3.15909 129.666 3.15909C130.257 3.15909 130.774 3.2803 131.217 3.52273C131.661 3.76136 132.005 4.125 132.251 4.61364C132.498 5.09848 132.621 5.71212 132.621 6.45455V12H131.28V6.54545C131.28 5.85985 131.102 5.32576 130.746 4.94318C130.39 4.55682 129.901 4.36364 129.28 4.36364C128.852 4.36364 128.469 4.45644 128.132 4.64205C127.799 4.82765 127.536 5.09848 127.342 5.45455C127.149 5.81061 127.053 6.24242 127.053 6.75ZM138.616 12.1818C137.829 12.1818 137.137 11.9943 136.543 11.6193C135.952 11.2443 135.49 10.7197 135.156 10.0455C134.827 9.37121 134.662 8.58333 134.662 7.68182C134.662 6.77273 134.827 5.97917 135.156 5.30114C135.49 4.62311 135.952 4.09659 136.543 3.72159C137.137 3.34659 137.829 3.15909 138.616 3.15909C139.404 3.15909 140.094 3.34659 140.685 3.72159C141.279 4.09659 141.741 4.62311 142.071 5.30114C142.404 5.97917 142.571 6.77273 142.571 7.68182C142.571 8.58333 142.404 9.37121 142.071 10.0455C141.741 10.7197 141.279 11.2443 140.685 11.6193C140.094 11.9943 139.404 12.1818 138.616 12.1818ZM138.616 10.9773C139.215 10.9773 139.707 10.8239 140.094 10.517C140.48 10.2102 140.766 9.80682 140.952 9.30682C141.137 8.80682 141.23 8.26515 141.23 7.68182C141.23 7.09848 141.137 6.55492 140.952 6.05114C140.766 5.54735 140.48 5.14015 140.094 4.82955C139.707 4.51894 139.215 4.36364 138.616 4.36364C138.018 4.36364 137.526 4.51894 137.139 4.82955C136.753 5.14015 136.467 5.54735 136.281 6.05114C136.096 6.55492 136.003 7.09848 136.003 7.68182C136.003 8.26515 136.096 8.80682 136.281 9.30682C136.467 9.80682 136.753 10.2102 137.139 10.517C137.526 10.8239 138.018 10.9773 138.616 10.9773ZM146.298 12L143.639 3.27273H145.048L146.935 9.95455H147.026L148.889 3.27273H150.321L152.162 9.93182H152.253L154.139 3.27273H155.548L152.889 12H151.571L149.662 5.29545H149.526L147.616 12H146.298ZM161.821 12V3.27273H163.116V4.63636H163.23C163.412 4.17045 163.705 3.80871 164.111 3.55114C164.516 3.28977 165.003 3.15909 165.571 3.15909C166.147 3.15909 166.626 3.28977 167.009 3.55114C167.395 3.80871 167.696 4.17045 167.912 4.63636H168.003C168.226 4.18561 168.562 3.82765 169.009 3.5625C169.455 3.29356 169.991 3.15909 170.616 3.15909C171.397 3.15909 172.035 3.40341 172.531 3.89205C173.027 4.37689 173.276 5.13258 173.276 6.15909V12H171.935V6.15909C171.935 5.51515 171.759 5.05492 171.406 4.77841C171.054 4.50189 170.639 4.36364 170.162 4.36364C169.548 4.36364 169.073 4.54924 168.736 4.92045C168.399 5.28788 168.23 5.75379 168.23 6.31818V12H166.866V6.02273C166.866 5.52652 166.705 5.12689 166.384 4.82386C166.062 4.51705 165.647 4.36364 165.139 4.36364C164.791 4.36364 164.465 4.45644 164.162 4.64205C163.863 4.82765 163.62 5.08523 163.435 5.41477C163.253 5.74053 163.162 6.11742 163.162 6.54545V12H161.821ZM176.278 15.2727C176.051 15.2727 175.848 15.2538 175.67 15.2159C175.492 15.1818 175.369 15.1477 175.301 15.1136L175.642 13.9318C175.968 14.0152 176.256 14.0455 176.506 14.0227C176.756 14 176.977 13.8883 177.17 13.6875C177.367 13.4905 177.547 13.1705 177.71 12.7273L177.96 12.0455L174.733 3.27273H176.188L178.597 10.2273H178.688L181.097 3.27273H182.551L178.847 13.2727C178.68 13.7235 178.473 14.0966 178.227 14.392C177.981 14.6913 177.695 14.9129 177.369 15.0568C177.047 15.2008 176.684 15.2727 176.278 15.2727ZM190.162 6.75V12H188.821V3.27273H190.116V4.63636H190.23C190.435 4.19318 190.745 3.83712 191.162 3.56818C191.579 3.29545 192.116 3.15909 192.776 3.15909C193.366 3.15909 193.884 3.2803 194.327 3.52273C194.77 3.76136 195.115 4.125 195.361 4.61364C195.607 5.09848 195.73 5.71212 195.73 6.45455V12H194.389V6.54545C194.389 5.85985 194.211 5.32576 193.855 4.94318C193.499 4.55682 193.01 4.36364 192.389 4.36364C191.961 4.36364 191.579 4.45644 191.241 4.64205C190.908 4.82765 190.645 5.09848 190.452 5.45455C190.259 5.81061 190.162 6.24242 190.162 6.75ZM200.749 12.2045C200.196 12.2045 199.694 12.1004 199.243 11.892C198.792 11.6799 198.434 11.375 198.169 10.9773C197.904 10.5758 197.771 10.0909 197.771 9.52273C197.771 9.02273 197.87 8.61742 198.067 8.30682C198.264 7.99242 198.527 7.74621 198.857 7.56818C199.186 7.39015 199.55 7.25758 199.947 7.17045C200.349 7.07955 200.752 7.00758 201.158 6.95455C201.688 6.88636 202.118 6.83523 202.447 6.80114C202.781 6.76326 203.023 6.70076 203.175 6.61364C203.33 6.52652 203.408 6.375 203.408 6.15909V6.11364C203.408 5.55303 203.254 5.11742 202.947 4.80682C202.644 4.49621 202.184 4.34091 201.567 4.34091C200.927 4.34091 200.425 4.48106 200.061 4.76136C199.697 5.04167 199.442 5.34091 199.294 5.65909L198.021 5.20455C198.249 4.67424 198.552 4.26136 198.93 3.96591C199.313 3.66667 199.73 3.45833 200.18 3.34091C200.635 3.2197 201.082 3.15909 201.521 3.15909C201.802 3.15909 202.124 3.19318 202.487 3.26136C202.855 3.32576 203.209 3.46023 203.55 3.66477C203.894 3.86932 204.18 4.17803 204.408 4.59091C204.635 5.00379 204.749 5.55682 204.749 6.25V12H203.408V10.8182H203.339C203.249 11.0076 203.097 11.2102 202.885 11.4261C202.673 11.642 202.391 11.8258 202.038 11.9773C201.686 12.1288 201.256 12.2045 200.749 12.2045ZM200.953 11C201.483 11 201.93 10.8958 202.294 10.6875C202.661 10.4792 202.938 10.2102 203.124 9.88068C203.313 9.55114 203.408 9.20455 203.408 8.84091V7.61364C203.351 7.68182 203.226 7.74432 203.033 7.80114C202.843 7.85417 202.624 7.90151 202.374 7.94318C202.127 7.98106 201.887 8.01515 201.652 8.04545C201.421 8.07197 201.233 8.0947 201.089 8.11364C200.741 8.15909 200.415 8.23295 200.112 8.33523C199.813 8.43371 199.571 8.58333 199.385 8.78409C199.203 8.98106 199.112 9.25 199.112 9.59091C199.112 10.0568 199.285 10.4091 199.629 10.6477C199.978 10.8826 200.419 11 200.953 11ZM207.196 12V3.27273H208.491V4.63636H208.605C208.787 4.17045 209.08 3.80871 209.486 3.55114C209.891 3.28977 210.378 3.15909 210.946 3.15909C211.522 3.15909 212.001 3.28977 212.384 3.55114C212.77 3.80871 213.071 4.17045 213.287 4.63636H213.378C213.601 4.18561 213.937 3.82765 214.384 3.5625C214.83 3.29356 215.366 3.15909 215.991 3.15909C216.772 3.15909 217.41 3.40341 217.906 3.89205C218.402 4.37689 218.651 5.13258 218.651 6.15909V12H217.31V6.15909C217.31 5.51515 217.134 5.05492 216.781 4.77841C216.429 4.50189 216.014 4.36364 215.537 4.36364C214.923 4.36364 214.448 4.54924 214.111 4.92045C213.774 5.28788 213.605 5.75379 213.605 6.31818V12H212.241V6.02273C212.241 5.52652 212.08 5.12689 211.759 4.82386C211.437 4.51705 211.022 4.36364 210.514 4.36364C210.166 4.36364 209.84 4.45644 209.537 4.64205C209.238 4.82765 208.995 5.08523 208.81 5.41477C208.628 5.74053 208.537 6.11742 208.537 6.54545V12H207.196ZM224.761 12.1818C223.92 12.1818 223.195 11.9962 222.585 11.625C221.979 11.25 221.511 10.7273 221.182 10.0568C220.856 9.38258 220.693 8.59848 220.693 7.70455C220.693 6.81061 220.856 6.02273 221.182 5.34091C221.511 4.6553 221.97 4.12121 222.557 3.73864C223.148 3.35227 223.837 3.15909 224.625 3.15909C225.08 3.15909 225.528 3.23485 225.972 3.38636C226.415 3.53788 226.818 3.78409 227.182 4.125C227.545 4.46212 227.835 4.90909 228.051 5.46591C228.267 6.02273 228.375 6.70833 228.375 7.52273V8.09091H221.648V6.93182H227.011C227.011 6.43939 226.913 6 226.716 5.61364C226.523 5.22727 226.246 4.92235 225.886 4.69886C225.53 4.47538 225.11 4.36364 224.625 4.36364C224.091 4.36364 223.629 4.49621 223.239 4.76136C222.852 5.02273 222.555 5.36364 222.347 5.78409C222.138 6.20455 222.034 6.6553 222.034 7.13636V7.90909C222.034 8.56818 222.148 9.12689 222.375 9.58523C222.606 10.0398 222.926 10.3864 223.335 10.625C223.744 10.8598 224.22 10.9773 224.761 10.9773C225.114 10.9773 225.432 10.928 225.716 10.8295C226.004 10.7273 226.252 10.5758 226.46 10.375C226.669 10.1705 226.83 9.91667 226.943 9.61364L228.239 9.97727C228.102 10.4167 227.873 10.803 227.551 11.1364C227.229 11.4659 226.831 11.7235 226.358 11.9091C225.884 12.0909 225.352 12.1818 224.761 12.1818ZM237.483 12.2045C236.93 12.2045 236.428 12.1004 235.977 11.892C235.527 11.6799 235.169 11.375 234.903 10.9773C234.638 10.5758 234.506 10.0909 234.506 9.52273C234.506 9.02273 234.604 8.61742 234.801 8.30682C234.998 7.99242 235.261 7.74621 235.591 7.56818C235.92 7.39015 236.284 7.25758 236.682 7.17045C237.083 7.07955 237.487 7.00758 237.892 6.95455C238.422 6.88636 238.852 6.83523 239.182 6.80114C239.515 6.76326 239.758 6.70076 239.909 6.61364C240.064 6.52652 240.142 6.375 240.142 6.15909V6.11364C240.142 5.55303 239.989 5.11742 239.682 4.80682C239.379 4.49621 238.919 4.34091 238.301 4.34091C237.661 4.34091 237.159 4.48106 236.795 4.76136C236.432 5.04167 236.176 5.34091 236.028 5.65909L234.756 5.20455C234.983 4.67424 235.286 4.26136 235.665 3.96591C236.047 3.66667 236.464 3.45833 236.915 3.34091C237.369 3.2197 237.816 3.15909 238.256 3.15909C238.536 3.15909 238.858 3.19318 239.222 3.26136C239.589 3.32576 239.943 3.46023 240.284 3.66477C240.629 3.86932 240.915 4.17803 241.142 4.59091C241.369 5.00379 241.483 5.55682 241.483 6.25V12H240.142V10.8182H240.074C239.983 11.0076 239.831 11.2102 239.619 11.4261C239.407 11.642 239.125 11.8258 238.773 11.9773C238.42 12.1288 237.991 12.2045 237.483 12.2045ZM237.688 11C238.218 11 238.665 10.8958 239.028 10.6875C239.396 10.4792 239.672 10.2102 239.858 9.88068C240.047 9.55114 240.142 9.20455 240.142 8.84091V7.61364C240.085 7.68182 239.96 7.74432 239.767 7.80114C239.578 7.85417 239.358 7.90151 239.108 7.94318C238.862 7.98106 238.621 8.01515 238.386 8.04545C238.155 8.07197 237.968 8.0947 237.824 8.11364C237.475 8.15909 237.15 8.23295 236.847 8.33523C236.547 8.43371 236.305 8.58333 236.119 8.78409C235.938 8.98106 235.847 9.25 235.847 9.59091C235.847 10.0568 236.019 10.4091 236.364 10.6477C236.712 10.8826 237.153 11 237.688 11ZM245.271 6.75V12H243.93V3.27273H245.226V4.63636H245.339C245.544 4.19318 245.855 3.83712 246.271 3.56818C246.688 3.29545 247.226 3.15909 247.885 3.15909C248.476 3.15909 248.993 3.2803 249.436 3.52273C249.879 3.76136 250.224 4.125 250.47 4.61364C250.716 5.09848 250.839 5.71212 250.839 6.45455V12H249.499V6.54545C249.499 5.85985 249.321 5.32576 248.964 4.94318C248.608 4.55682 248.12 4.36364 247.499 4.36364C247.071 4.36364 246.688 4.45644 246.351 4.64205C246.018 4.82765 245.754 5.09848 245.561 5.45455C245.368 5.81061 245.271 6.24242 245.271 6.75ZM256.585 12.1818C255.858 12.1818 255.216 11.9981 254.659 11.6307C254.102 11.2595 253.667 10.7367 253.352 10.0625C253.038 9.38447 252.881 8.58333 252.881 7.65909C252.881 6.74242 253.038 5.94697 253.352 5.27273C253.667 4.59848 254.104 4.07765 254.665 3.71023C255.225 3.3428 255.873 3.15909 256.608 3.15909C257.176 3.15909 257.625 3.25379 257.955 3.44318C258.288 3.62879 258.542 3.84091 258.716 4.07955C258.894 4.31439 259.032 4.50758 259.131 4.65909H259.244V0.363636H260.585V12H259.29V10.6591H259.131C259.032 10.8182 258.892 11.0189 258.71 11.2614C258.528 11.5 258.269 11.714 257.932 11.9034C257.595 12.089 257.146 12.1818 256.585 12.1818ZM256.767 10.9773C257.305 10.9773 257.759 10.8371 258.131 10.5568C258.502 10.2727 258.784 9.88068 258.977 9.38068C259.17 8.87689 259.267 8.29545 259.267 7.63636C259.267 6.98485 259.172 6.41477 258.983 5.92614C258.794 5.43371 258.513 5.05114 258.142 4.77841C257.771 4.50189 257.313 4.36364 256.767 4.36364C256.199 4.36364 255.725 4.50947 255.347 4.80114C254.972 5.08902 254.689 5.48106 254.5 5.97727C254.314 6.4697 254.222 7.02273 254.222 7.63636C254.222 8.25758 254.316 8.82197 254.506 9.32955C254.699 9.83333 254.983 10.2348 255.358 10.5341C255.737 10.8295 256.206 10.9773 256.767 10.9773ZM269.705 12L267.045 3.27273H268.455L270.341 9.95455H270.432L272.295 3.27273H273.727L275.568 9.93182H275.659L277.545 3.27273H278.955L276.295 12H274.977L273.068 5.29545H272.932L271.023 12H269.705ZM282.068 6.75V12H280.727V0.363636H282.068V4.63636H282.182C282.386 4.18561 282.693 3.82765 283.102 3.5625C283.515 3.29356 284.064 3.15909 284.75 3.15909C285.345 3.15909 285.866 3.27841 286.312 3.51705C286.759 3.75189 287.106 4.11364 287.352 4.60227C287.602 5.08712 287.727 5.70455 287.727 6.45455V12H286.386V6.54545C286.386 5.85227 286.206 5.31629 285.847 4.9375C285.491 4.55492 284.996 4.36364 284.364 4.36364C283.924 4.36364 283.53 4.45644 283.182 4.64205C282.837 4.82765 282.564 5.09848 282.364 5.45455C282.167 5.81061 282.068 6.24242 282.068 6.75ZM292.749 12.2045C292.196 12.2045 291.694 12.1004 291.243 11.892C290.792 11.6799 290.434 11.375 290.169 10.9773C289.904 10.5758 289.771 10.0909 289.771 9.52273C289.771 9.02273 289.87 8.61742 290.067 8.30682C290.264 7.99242 290.527 7.74621 290.857 7.56818C291.186 7.39015 291.55 7.25758 291.947 7.17045C292.349 7.07955 292.752 7.00758 293.158 6.95455C293.688 6.88636 294.118 6.83523 294.447 6.80114C294.781 6.76326 295.023 6.70076 295.175 6.61364C295.33 6.52652 295.408 6.375 295.408 6.15909V6.11364C295.408 5.55303 295.254 5.11742 294.947 4.80682C294.644 4.49621 294.184 4.34091 293.567 4.34091C292.927 4.34091 292.425 4.48106 292.061 4.76136C291.697 5.04167 291.442 5.34091 291.294 5.65909L290.021 5.20455C290.249 4.67424 290.552 4.26136 290.93 3.96591C291.313 3.66667 291.73 3.45833 292.18 3.34091C292.635 3.2197 293.082 3.15909 293.521 3.15909C293.802 3.15909 294.124 3.19318 294.487 3.26136C294.855 3.32576 295.209 3.46023 295.55 3.66477C295.894 3.86932 296.18 4.17803 296.408 4.59091C296.635 5.00379 296.749 5.55682 296.749 6.25V12H295.408V10.8182H295.339C295.249 11.0076 295.097 11.2102 294.885 11.4261C294.673 11.642 294.391 11.8258 294.038 11.9773C293.686 12.1288 293.256 12.2045 292.749 12.2045ZM292.953 11C293.483 11 293.93 10.8958 294.294 10.6875C294.661 10.4792 294.938 10.2102 295.124 9.88068C295.313 9.55114 295.408 9.20455 295.408 8.84091V7.61364C295.351 7.68182 295.226 7.74432 295.033 7.80114C294.843 7.85417 294.624 7.90151 294.374 7.94318C294.127 7.98106 293.887 8.01515 293.652 8.04545C293.421 8.07197 293.233 8.0947 293.089 8.11364C292.741 8.15909 292.415 8.23295 292.112 8.33523C291.813 8.43371 291.571 8.58333 291.385 8.78409C291.203 8.98106 291.112 9.25 291.112 9.59091C291.112 10.0568 291.285 10.4091 291.629 10.6477C291.978 10.8826 292.419 11 292.953 11ZM302.991 3.27273V4.40909H298.469V3.27273H302.991ZM299.787 1.18182H301.128V9.5C301.128 9.87879 301.183 10.1629 301.293 10.3523C301.406 10.5379 301.55 10.6629 301.724 10.7273C301.902 10.7879 302.09 10.8182 302.287 10.8182C302.435 10.8182 302.556 10.8106 302.651 10.7955C302.745 10.7765 302.821 10.7614 302.878 10.75L303.151 11.9545C303.06 11.9886 302.933 12.0227 302.77 12.0568C302.607 12.0947 302.401 12.1136 302.151 12.1136C301.772 12.1136 301.401 12.0322 301.037 11.8693C300.677 11.7064 300.378 11.4583 300.139 11.125C299.904 10.7917 299.787 10.3712 299.787 9.86364V1.18182ZM311.099 0.363636V12H309.69V0.363636H311.099ZM321.538 12.1818C320.811 12.1818 320.169 11.9981 319.612 11.6307C319.055 11.2595 318.62 10.7367 318.305 10.0625C317.991 9.38447 317.834 8.58333 317.834 7.65909C317.834 6.74242 317.991 5.94697 318.305 5.27273C318.62 4.59848 319.057 4.07765 319.618 3.71023C320.179 3.3428 320.826 3.15909 321.561 3.15909C322.129 3.15909 322.578 3.25379 322.908 3.44318C323.241 3.62879 323.495 3.84091 323.669 4.07955C323.847 4.31439 323.985 4.50758 324.084 4.65909H324.197V0.363636H325.538V12H324.243V10.6591H324.084C323.985 10.8182 323.845 11.0189 323.663 11.2614C323.482 11.5 323.222 11.714 322.885 11.9034C322.548 12.089 322.099 12.1818 321.538 12.1818ZM321.72 10.9773C322.258 10.9773 322.713 10.8371 323.084 10.5568C323.455 10.2727 323.737 9.88068 323.93 9.38068C324.124 8.87689 324.22 8.29545 324.22 7.63636C324.22 6.98485 324.125 6.41477 323.936 5.92614C323.747 5.43371 323.466 5.05114 323.095 4.77841C322.724 4.50189 322.266 4.36364 321.72 4.36364C321.152 4.36364 320.679 4.50947 320.3 4.80114C319.925 5.08902 319.643 5.48106 319.453 5.97727C319.268 6.4697 319.175 7.02273 319.175 7.63636C319.175 8.25758 319.269 8.82197 319.459 9.32955C319.652 9.83333 319.936 10.2348 320.311 10.5341C320.69 10.8295 321.16 10.9773 321.72 10.9773ZM331.726 12.1818C330.938 12.1818 330.247 11.9943 329.652 11.6193C329.061 11.2443 328.599 10.7197 328.266 10.0455C327.936 9.37121 327.771 8.58333 327.771 7.68182C327.771 6.77273 327.936 5.97917 328.266 5.30114C328.599 4.62311 329.061 4.09659 329.652 3.72159C330.247 3.34659 330.938 3.15909 331.726 3.15909C332.514 3.15909 333.203 3.34659 333.794 3.72159C334.389 4.09659 334.851 4.62311 335.18 5.30114C335.514 5.97917 335.68 6.77273 335.68 7.68182C335.68 8.58333 335.514 9.37121 335.18 10.0455C334.851 10.7197 334.389 11.2443 333.794 11.6193C333.203 11.9943 332.514 12.1818 331.726 12.1818ZM331.726 10.9773C332.324 10.9773 332.817 10.8239 333.203 10.517C333.589 10.2102 333.875 9.80682 334.061 9.30682C334.247 8.80682 334.339 8.26515 334.339 7.68182C334.339 7.09848 334.247 6.55492 334.061 6.05114C333.875 5.54735 333.589 5.14015 333.203 4.82955C332.817 4.51894 332.324 4.36364 331.726 4.36364C331.127 4.36364 330.635 4.51894 330.249 4.82955C329.862 5.14015 329.576 5.54735 329.391 6.05114C329.205 6.55492 329.112 7.09848 329.112 7.68182C329.112 8.26515 329.205 8.80682 329.391 9.30682C329.576 9.80682 329.862 10.2102 330.249 10.517C330.635 10.8239 331.127 10.9773 331.726 10.9773ZM338.705 12.0909C338.424 12.0909 338.184 11.9905 337.983 11.7898C337.782 11.589 337.682 11.3485 337.682 11.0682C337.682 10.7879 337.782 10.5473 337.983 10.3466C338.184 10.1458 338.424 10.0455 338.705 10.0455C338.985 10.0455 339.225 10.1458 339.426 10.3466C339.627 10.5473 339.727 10.7879 339.727 11.0682C339.727 11.2538 339.68 11.4242 339.585 11.5795C339.494 11.7348 339.371 11.8598 339.216 11.9545C339.064 12.0455 338.894 12.0909 338.705 12.0909ZM1.88636 40H0.409091L4.68182 28.3636H6.13636L10.4091 40H8.93182L5.45455 30.2045H5.36364L1.88636 40ZM2.43182 35.4545H8.38636V36.7045H2.43182V35.4545ZM20.4261 31.2727V32.4091H15.7216V31.2727H20.4261ZM17.1307 40V30.0682C17.1307 29.5682 17.2481 29.1515 17.483 28.8182C17.7178 28.4848 18.0227 28.2348 18.3977 28.0682C18.7727 27.9015 19.1686 27.8182 19.5852 27.8182C19.9148 27.8182 20.1837 27.8447 20.392 27.8977C20.6004 27.9508 20.7557 28 20.858 28.0455L20.4716 29.2045C20.4034 29.1818 20.3087 29.1534 20.1875 29.1193C20.0701 29.0852 19.9148 29.0682 19.7216 29.0682C19.2784 29.0682 18.9583 29.1799 18.7614 29.4034C18.5682 29.6269 18.4716 29.9545 18.4716 30.3864V40H17.1307ZM25.6051 40.1818C24.7642 40.1818 24.0388 39.9962 23.429 39.625C22.8229 39.25 22.3551 38.7273 22.0256 38.0568C21.6998 37.3826 21.5369 36.5985 21.5369 35.7045C21.5369 34.8106 21.6998 34.0227 22.0256 33.3409C22.3551 32.6553 22.8134 32.1212 23.4006 31.7386C23.9915 31.3523 24.6809 31.1591 25.4688 31.1591C25.9233 31.1591 26.3722 31.2348 26.8153 31.3864C27.2585 31.5379 27.6619 31.7841 28.0256 32.125C28.3892 32.4621 28.679 32.9091 28.8949 33.4659C29.1108 34.0227 29.2188 34.7083 29.2188 35.5227V36.0909H22.4915V34.9318H27.8551C27.8551 34.4394 27.7566 34 27.5597 33.6136C27.3665 33.2273 27.09 32.9223 26.7301 32.6989C26.3741 32.4754 25.9536 32.3636 25.4688 32.3636C24.9347 32.3636 24.4725 32.4962 24.0824 32.7614C23.696 33.0227 23.3987 33.3636 23.1903 33.7841C22.982 34.2045 22.8778 34.6553 22.8778 35.1364V35.9091C22.8778 36.5682 22.9915 37.1269 23.2188 37.5852C23.4498 38.0398 23.7699 38.3864 24.179 38.625C24.5881 38.8598 25.0634 38.9773 25.6051 38.9773C25.9574 38.9773 26.2756 38.928 26.5597 38.8295C26.8475 38.7273 27.0956 38.5758 27.304 38.375C27.5123 38.1705 27.6733 37.9167 27.7869 37.6136L29.0824 37.9773C28.946 38.4167 28.7169 38.803 28.3949 39.1364C28.0729 39.4659 27.6752 39.7235 27.2017 39.9091C26.7282 40.0909 26.196 40.1818 25.6051 40.1818ZM33.2358 40L30.5767 31.2727H31.9858L33.8722 37.9545H33.9631L35.8267 31.2727H37.2585L39.0994 37.9318H39.1903L41.0767 31.2727H42.4858L39.8267 40H38.5085L36.5994 33.2955H36.4631L34.554 40H33.2358ZM52.304 40.1818C51.5161 40.1818 50.8248 39.9943 50.2301 39.6193C49.6392 39.2443 49.1771 38.7197 48.8438 38.0455C48.5142 37.3712 48.3494 36.5833 48.3494 35.6818C48.3494 34.7727 48.5142 33.9792 48.8438 33.3011C49.1771 32.6231 49.6392 32.0966 50.2301 31.7216C50.8248 31.3466 51.5161 31.1591 52.304 31.1591C53.0919 31.1591 53.7813 31.3466 54.3722 31.7216C54.9669 32.0966 55.429 32.6231 55.7585 33.3011C56.0919 33.9792 56.2585 34.7727 56.2585 35.6818C56.2585 36.5833 56.0919 37.3712 55.7585 38.0455C55.429 38.7197 54.9669 39.2443 54.3722 39.6193C53.7813 39.9943 53.0919 40.1818 52.304 40.1818ZM52.304 38.9773C52.9025 38.9773 53.3949 38.8239 53.7812 38.517C54.1676 38.2102 54.4536 37.8068 54.6392 37.3068C54.8248 36.8068 54.9176 36.2652 54.9176 35.6818C54.9176 35.0985 54.8248 34.5549 54.6392 34.0511C54.4536 33.5473 54.1676 33.1402 53.7812 32.8295C53.3949 32.5189 52.9025 32.3636 52.304 32.3636C51.7055 32.3636 51.2131 32.5189 50.8267 32.8295C50.4403 33.1402 50.1544 33.5473 49.9688 34.0511C49.7831 34.5549 49.6903 35.0985 49.6903 35.6818C49.6903 36.2652 49.7831 36.8068 49.9688 37.3068C50.1544 37.8068 50.4403 38.2102 50.8267 38.517C51.2131 38.8239 51.7055 38.9773 52.304 38.9773ZM62.1009 31.2727V32.4091H57.5781V31.2727H62.1009ZM58.8963 29.1818H60.2372V37.5C60.2372 37.8788 60.2921 38.1629 60.402 38.3523C60.5156 38.5379 60.6596 38.6629 60.8338 38.7273C61.0118 38.7879 61.1993 38.8182 61.3963 38.8182C61.544 38.8182 61.6652 38.8106 61.7599 38.7955C61.8546 38.7765 61.9304 38.7614 61.9872 38.75L62.2599 39.9545C62.169 39.9886 62.0421 40.0227 61.8793 40.0568C61.7164 40.0947 61.5099 40.1136 61.2599 40.1136C60.8812 40.1136 60.5099 40.0322 60.1463 39.8693C59.7865 39.7064 59.4872 39.4583 59.2486 39.125C59.0137 38.7917 58.8963 38.3712 58.8963 37.8636V29.1818ZM65.6463 34.75V40H64.3054V28.3636H65.6463V32.6364H65.7599C65.9645 32.1856 66.2713 31.8277 66.6804 31.5625C67.0933 31.2936 67.6425 31.1591 68.3281 31.1591C68.9228 31.1591 69.4437 31.2784 69.8906 31.517C70.3376 31.7519 70.6842 32.1136 70.9304 32.6023C71.1804 33.0871 71.3054 33.7045 71.3054 34.4545V40H69.9645V34.5455C69.9645 33.8523 69.7846 33.3163 69.4247 32.9375C69.0687 32.5549 68.5743 32.3636 67.9418 32.3636C67.5024 32.3636 67.1084 32.4564 66.7599 32.642C66.4152 32.8277 66.1425 33.0985 65.9418 33.4545C65.7448 33.8106 65.6463 34.2424 65.6463 34.75ZM77.4176 40.1818C76.5767 40.1818 75.8513 39.9962 75.2415 39.625C74.6354 39.25 74.1676 38.7273 73.8381 38.0568C73.5123 37.3826 73.3494 36.5985 73.3494 35.7045C73.3494 34.8106 73.5123 34.0227 73.8381 33.3409C74.1676 32.6553 74.6259 32.1212 75.2131 31.7386C75.804 31.3523 76.4934 31.1591 77.2812 31.1591C77.7358 31.1591 78.1847 31.2348 78.6278 31.3864C79.071 31.5379 79.4744 31.7841 79.8381 32.125C80.2017 32.4621 80.4915 32.9091 80.7074 33.4659C80.9233 34.0227 81.0312 34.7083 81.0312 35.5227V36.0909H74.304V34.9318H79.6676C79.6676 34.4394 79.5691 34 79.3722 33.6136C79.179 33.2273 78.9025 32.9223 78.5426 32.6989C78.1866 32.4754 77.7661 32.3636 77.2812 32.3636C76.7472 32.3636 76.285 32.4962 75.8949 32.7614C75.5085 33.0227 75.2112 33.3636 75.0028 33.7841C74.7945 34.2045 74.6903 34.6553 74.6903 35.1364V35.9091C74.6903 36.5682 74.804 37.1269 75.0312 37.5852C75.2623 38.0398 75.5824 38.3864 75.9915 38.625C76.4006 38.8598 76.8759 38.9773 77.4176 38.9773C77.7699 38.9773 78.0881 38.928 78.3722 38.8295C78.66 38.7273 78.9081 38.5758 79.1165 38.375C79.3248 38.1705 79.4858 37.9167 79.5994 37.6136L80.8949 37.9773C80.7585 38.4167 80.5294 38.803 80.2074 39.1364C79.8854 39.4659 79.4877 39.7235 79.0142 39.9091C78.5407 40.0909 78.0085 40.1818 77.4176 40.1818ZM83.071 40V31.2727H84.3665V32.5909H84.4574C84.6165 32.1591 84.9044 31.8087 85.321 31.5398C85.7377 31.2708 86.2074 31.1364 86.7301 31.1364C86.8286 31.1364 86.9517 31.1383 87.0994 31.142C87.2472 31.1458 87.3589 31.1515 87.4347 31.1591V32.5227C87.3892 32.5114 87.285 32.4943 87.1222 32.4716C86.9631 32.4451 86.7945 32.4318 86.6165 32.4318C86.1922 32.4318 85.8134 32.5208 85.4801 32.6989C85.1506 32.8731 84.8892 33.1155 84.696 33.4261C84.5066 33.733 84.4119 34.0833 84.4119 34.4773V40H83.071ZM97.3196 31.2727V32.4091H92.7969V31.2727H97.3196ZM94.1151 29.1818H95.456V37.5C95.456 37.8788 95.5109 38.1629 95.6207 38.3523C95.7344 38.5379 95.8783 38.6629 96.0526 38.7273C96.2306 38.7879 96.4181 38.8182 96.6151 38.8182C96.7628 38.8182 96.884 38.8106 96.9787 38.7955C97.0734 38.7765 97.1491 38.7614 97.206 38.75L97.4787 39.9545C97.3878 39.9886 97.2609 40.0227 97.098 40.0568C96.9351 40.0947 96.7287 40.1136 96.4787 40.1136C96.0999 40.1136 95.7287 40.0322 95.3651 39.8693C95.0052 39.7064 94.706 39.4583 94.4673 39.125C94.2325 38.7917 94.1151 38.3712 94.1151 37.8636V29.1818ZM100.865 34.75V40H99.5241V28.3636H100.865V32.6364H100.979C101.183 32.1856 101.49 31.8277 101.899 31.5625C102.312 31.2936 102.861 31.1591 103.547 31.1591C104.142 31.1591 104.662 31.2784 105.109 31.517C105.556 31.7519 105.903 32.1136 106.149 32.6023C106.399 33.0871 106.524 33.7045 106.524 34.4545V40H105.183V34.5455C105.183 33.8523 105.003 33.3163 104.643 32.9375C104.287 32.5549 103.793 32.3636 103.161 32.3636C102.721 32.3636 102.327 32.4564 101.979 32.642C101.634 32.8277 101.361 33.0985 101.161 33.4545C100.964 33.8106 100.865 34.2424 100.865 34.75ZM108.977 40V31.2727H110.318V40H108.977ZM109.659 29.8182C109.398 29.8182 109.172 29.7292 108.983 29.5511C108.797 29.3731 108.705 29.1591 108.705 28.9091C108.705 28.6591 108.797 28.4451 108.983 28.267C109.172 28.089 109.398 28 109.659 28C109.92 28 110.144 28.089 110.33 28.267C110.519 28.4451 110.614 28.6591 110.614 28.9091C110.614 29.1591 110.519 29.3731 110.33 29.5511C110.144 29.7292 109.92 29.8182 109.659 29.8182ZM114.115 34.75V40H112.774V31.2727H114.07V32.6364H114.183C114.388 32.1932 114.698 31.8371 115.115 31.5682C115.532 31.2955 116.07 31.1591 116.729 31.1591C117.32 31.1591 117.837 31.2803 118.28 31.5227C118.723 31.7614 119.068 32.125 119.314 32.6136C119.56 33.0985 119.683 33.7121 119.683 34.4545V40H118.342V34.5455C118.342 33.8598 118.164 33.3258 117.808 32.9432C117.452 32.5568 116.964 32.3636 116.342 32.3636C115.914 32.3636 115.532 32.4564 115.195 32.642C114.861 32.8277 114.598 33.0985 114.405 33.4545C114.212 33.8106 114.115 34.2424 114.115 34.75ZM125.656 43.4545C125.009 43.4545 124.452 43.3712 123.986 43.2045C123.52 43.0417 123.132 42.8258 122.821 42.5568C122.514 42.2917 122.27 42.0076 122.088 41.7045L123.156 40.9545C123.277 41.1136 123.431 41.2955 123.616 41.5C123.802 41.7083 124.056 41.8883 124.378 42.0398C124.704 42.1951 125.13 42.2727 125.656 42.2727C126.361 42.2727 126.942 42.1023 127.401 41.7614C127.859 41.4205 128.088 40.8864 128.088 40.1591V38.3864H127.974C127.876 38.5455 127.736 38.7424 127.554 38.9773C127.376 39.2083 127.118 39.4148 126.781 39.5966C126.448 39.7746 125.997 39.8636 125.429 39.8636C124.724 39.8636 124.092 39.697 123.531 39.3636C122.974 39.0303 122.533 38.5455 122.207 37.9091C121.885 37.2727 121.724 36.5 121.724 35.5909C121.724 34.697 121.882 33.9186 122.196 33.2557C122.51 32.589 122.948 32.0739 123.509 31.7102C124.069 31.3428 124.717 31.1591 125.452 31.1591C126.02 31.1591 126.471 31.2538 126.804 31.4432C127.141 31.6288 127.399 31.8409 127.577 32.0795C127.759 32.3144 127.899 32.5076 127.997 32.6591H128.134V31.2727H129.429V40.25C129.429 41 129.259 41.6098 128.918 42.0795C128.58 42.553 128.126 42.8996 127.554 43.1193C126.986 43.3428 126.353 43.4545 125.656 43.4545ZM125.611 38.6591C126.149 38.6591 126.603 38.536 126.974 38.2898C127.346 38.0436 127.628 37.6894 127.821 37.2273C128.014 36.7652 128.111 36.2121 128.111 35.5682C128.111 34.9394 128.016 34.3845 127.827 33.9034C127.637 33.4223 127.357 33.0455 126.986 32.7727C126.615 32.5 126.156 32.3636 125.611 32.3636C125.043 32.3636 124.569 32.5076 124.19 32.7955C123.815 33.0833 123.533 33.4697 123.344 33.9545C123.158 34.4394 123.065 34.9773 123.065 35.5682C123.065 36.1742 123.16 36.7102 123.349 37.1761C123.543 37.6383 123.827 38.0019 124.202 38.267C124.58 38.5284 125.05 38.6591 125.611 38.6591ZM138.065 33.2273L136.861 33.5682C136.785 33.3674 136.673 33.1723 136.526 32.983C136.382 32.7898 136.185 32.6307 135.935 32.5057C135.685 32.3807 135.365 32.3182 134.974 32.3182C134.44 32.3182 133.995 32.4413 133.639 32.6875C133.287 32.9299 133.111 33.2386 133.111 33.6136C133.111 33.947 133.232 34.2102 133.474 34.4034C133.717 34.5966 134.096 34.7576 134.611 34.8864L135.906 35.2045C136.687 35.3939 137.268 35.6837 137.651 36.0739C138.033 36.4602 138.224 36.9583 138.224 37.5682C138.224 38.0682 138.08 38.5152 137.793 38.9091C137.509 39.303 137.111 39.6136 136.599 39.8409C136.088 40.0682 135.493 40.1818 134.815 40.1818C133.925 40.1818 133.188 39.9886 132.605 39.6023C132.022 39.2159 131.652 38.6515 131.497 37.9091L132.77 37.5909C132.891 38.0606 133.12 38.4129 133.457 38.6477C133.798 38.8826 134.243 39 134.793 39C135.418 39 135.914 38.8674 136.281 38.6023C136.652 38.3333 136.838 38.0114 136.838 37.6364C136.838 37.3333 136.732 37.0795 136.52 36.875C136.308 36.6667 135.982 36.5114 135.543 36.4091L134.088 36.0682C133.289 35.8788 132.702 35.5852 132.327 35.1875C131.955 34.786 131.77 34.2841 131.77 33.6818C131.77 33.1894 131.908 32.7538 132.185 32.375C132.465 31.9962 132.846 31.6989 133.327 31.483C133.812 31.267 134.361 31.1591 134.974 31.1591C135.838 31.1591 136.516 31.3485 137.009 31.7273C137.505 32.1061 137.857 32.6061 138.065 33.2273ZM147.311 40.2045C146.758 40.2045 146.256 40.1004 145.805 39.892C145.355 39.6799 144.997 39.375 144.732 38.9773C144.466 38.5758 144.334 38.0909 144.334 37.5227C144.334 37.0227 144.432 36.6174 144.629 36.3068C144.826 35.9924 145.089 35.7462 145.419 35.5682C145.749 35.3902 146.112 35.2576 146.51 35.1705C146.911 35.0795 147.315 35.0076 147.72 34.9545C148.25 34.8864 148.68 34.8352 149.01 34.8011C149.343 34.7633 149.586 34.7008 149.737 34.6136C149.893 34.5265 149.97 34.375 149.97 34.1591V34.1136C149.97 33.553 149.817 33.1174 149.51 32.8068C149.207 32.4962 148.747 32.3409 148.129 32.3409C147.489 32.3409 146.987 32.4811 146.624 32.7614C146.26 33.0417 146.004 33.3409 145.857 33.6591L144.584 33.2045C144.811 32.6742 145.114 32.2614 145.493 31.9659C145.875 31.6667 146.292 31.4583 146.743 31.3409C147.197 31.2197 147.644 31.1591 148.084 31.1591C148.364 31.1591 148.686 31.1932 149.05 31.2614C149.417 31.3258 149.771 31.4602 150.112 31.6648C150.457 31.8693 150.743 32.178 150.97 32.5909C151.197 33.0038 151.311 33.5568 151.311 34.25V40H149.97V38.8182H149.902C149.811 39.0076 149.66 39.2102 149.447 39.4261C149.235 39.642 148.953 39.8258 148.601 39.9773C148.249 40.1288 147.819 40.2045 147.311 40.2045ZM147.516 39C148.046 39 148.493 38.8958 148.857 38.6875C149.224 38.4792 149.5 38.2102 149.686 37.8807C149.875 37.5511 149.97 37.2045 149.97 36.8409V35.6136C149.913 35.6818 149.788 35.7443 149.595 35.8011C149.406 35.8542 149.186 35.9015 148.936 35.9432C148.69 35.9811 148.449 36.0152 148.214 36.0455C147.983 36.072 147.796 36.0947 147.652 36.1136C147.304 36.1591 146.978 36.233 146.675 36.3352C146.375 36.4337 146.133 36.5833 145.947 36.7841C145.766 36.9811 145.675 37.25 145.675 37.5909C145.675 38.0568 145.847 38.4091 146.192 38.6477C146.54 38.8826 146.982 39 147.516 39ZM153.94 40V28.3636H155.281V32.6591H155.395C155.493 32.5076 155.63 32.3144 155.804 32.0795C155.982 31.8409 156.236 31.6288 156.565 31.4432C156.899 31.2538 157.349 31.1591 157.918 31.1591C158.652 31.1591 159.3 31.3428 159.861 31.7102C160.421 32.0777 160.859 32.5985 161.173 33.2727C161.488 33.947 161.645 34.7424 161.645 35.6591C161.645 36.5833 161.488 37.3845 161.173 38.0625C160.859 38.7367 160.423 39.2595 159.866 39.6307C159.31 39.9981 158.668 40.1818 157.94 40.1818C157.38 40.1818 156.931 40.089 156.594 39.9034C156.257 39.714 155.997 39.5 155.815 39.2614C155.634 39.0189 155.493 38.8182 155.395 38.6591H155.236V40H153.94ZM155.259 35.6364C155.259 36.2955 155.355 36.8769 155.548 37.3807C155.741 37.8807 156.024 38.2727 156.395 38.5568C156.766 38.8371 157.221 38.9773 157.759 38.9773C158.319 38.9773 158.787 38.8295 159.162 38.5341C159.541 38.2348 159.825 37.8333 160.014 37.3295C160.207 36.822 160.304 36.2576 160.304 35.6364C160.304 35.0227 160.209 34.4697 160.02 33.9773C159.834 33.4811 159.552 33.089 159.173 32.8011C158.798 32.5095 158.327 32.3636 157.759 32.3636C157.213 32.3636 156.755 32.5019 156.384 32.7784C156.012 33.0511 155.732 33.4337 155.543 33.9261C155.353 34.4148 155.259 34.9848 155.259 35.6364ZM167.241 40.1818C166.454 40.1818 165.762 39.9943 165.168 39.6193C164.577 39.2443 164.115 38.7197 163.781 38.0455C163.452 37.3712 163.287 36.5833 163.287 35.6818C163.287 34.7727 163.452 33.9792 163.781 33.3011C164.115 32.6231 164.577 32.0966 165.168 31.7216C165.762 31.3466 166.454 31.1591 167.241 31.1591C168.029 31.1591 168.719 31.3466 169.31 31.7216C169.904 32.0966 170.366 32.6231 170.696 33.3011C171.029 33.9792 171.196 34.7727 171.196 35.6818C171.196 36.5833 171.029 37.3712 170.696 38.0455C170.366 38.7197 169.904 39.2443 169.31 39.6193C168.719 39.9943 168.029 40.1818 167.241 40.1818ZM167.241 38.9773C167.84 38.9773 168.332 38.8239 168.719 38.517C169.105 38.2102 169.391 37.8068 169.577 37.3068C169.762 36.8068 169.855 36.2652 169.855 35.6818C169.855 35.0985 169.762 34.5549 169.577 34.0511C169.391 33.5473 169.105 33.1402 168.719 32.8295C168.332 32.5189 167.84 32.3636 167.241 32.3636C166.643 32.3636 166.151 32.5189 165.764 32.8295C165.378 33.1402 165.092 33.5473 164.906 34.0511C164.721 34.5549 164.628 35.0985 164.628 35.6818C164.628 36.2652 164.721 36.8068 164.906 37.3068C165.092 37.8068 165.378 38.2102 165.764 38.517C166.151 38.8239 166.643 38.9773 167.241 38.9773ZM178.743 36.4318V31.2727H180.084V40H178.743V38.5227H178.652C178.447 38.9659 178.129 39.3428 177.697 39.6534C177.266 39.9602 176.72 40.1136 176.061 40.1136C175.516 40.1136 175.031 39.9943 174.607 39.7557C174.182 39.5133 173.849 39.1496 173.607 38.6648C173.364 38.1761 173.243 37.5606 173.243 36.8182V31.2727H174.584V36.7273C174.584 37.3636 174.762 37.8712 175.118 38.25C175.478 38.6288 175.936 38.8182 176.493 38.8182C176.826 38.8182 177.165 38.733 177.51 38.5625C177.858 38.392 178.15 38.1307 178.385 37.7784C178.624 37.4261 178.743 36.9773 178.743 36.4318ZM186.335 31.2727V32.4091H181.812V31.2727H186.335ZM183.131 29.1818H184.472V37.5C184.472 37.8788 184.527 38.1629 184.636 38.3523C184.75 38.5379 184.894 38.6629 185.068 38.7273C185.246 38.7879 185.434 38.8182 185.631 38.8182C185.778 38.8182 185.9 38.8106 185.994 38.7955C186.089 38.7765 186.165 38.7614 186.222 38.75L186.494 39.9545C186.403 39.9886 186.277 40.0227 186.114 40.0568C185.951 40.0947 185.744 40.1136 185.494 40.1136C185.116 40.1136 184.744 40.0322 184.381 39.8693C184.021 39.7064 183.722 39.4583 183.483 39.125C183.248 38.7917 183.131 38.3712 183.131 37.8636V29.1818ZM192.852 40V31.2727H194.148V32.6364H194.261C194.443 32.1705 194.737 31.8087 195.142 31.5511C195.547 31.2898 196.034 31.1591 196.602 31.1591C197.178 31.1591 197.657 31.2898 198.04 31.5511C198.426 31.8087 198.727 32.1705 198.943 32.6364H199.034C199.258 32.1856 199.593 31.8277 200.04 31.5625C200.487 31.2936 201.023 31.1591 201.648 31.1591C202.428 31.1591 203.066 31.4034 203.562 31.892C204.059 32.3769 204.307 33.1326 204.307 34.1591V40H202.966V34.1591C202.966 33.5152 202.79 33.0549 202.438 32.7784C202.085 32.5019 201.67 32.3636 201.193 32.3636C200.58 32.3636 200.104 32.5492 199.767 32.9205C199.43 33.2879 199.261 33.7538 199.261 34.3182V40H197.898V34.0227C197.898 33.5265 197.737 33.1269 197.415 32.8239C197.093 32.517 196.678 32.3636 196.17 32.3636C195.822 32.3636 195.496 32.4564 195.193 32.642C194.894 32.8277 194.652 33.0852 194.466 33.4148C194.284 33.7405 194.193 34.1174 194.193 34.5455V40H192.852ZM210.418 40.1818C209.577 40.1818 208.851 39.9962 208.241 39.625C207.635 39.25 207.168 38.7273 206.838 38.0568C206.512 37.3826 206.349 36.5985 206.349 35.7045C206.349 34.8106 206.512 34.0227 206.838 33.3409C207.168 32.6553 207.626 32.1212 208.213 31.7386C208.804 31.3523 209.493 31.1591 210.281 31.1591C210.736 31.1591 211.185 31.2348 211.628 31.3864C212.071 31.5379 212.474 31.7841 212.838 32.125C213.202 32.4621 213.491 32.9091 213.707 33.4659C213.923 34.0227 214.031 34.7083 214.031 35.5227V36.0909H207.304V34.9318H212.668C212.668 34.4394 212.569 34 212.372 33.6136C212.179 33.2273 211.902 32.9223 211.543 32.6989C211.187 32.4754 210.766 32.3636 210.281 32.3636C209.747 32.3636 209.285 32.4962 208.895 32.7614C208.509 33.0227 208.211 33.3636 208.003 33.7841C207.795 34.2045 207.69 34.6553 207.69 35.1364V35.9091C207.69 36.5682 207.804 37.1269 208.031 37.5852C208.262 38.0398 208.582 38.3864 208.991 38.625C209.401 38.8598 209.876 38.9773 210.418 38.9773C210.77 38.9773 211.088 38.928 211.372 38.8295C211.66 38.7273 211.908 38.5758 212.116 38.375C212.325 38.1705 212.486 37.9167 212.599 37.6136L213.895 37.9773C213.759 38.4167 213.529 38.803 213.207 39.1364C212.885 39.4659 212.488 39.7235 212.014 39.9091C211.541 40.0909 211.009 40.1818 210.418 40.1818Z" fill="black"/>
</svg>
