<svg width="113" height="113" viewBox="0 0 113 113" fill="none" xmlns="http://www.w3.org/2000/svg">
<g clip-path="url(#clip0_620_768)">
<path d="M56.098 112.198C87.0801 112.198 112.196 87.082 112.196 56.1C112.196 25.1179 87.0801 0.00195312 56.098 0.00195312C25.1159 0.00195312 0 25.1179 0 56.1C0 87.082 25.1159 112.198 56.098 112.198Z" fill="#4176FA"/>
<path d="M76.2092 46.343C60.0062 46.343 59.9852 62.485 59.9852 62.568C59.9852 62.568 58.8752 78.73 76.2092 78.73C76.2092 78.73 90.6652 79.552 90.6652 67.482H83.2422C83.2422 67.482 83.4882 72.026 76.4562 72.026C76.4562 72.026 69.0332 72.52 69.0332 64.685H90.9122C90.9122 64.685 93.3182 46.343 76.2092 46.343ZM68.9502 59.03C68.9502 59.03 69.8552 52.532 76.3742 52.532C82.9132 52.532 82.8102 59.03 82.8102 59.03H68.9502ZM50.4042 54.877C50.4042 54.877 56.8402 54.404 56.8402 46.837C56.8402 39.291 51.5762 35.589 44.8932 35.589H22.9102V77.845H44.8912C44.8912 77.845 58.3192 78.257 58.3192 65.364C58.3192 65.364 58.8962 54.877 50.4042 54.877ZM32.5962 43.094H44.8922C44.8922 43.094 47.8742 43.094 47.8742 47.494C47.8742 51.894 46.1262 52.532 44.1312 52.532H32.5962V43.094ZM44.2762 70.34H32.5962V59.03H44.8922C44.8922 59.03 49.3552 58.989 49.3342 64.849C49.3342 69.785 46.0242 70.299 44.2762 70.34ZM67.1202 38.077V43.28H84.5582V38.077H67.1202Z" fill="#F1F2F2"/>
</g>
<defs>
<clipPath id="clip0_620_768">
<rect width="112.196" height="112.196" fill="white" transform="translate(0 0.00195312)"/>
</clipPath>
</defs>
</svg>
