<svg width="40" height="40" viewBox="0 0 40 40" fill="none" xmlns="http://www.w3.org/2000/svg">
<rect x="0.5" y="0.5" width="39" height="39" rx="19.5" fill="white"/>
<rect x="0.5" y="0.5" width="39" height="39" rx="19.5" stroke="#B8B8B8"/>
<g clip-path="url(#clip0_1649_1499)">
<path fill-rule="evenodd" clip-rule="evenodd" d="M22.8906 14.5646C22.7888 14.5052 21.6759 14.5052 21.5741 14.5646L21.5731 18.8541L22.8937 17.5593C22.8939 17.5498 22.894 17.5397 22.8941 17.5291C22.9007 16.5475 22.9025 15.5458 22.8906 14.5646ZM21.5731 18.8973L21.5731 19.0813L21.5733 19.081L21.5731 18.8973H21.5731ZM27.0594 17.8378C27.0675 17.5913 27.2857 17.3612 27.4079 17.2754C28.1169 16.7782 29.0265 17.2415 29.0742 17.8375L27.0594 17.8379V17.8378ZM30.2604 19.2869H28.8827C28.8499 19.2992 28.5047 19.8288 27.786 19.6344C27.3964 19.5291 27.0901 19.2479 27.0338 18.8164H30.4221C30.6749 17.4428 29.7232 16.2451 28.6694 16.0131C27.2015 15.69 26.1242 16.5683 25.7886 17.6437C24.9987 20.1758 28.203 21.8661 29.8073 20.0004C29.9212 19.8678 30.2222 19.4975 30.2603 19.2868L30.2604 19.2869ZM6.45825 18.3674C6.45825 20.3244 8.62048 21.5269 10.3725 20.3105C10.6891 20.0907 11.1888 19.4699 11.2694 18.913H9.8882C9.56756 19.7803 7.82848 19.8261 7.82848 18.3348C7.82848 17.113 9.23518 16.9308 9.74436 17.6074C10.0128 17.9643 9.70238 17.8544 11.2647 17.8544C11.0667 16.7548 9.97158 15.8356 8.63158 15.9626C7.42088 16.0775 6.45825 17.0486 6.45825 18.3673V18.3674ZM21.1946 18.9202C19.6333 18.9123 19.9631 18.8005 19.653 19.1653C19.5643 19.2695 19.5017 19.3205 19.3843 19.3846C19.1451 19.5152 18.8492 19.5606 18.5454 19.4887C18.0698 19.3762 17.7602 18.9355 17.7566 18.3674C17.7529 17.8011 18.0723 17.3496 18.5507 17.2482C18.9729 17.1587 19.3729 17.264 19.6441 17.5793C19.9619 17.9489 19.5173 17.8544 21.1855 17.8544C21.0007 16.6843 19.7972 15.84 18.536 15.9644C17.3321 16.0831 16.383 17.0765 16.3862 18.3679C16.3913 20.4049 18.6425 21.5012 20.304 20.3044C20.6482 20.0564 21.072 19.5278 21.1946 18.9202V18.9202ZM33.3218 20.6564V19.4343C32.0045 19.4116 32.2394 18.7427 32.2394 17.2444L33.5295 17.2438L33.5415 16.1071L32.2393 16.1017L32.2378 14.5432L30.8984 14.5385C30.8559 14.7653 30.8688 18.3591 30.889 18.7916C30.9577 20.2689 31.8613 20.6546 33.3217 20.6564H33.3218ZM11.6952 20.6409L13.0567 20.6485C13.0567 19.9313 13.058 19.2144 13.0566 18.4977C13.0549 17.5988 13.2863 17.5008 14.1247 17.4237V16.1144C13.5739 16.0464 13.2362 16.344 12.9711 16.7334C12.9711 16.5399 13.0027 16.281 12.9484 16.102L11.7087 16.1027L11.6953 20.6408L11.6952 20.6409Z" fill="black"/>
<path fill-rule="evenodd" clip-rule="evenodd" d="M23.0951 19.3122C23.161 19.2023 23.9531 18.411 24.0654 18.3493C24.145 18.2109 25.4262 16.9513 25.7061 16.6812C25.8345 16.5572 26.1838 16.2635 26.259 16.1066L24.5228 16.104C24.281 16.1078 24.2717 16.1928 24.1422 16.323C24.0681 16.3975 23.8973 16.571 23.7068 16.7621C23.5058 16.9637 23.2828 17.1848 23.1278 17.3298L21.5731 18.8541C21.5738 19.6893 21.5788 20.6503 21.5994 20.7645L22.6969 19.6687C22.8322 19.5568 22.976 19.3866 23.0951 19.3122H23.0951Z" fill="#60A730"/>
<path fill-rule="evenodd" clip-rule="evenodd" d="M14.636 20.6329C14.8931 20.6687 15.6837 20.6489 15.9938 20.6481C15.9938 19.9791 16.0184 16.4717 15.9826 16.1016L14.9125 16.1012C14.7502 16.0988 14.6566 16.0576 14.6344 16.1865L14.636 20.6329ZM23.0952 19.3123C23.3614 19.6204 24.2421 20.6501 24.5555 20.6503L26.2603 20.648C24.0377 18.3216 26.2603 20.648 24.0655 18.3493C23.9532 18.411 23.1611 19.2022 23.0953 19.3122L23.0952 19.3123ZM7.15984 22.2048L6.62695 22.2057L7.24129 24.2493H7.66587C7.8373 23.8909 7.88522 23.3515 8.05664 22.9785C8.09002 23.1583 8.37284 24.139 8.43745 24.2507L8.84706 24.2332C8.94778 24.1145 9.4642 22.2525 9.47301 22.2037L8.95652 22.205L8.62843 23.5585L8.42535 22.902C8.38151 22.746 8.31625 22.3492 8.20235 22.2689H7.90915C7.76057 22.3712 7.59352 23.3446 7.49116 23.5582L7.15984 22.2049V22.2048ZM12.316 23.0091C12.4252 22.3682 13.337 22.4055 13.4631 23.0091H12.316ZM13.8689 23.6201H13.4152C13.2137 23.7645 13.1977 23.9523 12.7649 23.8768C12.5049 23.8316 12.3323 23.652 12.3075 23.3849H13.9412C14.0451 21.8974 12.1789 21.749 11.8448 22.9236C11.5764 23.867 12.5582 24.6249 13.3951 24.1791C13.5637 24.0893 13.8189 23.8316 13.8688 23.6201H13.8689ZM15.6562 23.0091C15.7822 22.3619 16.7111 22.4214 16.8036 23.0091H15.6562ZM15.1492 23.2546C15.1492 23.7631 15.5508 24.2065 15.9979 24.2894C16.5667 24.3948 17.1279 24.018 17.2046 23.6201H16.7711C16.624 23.6781 16.6159 23.8888 16.2824 23.8888C15.9207 23.8888 15.6956 23.7327 15.6481 23.3852L17.2853 23.3776C17.3266 22.7077 16.9489 22.1952 16.3151 22.1449C15.9696 22.1175 15.66 22.2566 15.4835 22.4229C15.2931 22.6023 15.1493 22.902 15.1493 23.2546H15.1492ZM19.4703 23.6527C19.4371 24.5029 21.0023 24.5615 21.009 23.6453C21.0126 23.1541 20.641 23.1121 20.2452 22.9733C19.5949 22.7452 20.3171 22.2452 20.4803 22.7587H20.9425C20.9008 21.8022 19.2806 22.0265 19.5111 22.9234C19.61 23.3086 20.0974 23.303 20.393 23.4779C20.5758 23.586 20.5636 23.848 20.3462 23.9015C20.0788 23.9672 19.9932 23.8289 19.9324 23.6527H19.4703ZM18.0792 23.6527H17.612C17.6125 24.3592 18.6325 24.5279 19.0338 24.0176C19.2504 23.7422 19.1558 23.325 18.9319 23.1789C18.6794 23.0141 18.2409 23.0306 18.1282 22.7659C18.101 22.5861 18.4827 22.3394 18.627 22.7588H19.0854C19.0943 22.3508 18.7302 22.1137 18.3015 22.1398C17.913 22.1634 17.5472 22.4775 17.659 22.9189C17.7521 23.2868 18.2389 23.3272 18.5145 23.4667C18.7204 23.5709 18.7166 23.8318 18.5172 23.895C18.1893 23.9989 18.1248 23.7614 18.0793 23.6527H18.0792ZM14.641 15.6756L15.9866 15.6896L15.9826 14.5377C15.7072 14.5382 14.9328 14.5001 14.7203 14.5366C14.5798 14.5608 14.6359 14.6685 14.6359 15.0443C14.636 15.2479 14.6264 15.475 14.641 15.6756H14.641ZM14.3152 24.2477L14.7731 24.2493C14.8562 23.9203 14.792 21.987 14.792 21.4941L14.3017 21.5023L14.3152 24.2477ZM11.143 22.4389L11.1385 22.2037H10.6785L10.6799 24.2493H11.151C11.2001 24.0137 11.1629 23.4612 11.1667 23.1879C11.1732 22.7282 11.3081 22.7055 11.7009 22.6152L11.7066 22.1574C11.4253 22.1075 11.2498 22.3009 11.143 22.4388L11.143 22.4389ZM9.72903 22.2037C9.72903 22.5737 9.68239 23.9993 9.74894 24.2499L10.2141 24.2443L10.2153 22.206L9.72903 22.2037ZM9.72903 21.927H10.0921L10.2154 21.9216L10.2152 21.5024L10.0921 21.4938L9.72903 21.4952V21.927Z" fill="black"/>
</g>
<defs>
<clipPath id="clip0_1649_1499">
<rect width="28" height="10.1248" fill="white" transform="translate(6 14.5)"/>
</clipPath>
</defs>
</svg>
