<svg width="123" height="45" viewBox="0 0 123 45" fill="none" xmlns="http://www.w3.org/2000/svg">
<g clip-path="url(#clip0_1558_4430)">
<path fill-rule="evenodd" clip-rule="evenodd" d="M74.5077 0.282356C74.0631 0.0228247 69.2051 0.0228247 68.7608 0.282356L68.7567 19.0061L74.5208 13.3543C74.5218 13.3127 74.5224 13.2686 74.5227 13.2223C74.5518 8.93789 74.5593 4.56525 74.5077 0.282356ZM68.7567 19.1947L68.7564 19.9977L68.7577 19.9964L68.7564 19.1947H68.7567ZM92.7043 14.57C92.7396 13.4938 93.6921 12.4894 94.2258 12.1151C97.3205 9.94474 101.291 11.9672 101.499 14.5688L92.7043 14.5703V14.57ZM106.677 20.8951H100.663C100.52 20.9489 99.0131 23.2609 95.8762 22.4123C94.1755 21.9523 92.8384 20.725 92.5927 18.8414H107.383C108.486 12.8456 104.332 7.61771 99.732 6.60523C93.3247 5.19469 88.6221 9.02857 87.1575 13.7226C83.7095 24.7752 97.6964 32.1538 104.699 24.0098C105.197 23.431 106.51 21.8144 106.676 20.8948L106.677 20.8951ZM2.77979 16.8817C2.77979 25.4241 12.218 30.6732 19.8654 25.3634C21.2475 24.4038 23.4288 21.694 23.7806 19.2632H17.7516C16.352 23.0492 8.76089 23.249 8.76089 16.7395C8.76089 11.4059 14.9012 10.6108 17.1237 13.5644C18.2957 15.1219 16.9405 14.6423 23.7602 14.6423C22.8957 9.84249 18.1156 5.83008 12.2664 6.38478C6.98169 6.88602 2.77979 11.1248 2.77979 16.8814L2.77979 16.8817ZM67.1045 19.2944C60.2891 19.26 61.7291 18.7723 60.3751 20.3645C59.9883 20.8194 59.715 21.0421 59.2022 21.3219C58.1585 21.8919 56.8668 22.0902 55.5406 21.7762C53.4647 21.285 52.1133 19.3614 52.0973 16.8817C52.0814 14.4096 53.4757 12.4387 55.5638 11.9963C57.4068 11.6057 59.1528 12.0654 60.3363 13.4415C61.7237 15.0547 59.7829 14.6426 67.0648 14.6426C66.258 9.53481 61.0049 5.84946 55.4997 6.3926C50.2443 6.91073 46.1015 11.2468 46.1156 16.8836C46.1378 25.7752 55.9643 30.5609 63.2168 25.3365C64.7193 24.2543 66.5695 21.9467 67.1045 19.2948V19.2944ZM120.04 26.8731V21.5386C114.29 21.4395 115.315 18.5199 115.315 11.9797L120.947 11.9769L120.999 7.01516L115.315 6.99171L115.309 0.188862L109.462 0.168537C109.276 1.15851 109.333 16.8455 109.421 18.7335C109.721 25.1817 113.665 26.8653 120.04 26.8731H120.04ZM25.6392 26.8055L31.5821 26.8387C31.5821 23.708 31.5881 20.579 31.5818 17.4505C31.5743 13.5266 32.5843 13.0988 36.244 12.7624V7.04706C33.8398 6.75032 32.3657 8.04954 31.2085 9.749C31.2085 8.90474 31.3467 7.77437 31.1094 6.99296L25.698 6.99609L25.6395 26.8052L25.6392 26.8055Z" fill="#3E3E3E"/>
<path fill-rule="evenodd" clip-rule="evenodd" d="M75.3998 21.0058C75.6872 20.5258 79.1449 17.0718 79.6348 16.8026C79.9822 16.1985 85.575 10.7002 86.7967 9.52104C87.3573 8.97978 88.882 7.69807 89.2103 7.01297L81.6314 7.00171C80.576 7.01828 80.5357 7.38944 79.9704 7.9576C79.6467 8.28279 78.9013 9.04013 78.0698 9.87438C77.1924 10.7543 76.219 11.7192 75.5424 12.3524L68.7561 19.0061C68.7592 22.6518 68.7808 26.8465 68.8709 27.3449L73.6613 22.5617C74.2519 22.0733 74.8798 21.3303 75.3995 21.0058H75.3998Z" fill="#3E3E3E"/>
<path fill-rule="evenodd" clip-rule="evenodd" d="M38.475 26.7701C39.5972 26.9265 43.0483 26.8402 44.4017 26.8367C44.4017 23.9165 44.5089 8.60668 44.3529 6.99101L39.6816 6.98945C38.9734 6.97882 38.5647 6.79902 38.4678 7.36155L38.475 26.7701ZM75.3997 21.0057C76.5617 22.3506 80.4059 26.8455 81.7739 26.8461L89.2152 26.8364C79.5138 16.6812 89.2152 26.8364 79.6351 16.8022C79.1448 17.0718 75.6871 20.5254 75.4 21.0054L75.3997 21.0057ZM5.84123 33.6318L3.51514 33.6358L6.19675 42.5562H8.05006C8.79832 40.9915 9.00751 38.637 9.75577 37.0091C9.90149 37.794 11.136 42.0743 11.418 42.5621L13.206 42.4855C13.6456 41.9674 15.8998 33.84 15.9382 33.6271L13.6838 33.6324L12.2517 39.5406L11.3652 36.6748C11.1738 35.9941 10.889 34.2621 10.3918 33.9116H9.11195C8.46343 34.3581 7.73424 38.6069 7.28741 39.5394L5.84123 33.6321V33.6318ZM28.3479 37.1426C28.8245 34.345 32.8047 34.5079 33.355 37.1426H28.3479ZM35.1264 39.8095H33.1461C32.2665 40.4399 32.1968 41.2595 30.3075 40.9302C29.1725 40.7326 28.4192 39.9487 28.3107 38.7827H35.4419C35.8956 32.29 27.7494 31.6421 26.291 36.7693C25.1197 40.8871 29.4054 44.1953 33.0583 42.2498C33.7943 41.8577 34.9081 40.7326 35.1261 39.8095H35.1264ZM42.928 37.1426C43.4783 34.3175 47.5329 34.5773 47.9366 37.1426H42.928ZM40.7151 38.2139C40.7151 40.4337 42.468 42.3692 44.4195 42.731C46.9025 43.1913 49.3521 41.5465 49.687 39.8095H47.7946C47.1524 40.0625 47.117 40.9824 45.6615 40.9824C44.0827 40.9824 43.0999 40.3011 42.8929 38.7842L50.0391 38.7511C50.2195 35.8268 48.5707 33.5899 45.8044 33.3703C44.296 33.2506 42.9448 33.8578 42.1744 34.5839C41.3429 35.3669 40.7154 36.6748 40.7154 38.2139H40.7151ZM59.5767 39.9518C59.4317 43.6631 66.2639 43.9189 66.2933 39.9196C66.3089 37.7755 64.687 37.5923 62.9594 36.9863C60.1208 35.9907 63.273 33.8081 63.9853 36.0495H66.0031C65.8208 31.8744 58.7487 32.8535 59.7547 36.7683C60.1865 38.4497 62.314 38.4256 63.6045 39.1889C64.4021 39.6607 64.349 40.8045 63.4003 41.0378C62.233 41.3248 61.8591 40.721 61.5939 39.9518H59.5767ZM53.5046 39.9518H51.4653C51.4675 43.0355 55.9195 43.7719 57.6712 41.5447C58.6168 40.3424 58.204 38.5213 57.2266 37.8837C56.1243 37.1645 54.2104 37.2361 53.7185 36.081C53.5997 35.2962 55.266 34.2193 55.8958 36.0498H57.8967C57.9354 34.269 56.3464 33.234 54.4749 33.3478C52.7792 33.451 51.1823 34.8222 51.6704 36.7489C52.0769 38.3546 54.2016 38.531 55.4048 39.1398C56.3035 39.5947 56.2866 40.7335 55.4164 41.0093C53.9852 41.463 53.7035 40.4265 53.505 39.9518H53.5046ZM38.4968 5.13146L44.3704 5.19243L44.3529 0.164712C43.1506 0.166901 39.7704 0.000237845 38.843 0.159709C38.2295 0.265398 38.4743 0.735368 38.4746 2.37573C38.475 3.26471 38.4331 4.25593 38.4965 5.13146H38.4968ZM37.0747 42.549L39.0731 42.5559C39.4358 41.1197 39.1557 32.6809 39.1557 30.5296L37.0156 30.5652L37.0747 42.549ZM23.2276 34.6536L23.2083 33.6268H21.2005L21.2064 42.5559H23.2627C23.4769 41.5278 23.3149 39.116 23.3315 37.9231C23.3596 35.9163 23.9487 35.8175 25.6629 35.4231L25.6879 33.4248C24.4599 33.2071 23.6942 34.0514 23.228 34.6533L23.2276 34.6536ZM17.0558 33.6268C17.0558 35.2418 16.8522 41.4649 17.1427 42.5587L19.173 42.534L19.1783 33.6368L17.0558 33.6268ZM17.0558 32.4192H18.6405L19.1786 32.3954L19.178 30.5655L18.6408 30.528L17.0558 30.5343V32.4192Z" fill="#3E3E3E"/>
</g>
<defs>
<clipPath id="clip0_1558_4430">
<rect width="122.221" height="44.1951" fill="white" transform="translate(0.779053 0.00012207)"/>
</clipPath>
</defs>
</svg>
