<svg width="104" height="39" viewBox="0 0 104 39" fill="none" xmlns="http://www.w3.org/2000/svg">
<g clip-path="url(#clip0_971_954)">
<path fill-rule="evenodd" clip-rule="evenodd" d="M62.7367 0.737285C62.3584 0.516445 58.2247 0.516445 57.8466 0.737285L57.8431 16.6697L62.7479 11.8604C62.7487 11.8251 62.7493 11.7875 62.7495 11.7482C62.7743 8.10243 62.7806 4.38168 62.7367 0.737285ZM57.8431 16.8301L57.8429 17.5134L57.8439 17.5123L57.8429 16.8301H57.8431ZM78.2206 12.8949C78.2506 11.9791 79.0611 11.1245 79.5153 10.806C82.1486 8.95919 85.5272 10.6801 85.7041 12.8939L78.2206 12.8952V12.8949ZM90.11 18.277H84.9929C84.871 18.3228 83.5888 20.2901 80.9196 19.568C79.4724 19.1766 78.3347 18.1323 78.1256 16.5295H90.7108C91.6498 11.4275 88.1147 6.97908 84.2005 6.11753C78.7485 4.91728 74.747 8.17959 73.5007 12.1739C70.5667 21.5787 82.4684 27.8572 88.4271 20.9274C88.8504 20.4349 89.9682 19.0593 90.1097 18.2768L90.11 18.277ZM1.70215 14.862C1.70215 22.1308 9.73328 26.5974 16.2406 22.0792C17.4166 21.2626 19.2728 18.9569 19.5721 16.8884H14.442C13.251 20.11 6.79158 20.28 6.79158 14.7409C6.79158 10.2025 12.0164 9.52592 13.9077 12.0392C14.9049 13.3645 13.7518 12.9564 19.5548 12.9564C18.8191 8.87218 14.7517 5.45794 9.77452 5.92995C5.27763 6.35647 1.70215 9.96334 1.70215 14.8617L1.70215 14.862ZM56.4372 16.915C50.6379 16.8857 51.8632 16.4707 50.7111 17.8255C50.3819 18.2127 50.1494 18.4021 49.713 18.6402C48.8249 19.1253 47.7257 19.294 46.5973 19.0268C44.8309 18.6088 43.6809 16.972 43.6673 14.862C43.6538 12.7584 44.8402 11.0814 46.617 10.7049C48.1852 10.3726 49.671 10.7637 50.6781 11.9347C51.8586 13.3073 50.2071 12.9567 56.4034 12.9567C55.717 8.61037 51.2469 5.47444 46.5625 5.9366C42.0906 6.37749 38.5654 10.0671 38.5774 14.8636C38.5963 22.4296 46.9579 26.5019 53.1291 22.0563C54.4076 21.1355 55.982 19.1718 56.4372 16.9153V16.915ZM101.481 23.3638V18.8246C96.5881 18.7403 97.4608 16.256 97.4608 10.6908L102.252 10.6884L102.297 6.46635L97.4605 6.4464L97.4549 0.65773L92.4799 0.640435C92.3221 1.48282 92.37 14.8311 92.4448 16.4377C92.7002 21.9246 96.0565 23.3572 101.481 23.3638H101.481ZM21.1536 23.3063L26.2106 23.3345C26.2106 20.6706 26.2157 18.008 26.2103 15.346C26.204 12.007 27.0634 11.6431 30.1775 11.3568V6.49349C28.1316 6.24099 26.8774 7.34652 25.8926 8.79263C25.8926 8.07423 26.0103 7.11238 25.8083 6.44746L21.2037 6.45012L21.1539 23.3061L21.1536 23.3063Z" fill="#787878"/>
<path fill-rule="evenodd" clip-rule="evenodd" d="M63.496 18.3711C63.7405 17.9627 66.6828 15.0237 67.0997 14.7946C67.3953 14.2806 72.1543 9.60194 73.1938 8.59858C73.6709 8.13801 74.9683 7.04738 75.2476 6.46441L68.7986 6.45483C67.9006 6.46894 67.8663 6.78476 67.3852 7.26822C67.1098 7.54493 66.4755 8.18936 65.768 8.89924C65.0214 9.64797 64.1931 10.4691 63.6173 11.0079L57.8428 16.6696C57.8454 19.7718 57.8638 23.3411 57.9404 23.7652L62.0167 19.6951C62.5193 19.2795 63.0535 18.6473 63.4957 18.3711H63.496Z" fill="#787878"/>
<path fill-rule="evenodd" clip-rule="evenodd" d="M32.0761 23.2762C33.031 23.4092 35.9677 23.3358 37.1192 23.3329C37.1192 20.848 37.2105 7.8206 37.0777 6.44581L33.1028 6.44448C32.5002 6.43543 32.1524 6.28244 32.07 6.7611L32.0761 23.2762ZM63.496 18.3712C64.4847 19.5155 67.7558 23.3403 68.9199 23.3409L75.2519 23.3326C66.9967 14.6914 75.2519 23.3326 67.1 14.7944C66.6828 15.0237 63.7405 17.9625 63.4963 18.3709L63.496 18.3712ZM4.30744 29.1149L2.32812 29.1184L4.60996 36.7089H6.18697C6.82368 35.3774 7.00169 33.3739 7.6384 31.9888C7.76239 32.6566 8.81284 36.2989 9.05284 36.7139L10.5742 36.6487C10.9483 36.2079 12.8665 29.2921 12.8992 29.1109L10.9808 29.1154L9.76219 34.1429L9.00787 31.7043C8.84504 31.1251 8.60264 29.6513 8.17959 29.353H7.09055C6.53872 29.733 5.91824 33.3484 5.53802 34.1418L4.30744 29.1152V29.1149ZM23.4588 32.1024C23.8643 29.7218 27.2511 29.8604 27.7194 32.1024H23.4588ZM29.2267 34.3717H27.5417C26.7932 34.9081 26.7339 35.6055 25.1263 35.3253C24.1604 35.1571 23.5195 34.4901 23.4271 33.4979H29.4952C29.8812 27.9732 22.9495 27.4219 21.7086 31.7847C20.7119 35.2886 24.3586 38.1036 27.4669 36.4481C28.0932 36.1145 29.041 35.1571 29.2264 34.3717H29.2267ZM35.8652 32.1024C36.3335 29.6984 39.7837 29.9195 40.1272 32.1024H35.8652ZM33.9822 33.0139C33.9822 34.9028 35.4738 36.5498 37.1344 36.8576C39.2473 37.2493 41.3317 35.8497 41.6166 34.3717H40.0064C39.4599 34.5869 39.4298 35.3697 38.1912 35.3697C36.8478 35.3697 36.0116 34.79 35.8354 33.4992L41.9162 33.471C42.0698 30.9827 40.6668 29.0792 38.3128 28.8925C37.0293 28.7906 35.8796 29.3073 35.224 29.9251C34.5165 30.5913 33.9825 31.7043 33.9825 33.0139H33.9822ZM50.032 34.4928C49.9085 37.6508 55.7222 37.8684 55.7472 34.4654C55.7605 32.6409 54.3804 32.485 52.9103 31.9693C50.4949 31.1222 53.1772 29.265 53.7833 31.1722H55.5003C55.3452 27.6196 49.3274 28.4526 50.1834 31.7839C50.5508 33.2145 52.3612 33.1941 53.4592 33.8435C54.138 34.245 54.0928 35.2183 53.2855 35.4168C52.2923 35.6611 51.974 35.1473 51.7484 34.4928H50.032ZM44.8651 34.4928H43.1298C43.1316 37.1168 46.92 37.7434 48.4105 35.8481C49.2151 34.8251 48.8639 33.2755 48.0322 32.733C47.0943 32.121 45.4656 32.1819 45.0471 31.199C44.946 30.5312 46.3639 29.6149 46.8998 31.1724H48.6024C48.6354 29.6572 47.2832 28.7765 45.6907 28.8733C44.2478 28.9611 42.889 30.1278 43.3043 31.7674C43.6502 33.1337 45.4582 33.2837 46.482 33.8018C47.2467 34.1889 47.2324 35.1579 46.4919 35.3926C45.2741 35.7787 45.0343 34.8967 44.8654 34.4928H44.8651ZM32.0947 4.86347L37.0926 4.91536L37.0777 0.63718C36.0547 0.639043 33.1784 0.497226 32.3892 0.632923C31.8672 0.722855 32.0755 1.12276 32.0758 2.51858C32.0761 3.27502 32.0404 4.11847 32.0944 4.86347H32.0947ZM30.8846 36.7028L32.5851 36.7086C32.8937 35.4865 32.6553 28.3058 32.6553 26.4752L30.8343 26.5055L30.8846 36.7028ZM19.1019 29.9844L19.0854 29.1106H17.3769L17.382 36.7086H19.1317C19.3139 35.8338 19.1761 33.7815 19.1902 32.7665C19.2141 31.0588 19.7154 30.9747 21.174 30.6392L21.1953 28.9388C20.1504 28.7536 19.4988 29.472 19.1021 29.9842L19.1019 29.9844ZM13.8501 29.1106C13.8501 30.4849 13.6769 35.7803 13.9241 36.711L15.6517 36.69L15.6562 29.1192L13.8501 29.1106ZM13.8501 28.0831H15.1986L15.6565 28.0629L15.656 26.5058L15.1988 26.4739L13.8501 26.4792V28.0831Z" fill="#787878"/>
</g>
<defs>
<clipPath id="clip0_971_954">
<rect width="104" height="37.6064" fill="white" transform="translate(0 0.497192)"/>
</clipPath>
</defs>
</svg>
