<svg width="207" height="201" viewBox="0 0 207 201" fill="none" xmlns="http://www.w3.org/2000/svg">
<g clip-path="url(#clip0_620_587)">
<path d="M194.747 55.4759C192.809 51.983 190.659 48.6119 188.309 45.3815C186.662 43.1151 184.922 40.9243 183.089 38.8092H183.084C179.767 34.9801 176.159 31.4123 172.293 28.1372C171.501 27.4657 170.699 26.8081 169.887 26.1641C162.551 20.3332 154.416 15.5839 145.73 12.0613L145.807 24.7425L146.638 169.301H74.5999L70.5485 25.0153L70.8504 12.5366C35.5324 27.3774 10.7339 62.2708 10.7339 102.953C10.7273 111.35 11.7996 119.713 13.9244 127.838C14.8218 131.272 15.9084 134.654 17.179 137.969C17.6378 139.172 18.1217 140.364 18.6309 141.546C18.8763 142.121 19.1263 142.692 19.3855 143.26C19.7181 144.003 20.0644 144.743 20.4199 145.474C20.6951 146.049 20.978 146.62 21.2686 147.188C21.6424 147.933 22.0285 148.671 22.4268 149.404C22.7342 149.979 23.0507 150.55 23.3718 151.118C28.5523 160.273 35.1677 168.54 42.9663 175.604C45.1888 177.618 47.5016 179.528 49.9045 181.333C66.907 194.097 87.5992 200.999 108.867 200.999C130.134 200.999 150.827 194.097 167.829 181.333C169.136 180.352 170.417 179.338 171.671 178.292C172.504 177.6 173.322 176.895 174.127 176.177C174.341 175.986 174.554 175.796 174.765 175.604C181.955 169.092 188.143 161.554 193.128 153.235C194.959 150.186 196.619 147.037 198.1 143.803C198.493 142.951 198.873 142.091 199.24 141.223C200.933 137.244 202.357 133.157 203.502 128.988C203.679 128.344 203.849 127.698 204.013 127.049V127.047C204.041 126.935 204.071 126.82 204.098 126.708C204.268 126.025 204.431 125.338 204.587 124.65V124.648C205.091 122.432 205.517 120.189 205.864 117.92C205.908 117.629 205.952 117.338 205.993 117.047C206.009 116.941 206.025 116.836 206.036 116.73V116.728C206.284 114.975 206.485 113.209 206.64 111.43C206.878 108.636 206.998 105.811 207 102.953C207.026 86.3436 202.808 70.0022 194.747 55.4759Z" fill="url(#paint0_linear_620_587)"/>
<path d="M185.111 162.138C190.919 154.297 193.153 143.252 188.635 134.604C184.397 144.331 176.853 152.247 167.336 156.952C163.659 158.753 159.382 160.373 157.68 164.095C156.621 166.41 156.823 169.144 157.674 171.543C158.526 173.943 159.973 176.078 161.406 178.183L161.482 178.814C170.501 175.078 179.302 169.979 185.111 162.138Z" fill="#D3EFC3"/>
<path d="M188.441 134.674C188.181 142.744 185.382 150.527 180.443 156.918C179.404 158.312 178.151 159.535 176.731 160.54C175.316 161.474 173.677 162.013 171.983 162.1C170.406 162.213 168.779 162.146 167.256 162.64C166.481 162.904 165.77 163.33 165.17 163.888C164.571 164.446 164.096 165.125 163.777 165.879C162.934 167.738 162.81 169.789 162.758 171.799C162.701 174.03 162.677 176.349 161.624 178.378C161.496 178.623 161.885 178.807 162.012 178.561C163.845 175.032 162.655 170.905 163.748 167.195C164.257 165.464 165.292 163.875 167.022 163.182C168.535 162.575 170.212 162.643 171.811 162.542C173.464 162.481 175.078 162.017 176.51 161.189C177.977 160.26 179.274 159.088 180.347 157.724C182.812 154.69 184.784 151.289 186.191 147.644C187.82 143.492 188.726 139.093 188.87 134.636C188.879 134.36 188.45 134.4 188.441 134.674Z" fill="#F7F7F7"/>
<path d="M182.155 154.954C183.341 155.636 184.731 155.875 186.077 155.628C187.422 155.382 188.637 154.665 189.502 153.606C189.677 153.391 189.351 153.11 189.176 153.325C188.372 154.313 187.241 154.98 185.987 155.208C184.733 155.435 183.439 155.207 182.339 154.565C182.1 154.426 181.917 154.815 182.155 154.954Z" fill="#F7F7F7"/>
<path d="M172.791 162.147C172.041 159.455 172.333 156.579 173.611 154.093C173.738 153.847 173.348 153.663 173.222 153.909C171.897 156.499 171.599 159.492 172.386 162.292C172.461 162.559 172.866 162.413 172.791 162.147Z" fill="#F7F7F7"/>
<path d="M187.25 143.512C186.736 143.343 186.272 143.05 185.9 142.658C185.528 142.266 185.259 141.788 185.117 141.266C185.045 140.999 184.641 141.145 184.712 141.411C184.871 141.987 185.169 142.514 185.579 142.948C185.99 143.382 186.5 143.709 187.066 143.901C187.118 143.923 187.176 143.925 187.23 143.906C187.283 143.887 187.327 143.848 187.353 143.798C187.377 143.747 187.379 143.688 187.36 143.634C187.341 143.58 187.301 143.536 187.25 143.512Z" fill="#F7F7F7"/>
<path d="M156.302 127.722C156.342 127.891 156.382 128.059 156.42 128.23C156.947 130.497 157.289 132.803 157.442 135.125C157.457 135.304 157.469 135.486 157.478 135.665C157.788 141.264 157.055 146.871 155.316 152.201C154.622 154.322 153.767 156.387 152.76 158.378C151.368 161.127 149.641 163.998 149.251 166.959C149.207 167.268 149.182 167.579 149.176 167.89L160.705 178.857C160.744 178.869 160.78 178.883 160.819 178.895L161.259 179.354C161.319 179.255 161.378 179.151 161.437 179.052C161.471 178.995 161.503 178.935 161.538 178.878C161.56 178.839 161.582 178.799 161.605 178.766C161.612 178.753 161.619 178.74 161.624 178.729C161.647 178.695 161.664 178.661 161.683 178.63C162.016 178.05 162.345 177.466 162.671 176.879C162.673 176.876 162.673 176.876 162.673 176.871C165.142 172.391 167.258 167.665 168.59 162.769C168.63 162.621 168.672 162.471 168.707 162.319C169.295 160.109 169.701 157.854 169.921 155.577C170.037 154.331 170.09 153.079 170.08 151.826C170.048 148.591 169.506 145.38 168.475 142.313C166.418 136.198 162.428 130.809 156.739 127.937C156.593 127.864 156.45 127.793 156.302 127.722Z" fill="#D3EFC3"/>
<path d="M156.188 127.893C160.843 134.493 163.299 142.391 163.206 150.465C163.217 152.204 162.953 153.933 162.425 155.59C161.858 157.187 160.874 158.603 159.574 159.691C158.383 160.731 157.043 161.656 156.125 162.966C155.666 163.644 155.354 164.411 155.212 165.218C155.07 166.024 155.099 166.851 155.3 167.645C155.747 169.637 156.884 171.349 158.053 172.985C159.352 174.801 160.73 176.667 161.112 178.92C161.158 179.193 161.579 179.106 161.533 178.833C160.87 174.913 157.432 172.333 156.069 168.714C155.433 167.025 155.302 165.134 156.265 163.54C157.107 162.145 158.487 161.19 159.703 160.149C160.987 159.105 161.995 157.764 162.64 156.242C163.251 154.617 163.581 152.901 163.615 151.166C163.755 147.262 163.28 143.36 162.207 139.603C161.006 135.308 159.078 131.251 156.508 127.605C156.349 127.38 156.03 127.669 156.188 127.893Z" fill="#F7F7F7"/>
<path d="M163.389 147.867C164.747 147.699 166.001 147.054 166.927 146.047C167.853 145.041 168.39 143.738 168.444 142.372C168.453 142.095 168.024 142.067 168.014 142.344C167.967 143.616 167.466 144.829 166.602 145.765C165.738 146.701 164.567 147.297 163.302 147.446C163.027 147.479 163.116 147.9 163.389 147.867Z" fill="#F7F7F7"/>
<path d="M160.248 159.244C158.026 157.546 156.527 155.074 156.049 152.32C156.001 152.047 155.58 152.135 155.627 152.407C156.13 155.272 157.696 157.841 160.012 159.603C160.232 159.771 160.468 159.411 160.248 159.244Z" fill="#F7F7F7"/>
<path d="M160.562 135.667C160.051 135.842 159.503 135.886 158.97 135.797C158.437 135.708 157.934 135.488 157.506 135.157C157.288 134.987 157.053 135.347 157.27 135.516C157.744 135.88 158.3 136.122 158.889 136.222C159.478 136.322 160.082 136.276 160.65 136.088C160.705 136.075 160.752 136.041 160.784 135.994C160.815 135.947 160.826 135.89 160.817 135.834C160.805 135.778 160.772 135.729 160.724 135.698C160.676 135.667 160.618 135.656 160.562 135.667Z" fill="#F7F7F7"/>
<path d="M4.58122 118.221C-0.570163 109.934 -1.89822 98.7444 3.30847 90.4921C6.74066 100.531 13.6163 109.033 22.7189 114.495C26.237 116.589 30.3682 118.551 31.7617 122.398C32.6289 124.792 32.2055 127.501 31.1619 129.823C30.1182 132.145 28.5014 134.156 26.9023 136.138L26.7757 136.76C18.0901 132.304 9.73262 126.508 4.58122 118.221Z" fill="#D3EFC3"/>
<path d="M3.49479 90.577C3.09774 98.6417 5.25416 106.626 9.65776 113.397C10.5799 114.871 11.7288 116.191 13.0623 117.308C14.3964 118.354 15.9866 119.024 17.6676 119.249C19.2308 119.489 20.8577 119.555 22.335 120.171C23.0866 120.497 23.7606 120.979 24.3128 121.584C24.8649 122.189 25.2829 122.904 25.5391 123.682C26.2281 125.603 26.185 127.657 26.073 129.665C25.9486 131.894 25.7841 134.207 26.6691 136.314C26.7763 136.569 26.3735 136.721 26.2664 136.466C24.7267 132.799 26.2486 128.782 25.4617 124.996C25.0945 123.229 24.1922 121.562 22.5245 120.73C21.0661 120.002 19.3886 119.934 17.8037 119.704C16.1606 119.509 14.5903 118.915 13.2299 117.974C11.8438 116.928 10.6459 115.655 9.68743 114.208C7.47765 110.985 5.78888 107.434 4.68297 103.687C3.39705 99.4168 2.8517 94.9586 3.07049 90.5049C3.08414 90.2293 3.50835 90.3031 3.49479 90.577Z" fill="#F7F7F7"/>
<path d="M8.11125 111.3C6.874 111.884 5.46927 112.01 4.14793 111.655C2.82659 111.299 1.67468 110.486 0.897917 109.361C0.741531 109.133 1.08923 108.879 1.24582 109.108C1.96721 110.157 3.04029 110.914 4.2714 111.243C5.5025 111.571 6.81054 111.449 7.95942 110.898C8.20923 110.779 8.35963 111.182 8.11125 111.3Z" fill="#F7F7F7"/>
<path d="M16.8591 119.231C17.8261 116.608 17.7684 113.718 16.6974 111.137C16.5911 110.881 16.9939 110.729 17.1 110.985C18.2096 113.674 18.2635 116.681 17.2511 119.408C17.1545 119.668 16.7629 119.489 16.8591 119.231Z" fill="#F7F7F7"/>
<path d="M3.96414 99.4831C4.48998 99.3568 4.9762 99.102 5.37913 98.7416C5.78206 98.3812 6.08908 97.9264 6.27262 97.4181C6.36595 97.1572 6.75742 97.3361 6.6647 97.5953C6.4593 98.1559 6.11962 98.6578 5.67532 99.057C5.23103 99.4562 4.69565 99.7406 4.11596 99.8854C4.06247 99.9036 4.00403 99.9008 3.95254 99.8775C3.90104 99.8542 3.86035 99.8123 3.83872 99.7601C3.81889 99.7067 3.82093 99.6477 3.84442 99.5958C3.8679 99.5439 3.91092 99.5034 3.96414 99.4831Z" fill="#F7F7F7"/>
<path d="M36.0939 86.2584C36.0403 86.423 35.9866 86.5876 35.9352 86.7551C35.2255 88.9715 34.6972 91.2419 34.3556 93.5438C34.3263 93.7213 34.2994 93.9017 34.2753 94.0797C33.5113 99.6342 33.7861 105.282 35.0858 110.736C35.6049 112.906 36.2885 115.034 37.1307 117.1C38.294 119.954 39.7825 122.955 39.93 125.938C39.9489 126.249 39.9485 126.561 39.9287 126.872L27.5459 136.866C27.5064 136.875 27.4689 136.887 27.4292 136.895L26.9531 137.317C26.9022 137.213 26.8517 137.105 26.8008 137.001C26.771 136.941 26.744 136.879 26.7142 136.819C26.6953 136.779 26.6764 136.738 26.657 136.702C26.6506 136.689 26.6444 136.675 26.6403 136.664C26.6208 136.629 26.6066 136.594 26.5894 136.561C26.3052 135.955 26.0247 135.347 25.748 134.735C25.7457 134.732 25.7457 134.732 25.7462 134.727C23.6498 130.061 21.9249 125.179 20.9964 120.191C20.9685 120.041 20.9382 119.888 20.916 119.733C20.5099 117.483 20.2887 115.202 20.2545 112.916C20.2398 111.663 20.2886 110.411 20.4006 109.164C20.6963 105.942 21.4974 102.786 22.7746 99.8122C25.3216 93.8848 29.7376 88.8371 35.6411 86.4373C35.7921 86.3761 35.9406 86.3169 36.0939 86.2584Z" fill="#D3EFC3"/>
<path d="M36.1932 86.4376C31.0163 92.638 27.9265 100.311 27.3625 108.365C27.2103 110.097 27.3323 111.842 27.7239 113.536C28.1588 115.174 29.0248 116.665 30.2317 117.856C31.3348 118.988 32.5944 120.019 33.4027 121.4C33.806 122.113 34.0539 122.903 34.1302 123.718C34.2064 124.533 34.1093 125.355 33.8452 126.13C33.2375 128.079 31.9652 129.693 30.6662 131.229C29.2238 132.933 27.6986 134.681 27.1353 136.896C27.0671 137.165 26.6543 137.043 26.7224 136.775C27.7024 132.921 31.3382 130.63 32.9916 127.133C33.7632 125.501 34.0473 123.627 33.217 121.96C32.491 120.502 31.193 119.438 30.0662 118.301C28.8717 117.157 27.9758 115.738 27.4566 114.169C26.9799 112.5 26.7908 110.763 26.8976 109.031C27.0755 105.128 27.8666 101.277 29.2419 97.6198C30.7882 93.437 33.0393 89.5492 35.8978 86.1248C36.0748 85.913 36.369 86.2271 36.1932 86.4376Z" fill="#F7F7F7"/>
<path d="M27.3912 105.761C26.0514 105.483 24.8542 104.738 24.0133 103.66C23.1724 102.581 22.7426 101.239 22.8006 99.8734C22.8035 99.8177 22.8279 99.7654 22.8687 99.7273C22.9095 99.6892 22.9634 99.6685 23.0192 99.6694C23.075 99.6703 23.1283 99.6928 23.1678 99.7322C23.2073 99.7716 23.2299 99.8248 23.231 99.8805C23.1746 101.152 23.5751 102.402 24.3602 103.405C25.1453 104.408 26.2633 105.097 27.5124 105.349C27.7838 105.404 27.661 105.816 27.3912 105.761Z" fill="#F7F7F7"/>
<path d="M29.5969 117.355C31.9493 115.843 33.6449 113.501 34.3455 110.795C34.4147 110.527 34.8275 110.648 34.7584 110.916C34.0241 113.73 32.2546 116.165 29.8032 117.733C29.5694 117.882 29.3644 117.504 29.5969 117.355Z" fill="#F7F7F7"/>
<path d="M31.2004 93.8309C31.6964 94.0464 32.2381 94.1355 32.7771 94.0901C33.316 94.0447 33.8352 93.8662 34.288 93.5708C34.5197 93.4186 34.7245 93.797 34.4943 93.9482C33.9924 94.2722 33.4188 94.4686 32.8235 94.5201C32.2282 94.5715 31.6293 94.4766 31.0792 94.2435C31.0255 94.2259 30.9806 94.1885 30.9535 94.1389C30.9264 94.0893 30.9192 94.0313 30.9334 93.9767C30.9497 93.9221 30.9869 93.8762 31.0369 93.8489C31.0869 93.8217 31.1457 93.8152 31.2004 93.8309Z" fill="#F7F7F7"/>
<path d="M100.207 33.6305C107.737 33.6305 113.841 27.5319 113.841 20.0088C113.841 12.4858 107.737 6.38715 100.207 6.38715C92.6773 6.38715 86.5732 12.4858 86.5732 20.0088C86.5732 27.5319 92.6773 33.6305 100.207 33.6305Z" fill="#FF6584"/>
<path d="M141.951 19.298C140.723 18.0013 139.426 16.7713 138.066 15.6131C135.41 13.3627 132.469 11.4492 129.192 10.2439C127.958 9.78856 126.683 9.4532 125.384 9.24243C125.228 9.21724 125.075 9.19202 124.919 9.17139C124.907 9.17024 124.896 9.17024 124.884 9.17139C124.86 9.16461 124.836 9.16001 124.811 9.15764C124.492 9.11639 124.173 9.08431 123.852 9.0614C122.123 8.94654 120.386 9.10273 118.705 9.52431C117.73 9.77016 116.778 10.1014 115.861 10.5143C114.942 10.9637 114.052 11.468 113.194 12.0244C112.733 12.3041 112.258 12.5603 111.772 12.7921C110.351 13.4647 108.847 13.9456 107.299 14.2221C106.254 14.4094 105.195 14.5136 104.134 14.5337C103.212 14.5521 102.342 14.5841 101.469 14.9164C100.536 15.2665 99.6982 15.8298 99.0223 16.5611C98.3465 17.2925 97.8512 18.1717 97.5762 19.1284C97.5545 19.2133 97.5606 19.303 97.5937 19.3842C97.6267 19.4655 97.6849 19.534 97.7597 19.5798C97.996 19.7494 98.2253 19.9419 98.4753 20.0931C98.6959 20.1937 98.9314 20.258 99.1726 20.2833C99.5671 20.3658 99.9624 20.4461 100.358 20.524C101.815 20.8127 103.277 21.0686 104.746 21.2917C107.7 21.7385 110.671 22.0532 113.659 22.2358C113.677 22.2385 113.696 22.24 113.714 22.2404C117.09 22.4439 120.473 22.4768 123.852 22.3389C124.364 22.3183 124.873 22.2931 125.384 22.2633C127.515 22.1441 129.64 21.9562 131.761 21.6995C133.722 21.4612 135.675 21.1656 137.621 20.8127C139.011 20.5606 140.395 20.2795 141.775 19.9694C141.842 19.9496 141.902 19.9129 141.951 19.8628C142 19.8127 142.034 19.7509 142.052 19.6834C142.07 19.6159 142.07 19.545 142.052 19.4774C142.035 19.4099 142 19.3481 141.951 19.298Z" fill="#E6E6E6"/>
<path d="M113.613 37.4612C111.639 35.3516 109.464 33.439 107.119 31.7505C106.342 31.2051 105.541 30.6918 104.718 30.222C103.709 29.6398 102.66 29.1276 101.58 28.689C101.34 28.5904 101.096 28.4965 100.853 28.4071C99.472 27.896 98.0393 27.5364 96.5802 27.3346C96.5688 27.3323 96.5573 27.3346 96.5458 27.3323C96.5229 27.3278 96.4977 27.3232 96.4747 27.3186C95.7675 27.2269 95.0548 27.1833 94.3417 27.188C93.8302 27.188 93.3164 27.2155 92.8072 27.2659C91.9846 27.3469 91.1689 27.4878 90.3668 27.6875C89.97 27.7861 89.5755 27.9007 89.1879 28.0313C88.6225 28.2172 88.0675 28.4329 87.525 28.6775C87.5158 28.6821 87.5089 28.6844 87.4998 28.689C86.5892 29.134 85.7068 29.6346 84.8575 30.1877C84.8392 30.1991 84.8185 30.2106 84.8002 30.222C83.8356 30.7986 82.8151 31.2761 81.7542 31.6474C80.8436 31.9656 79.9096 32.2123 78.9606 32.3853C77.9156 32.5731 76.8571 32.6766 75.7954 32.6947C74.8734 32.713 74.0041 32.7451 73.1325 33.0797C72.1996 33.4297 71.3615 33.9929 70.6853 34.7242C70.0091 35.4555 69.5134 36.3348 69.2379 37.2916C69.2167 37.3766 69.223 37.4661 69.256 37.5472C69.289 37.6284 69.3469 37.6969 69.4214 37.7431C69.6577 37.9126 69.8893 38.1028 70.137 38.2541C70.3574 38.3554 70.593 38.4197 70.8343 38.4443C71.2288 38.5268 71.6233 38.6093 72.0201 38.6872C73.4765 38.9759 74.9399 39.2311 76.4101 39.4526C78.4262 39.7574 80.4507 40.001 82.4836 40.1836C83.4469 40.273 84.411 40.3463 85.3759 40.4036C87.8507 40.5525 90.3278 40.6106 92.8072 40.5777C93.3187 40.5709 93.8302 40.5594 94.3417 40.5434C97.3784 40.454 100.406 40.2264 103.424 39.8605C106.789 39.4538 110.13 38.8763 113.436 38.1303C113.503 38.1108 113.564 38.0743 113.612 38.0244C113.661 37.9745 113.696 37.9129 113.713 37.8456C113.731 37.7783 113.731 37.7075 113.714 37.6401C113.696 37.5728 113.661 37.5112 113.613 37.4612Z" fill="#E6E6E6"/>
<path d="M79.6297 0.903591L91.6407 166.737L67.6187 168.867V3.01346C70.4811 0.779507 74.5901 0.429999 79.6297 0.903591Z" fill="#CCCCCC"/>
<path d="M138.918 0.903591L126.907 166.737L150.929 168.867V3.01346C148.066 0.779507 143.957 0.429999 138.918 0.903591Z" fill="#CCCCCC"/>
<path d="M151.494 3.08583C150.749 1.25982 149.164 -0.000793457 147.331 -0.000793457H70.9603C68.4121 -0.000793457 66.341 2.44199 66.341 5.44746V170.272C66.3187 171.797 66.8893 173.271 67.9327 174.384C68.4787 174.957 69.1699 175.371 69.9328 175.583C70.2674 175.675 70.6131 175.722 70.9603 175.721H147.331C147.678 175.722 148.024 175.675 148.359 175.583C150.414 175.031 151.951 172.861 151.951 170.272V5.44747C151.953 4.63817 151.798 3.83615 151.494 3.08583ZM150.418 170.272C150.418 172.28 149.033 173.914 147.331 173.914H70.9603C69.5497 173.914 68.3548 172.791 67.9901 171.262C67.9121 170.938 67.8729 170.606 67.8731 170.272V5.44747C67.8731 3.44021 69.2585 1.80899 70.9603 1.80899H147.331C147.644 1.80874 147.955 1.86463 148.249 1.974C149.503 2.43389 150.418 3.81624 150.418 5.44746V170.272Z" fill="#CCCCCC"/>
<path d="M151.185 50.1002H67.1074V51.6322H151.185V50.1002Z" fill="#CCCCCC"/>
<path d="M151.185 18.4762H67.1074V20.0082H151.185V18.4762Z" fill="#CCCCCC"/>
<path d="M151.185 75.6331H67.1074V77.165H151.185V75.6331Z" fill="#CCCCCC"/>
<path d="M94.3912 0.686646H92.8579V97.3357H94.3912V0.686646Z" fill="#CCCCCC"/>
<path d="M125.434 0.686646H123.901V97.3357H125.434V0.686646Z" fill="#CCCCCC"/>
<path d="M160.767 166.146H60.0794C58.2503 166.148 56.4967 166.875 55.2033 168.168C53.9099 169.46 53.1823 171.212 53.1802 173.039C53.1793 173.918 53.3483 174.789 53.6779 175.604C54.1901 176.882 55.0736 177.977 56.2145 178.749C57.3554 179.521 58.7015 179.934 60.0794 179.935H160.767C161.972 179.934 163.155 179.619 164.2 179.02C165.244 178.421 166.114 177.559 166.722 176.52C166.895 176.227 167.045 175.92 167.171 175.604C167.501 174.789 167.67 173.918 167.669 173.039C167.666 171.212 166.938 169.46 165.644 168.167C164.351 166.875 162.597 166.148 160.767 166.146Z" fill="#CCCCCC"/>
<path d="M151.185 93.761H67.6187V98.8676H151.185V93.761Z" fill="#CCCCCC"/>
<path d="M108.635 92.2294H110.168C110.914 92.2294 111.629 92.5253 112.156 93.052C112.683 93.5787 112.979 94.2931 112.979 95.038H105.824C105.824 94.6691 105.896 94.3039 106.038 93.9632C106.179 93.6224 106.386 93.3128 106.647 93.052C106.908 92.7912 107.218 92.5843 107.559 92.4432C107.9 92.302 108.266 92.2294 108.635 92.2294Z" fill="#CCCCCC"/>
<path d="M110.876 108.163C119.623 108.163 126.713 101.079 126.713 92.34C126.713 83.6012 119.623 76.517 110.876 76.517C102.13 76.517 95.0391 83.6012 95.0391 92.34C95.0391 101.079 102.13 108.163 110.876 108.163Z" fill="#EDB18B"/>
<path d="M93.2092 77.1181C93.329 75.3011 94.5317 73.4417 98.3528 72.4701C98.3528 72.4701 104.911 64.0918 113.822 68.4855C113.822 68.4855 118.142 67.7429 121.346 72.2212C121.346 72.2212 124.522 70.3497 125.862 73.667C125.862 73.667 129.587 80.4335 128.215 87.3354C126.844 94.2373 126.142 95.0986 126.142 95.0986C126.142 95.0986 127.89 80.8222 117.822 81.8121C107.754 82.8021 99.6477 79.2646 97.3676 87.0099C95.4744 93.4413 95.7129 96.7814 95.7129 96.7814C95.7129 96.7814 89.3817 90.3656 91.5343 85.3135C92.6353 82.7296 93.0246 79.9203 93.2092 77.1181Z" fill="#2F2E41"/>
<path d="M67.8086 178.812H155.408C154.822 172.136 154.439 146.616 154.439 144.936C154.439 137.528 148.372 129.444 148.372 129.444L146.201 128.245L128.065 122.591L123.371 116.5C122.88 115.86 122.246 115.343 121.521 114.99C120.796 114.636 119.998 114.455 119.191 114.461L104.365 114.572C103.06 114.582 101.807 115.079 100.849 115.964L91.6683 124.474L78.2028 130.898L78.1799 130.875L78.0393 130.98L76.0409 132.418L74.7555 133.346C74.7555 133.346 71.3835 137.388 68.6884 149.511C68.2829 151.335 67.9983 174.94 67.8086 178.812Z" fill="#F3901B"/>
<path d="M175.683 175.604C175.472 175.796 175.259 175.986 175.045 176.177C174.238 176.894 173.419 177.599 172.589 178.292C171.334 179.337 170.054 180.35 168.747 181.333H50.8225C48.4211 179.531 46.1083 177.622 43.8843 175.604H175.683Z" fill="#CCCCCC"/>
<path d="M132.457 176.979H89.1079L90.0252 172.625H131.54L132.457 176.979Z" fill="#2F2E41"/>
<path d="M171.676 158.188H160.396C160.142 158.187 159.89 158.242 159.659 158.349C159.428 158.456 159.223 158.612 159.059 158.806C158.902 158.776 158.742 158.761 158.582 158.761C158.23 158.76 157.882 158.829 157.557 158.963C157.232 159.097 156.937 159.294 156.688 159.543C156.44 159.791 156.242 160.086 156.108 160.41C155.973 160.735 155.904 161.082 155.904 161.434C155.904 161.785 155.973 162.133 156.108 162.457C156.242 162.782 156.44 163.077 156.688 163.325C156.937 163.573 157.232 163.77 157.557 163.904C157.882 164.038 158.23 164.107 158.582 164.107C158.986 164.107 159.384 164.014 159.747 163.836L159.935 166.146L160.683 175.276C160.718 175.39 160.766 175.5 160.825 175.604C160.976 175.881 161.199 176.112 161.471 176.274C161.743 176.435 162.053 176.52 162.369 176.52H169.704C170.02 176.52 170.33 176.435 170.602 176.273C170.874 176.112 171.098 175.881 171.25 175.604C171.307 175.499 171.354 175.39 171.39 175.276L173.362 160.468C173.443 160.204 173.461 159.925 173.415 159.654C173.368 159.382 173.259 159.125 173.095 158.903C172.931 158.681 172.717 158.501 172.471 158.377C172.224 158.252 171.952 158.188 171.676 158.188ZM158.582 163.344C158.075 163.343 157.59 163.142 157.232 162.784C156.874 162.425 156.672 161.94 156.672 161.434C156.672 160.927 156.874 160.442 157.232 160.084C157.59 159.726 158.075 159.524 158.582 159.524C158.616 159.524 158.648 159.533 158.683 159.535C158.607 159.843 158.617 160.165 158.71 160.468L159.518 163.089C159.233 163.254 158.911 163.342 158.582 163.344Z" fill="#3F3D56"/>
<path d="M146.198 109.736H74.7928C74.1793 109.737 73.5912 109.981 73.1574 110.415C72.7236 110.848 72.4795 111.436 72.4785 112.048V160.19C72.4791 160.803 72.7231 161.391 73.157 161.825C73.5909 162.258 74.1792 162.502 74.7928 162.503H146.198C146.812 162.502 147.4 162.258 147.834 161.825C148.268 161.391 148.512 160.803 148.512 160.19V112.048C148.511 111.436 148.267 110.848 147.833 110.415C147.4 109.981 146.812 109.737 146.198 109.736Z" fill="#3F3D56"/>
<path d="M118.537 148.311H101.833C101.596 148.311 101.37 148.405 101.203 148.573C101.036 148.74 100.943 148.966 100.943 149.202V175.567H119.43V149.202C119.43 149.085 119.407 148.969 119.362 148.861C119.317 148.753 119.251 148.655 119.168 148.572C119.086 148.489 118.987 148.423 118.879 148.379C118.771 148.334 118.655 148.311 118.537 148.311ZM110.241 163.291C109.719 163.289 109.219 163.08 108.849 162.711C108.48 162.342 108.271 161.842 108.269 161.32V158.279C108.269 157.757 108.477 157.256 108.847 156.887C109.217 156.518 109.719 156.311 110.241 156.311C110.764 156.311 111.265 156.518 111.635 156.887C112.005 157.256 112.213 157.757 112.214 158.279V161.32C112.211 161.842 112.003 162.342 111.633 162.711C111.264 163.08 110.764 163.289 110.241 163.291Z" fill="#2F2E41"/>
<path d="M100.886 174.724V177.267C100.886 177.399 100.939 177.526 101.032 177.619C101.125 177.712 101.252 177.764 101.383 177.765H118.989C119.121 177.764 119.247 177.711 119.341 177.618C119.434 177.525 119.486 177.399 119.487 177.267V174.724H100.886Z" fill="#3F3D56"/>
<path d="M144.68 159.687C145.303 159.687 145.807 159.183 145.807 158.561C145.807 157.939 145.303 157.434 144.68 157.434C144.057 157.434 143.553 157.939 143.553 158.561C143.553 159.183 144.057 159.687 144.68 159.687Z" fill="#2F2E41"/>
<path d="M83.8071 156.927C83.7553 156.927 83.704 156.938 83.6561 156.957C83.6083 156.977 83.5648 157.006 83.5281 157.043C83.4915 157.079 83.4625 157.123 83.4426 157.171C83.4228 157.219 83.4126 157.27 83.4126 157.322V159.35C83.4129 159.454 83.4545 159.554 83.5285 159.628C83.6025 159.701 83.7027 159.743 83.8071 159.743C83.9116 159.743 84.0117 159.701 84.0857 159.628C84.1597 159.554 84.2013 159.454 84.2016 159.35V157.322C84.2016 157.27 84.1914 157.219 84.1716 157.171C84.1518 157.123 84.1227 157.079 84.0861 157.043C84.0494 157.006 84.0059 156.977 83.9581 156.957C83.9102 156.938 83.8589 156.927 83.8071 156.927Z" fill="#2F2E41"/>
<path d="M85.9492 156.927C85.8974 156.927 85.8461 156.938 85.7982 156.957C85.7503 156.977 85.7069 157.006 85.6702 157.043C85.6336 157.079 85.6045 157.123 85.5847 157.171C85.5649 157.219 85.5547 157.27 85.5547 157.322V159.35C85.5547 159.454 85.5962 159.554 85.6702 159.628C85.7442 159.702 85.8446 159.744 85.9492 159.744C86.0538 159.744 86.1542 159.702 86.2282 159.628C86.3021 159.554 86.3437 159.454 86.3437 159.35V157.322C86.3437 157.27 86.3335 157.219 86.3137 157.171C86.2938 157.123 86.2648 157.079 86.2282 157.043C86.1915 157.006 86.148 156.977 86.1002 156.957C86.0523 156.938 86.001 156.927 85.9492 156.927Z" fill="#2F2E41"/>
<path d="M88.0913 156.927C88.0395 156.927 87.9882 156.938 87.9403 156.957C87.8925 156.977 87.849 157.006 87.8123 157.043C87.7757 157.079 87.7466 157.123 87.7268 157.171C87.707 157.219 87.6968 157.27 87.6968 157.322V159.35C87.697 159.454 87.7387 159.554 87.8127 159.628C87.8866 159.701 87.9868 159.743 88.0913 159.743C88.1957 159.743 88.2959 159.701 88.3699 159.628C88.4438 159.554 88.4855 159.454 88.4858 159.35V157.322C88.4858 157.27 88.4756 157.219 88.4558 157.171C88.4359 157.123 88.4069 157.079 88.3703 157.043C88.3336 157.006 88.2901 156.977 88.2423 156.957C88.1944 156.938 88.1431 156.927 88.0913 156.927Z" fill="#2F2E41"/>
<path d="M90.2339 156.927C90.182 156.927 90.1307 156.938 90.0829 156.957C90.035 156.977 89.9915 157.006 89.9549 157.043C89.9183 157.079 89.8892 157.123 89.8694 157.171C89.8496 157.219 89.8394 157.27 89.8394 157.322V159.35C89.8396 159.454 89.8813 159.554 89.9553 159.628C90.0292 159.701 90.1294 159.743 90.2339 159.743C90.3383 159.743 90.4385 159.701 90.5125 159.628C90.5864 159.554 90.6281 159.454 90.6284 159.35V157.322C90.6284 157.27 90.6182 157.219 90.5983 157.171C90.5785 157.123 90.5495 157.079 90.5128 157.043C90.4762 157.006 90.4327 156.977 90.3848 156.957C90.337 156.938 90.2857 156.927 90.2339 156.927Z" fill="#2F2E41"/>
<path d="M91.9429 175.833C95.2364 175.833 97.9064 173.165 97.9064 169.874C97.9064 166.584 95.2364 163.916 91.9429 163.916C88.6494 163.916 85.9795 166.584 85.9795 169.874C85.9795 173.165 88.6494 175.833 91.9429 175.833Z" fill="#EDB18B"/>
<path d="M133.604 176.979C136.898 176.979 139.567 174.311 139.567 171.021C139.567 167.73 136.898 165.063 133.604 165.063C130.311 165.063 127.641 167.73 127.641 171.021C127.641 174.311 130.311 176.979 133.604 176.979Z" fill="#EDB18B"/>
<path d="M195.158 99.1036C194.568 98.1299 193.87 97.0901 192.776 96.7722C191.51 96.404 190.209 97.1354 189.106 97.8573C185.805 100.016 182.627 102.356 179.586 104.865L179.589 104.903C181.957 104.74 183.922 111.03 186.29 110.867C188.001 110.749 190.173 104.161 191.685 103.353C192.259 103.046 192.818 102.636 193.468 102.607C194.276 102.572 194.98 103.136 195.534 103.724C198.808 107.208 199.755 112.534 203.428 115.594C201.112 109.888 198.346 104.373 195.158 99.1036Z" fill="#3F3D56"/>
<path d="M201.458 107.564C203.185 110.681 205.017 113.735 206.954 116.728V116.73C206.942 116.836 206.926 116.941 206.91 117.047C206.676 116.689 206.445 116.33 206.215 115.97C204.477 113.245 202.825 110.468 201.259 107.64C200.516 106.295 199.791 104.939 199.084 103.572C198.538 102.513 198.004 101.449 197.481 100.378C197.332 100.071 197.188 99.7635 197.043 99.4541C196.704 98.73 196.369 98.0012 196.011 97.2863C195.603 96.4705 195.105 95.618 194.355 95.0703C194.014 94.8105 193.606 94.6531 193.178 94.6165C192.576 94.6202 191.987 94.789 191.474 95.1047C187.594 97.1423 183.973 99.6373 180.687 102.536C177.398 105.424 174.457 108.686 171.926 112.255C171.848 112.365 171.664 112.26 171.742 112.147C172.052 111.712 172.364 111.283 172.685 110.857C176.665 105.57 181.544 101.023 187.1 97.4237C188.034 96.8188 188.986 96.2421 189.956 95.6936C190.444 95.4163 190.935 95.1436 191.435 94.8869C191.914 94.6066 192.451 94.4404 193.004 94.4011C194.908 94.3713 195.894 96.5254 196.571 97.9737C196.782 98.4298 196.996 98.885 197.215 99.3395C198.038 101.058 198.894 102.763 199.782 104.454C200.328 105.497 200.886 106.534 201.458 107.564Z" fill="#3F3D56"/>
<path d="M180.5 101.472C180.39 101.349 180.28 101.226 180.169 101.103C179.291 100.133 178.349 99.1743 177.144 98.6183C176.569 98.3448 175.942 98.1995 175.306 98.1925C174.649 98.2105 174.001 98.3516 173.397 98.6084C173.109 98.7231 172.828 98.8533 172.551 98.992C172.235 99.151 171.924 99.3206 171.615 99.4916C171.035 99.8126 170.462 100.148 169.897 100.497C168.772 101.191 167.682 101.939 166.627 102.74C166.081 103.155 165.545 103.584 165.021 104.026C164.534 104.437 164.056 104.859 163.589 105.292C163.489 105.384 163.339 105.235 163.439 105.143C163.563 105.028 163.687 104.914 163.812 104.802C164.164 104.483 164.522 104.171 164.885 103.866C165.548 103.307 166.228 102.77 166.925 102.254C168.009 101.452 169.131 100.704 170.29 100.01C170.869 99.6641 171.456 99.3324 172.051 99.0152C172.23 98.9195 172.412 98.8259 172.596 98.7372C173.013 98.527 173.446 98.3507 173.892 98.2101C174.523 98.0061 175.191 97.9406 175.849 98.018C176.485 98.1104 177.098 98.3222 177.655 98.6422C178.839 99.303 179.757 100.325 180.65 101.322C180.74 101.424 180.591 101.573 180.5 101.472Z" fill="#3F3D56"/>
<path d="M171.84 106.138C171.54 106.153 171.242 106.068 170.995 105.896C170.34 105.401 170.357 104.21 171.048 102.256C171.235 101.727 171.53 101.242 171.913 100.831C172.296 100.42 172.759 100.091 173.274 99.8658C173.756 99.6503 174.278 99.5374 174.806 99.5343C175.335 99.5312 175.858 99.6379 176.343 99.8476C176.428 99.8843 176.511 99.9237 176.593 99.966C177.155 100.28 177.681 100.653 178.163 101.079C178.573 101.434 179.01 101.756 179.47 102.043L179.624 102.133L179.478 102.236C175.763 104.849 173.244 106.138 171.84 106.138Z" fill="#3F3D56"/>
<path d="M186.128 90.5853C184.906 90.5851 183.723 90.1613 182.779 89.3863C181.835 88.6112 181.189 87.533 180.953 86.3354C179.931 86.5421 178.994 87.0465 178.259 87.7849C177.524 88.5233 177.024 89.4626 176.823 90.4844C176.622 91.5062 176.728 92.5646 177.129 93.5261C177.529 94.4875 178.206 95.3089 179.073 95.8867C179.94 96.4644 180.959 96.7725 182.001 96.7722C183.044 96.7718 184.062 96.463 184.929 95.8848C185.796 95.3065 186.472 94.4846 186.872 93.5229C187.271 92.5612 187.377 91.5027 187.175 90.4811C186.831 90.5504 186.48 90.5853 186.128 90.5853Z" fill="#3F3D56"/>
<path opacity="0.74" d="M44.9143 99.0644C49.2621 99.0644 52.7866 95.543 52.7866 91.1991C52.7866 86.8552 49.2621 83.3337 44.9143 83.3337C40.5666 83.3337 37.042 86.8552 37.042 91.1991C37.042 95.543 40.5666 99.0644 44.9143 99.0644Z" fill="#3F3D56"/>
<path opacity="0.74" d="M52.7869 99.0644C57.1346 99.0644 60.6592 95.543 60.6592 91.1991C60.6592 86.8552 57.1346 83.3337 52.7869 83.3337C48.4391 83.3337 44.9146 86.8552 44.9146 91.1991C44.9146 95.543 48.4391 99.0644 52.7869 99.0644Z" fill="#F3901B"/>
<path opacity="0.74" d="M48.9172 92.7958C53.265 92.7958 56.7896 89.2743 56.7896 84.9304C56.7896 80.5865 53.265 77.0651 48.9172 77.0651C44.5695 77.0651 41.0449 80.5865 41.0449 84.9304C41.0449 89.2743 44.5695 92.7958 48.9172 92.7958Z" fill="#FF6584"/>
<path d="M69.5027 82.6765L49.2817 89.0236L49.4192 89.4608L69.6402 83.1138L69.5027 82.6765Z" fill="#3F3D56"/>
<path d="M69.6313 83.7384C70.138 83.7384 70.5488 83.328 70.5488 82.8217C70.5488 82.3155 70.138 81.9051 69.6313 81.9051C69.1246 81.9051 68.7139 82.3155 68.7139 82.8217C68.7139 83.328 69.1246 83.7384 69.6313 83.7384Z" fill="#3F3D56"/>
<path d="M200.904 124.068C202.248 125.014 203.539 125.979 205.016 126.708C204.989 126.82 204.959 126.935 204.931 127.047C204.75 126.962 204.573 126.873 204.397 126.781C202.899 125.997 201.61 124.932 200.204 124.006C199.507 123.525 198.746 123.144 197.943 122.874C197.105 122.623 196.23 122.52 195.358 122.572C191.718 122.75 188.598 124.92 185.215 126.014C183.559 126.55 181.798 126.836 180.071 126.499C178.344 126.162 176.809 125.246 175.284 124.416C173.779 123.596 172.139 122.771 170.382 122.771C168.951 122.773 167.447 123.346 166.68 124.611C166.657 124.649 166.619 124.676 166.576 124.686C166.532 124.697 166.486 124.69 166.448 124.668C166.409 124.645 166.381 124.608 166.369 124.565C166.358 124.522 166.363 124.476 166.385 124.437C166.556 124.149 166.767 123.886 167.011 123.655C168.011 122.709 169.481 122.336 170.832 122.446C172.58 122.588 174.174 123.413 175.685 124.242C177.288 125.122 178.931 126.069 180.784 126.261C182.614 126.453 184.426 125.975 186.123 125.331C189.41 124.082 192.653 122.001 196.309 122.232C198.034 122.342 199.511 123.089 200.904 124.068Z" fill="#3F3D56"/>
<path d="M57.0379 57.7927V58.2579C56.8837 58.2274 56.727 58.2121 56.57 58.212H54.1708V63.359C54.1704 64.121 53.8672 64.8516 53.3279 65.3905C52.7886 65.9293 52.0573 66.2322 51.2946 66.2326H47.7486V67.0255C47.7486 67.3434 47.8118 67.658 47.9344 67.9513H47.4436C47.341 67.6535 47.2891 67.3405 47.2899 67.0255V66.2326H45.3403V65.7743H47.2899V60.6274C47.2904 59.8654 47.5935 59.1347 48.1328 58.5959C48.6721 58.0571 49.4034 57.7542 50.1661 57.7537H53.7121V56.9517H54.1708V57.7537H56.57C56.7267 57.7539 56.8832 57.7669 57.0379 57.7927Z" fill="#F3901B"/>
<path d="M51.2947 54.0872H44.8909C44.1282 54.0876 43.3969 54.3905 42.8576 54.9293C42.3183 55.4681 42.0151 56.1988 42.0146 56.9608V63.359C42.0151 64.121 42.3183 64.8516 42.8576 65.3905C43.3969 65.9293 44.1282 66.2322 44.8909 66.2326H51.2947C52.0574 66.2322 52.7887 65.9293 53.328 65.3905C53.8673 64.8516 54.1704 64.121 54.1709 63.359V56.9517C54.1681 56.1912 53.8639 55.4628 53.3249 54.926C52.7858 54.3891 52.0558 54.0875 51.2947 54.0872ZM53.7122 63.359C53.7113 63.9993 53.4563 64.6131 53.0031 65.0659C52.55 65.5187 51.9356 65.7734 51.2947 65.7743H44.8909C44.25 65.7734 43.6356 65.5187 43.1824 65.0659C42.7292 64.6131 42.4742 63.9993 42.4734 63.359V56.9608C42.4742 56.3205 42.7292 55.7066 43.1824 55.2539C43.6356 54.8011 44.25 54.5463 44.8909 54.5455H51.2947C51.934 54.5462 52.5471 54.7997 53 55.2505C53.453 55.7013 53.709 56.3129 53.7122 56.9517V63.359Z" fill="#3F3D56"/>
<path d="M47.29 65.7743V66.2326H47.7488V65.7743H47.29ZM47.29 65.7743V66.2326H47.7488V65.7743H47.29ZM57.038 57.7927C56.8833 57.7669 56.7268 57.7539 56.5701 57.7537H50.1663C49.4036 57.7542 48.6723 58.0571 48.133 58.5959C47.5937 59.1347 47.2905 59.8654 47.29 60.6274V67.0255C47.2892 67.3405 47.3412 67.6535 47.4437 67.9513C47.6373 68.5193 48.0039 69.0124 48.4922 69.3617C48.9804 69.711 49.5658 69.899 50.1663 69.8992H56.5701C57.3328 69.8987 58.0641 69.5958 58.6034 69.057C59.1427 68.5182 59.4458 67.7875 59.4463 67.0255V60.6274C59.4461 59.9464 59.2039 59.2876 58.7628 58.7685C58.3217 58.2493 57.7105 57.9035 57.038 57.7927ZM58.9876 67.0255C58.9867 67.6659 58.7317 68.2797 58.2785 68.7325C57.8254 69.1853 57.211 69.44 56.5701 69.4409H50.1663C49.5254 69.44 48.911 69.1852 48.4578 68.7324C48.0047 68.2797 47.7497 67.6658 47.7488 67.0255V60.6274C47.7496 59.9871 48.0046 59.3732 48.4578 58.9204C48.911 58.4677 49.5254 58.2129 50.1663 58.212H56.5701C57.2112 58.2123 57.8259 58.4668 58.2792 58.9197C58.7325 59.3727 58.9873 59.9869 58.9876 60.6274V67.0255ZM47.29 65.7743V66.2326H47.7488V65.7743H47.29Z" fill="#3F3D56"/>
<path d="M42.7604 125.514H15.5579C15.3685 125.514 15.1869 125.589 15.0528 125.723C14.9187 125.856 14.843 126.037 14.8423 126.227V127.838C15.7397 131.272 16.8263 134.654 18.097 137.969H42.7604C42.8541 137.969 42.9469 137.95 43.0335 137.915C43.12 137.879 43.1987 137.826 43.265 137.76C43.3312 137.694 43.3838 137.615 43.4196 137.529C43.4554 137.442 43.4738 137.35 43.4737 137.256V126.227C43.4735 126.038 43.3983 125.856 43.2645 125.723C43.1308 125.589 42.9495 125.514 42.7604 125.514Z" fill="#F3901B"/>
<path d="M40.1686 141.546H19.5488C19.7942 142.121 20.0443 142.692 20.3034 143.26H40.1686C41.2879 143.276 41.2764 141.53 40.1686 141.546Z" fill="#E4E4E4"/>
<path d="M40.1681 145.474H21.3374C21.6126 146.049 21.8955 146.62 22.186 147.188H40.1681C41.2874 147.204 41.2759 145.46 40.1681 145.474Z" fill="#E4E4E4"/>
<path d="M40.1685 149.404H23.3447C23.6521 149.979 23.9686 150.55 24.2897 151.118H40.1685C41.2878 151.134 41.2763 149.388 40.1685 149.404Z" fill="#E4E4E4"/>
<path d="M181.192 43.7692H181.061C181.468 43.7696 181.869 43.8644 182.233 44.0461H181.639C180.998 44.0469 180.383 44.3016 179.93 44.7543C179.477 45.2071 179.222 45.821 179.221 46.4614V52.8597C179.222 53.5001 179.477 54.114 179.93 54.5667C180.383 55.0195 180.998 55.2742 181.639 55.275H182.018C181.713 55.3944 181.389 55.4559 181.061 55.4564H181.192C181.894 55.4556 182.567 55.1767 183.063 54.6809C183.559 54.1852 183.838 53.5131 183.839 52.812V46.4136C183.838 45.7125 183.559 45.0404 183.063 44.5446C182.567 44.0489 181.894 43.77 181.192 43.7692Z" fill="#3F3D56"/>
<path opacity="0.21" d="M181.192 43.7692H181.061C181.468 43.7696 181.869 43.8644 182.233 44.0461H181.639C180.998 44.0469 180.383 44.3016 179.93 44.7543C179.477 45.2071 179.222 45.821 179.221 46.4614V52.8597C179.222 53.5001 179.477 54.114 179.93 54.5667C180.383 55.0195 180.998 55.2742 181.639 55.275H182.018C181.713 55.3944 181.389 55.4559 181.061 55.4564H181.192C181.894 55.4556 182.567 55.1767 183.063 54.6809C183.559 54.1852 183.838 53.5131 183.839 52.812V46.4136C183.838 45.7125 183.559 45.0404 183.063 44.5446C182.567 44.0489 181.894 43.77 181.192 43.7692Z" fill="black"/>
<path d="M164.22 43.7692H164.089C164.496 43.7696 164.897 43.8644 165.261 44.0461H164.666C164.025 44.0469 163.411 44.3016 162.957 44.7543C162.504 45.2071 162.249 45.821 162.249 46.4614V52.8597C162.249 53.5001 162.504 54.114 162.957 54.5667C163.411 55.0195 164.025 55.2742 164.666 55.275H165.045C164.74 55.3944 164.416 55.4559 164.089 55.4564H164.22C164.921 55.4556 165.594 55.1767 166.09 54.6809C166.586 54.1852 166.865 53.5131 166.866 52.812V46.4136C166.865 45.7125 166.586 45.0404 166.09 44.5446C165.594 44.0489 164.921 43.77 164.22 43.7692Z" fill="#F3901B"/>
<path opacity="0.21" d="M164.22 43.7692H164.089C164.496 43.7696 164.897 43.8644 165.261 44.0461H164.666C164.025 44.0469 163.411 44.3016 162.957 44.7543C162.504 45.2071 162.249 45.821 162.249 46.4614V52.8597C162.249 53.5001 162.504 54.114 162.957 54.5667C163.411 55.0195 164.025 55.2742 164.666 55.275H165.045C164.74 55.3944 164.416 55.4559 164.089 55.4564H164.22C164.921 55.4556 165.594 55.1767 166.09 54.6809C166.586 54.1852 166.865 53.5131 166.866 52.812V46.4136C166.865 45.7125 166.586 45.0404 166.09 44.5446C165.594 44.0489 164.921 43.77 164.22 43.7692Z" fill="black"/>
<path d="M164.692 55.2949C164.051 55.2941 163.436 55.0394 162.983 54.5866C162.53 54.1339 162.275 53.52 162.274 52.8796V46.4813C162.275 45.8409 162.53 45.227 162.983 44.7742C163.436 44.3215 164.051 44.0668 164.692 44.066H165.287C164.923 43.8843 164.522 43.7895 164.115 43.7891H157.711C157.009 43.7899 156.336 44.0688 155.84 44.5645C155.344 45.0603 155.065 45.7324 155.064 46.4335V52.8319C155.065 53.533 155.344 54.2051 155.84 54.7008C156.336 55.1966 157.009 55.4755 157.711 55.4763H164.115C164.442 55.4758 164.766 55.4143 165.071 55.2949L164.692 55.2949Z" fill="#F3901B"/>
<path d="M181.665 55.2949C181.024 55.2941 180.41 55.0394 179.956 54.5866C179.503 54.1339 179.248 53.52 179.248 52.8796V46.4813C179.248 45.8409 179.503 45.227 179.956 44.7742C180.41 44.3215 181.024 44.0668 181.665 44.066H182.26C181.896 43.8843 181.495 43.7895 181.088 43.7891H174.684C173.982 43.7899 173.309 44.0688 172.813 44.5645C172.317 45.0603 172.038 45.7324 172.037 46.4335V52.8319C172.038 53.533 172.317 54.2051 172.813 54.7008C173.309 55.1966 173.982 55.4755 174.684 55.4763H181.088C181.415 55.4758 181.739 55.4143 182.044 55.2949L181.665 55.2949Z" fill="#3F3D56"/>
<path d="M189.227 45.3814C191.577 48.6118 193.727 51.983 195.665 55.4759H191.656C190.954 55.4748 190.281 55.1959 189.785 54.7002C189.289 54.2045 189.01 53.5324 189.009 52.8314V46.4332C189.009 46.0714 189.083 45.7134 189.227 45.3814Z" fill="#FF6584"/>
<path d="M181.188 58.8331L178.945 55.4759L177.305 53.0216C177.209 52.8782 177.075 52.7649 176.917 52.6947C176.759 52.6246 176.585 52.6004 176.415 52.6251C176.244 52.6498 176.084 52.7224 175.953 52.8343C175.822 52.9463 175.725 53.093 175.674 53.2576L174.983 55.4759L173.593 59.933C173.539 60.1106 173.539 60.3007 173.595 60.4779C173.651 60.6551 173.76 60.8111 173.907 60.9249C174.054 61.0387 174.233 61.105 174.418 61.1149C174.604 61.1248 174.788 61.0778 174.947 60.9803L175.44 60.6755C175.539 60.6144 175.652 60.5796 175.769 60.5744C175.885 60.5692 176.001 60.5939 176.105 60.646C176.21 60.6981 176.299 60.7759 176.365 60.8721C176.431 60.9683 176.471 61.0797 176.481 61.1957L176.933 66.1226C176.954 66.3489 177.059 66.5593 177.227 66.7126C177.395 66.866 177.614 66.9514 177.841 66.9522C177.869 66.9522 177.896 66.9499 177.926 66.9476L178.619 66.8857C178.738 66.8749 178.854 66.8406 178.961 66.7849C179.067 66.7291 179.161 66.653 179.238 66.5608C179.314 66.4686 179.372 66.3622 179.408 66.2477C179.443 66.1332 179.456 66.0128 179.445 65.8935L178.979 60.8061C178.968 60.6866 178.989 60.5663 179.039 60.4573C179.089 60.3483 179.167 60.2545 179.265 60.1853C179.364 60.1161 179.478 60.0739 179.598 60.063C179.717 60.0521 179.838 60.0729 179.947 60.1232L180.048 60.1691C180.228 60.2522 180.431 60.2741 180.626 60.2313C180.82 60.1886 180.995 60.0836 181.124 59.9324C181.253 59.7811 181.329 59.5918 181.341 59.3934C181.352 59.195 181.298 58.9982 181.188 58.8331Z" fill="#CCCCCC"/>
</g>
<defs>
<linearGradient id="paint0_linear_620_587" x1="108.867" y1="12.0613" x2="108.867" y2="200.999" gradientUnits="userSpaceOnUse">
<stop stop-color="#D3EFC3"/>
<stop offset="1" stop-color="#787878"/>
</linearGradient>
<clipPath id="clip0_620_587">
<rect width="207" height="201" fill="white"/>
</clipPath>
</defs>
</svg>
