<svg width="357" height="373" viewBox="0 0 357 373" fill="none" xmlns="http://www.w3.org/2000/svg">
<path d="M100 112C100 105.373 105.373 100 112 100H261C267.627 100 273 105.373 273 112V261C273 267.627 267.627 273 261 273H112C105.373 273 100 267.627 100 261V112Z" fill="#F7F7F7"/>
<g filter="url(#filter0_f_980_991)">
<path d="M173.4 265.414C186.756 238.498 221.731 263.788 240.179 243.305C266.691 213.867 259.529 172.728 234.932 141.648C216.517 118.378 166.723 133.477 166.723 108.723C166.723 83.9698 117.746 117.294 105.43 141.648C92.0019 168.198 105.925 190.57 120.693 216.388C134.682 240.844 160.045 292.331 173.4 265.414Z" fill="url(#paint0_linear_980_991)"/>
</g>
<g clip-path="url(#clip0_980_991)">
<path d="M249.644 155.64C248.294 153.207 246.797 150.859 245.16 148.609C244.013 147.03 242.801 145.504 241.524 144.031H241.52C239.21 141.364 236.697 138.879 234.004 136.598C233.453 136.13 232.894 135.672 232.328 135.224C227.219 131.162 221.552 127.854 215.503 125.401L215.556 134.234L216.135 234.921H165.959L163.138 134.424L163.348 125.732C138.748 136.069 121.476 160.373 121.476 188.709C121.471 194.557 122.218 200.382 123.698 206.041C124.323 208.433 125.08 210.789 125.965 213.098C126.284 213.936 126.621 214.766 126.976 215.589C127.147 215.99 127.321 216.387 127.502 216.783C127.733 217.3 127.974 217.816 128.222 218.325C128.414 218.726 128.611 219.124 128.813 219.519C129.074 220.038 129.342 220.552 129.62 221.062C129.834 221.463 130.054 221.86 130.278 222.256C133.886 228.633 138.494 234.391 143.926 239.311C145.474 240.714 147.085 242.044 148.759 243.301C160.601 252.192 175.014 256.999 189.827 256.999C204.64 256.999 219.053 252.192 230.895 243.301C231.806 242.618 232.698 241.912 233.571 241.183C234.151 240.701 234.721 240.21 235.282 239.71C235.431 239.578 235.579 239.445 235.726 239.311C240.734 234.775 245.044 229.525 248.516 223.731C249.791 221.607 250.948 219.414 251.98 217.161C252.253 216.568 252.517 215.969 252.774 215.364C253.953 212.593 254.944 209.746 255.742 206.842C255.865 206.394 255.984 205.944 256.098 205.492V205.491C256.117 205.412 256.138 205.332 256.157 205.254C256.275 204.779 256.389 204.3 256.498 203.821V203.819C256.849 202.276 257.146 200.714 257.387 199.133C257.418 198.93 257.448 198.728 257.477 198.525C257.488 198.452 257.499 198.378 257.507 198.305V198.303C257.68 197.082 257.82 195.852 257.927 194.613C258.093 192.667 258.177 190.699 258.178 188.709C258.196 177.14 255.259 165.758 249.644 155.64Z" fill="url(#paint1_linear_980_991)"/>
<path d="M242.932 229.932C246.978 224.47 248.534 216.777 245.387 210.754C242.435 217.529 237.181 223.043 230.552 226.32C227.991 227.574 225.012 228.703 223.827 231.295C223.089 232.907 223.229 234.812 223.822 236.483C224.415 238.154 225.424 239.641 226.422 241.107L226.474 241.547C232.756 238.945 238.887 235.394 242.932 229.932Z" fill="#D3EFC3"/>
<path d="M245.252 210.802C245.071 216.424 243.122 221.845 239.681 226.296C238.958 227.267 238.085 228.119 237.096 228.819C236.111 229.469 234.969 229.845 233.789 229.905C232.69 229.984 231.557 229.937 230.497 230.281C229.956 230.466 229.461 230.762 229.044 231.151C228.626 231.54 228.295 232.012 228.073 232.538C227.486 233.833 227.4 235.261 227.364 236.661C227.324 238.215 227.307 239.83 226.573 241.243C226.484 241.414 226.755 241.542 226.844 241.371C228.121 238.913 227.292 236.038 228.053 233.454C228.408 232.248 229.129 231.142 230.334 230.659C231.387 230.236 232.556 230.283 233.669 230.213C234.821 230.171 235.944 229.848 236.942 229.271C237.964 228.624 238.867 227.808 239.615 226.857C241.331 224.744 242.705 222.375 243.685 219.836C244.819 216.945 245.451 213.881 245.551 210.776C245.557 210.584 245.259 210.612 245.252 210.802Z" fill="#F7F7F7"/>
<path d="M240.874 224.928C241.7 225.403 242.668 225.57 243.606 225.398C244.543 225.226 245.389 224.727 245.992 223.989C246.113 223.84 245.886 223.644 245.765 223.794C245.204 224.481 244.417 224.946 243.543 225.105C242.67 225.263 241.769 225.104 241.003 224.657C240.836 224.56 240.709 224.831 240.874 224.928Z" fill="#F7F7F7"/>
<path d="M234.352 229.938C233.829 228.063 234.033 226.06 234.923 224.328C235.011 224.157 234.74 224.029 234.652 224.2C233.729 226.004 233.521 228.089 234.07 230.039C234.122 230.225 234.404 230.123 234.352 229.938Z" fill="#F7F7F7"/>
<path d="M244.423 216.959C244.065 216.841 243.742 216.637 243.483 216.364C243.223 216.091 243.036 215.758 242.937 215.394C242.887 215.208 242.606 215.31 242.655 215.495C242.766 215.896 242.973 216.264 243.259 216.566C243.545 216.868 243.901 217.096 244.295 217.229C244.331 217.245 244.372 217.246 244.409 217.233C244.446 217.22 244.476 217.193 244.494 217.158C244.511 217.122 244.513 217.081 244.5 217.044C244.486 217.006 244.459 216.976 244.423 216.959Z" fill="#F7F7F7"/>
<path d="M222.866 205.961C222.894 206.078 222.922 206.195 222.949 206.315C223.316 207.893 223.554 209.499 223.661 211.117C223.671 211.242 223.679 211.368 223.686 211.493C223.902 215.393 223.391 219.298 222.18 223.011C221.696 224.488 221.101 225.926 220.399 227.313C219.43 229.228 218.227 231.228 217.955 233.29C217.925 233.505 217.907 233.721 217.903 233.939L225.933 241.577C225.96 241.585 225.986 241.595 226.013 241.604L226.319 241.923C226.361 241.854 226.402 241.782 226.443 241.713C226.467 241.673 226.489 241.631 226.513 241.591C226.529 241.564 226.544 241.537 226.56 241.513C226.565 241.504 226.57 241.495 226.574 241.488C226.589 241.464 226.601 241.441 226.615 241.419C226.846 241.015 227.076 240.608 227.302 240.199C227.304 240.197 227.304 240.197 227.304 240.194C229.024 237.073 230.498 233.782 231.425 230.371C231.453 230.268 231.483 230.164 231.507 230.058C231.916 228.518 232.199 226.948 232.352 225.362C232.433 224.494 232.47 223.622 232.463 222.75C232.441 220.496 232.063 218.26 231.345 216.123C229.913 211.864 227.133 208.11 223.171 206.111C223.069 206.06 222.97 206.01 222.866 205.961Z" fill="#D3EFC3"/>
<path d="M222.787 206.08C226.03 210.677 227.74 216.178 227.675 221.802C227.683 223.013 227.499 224.217 227.132 225.371C226.737 226.483 226.051 227.47 225.146 228.228C224.316 228.952 223.383 229.596 222.744 230.509C222.423 230.981 222.207 231.515 222.107 232.077C222.008 232.639 222.029 233.215 222.169 233.768C222.48 235.155 223.272 236.348 224.087 237.487C224.991 238.752 225.951 240.051 226.217 241.621C226.249 241.811 226.542 241.75 226.51 241.56C226.048 238.83 223.654 237.033 222.704 234.512C222.261 233.336 222.17 232.019 222.841 230.908C223.428 229.937 224.389 229.272 225.236 228.546C226.13 227.82 226.832 226.885 227.281 225.825C227.707 224.694 227.936 223.498 227.96 222.29C228.058 219.57 227.727 216.852 226.98 214.236C226.143 211.244 224.801 208.418 223.01 205.879C222.899 205.722 222.677 205.924 222.787 206.08Z" fill="#F7F7F7"/>
<path d="M227.803 219.992C228.749 219.875 229.622 219.426 230.267 218.724C230.912 218.023 231.287 217.116 231.324 216.164C231.33 215.972 231.031 215.952 231.024 216.145C230.992 217.031 230.643 217.876 230.041 218.528C229.439 219.18 228.624 219.595 227.742 219.699C227.551 219.722 227.613 220.015 227.803 219.992Z" fill="#F7F7F7"/>
<path d="M225.615 227.916C224.068 226.733 223.024 225.011 222.691 223.094C222.658 222.903 222.364 222.964 222.397 223.154C222.747 225.149 223.838 226.939 225.451 228.167C225.605 228.283 225.768 228.032 225.615 227.916Z" fill="#F7F7F7"/>
<path d="M225.835 211.494C225.478 211.616 225.097 211.647 224.726 211.585C224.354 211.523 224.004 211.37 223.706 211.139C223.554 211.02 223.39 211.272 223.542 211.39C223.872 211.643 224.259 211.812 224.669 211.881C225.079 211.95 225.501 211.918 225.896 211.788C225.934 211.778 225.967 211.755 225.989 211.722C226.01 211.689 226.019 211.649 226.012 211.611C226.004 211.572 225.981 211.538 225.947 211.516C225.914 211.494 225.874 211.487 225.835 211.494Z" fill="#F7F7F7"/>
<path d="M117.191 199.343C113.603 193.571 112.678 185.777 116.304 180.029C118.695 187.022 123.484 192.944 129.824 196.748C132.275 198.206 135.152 199.573 136.123 202.253C136.727 203.92 136.432 205.806 135.705 207.424C134.978 209.042 133.852 210.442 132.738 211.822L132.65 212.256C126.6 209.152 120.779 205.115 117.191 199.343Z" fill="#D3EFC3"/>
<path d="M116.434 180.088C116.157 185.706 117.659 191.267 120.726 195.983C121.369 197.01 122.169 197.929 123.098 198.707C124.027 199.436 125.135 199.902 126.305 200.059C127.394 200.226 128.527 200.272 129.556 200.701C130.08 200.928 130.549 201.264 130.934 201.685C131.318 202.107 131.61 202.605 131.788 203.147C132.268 204.485 132.238 205.916 132.16 207.314C132.073 208.866 131.959 210.477 132.575 211.945C132.65 212.123 132.369 212.228 132.295 212.051C131.222 209.497 132.282 206.699 131.734 204.062C131.478 202.831 130.85 201.67 129.688 201.09C128.673 200.584 127.504 200.536 126.4 200.376C125.256 200.24 124.162 199.826 123.214 199.171C122.249 198.443 121.415 197.556 120.747 196.548C119.208 194.303 118.032 191.83 117.261 189.22C116.366 186.246 115.986 183.14 116.138 180.038C116.148 179.846 116.443 179.898 116.434 180.088Z" fill="#F7F7F7"/>
<path d="M119.649 194.523C118.788 194.929 117.809 195.017 116.889 194.769C115.969 194.522 115.166 193.956 114.625 193.172C114.516 193.013 114.758 192.836 114.868 192.995C115.37 193.726 116.117 194.254 116.975 194.482C117.832 194.711 118.743 194.626 119.544 194.243C119.718 194.159 119.822 194.44 119.649 194.523Z" fill="#F7F7F7"/>
<path d="M125.742 200.046C126.416 198.22 126.376 196.207 125.63 194.409C125.555 194.23 125.836 194.125 125.91 194.303C126.683 196.176 126.72 198.271 126.015 200.17C125.948 200.351 125.675 200.226 125.742 200.046Z" fill="#F7F7F7"/>
<path d="M116.761 186.292C117.127 186.204 117.466 186.026 117.746 185.775C118.027 185.524 118.241 185.207 118.369 184.853C118.434 184.672 118.706 184.796 118.642 184.977C118.499 185.367 118.262 185.717 117.953 185.995C117.643 186.273 117.27 186.471 116.867 186.572C116.829 186.585 116.789 186.583 116.753 186.566C116.717 186.55 116.689 186.521 116.673 186.485C116.66 186.447 116.661 186.406 116.677 186.37C116.694 186.334 116.724 186.306 116.761 186.292Z" fill="#F7F7F7"/>
<path d="M139.14 177.08C139.102 177.195 139.065 177.31 139.029 177.426C138.535 178.97 138.167 180.552 137.929 182.155C137.909 182.278 137.89 182.404 137.873 182.528C137.341 186.397 137.532 190.331 138.437 194.13C138.799 195.641 139.275 197.123 139.862 198.562C140.672 200.55 141.709 202.64 141.812 204.718C141.825 204.935 141.824 205.152 141.811 205.369L133.186 212.33C133.158 212.336 133.132 212.344 133.105 212.35L132.773 212.644C132.737 212.571 132.702 212.496 132.667 212.424C132.646 212.382 132.627 212.339 132.607 212.297C132.593 212.269 132.58 212.24 132.567 212.215C132.562 212.206 132.558 212.197 132.555 212.189C132.542 212.164 132.532 212.14 132.52 212.117C132.322 211.695 132.126 211.271 131.934 210.845C131.932 210.843 131.932 210.843 131.932 210.84C130.472 207.59 129.271 204.189 128.624 200.715C128.605 200.611 128.583 200.504 128.568 200.396C128.285 198.829 128.131 197.24 128.107 195.648C128.097 194.775 128.131 193.903 128.209 193.035C128.415 190.79 128.973 188.592 129.863 186.521C131.637 182.392 134.712 178.877 138.824 177.205C138.929 177.162 139.033 177.121 139.14 177.08Z" fill="#D3EFC3"/>
<path d="M139.209 177.205C135.603 181.524 133.451 186.868 133.059 192.478C132.953 193.685 133.037 194.9 133.31 196.08C133.613 197.221 134.216 198.26 135.057 199.089C135.825 199.877 136.703 200.595 137.266 201.557C137.547 202.054 137.719 202.604 137.772 203.172C137.825 203.739 137.758 204.312 137.574 204.852C137.151 206.209 136.264 207.334 135.36 208.403C134.355 209.59 133.293 210.808 132.9 212.351C132.853 212.537 132.565 212.453 132.613 212.266C133.295 209.582 135.828 207.986 136.979 205.55C137.517 204.414 137.715 203.109 137.136 201.947C136.631 200.932 135.727 200.191 134.942 199.399C134.11 198.602 133.486 197.614 133.124 196.52C132.792 195.358 132.66 194.148 132.735 192.942C132.859 190.223 133.41 187.541 134.368 184.994C135.445 182.08 137.013 179.373 139.004 176.987C139.127 176.84 139.332 177.059 139.209 177.205Z" fill="#F7F7F7"/>
<path d="M133.078 190.665C132.145 190.471 131.311 189.952 130.725 189.201C130.14 188.45 129.84 187.515 129.881 186.564C129.883 186.525 129.9 186.488 129.928 186.462C129.956 186.435 129.994 186.421 130.033 186.421C130.072 186.422 130.109 186.438 130.136 186.465C130.164 186.493 130.18 186.53 130.18 186.569C130.141 187.454 130.42 188.325 130.967 189.024C131.514 189.722 132.292 190.202 133.162 190.377C133.351 190.415 133.266 190.703 133.078 190.665Z" fill="#F7F7F7"/>
<path d="M134.614 198.74C136.253 197.687 137.434 196.055 137.922 194.171C137.97 193.984 138.257 194.069 138.209 194.255C137.698 196.215 136.465 197.911 134.758 199.003C134.595 199.107 134.452 198.843 134.614 198.74Z" fill="#F7F7F7"/>
<path d="M135.732 182.355C136.077 182.505 136.455 182.567 136.83 182.535C137.205 182.504 137.567 182.379 137.883 182.174C138.044 182.068 138.187 182.331 138.026 182.437C137.677 182.662 137.277 182.799 136.862 182.835C136.448 182.871 136.031 182.805 135.648 182.642C135.61 182.63 135.579 182.604 135.56 182.569C135.541 182.535 135.536 182.494 135.546 182.456C135.557 182.418 135.583 182.386 135.618 182.367C135.653 182.348 135.694 182.344 135.732 182.355Z" fill="#F7F7F7"/>
<path d="M183.796 140.424C189.041 140.424 193.292 136.176 193.292 130.936C193.292 125.697 189.041 121.449 183.796 121.449C178.551 121.449 174.3 125.697 174.3 130.936C174.3 136.176 178.551 140.424 183.796 140.424Z" fill="#FF6584"/>
<path d="M212.871 130.441C212.015 129.538 211.112 128.681 210.165 127.875C208.315 126.307 206.267 124.975 203.984 124.135C203.124 123.818 202.236 123.584 201.332 123.438C201.223 123.42 201.116 123.402 201.007 123.388C200.999 123.387 200.991 123.387 200.983 123.388C200.967 123.383 200.95 123.38 200.932 123.378C200.71 123.35 200.488 123.327 200.265 123.311C199.06 123.231 197.85 123.34 196.68 123.634C196 123.805 195.337 124.036 194.699 124.323C194.059 124.636 193.438 124.988 192.841 125.375C192.52 125.57 192.189 125.748 191.85 125.91C190.861 126.378 189.813 126.713 188.735 126.906C188.007 127.036 187.27 127.109 186.53 127.123C185.888 127.136 185.283 127.158 184.674 127.39C184.024 127.633 183.441 128.026 182.97 128.535C182.499 129.045 182.155 129.657 181.963 130.323C181.948 130.382 181.952 130.445 181.975 130.501C181.998 130.558 182.039 130.606 182.091 130.638C182.255 130.756 182.415 130.89 182.589 130.995C182.743 131.065 182.907 131.11 183.075 131.128C183.35 131.185 183.625 131.241 183.901 131.295C184.915 131.496 185.934 131.675 186.957 131.83C189.015 132.141 191.084 132.36 193.165 132.488C193.178 132.489 193.191 132.491 193.203 132.491C195.554 132.633 197.911 132.655 200.265 132.559C200.621 132.545 200.975 132.528 201.332 132.507C202.816 132.424 204.296 132.293 205.773 132.114C207.139 131.948 208.499 131.742 209.855 131.496C210.823 131.321 211.787 131.125 212.748 130.909C212.795 130.895 212.837 130.87 212.871 130.835C212.905 130.8 212.929 130.757 212.941 130.71C212.954 130.663 212.954 130.613 212.941 130.566C212.929 130.519 212.905 130.476 212.871 130.441Z" fill="#E6E6E6"/>
<path d="M193.133 143.092C191.758 141.623 190.244 140.291 188.611 139.115C188.069 138.735 187.511 138.377 186.938 138.05C186.235 137.645 185.505 137.288 184.752 136.982C184.585 136.914 184.415 136.848 184.246 136.786C183.284 136.43 182.286 136.18 181.27 136.039C181.262 136.037 181.254 136.039 181.246 136.037C181.23 136.034 181.212 136.031 181.196 136.028C180.704 135.964 180.207 135.934 179.711 135.937C179.354 135.937 178.996 135.956 178.642 135.991C178.069 136.048 177.501 136.146 176.942 136.285C176.666 136.353 176.391 136.433 176.121 136.524C175.727 136.654 175.34 136.804 174.963 136.974C174.956 136.978 174.951 136.979 174.945 136.982C174.311 137.292 173.696 137.641 173.105 138.026C173.092 138.034 173.078 138.042 173.065 138.05C172.393 138.452 171.682 138.784 170.943 139.043C170.309 139.265 169.658 139.436 168.997 139.557C168.27 139.688 167.532 139.76 166.793 139.772C166.151 139.785 165.545 139.808 164.938 140.041C164.288 140.284 163.705 140.677 163.234 141.186C162.763 141.695 162.417 142.308 162.225 142.974C162.211 143.033 162.215 143.096 162.238 143.152C162.261 143.209 162.301 143.257 162.353 143.289C162.518 143.407 162.679 143.539 162.852 143.645C163.005 143.715 163.169 143.76 163.337 143.777C163.612 143.835 163.887 143.892 164.163 143.946C165.178 144.147 166.197 144.325 167.221 144.479C168.625 144.692 170.035 144.861 171.451 144.989C172.122 145.051 172.794 145.102 173.466 145.142C175.19 145.246 176.915 145.286 178.642 145.263C178.998 145.258 179.354 145.25 179.711 145.239C181.826 145.177 183.935 145.018 186.037 144.764C188.38 144.48 190.708 144.078 193.01 143.558C193.057 143.545 193.099 143.519 193.133 143.485C193.167 143.45 193.191 143.407 193.203 143.36C193.216 143.313 193.216 143.264 193.204 143.217C193.191 143.17 193.167 143.127 193.133 143.092Z" fill="#E6E6E6"/>
<path d="M169.464 117.629L177.829 233.135L161.098 234.619V119.099C163.091 117.543 165.953 117.299 169.464 117.629Z" fill="#CCCCCC"/>
<path d="M210.758 117.629L202.393 233.135L219.124 234.619V119.099C217.131 117.543 214.269 117.299 210.758 117.629Z" fill="#CCCCCC"/>
<path d="M219.518 119.149C218.999 117.877 217.895 116.999 216.619 116.999H163.425C161.65 116.999 160.207 118.701 160.207 120.794V235.598C160.192 236.66 160.589 237.686 161.316 238.462C161.696 238.861 162.178 239.149 162.709 239.296C162.942 239.361 163.183 239.393 163.425 239.392H216.619C216.86 239.393 217.101 239.361 217.334 239.296C218.766 238.912 219.836 237.401 219.836 235.598V120.794C219.838 120.231 219.73 119.672 219.518 119.149ZM218.769 235.598C218.769 236.996 217.804 238.134 216.619 238.134H163.425C162.442 238.134 161.61 237.352 161.356 236.287C161.302 236.061 161.274 235.83 161.275 235.598V120.794C161.275 119.396 162.24 118.26 163.425 118.26H216.619C216.837 118.26 217.053 118.299 217.258 118.375C218.132 118.695 218.769 119.658 218.769 120.794V235.598Z" fill="#CCCCCC"/>
<path d="M219.302 151.896H160.741V152.963H219.302V151.896Z" fill="#CCCCCC"/>
<path d="M219.302 129.869H160.741V130.936H219.302V129.869Z" fill="#CCCCCC"/>
<path d="M219.302 169.68H160.741V170.747H219.302V169.68Z" fill="#CCCCCC"/>
<path d="M179.745 117.478H178.677V184.796H179.745V117.478Z" fill="#CCCCCC"/>
<path d="M201.367 117.478H200.299V184.796H201.367V117.478Z" fill="#CCCCCC"/>
<path d="M225.977 232.724H155.846C154.572 232.725 153.351 233.232 152.45 234.132C151.549 235.032 151.043 236.252 151.041 237.525C151.04 238.137 151.158 238.744 151.388 239.311C151.744 240.201 152.36 240.964 153.154 241.502C153.949 242.04 154.887 242.327 155.846 242.328H225.977C226.816 242.327 227.64 242.108 228.368 241.691C229.096 241.273 229.701 240.673 230.125 239.949C230.245 239.745 230.35 239.532 230.438 239.311C230.667 238.744 230.785 238.137 230.784 237.525C230.782 236.252 230.275 235.032 229.374 234.131C228.473 233.231 227.252 232.725 225.977 232.724Z" fill="#CCCCCC"/>
<path d="M219.303 182.306H161.098V185.863H219.303V182.306Z" fill="#CCCCCC"/>
<path d="M189.666 181.239H190.734C191.253 181.239 191.751 181.445 192.118 181.812C192.486 182.179 192.692 182.677 192.692 183.196H187.708C187.708 182.939 187.759 182.684 187.857 182.447C187.955 182.21 188.1 181.994 188.281 181.812C188.463 181.631 188.679 181.487 188.917 181.388C189.154 181.29 189.409 181.239 189.666 181.239Z" fill="#CCCCCC"/>
<path d="M191.227 192.337C197.319 192.337 202.258 187.403 202.258 181.316C202.258 175.23 197.319 170.295 191.227 170.295C185.135 170.295 180.196 175.23 180.196 181.316C180.196 187.403 185.135 192.337 191.227 192.337Z" fill="#EDB18B"/>
<path d="M178.922 170.714C179.005 169.448 179.843 168.153 182.504 167.477C182.504 167.477 187.072 161.641 193.279 164.701C193.279 164.701 196.288 164.184 198.519 167.303C198.519 167.303 200.732 166 201.665 168.31C201.665 168.31 204.259 173.023 203.304 177.831C202.349 182.638 201.86 183.238 201.86 183.238C201.86 183.238 203.078 173.294 196.065 173.984C189.052 174.673 183.406 172.209 181.818 177.604C180.5 182.083 180.666 184.41 180.666 184.41C180.666 184.41 176.256 179.941 177.755 176.422C178.522 174.623 178.793 172.666 178.922 170.714Z" fill="#2F2E41"/>
<path d="M161.229 241.546H222.244C221.836 236.896 221.569 219.121 221.569 217.951C221.569 212.791 217.344 207.16 217.344 207.16L215.831 206.325L203.199 202.387L199.93 198.144C199.587 197.699 199.146 197.339 198.641 197.092C198.136 196.846 197.581 196.72 197.018 196.724L186.692 196.802C185.783 196.808 184.91 197.154 184.243 197.771L177.848 203.698L168.469 208.173L168.453 208.157L168.355 208.23L166.963 209.231L166.068 209.878C166.068 209.878 163.719 212.693 161.842 221.137C161.56 222.407 161.362 238.848 161.229 241.546Z" fill="#F3901B"/>
<path d="M236.366 239.311C236.219 239.445 236.07 239.578 235.921 239.71C235.359 240.21 234.789 240.701 234.21 241.183C233.337 241.911 232.445 242.617 231.535 243.301H149.398C147.725 242.047 146.115 240.717 144.565 239.311H236.366Z" fill="#CCCCCC"/>
<path d="M206.258 240.269H176.064L176.703 237.236H205.619L206.258 240.269Z" fill="#2F2E41"/>
<path d="M233.576 227.18H225.719C225.542 227.18 225.366 227.218 225.205 227.293C225.044 227.367 224.902 227.476 224.787 227.611C224.678 227.59 224.567 227.58 224.455 227.579C224.21 227.579 223.968 227.627 223.742 227.721C223.515 227.814 223.31 227.951 223.136 228.124C222.963 228.297 222.826 228.502 222.732 228.728C222.638 228.954 222.59 229.197 222.59 229.441C222.59 229.686 222.638 229.928 222.732 230.154C222.826 230.38 222.963 230.586 223.136 230.759C223.31 230.931 223.515 231.069 223.742 231.162C223.968 231.255 224.21 231.303 224.455 231.303C224.737 231.303 225.014 231.239 225.267 231.115L225.398 232.724L225.919 239.083C225.943 239.162 225.977 239.239 226.018 239.311C226.123 239.504 226.278 239.665 226.467 239.778C226.657 239.89 226.873 239.949 227.093 239.95H232.202C232.422 239.949 232.638 239.89 232.828 239.778C233.017 239.665 233.173 239.504 233.278 239.311C233.318 239.238 233.351 239.162 233.376 239.083L234.75 228.769C234.806 228.585 234.819 228.391 234.787 228.201C234.754 228.012 234.678 227.833 234.564 227.679C234.45 227.524 234.301 227.399 234.129 227.312C233.957 227.225 233.768 227.18 233.576 227.18ZM224.455 230.772C224.102 230.771 223.764 230.631 223.515 230.382C223.265 230.132 223.125 229.794 223.125 229.441C223.125 229.089 223.265 228.751 223.515 228.501C223.764 228.252 224.102 228.111 224.455 228.111C224.479 228.111 224.502 228.117 224.525 228.119C224.473 228.333 224.48 228.558 224.545 228.769L225.107 230.595C224.909 230.71 224.684 230.771 224.455 230.772Z" fill="#3F3D56"/>
<path d="M215.829 193.433H166.094C165.667 193.434 165.257 193.604 164.955 193.906C164.653 194.208 164.483 194.617 164.482 195.044V228.575C164.483 229.002 164.653 229.412 164.955 229.714C165.257 230.016 165.667 230.185 166.094 230.186H215.829C216.257 230.185 216.667 230.016 216.969 229.714C217.271 229.412 217.441 229.002 217.441 228.575V195.044C217.441 194.617 217.271 194.208 216.968 193.906C216.666 193.604 216.257 193.434 215.829 193.433Z" fill="#3F3D56"/>
<path d="M196.563 220.301H184.928C184.764 220.301 184.606 220.367 184.49 220.483C184.374 220.6 184.308 220.758 184.309 220.922V239.286H197.185V220.922C197.185 220.84 197.169 220.76 197.138 220.684C197.106 220.609 197.061 220.541 197.003 220.483C196.945 220.425 196.877 220.38 196.801 220.348C196.726 220.317 196.645 220.301 196.563 220.301ZM190.785 230.735C190.421 230.733 190.073 230.588 189.815 230.331C189.558 230.074 189.413 229.726 189.411 229.362V227.244C189.412 226.881 189.557 226.532 189.814 226.275C190.072 226.018 190.421 225.873 190.785 225.873C191.149 225.873 191.498 226.018 191.756 226.275C192.014 226.532 192.159 226.881 192.159 227.244V229.362C192.157 229.726 192.012 230.074 191.755 230.331C191.497 230.588 191.149 230.733 190.785 230.735Z" fill="#2F2E41"/>
<path d="M184.269 238.698V240.47C184.269 240.562 184.305 240.65 184.37 240.715C184.435 240.779 184.523 240.816 184.615 240.816H196.878C196.97 240.816 197.058 240.779 197.123 240.714C197.188 240.649 197.224 240.562 197.225 240.47V238.698H184.269Z" fill="#3F3D56"/>
<path d="M214.771 228.225C215.205 228.225 215.557 227.873 215.557 227.44C215.557 227.007 215.205 226.656 214.771 226.656C214.338 226.656 213.986 227.007 213.986 227.44C213.986 227.873 214.338 228.225 214.771 228.225Z" fill="#2F2E41"/>
<path d="M172.372 226.303C172.336 226.303 172.301 226.31 172.267 226.324C172.234 226.337 172.204 226.358 172.178 226.383C172.153 226.409 172.132 226.439 172.119 226.472C172.105 226.505 172.098 226.541 172.098 226.577V227.99C172.098 228.062 172.127 228.132 172.178 228.183C172.23 228.235 172.3 228.264 172.372 228.264C172.445 228.264 172.515 228.235 172.566 228.183C172.618 228.132 172.647 228.062 172.647 227.99V226.577C172.647 226.541 172.64 226.505 172.626 226.472C172.613 226.439 172.592 226.409 172.567 226.383C172.541 226.358 172.511 226.337 172.478 226.324C172.444 226.31 172.409 226.303 172.372 226.303Z" fill="#2F2E41"/>
<path d="M173.865 226.303C173.829 226.303 173.793 226.31 173.759 226.324C173.726 226.337 173.696 226.358 173.67 226.383C173.645 226.409 173.625 226.439 173.611 226.472C173.597 226.505 173.59 226.541 173.59 226.577V227.99C173.59 228.063 173.619 228.132 173.67 228.184C173.722 228.235 173.792 228.264 173.865 228.264C173.938 228.264 174.007 228.235 174.059 228.184C174.11 228.132 174.139 228.063 174.139 227.99V226.577C174.139 226.541 174.132 226.505 174.118 226.472C174.105 226.439 174.084 226.409 174.059 226.383C174.033 226.358 174.003 226.337 173.97 226.324C173.936 226.31 173.901 226.303 173.865 226.303Z" fill="#2F2E41"/>
<path d="M175.357 226.303C175.321 226.303 175.285 226.31 175.252 226.324C175.218 226.337 175.188 226.358 175.163 226.383C175.137 226.409 175.117 226.439 175.103 226.472C175.089 226.505 175.082 226.541 175.082 226.577V227.99C175.082 228.062 175.111 228.132 175.163 228.183C175.214 228.235 175.284 228.264 175.357 228.264C175.43 228.264 175.499 228.235 175.551 228.183C175.602 228.132 175.631 228.062 175.632 227.99V226.577C175.632 226.541 175.624 226.505 175.611 226.472C175.597 226.439 175.577 226.409 175.551 226.383C175.526 226.358 175.495 226.337 175.462 226.324C175.429 226.31 175.393 226.303 175.357 226.303Z" fill="#2F2E41"/>
<path d="M176.849 226.303C176.813 226.303 176.777 226.31 176.744 226.324C176.71 226.337 176.68 226.358 176.655 226.383C176.629 226.409 176.609 226.439 176.595 226.472C176.581 226.505 176.574 226.541 176.574 226.577V227.99C176.574 228.062 176.603 228.132 176.655 228.183C176.706 228.235 176.776 228.264 176.849 228.264C176.922 228.264 176.992 228.235 177.043 228.183C177.095 228.132 177.124 228.062 177.124 227.99V226.577C177.124 226.541 177.117 226.505 177.103 226.472C177.089 226.439 177.069 226.409 177.043 226.383C177.018 226.358 176.987 226.337 176.954 226.324C176.921 226.31 176.885 226.303 176.849 226.303Z" fill="#2F2E41"/>
<path d="M178.039 239.47C180.333 239.47 182.193 237.612 182.193 235.32C182.193 233.029 180.333 231.171 178.039 231.171C175.745 231.171 173.886 233.029 173.886 235.32C173.886 237.612 175.745 239.47 178.039 239.47Z" fill="#EDB18B"/>
<path d="M207.057 240.269C209.351 240.269 211.211 238.411 211.211 236.119C211.211 233.827 209.351 231.969 207.057 231.969C204.763 231.969 202.903 233.827 202.903 236.119C202.903 238.411 204.763 240.269 207.057 240.269Z" fill="#EDB18B"/>
<path d="M249.93 186.027C249.519 185.349 249.033 184.625 248.271 184.403C247.389 184.147 246.483 184.657 245.715 185.159C243.416 186.663 241.202 188.292 239.084 190.04L239.086 190.067C240.736 189.953 242.104 194.335 243.754 194.221C244.945 194.139 246.458 189.55 247.511 188.987C247.911 188.773 248.3 188.488 248.753 188.468C249.316 188.443 249.806 188.836 250.192 189.246C252.472 191.672 253.132 195.382 255.69 197.513C254.077 193.539 252.151 189.698 249.93 186.027Z" fill="#3F3D56"/>
<path d="M254.318 191.92C255.521 194.091 256.797 196.219 258.146 198.303V198.305C258.138 198.378 258.127 198.452 258.116 198.525C257.953 198.276 257.792 198.026 257.632 197.775C256.421 195.877 255.27 193.943 254.179 191.973C253.662 191.036 253.157 190.092 252.665 189.14C252.285 188.402 251.913 187.661 251.548 186.915C251.444 186.701 251.344 186.487 251.243 186.272C251.007 185.767 250.773 185.26 250.524 184.762C250.24 184.193 249.893 183.6 249.371 183.218C249.133 183.037 248.849 182.928 248.551 182.902C248.132 182.905 247.721 183.022 247.364 183.242C244.662 184.661 242.139 186.399 239.851 188.418C237.56 190.43 235.512 192.701 233.748 195.188C233.694 195.264 233.566 195.191 233.621 195.113C233.836 194.809 234.054 194.511 234.277 194.214C237.049 190.531 240.448 187.364 244.318 184.857C244.968 184.436 245.631 184.034 246.307 183.652C246.647 183.459 246.989 183.269 247.337 183.09C247.671 182.895 248.044 182.779 248.43 182.752C249.756 182.731 250.443 184.232 250.914 185.24C251.061 185.558 251.211 185.875 251.363 186.192C251.936 187.389 252.532 188.576 253.151 189.754C253.531 190.481 253.92 191.203 254.318 191.92Z" fill="#3F3D56"/>
<path d="M239.722 187.677C239.645 187.591 239.568 187.505 239.491 187.42C238.879 186.744 238.223 186.077 237.384 185.689C236.984 185.499 236.547 185.398 236.103 185.393C235.646 185.405 235.195 185.504 234.774 185.682C234.574 185.762 234.378 185.853 234.185 185.95C233.965 186.06 233.748 186.179 233.533 186.298C233.129 186.521 232.73 186.755 232.336 186.998C231.552 187.481 230.793 188.002 230.059 188.56C229.678 188.849 229.305 189.148 228.94 189.456C228.601 189.742 228.268 190.036 227.942 190.338C227.873 190.402 227.769 190.298 227.838 190.234C227.924 190.154 228.011 190.075 228.098 189.996C228.343 189.775 228.593 189.557 228.846 189.344C229.307 188.955 229.781 188.581 230.267 188.222C231.022 187.663 231.803 187.142 232.61 186.659C233.013 186.418 233.422 186.187 233.836 185.966C233.961 185.899 234.088 185.834 234.216 185.772C234.507 185.626 234.809 185.503 235.119 185.405C235.558 185.263 236.023 185.217 236.482 185.271C236.925 185.336 237.352 185.483 237.74 185.706C238.564 186.166 239.204 186.878 239.826 187.573C239.889 187.643 239.785 187.748 239.722 187.677Z" fill="#3F3D56"/>
<path d="M233.69 190.927C233.48 190.938 233.273 190.878 233.101 190.759C232.645 190.413 232.657 189.584 233.137 188.223C233.268 187.855 233.473 187.517 233.74 187.23C234.007 186.944 234.329 186.715 234.688 186.558C235.024 186.408 235.388 186.33 235.756 186.327C236.124 186.325 236.488 186.399 236.826 186.546C236.885 186.571 236.943 186.599 237 186.628C237.391 186.847 237.758 187.107 238.093 187.403C238.379 187.65 238.683 187.875 239.004 188.075L239.111 188.137L239.009 188.209C236.422 190.029 234.667 190.927 233.69 190.927Z" fill="#3F3D56"/>
<path d="M243.642 180.094C242.791 180.094 241.966 179.799 241.309 179.259C240.652 178.719 240.202 177.968 240.037 177.134C239.326 177.278 238.673 177.629 238.161 178.144C237.649 178.658 237.301 179.312 237.161 180.024C237.021 180.736 237.095 181.473 237.374 182.143C237.653 182.812 238.124 183.384 238.728 183.787C239.332 184.189 240.041 184.404 240.767 184.404C241.493 184.403 242.203 184.188 242.807 183.785C243.41 183.383 243.881 182.81 244.16 182.14C244.438 181.47 244.512 180.733 244.371 180.022C244.131 180.07 243.887 180.094 243.642 180.094Z" fill="#3F3D56"/>
<path opacity="0.74" d="M145.283 186C148.311 186 150.766 183.547 150.766 180.522C150.766 177.496 148.311 175.043 145.283 175.043C142.255 175.043 139.8 177.496 139.8 180.522C139.8 183.547 142.255 186 145.283 186Z" fill="#3F3D56"/>
<path opacity="0.74" d="M150.766 186C153.795 186 156.25 183.547 156.25 180.522C156.25 177.496 153.795 175.043 150.766 175.043C147.738 175.043 145.283 177.496 145.283 180.522C145.283 183.547 147.738 186 150.766 186Z" fill="#F3901B"/>
<path opacity="0.74" d="M148.072 181.634C151.1 181.634 153.555 179.181 153.555 176.155C153.555 173.13 151.1 170.677 148.072 170.677C145.044 170.677 142.589 173.13 142.589 176.155C142.589 179.181 145.044 181.634 148.072 181.634Z" fill="#FF6584"/>
<path d="M162.409 174.586L148.325 179.006L148.421 179.311L162.505 174.89L162.409 174.586Z" fill="#3F3D56"/>
<path d="M162.499 175.325C162.852 175.325 163.138 175.039 163.138 174.687C163.138 174.334 162.852 174.048 162.499 174.048C162.146 174.048 161.86 174.334 161.86 174.687C161.86 175.039 162.146 175.325 162.499 175.325Z" fill="#3F3D56"/>
<path d="M253.933 203.416C254.869 204.075 255.769 204.747 256.797 205.254C256.778 205.332 256.757 205.412 256.738 205.491C256.612 205.431 256.489 205.369 256.366 205.305C255.323 204.759 254.425 204.017 253.446 203.372C252.96 203.037 252.43 202.772 251.871 202.584C251.287 202.409 250.678 202.338 250.07 202.373C247.535 202.498 245.362 204.009 243.006 204.771C241.852 205.144 240.625 205.344 239.422 205.109C238.219 204.874 237.151 204.236 236.088 203.658C235.04 203.087 233.898 202.512 232.674 202.512C231.677 202.514 230.629 202.913 230.096 203.794C230.079 203.82 230.053 203.839 230.023 203.846C229.993 203.854 229.961 203.849 229.934 203.833C229.907 203.817 229.887 203.792 229.879 203.762C229.871 203.732 229.875 203.7 229.89 203.673C230.009 203.472 230.156 203.289 230.326 203.128C231.022 202.469 232.047 202.209 232.987 202.285C234.205 202.384 235.315 202.959 236.368 203.537C237.485 204.15 238.628 204.809 239.919 204.943C241.194 205.077 242.456 204.744 243.638 204.295C245.928 203.425 248.187 201.976 250.733 202.137C251.934 202.214 252.963 202.734 253.933 203.416Z" fill="#3F3D56"/>
<path d="M153.728 157.254V157.578C153.62 157.556 153.511 157.546 153.402 157.546H151.731V161.131C151.73 161.661 151.519 162.17 151.144 162.546C150.768 162.921 150.259 163.132 149.727 163.132H147.258V163.684C147.258 163.906 147.301 164.125 147.387 164.329H147.045C146.974 164.122 146.937 163.904 146.938 163.684V163.132H145.58V162.813H146.938V159.228C146.938 158.697 147.149 158.188 147.525 157.813C147.901 157.438 148.41 157.227 148.941 157.226H151.411V156.668H151.731V157.226H153.402C153.511 157.227 153.62 157.236 153.728 157.254Z" fill="#F3901B"/>
<path d="M149.727 154.673H145.267C144.736 154.673 144.226 154.884 143.851 155.259C143.475 155.635 143.264 156.143 143.264 156.674V161.131C143.264 161.661 143.475 162.17 143.851 162.546C144.226 162.921 144.736 163.132 145.267 163.132H149.727C150.259 163.132 150.768 162.921 151.144 162.546C151.519 162.17 151.73 161.661 151.731 161.131V156.668C151.729 156.138 151.517 155.631 151.141 155.257C150.766 154.883 150.258 154.673 149.727 154.673ZM151.411 161.131C151.411 161.577 151.233 162.004 150.917 162.32C150.602 162.635 150.174 162.812 149.727 162.813H145.267C144.821 162.812 144.393 162.635 144.077 162.32C143.761 162.004 143.584 161.577 143.583 161.131V156.674C143.584 156.228 143.761 155.801 144.077 155.485C144.393 155.17 144.821 154.992 145.267 154.992H149.727C150.173 154.992 150.6 155.169 150.915 155.483C151.231 155.797 151.409 156.223 151.411 156.668V161.131Z" fill="#3F3D56"/>
<path d="M146.938 162.813V163.132H147.257V162.813H146.938ZM146.938 162.813V163.132H147.257V162.813H146.938ZM153.727 157.254C153.619 157.236 153.51 157.227 153.401 157.227H148.941C148.41 157.227 147.9 157.438 147.525 157.813C147.149 158.188 146.938 158.697 146.938 159.228V163.684C146.937 163.904 146.973 164.122 147.045 164.329C147.179 164.725 147.435 165.068 147.775 165.312C148.115 165.555 148.523 165.686 148.941 165.686H153.401C153.932 165.686 154.442 165.475 154.817 165.099C155.193 164.724 155.404 164.215 155.405 163.684V159.228C155.404 158.754 155.236 158.295 154.928 157.933C154.621 157.572 154.196 157.331 153.727 157.254ZM155.085 163.684C155.084 164.13 154.907 164.558 154.591 164.873C154.276 165.189 153.848 165.366 153.401 165.367H148.941C148.494 165.366 148.067 165.189 147.751 164.873C147.435 164.558 147.258 164.13 147.257 163.684V159.228C147.258 158.782 147.435 158.355 147.751 158.039C148.067 157.724 148.494 157.546 148.941 157.546H153.401C153.848 157.546 154.276 157.723 154.592 158.039C154.907 158.354 155.085 158.782 155.085 159.228V163.684ZM146.938 162.813V163.132H147.257V162.813H146.938Z" fill="#3F3D56"/>
<path d="M143.783 204.423H124.836C124.704 204.423 124.578 204.475 124.485 204.568C124.391 204.661 124.338 204.787 124.338 204.919V206.041C124.963 208.433 125.72 210.789 126.605 213.098H143.783C143.849 213.098 143.913 213.085 143.974 213.06C144.034 213.035 144.089 212.998 144.135 212.952C144.181 212.906 144.218 212.852 144.242 212.791C144.267 212.731 144.28 212.666 144.28 212.601V204.919C144.28 204.787 144.228 204.661 144.134 204.568C144.041 204.475 143.915 204.423 143.783 204.423Z" fill="#F3901B"/>
<path d="M141.978 215.589H127.616C127.787 215.99 127.961 216.387 128.142 216.783H141.978C142.758 216.794 142.75 215.578 141.978 215.589Z" fill="#E4E4E4"/>
<path d="M141.977 218.325H128.861C129.053 218.726 129.25 219.124 129.452 219.519H141.977C142.757 219.53 142.749 218.315 141.977 218.325Z" fill="#E4E4E4"/>
<path d="M141.978 221.063H130.26C130.474 221.463 130.694 221.861 130.918 222.256H141.978C142.757 222.268 142.749 221.051 141.978 221.063Z" fill="#E4E4E4"/>
<path d="M240.203 147.486H240.112C240.395 147.486 240.675 147.552 240.928 147.679H240.514C240.067 147.679 239.639 147.857 239.324 148.172C239.008 148.488 238.831 148.915 238.83 149.361V153.818C238.831 154.264 239.008 154.691 239.324 155.007C239.639 155.322 240.067 155.499 240.514 155.5H240.778C240.566 155.583 240.34 155.626 240.112 155.626H240.203C240.692 155.626 241.16 155.432 241.506 155.086C241.851 154.741 242.046 154.273 242.046 153.784V149.328C242.046 148.84 241.851 148.371 241.506 148.026C241.16 147.681 240.692 147.487 240.203 147.486Z" fill="#3F3D56"/>
<path opacity="0.21" d="M240.203 147.486H240.112C240.395 147.486 240.675 147.552 240.928 147.679H240.514C240.067 147.679 239.639 147.857 239.324 148.172C239.008 148.488 238.831 148.915 238.83 149.361V153.818C238.831 154.264 239.008 154.691 239.324 155.007C239.639 155.322 240.067 155.499 240.514 155.5H240.778C240.566 155.583 240.34 155.626 240.112 155.626H240.203C240.692 155.626 241.16 155.432 241.506 155.086C241.851 154.741 242.046 154.273 242.046 153.784V149.328C242.046 148.84 241.851 148.371 241.506 148.026C241.16 147.681 240.692 147.487 240.203 147.486Z" fill="black"/>
<path d="M228.382 147.486H228.291C228.574 147.486 228.853 147.552 229.107 147.679H228.693C228.246 147.679 227.818 147.857 227.503 148.172C227.187 148.488 227.009 148.915 227.009 149.361V153.818C227.009 154.264 227.187 154.691 227.503 155.007C227.818 155.322 228.246 155.499 228.693 155.5H228.957C228.744 155.583 228.519 155.626 228.291 155.626H228.382C228.87 155.626 229.339 155.432 229.685 155.086C230.03 154.741 230.225 154.273 230.225 153.784V149.328C230.225 148.84 230.03 148.371 229.685 148.026C229.339 147.681 228.87 147.487 228.382 147.486Z" fill="#F3901B"/>
<path opacity="0.21" d="M228.382 147.486H228.291C228.574 147.486 228.853 147.552 229.107 147.679H228.693C228.246 147.679 227.818 147.857 227.503 148.172C227.187 148.488 227.009 148.915 227.009 149.361V153.818C227.009 154.264 227.187 154.691 227.503 155.007C227.818 155.322 228.246 155.499 228.693 155.5H228.957C228.744 155.583 228.519 155.626 228.291 155.626H228.382C228.87 155.626 229.339 155.432 229.685 155.086C230.03 154.741 230.225 154.273 230.225 153.784V149.328C230.225 148.84 230.03 148.371 229.685 148.026C229.339 147.681 228.87 147.487 228.382 147.486Z" fill="black"/>
<path d="M228.711 155.514C228.264 155.513 227.836 155.336 227.521 155.021C227.205 154.705 227.028 154.278 227.027 153.832V149.375C227.028 148.929 227.205 148.501 227.521 148.186C227.836 147.871 228.264 147.693 228.711 147.693H229.125C228.872 147.566 228.592 147.5 228.309 147.5H223.848C223.36 147.5 222.891 147.695 222.545 148.04C222.2 148.385 222.005 148.853 222.005 149.342V153.798C222.005 154.287 222.2 154.755 222.545 155.1C222.891 155.445 223.36 155.64 223.848 155.64H228.309C228.537 155.64 228.763 155.597 228.975 155.514L228.711 155.514Z" fill="#F3901B"/>
<path d="M240.532 155.514C240.086 155.513 239.658 155.336 239.342 155.021C239.026 154.705 238.849 154.278 238.848 153.832V149.375C238.849 148.929 239.026 148.501 239.342 148.186C239.658 147.871 240.086 147.693 240.532 147.693H240.946C240.693 147.566 240.414 147.5 240.13 147.5H235.67C235.181 147.5 234.712 147.695 234.367 148.04C234.021 148.385 233.827 148.853 233.826 149.342V153.798C233.827 154.287 234.021 154.755 234.367 155.1C234.712 155.445 235.181 155.64 235.67 155.64H240.13C240.358 155.64 240.584 155.597 240.796 155.514L240.532 155.514Z" fill="#3F3D56"/>
<path d="M245.799 148.609C247.436 150.859 248.934 153.207 250.284 155.64H247.491C247.002 155.639 246.534 155.445 246.188 155.1C245.843 154.754 245.648 154.286 245.647 153.798V149.342C245.647 149.09 245.699 148.84 245.799 148.609Z" fill="#FF6584"/>
<path d="M240.2 157.978L238.637 155.64L237.495 153.93C237.428 153.831 237.335 153.752 237.225 153.703C237.115 153.654 236.994 153.637 236.875 153.654C236.756 153.672 236.645 153.722 236.553 153.8C236.462 153.878 236.395 153.98 236.359 154.095L235.878 155.64L234.91 158.744C234.872 158.868 234.872 159 234.911 159.124C234.95 159.247 235.026 159.356 235.129 159.435C235.231 159.514 235.355 159.561 235.485 159.568C235.614 159.574 235.742 159.542 235.853 159.474L236.196 159.262C236.265 159.219 236.344 159.195 236.425 159.191C236.507 159.188 236.587 159.205 236.66 159.241C236.732 159.277 236.795 159.331 236.84 159.398C236.886 159.465 236.914 159.543 236.922 159.624L237.236 163.056C237.251 163.213 237.324 163.36 237.441 163.466C237.558 163.573 237.71 163.633 237.869 163.633C237.888 163.633 237.907 163.632 237.928 163.63L238.41 163.587C238.494 163.58 238.575 163.556 238.649 163.517C238.723 163.478 238.788 163.425 238.842 163.361C238.895 163.297 238.935 163.222 238.96 163.143C238.985 163.063 238.993 162.979 238.986 162.896L238.661 159.353C238.654 159.269 238.668 159.186 238.703 159.11C238.738 159.034 238.792 158.968 238.861 158.92C238.929 158.872 239.009 158.842 239.092 158.835C239.176 158.827 239.26 158.842 239.335 158.877L239.406 158.909C239.532 158.967 239.673 158.982 239.808 158.952C239.944 158.922 240.066 158.849 240.155 158.744C240.245 158.639 240.298 158.507 240.306 158.369C240.314 158.23 240.277 158.093 240.2 157.978Z" fill="#CCCCCC"/>
</g>
<defs>
<filter id="filter0_f_980_991" x="0" y="0" width="357" height="373" filterUnits="userSpaceOnUse" color-interpolation-filters="sRGB">
<feFlood flood-opacity="0" result="BackgroundImageFix"/>
<feBlend mode="normal" in="SourceGraphic" in2="BackgroundImageFix" result="shape"/>
<feGaussianBlur stdDeviation="50" result="effect1_foregroundBlur_980_991"/>
</filter>
<linearGradient id="paint0_linear_980_991" x1="100" y1="186.5" x2="257" y2="186.5" gradientUnits="userSpaceOnUse">
<stop stop-color="#D3EFC3"/>
<stop offset="1" stop-color="#FCE8CF"/>
</linearGradient>
<linearGradient id="paint1_linear_980_991" x1="189.827" y1="125.401" x2="189.827" y2="256.999" gradientUnits="userSpaceOnUse">
<stop stop-color="#F7F7F7"/>
<stop offset="1" stop-color="#D3EFC3"/>
</linearGradient>
<clipPath id="clip0_980_991">
<rect width="144.179" height="140" fill="white" transform="translate(114 117)"/>
</clipPath>
</defs>
</svg>
