<svg width="145" height="140" viewBox="0 0 145 140" fill="none" xmlns="http://www.w3.org/2000/svg">
<g clip-path="url(#clip0_980_993)">
<path d="M135.644 38.6399C134.294 36.2071 132.797 33.859 131.16 31.609C130.013 30.0304 128.801 28.5045 127.524 27.0312H127.52C125.21 24.3643 122.697 21.8792 120.004 19.598C119.453 19.1304 118.894 18.6723 118.328 18.2238C113.219 14.1624 107.552 10.8545 101.502 8.40088L101.556 17.2336L102.135 117.921H51.9594L49.1375 17.4236L49.3478 8.73191C24.7482 19.0688 7.47561 43.3727 7.47561 71.7087C7.47102 77.5574 8.21786 83.3825 9.69781 89.0412C10.3229 91.4332 11.0797 93.789 11.9647 96.0977C12.2842 96.9357 12.6213 97.7662 12.976 98.5893C13.1469 98.9899 13.321 99.3873 13.5016 99.7832C13.7332 100.3 13.9744 100.816 14.2221 101.325C14.4138 101.726 14.6108 102.124 14.8132 102.519C15.0736 103.038 15.3425 103.552 15.6199 104.062C15.834 104.463 16.0545 104.86 16.2781 105.256C19.8864 111.633 24.4941 117.391 29.926 122.311C31.474 123.714 33.0849 125.044 34.7586 126.301C46.6011 135.192 61.0136 139.999 75.8269 139.999C90.6401 139.999 105.053 135.192 116.895 126.301C117.806 125.618 118.698 124.912 119.571 124.183C120.151 123.701 120.721 123.21 121.282 122.71C121.431 122.578 121.579 122.445 121.726 122.311C126.734 117.775 131.044 112.525 134.516 106.731C135.791 104.607 136.948 102.414 137.98 100.161C138.253 99.5677 138.517 98.9686 138.774 98.3642C139.953 95.5931 140.944 92.7461 141.742 89.8424C141.865 89.3939 141.984 88.9438 142.098 88.4921V88.4905C142.117 88.4123 142.138 88.3325 142.157 88.2543C142.275 87.7786 142.389 87.2998 142.498 86.8209V86.8194C142.849 85.2759 143.146 83.7138 143.387 82.1331C143.418 81.9304 143.448 81.7277 143.477 81.525C143.488 81.4516 143.499 81.3781 143.507 81.3047V81.3031C143.68 80.0821 143.82 78.852 143.927 77.6128C144.093 75.6671 144.177 73.6991 144.178 71.7087C144.196 60.1398 141.259 48.7577 135.644 38.6399Z" fill="url(#paint0_linear_980_993)"/>
<path d="M128.932 112.932C132.978 107.47 134.534 99.7774 131.387 93.7541C128.435 100.529 123.181 106.043 116.552 109.32C113.991 110.574 111.012 111.703 109.827 114.295C109.089 115.907 109.229 117.812 109.822 119.483C110.415 121.154 111.424 122.641 112.422 124.107L112.474 124.547C118.756 121.945 124.887 118.394 128.932 112.932Z" fill="#44AC06"/>
<path d="M131.252 93.8025C131.071 99.4236 129.122 104.845 125.681 109.296C124.958 110.267 124.085 111.119 123.096 111.819C122.111 112.469 120.969 112.845 119.789 112.905C118.69 112.984 117.557 112.937 116.497 113.281C115.956 113.466 115.461 113.762 115.044 114.151C114.626 114.54 114.295 115.012 114.073 115.538C113.486 116.833 113.4 118.261 113.364 119.661C113.324 121.215 113.307 122.83 112.573 124.243C112.484 124.414 112.755 124.542 112.844 124.371C114.121 121.913 113.292 119.038 114.053 116.454C114.408 115.248 115.129 114.142 116.334 113.659C117.387 113.236 118.556 113.283 119.669 113.213C120.821 113.171 121.944 112.848 122.942 112.271C123.964 111.624 124.867 110.808 125.615 109.857C127.331 107.744 128.705 105.375 129.685 102.836C130.819 99.9447 131.451 96.8806 131.551 93.7764C131.557 93.5843 131.259 93.6116 131.252 93.8025Z" fill="#F7F7F7"/>
<path d="M126.874 107.928C127.7 108.403 128.668 108.57 129.606 108.398C130.543 108.226 131.389 107.727 131.992 106.989C132.113 106.84 131.886 106.644 131.765 106.794C131.204 107.481 130.417 107.946 129.543 108.105C128.67 108.263 127.769 108.104 127.003 107.657C126.836 107.56 126.709 107.831 126.874 107.928Z" fill="#F7F7F7"/>
<path d="M120.352 112.938C119.829 111.063 120.033 109.06 120.923 107.328C121.011 107.157 120.74 107.029 120.652 107.2C119.729 109.004 119.521 111.089 120.07 113.039C120.122 113.225 120.404 113.123 120.352 112.938Z" fill="#F7F7F7"/>
<path d="M130.423 99.9585C130.065 99.8411 129.742 99.6367 129.483 99.3637C129.223 99.0907 129.036 98.7577 128.937 98.3944C128.887 98.208 128.606 98.3101 128.655 98.4953C128.766 98.8961 128.973 99.2637 129.259 99.5659C129.545 99.8682 129.901 100.096 130.295 100.229C130.331 100.245 130.372 100.246 130.409 100.233C130.446 100.22 130.476 100.193 130.494 100.158C130.511 100.122 130.513 100.081 130.5 100.044C130.486 100.006 130.459 99.9757 130.423 99.9585Z" fill="#F7F7F7"/>
<path d="M108.866 88.9608C108.894 89.0781 108.922 89.1954 108.949 89.3146C109.316 90.8934 109.554 92.4994 109.661 94.1167C109.671 94.2416 109.679 94.3684 109.686 94.4933C109.902 98.3925 109.391 102.298 108.18 106.011C107.696 107.488 107.101 108.926 106.399 110.313C105.43 112.228 104.227 114.228 103.955 116.29C103.925 116.505 103.907 116.721 103.903 116.939L111.933 124.577C111.96 124.585 111.986 124.595 112.013 124.604L112.319 124.923C112.361 124.854 112.402 124.782 112.443 124.713C112.467 124.673 112.489 124.631 112.513 124.591C112.529 124.564 112.544 124.537 112.56 124.513C112.565 124.504 112.57 124.495 112.574 124.488C112.589 124.464 112.601 124.441 112.615 124.419C112.846 124.015 113.076 123.608 113.302 123.199C113.304 123.197 113.304 123.197 113.304 123.194C115.024 120.073 116.498 116.782 117.425 113.371C117.453 113.268 117.483 113.164 117.507 113.058C117.916 111.518 118.199 109.948 118.352 108.362C118.433 107.494 118.47 106.622 118.463 105.75C118.441 103.496 118.063 101.26 117.345 99.1233C115.913 94.8643 113.133 91.1105 109.171 89.1106C109.069 89.0595 108.97 89.0101 108.866 88.9608Z" fill="#44AC06"/>
<path d="M108.787 89.0798C112.03 93.6769 113.74 99.178 113.675 104.802C113.683 106.013 113.499 107.217 113.132 108.371C112.737 109.483 112.051 110.47 111.146 111.228C110.316 111.952 109.383 112.596 108.744 113.509C108.423 113.981 108.207 114.515 108.107 115.077C108.008 115.639 108.029 116.215 108.169 116.768C108.48 118.155 109.272 119.348 110.087 120.487C110.991 121.752 111.951 123.051 112.217 124.621C112.249 124.811 112.542 124.75 112.51 124.56C112.048 121.83 109.654 120.033 108.704 117.512C108.261 116.336 108.17 115.019 108.841 113.908C109.428 112.937 110.389 112.272 111.236 111.546C112.13 110.82 112.832 109.885 113.281 108.825C113.707 107.694 113.936 106.498 113.96 105.29C114.058 102.57 113.727 99.8525 112.98 97.2357C112.143 94.2445 110.801 91.4182 109.01 88.8793C108.899 88.7222 108.677 88.9237 108.787 89.0798Z" fill="#F7F7F7"/>
<path d="M113.803 102.992C114.749 102.875 115.622 102.426 116.267 101.724C116.912 101.023 117.287 100.116 117.324 99.1644C117.33 98.9718 117.031 98.9521 117.024 99.1449C116.992 100.031 116.643 100.876 116.041 101.528C115.439 102.18 114.624 102.595 113.742 102.699C113.551 102.722 113.613 103.015 113.803 102.992Z" fill="#F7F7F7"/>
<path d="M111.615 110.916C110.068 109.733 109.024 108.011 108.691 106.094C108.658 105.903 108.364 105.964 108.397 106.154C108.747 108.149 109.838 109.939 111.451 111.167C111.605 111.283 111.768 111.032 111.615 110.916Z" fill="#F7F7F7"/>
<path d="M111.835 94.4944C111.478 94.616 111.097 94.6471 110.726 94.5852C110.354 94.5232 110.004 94.3699 109.706 94.1392C109.554 94.0205 109.39 94.2715 109.542 94.3895C109.872 94.6429 110.259 94.8116 110.669 94.881C111.079 94.9504 111.501 94.9184 111.896 94.7877C111.934 94.7785 111.967 94.7551 111.989 94.7222C112.01 94.6893 112.019 94.6494 112.012 94.6107C112.004 94.5719 111.981 94.5379 111.947 94.5162C111.914 94.4944 111.874 94.4866 111.835 94.4944Z" fill="#F7F7F7"/>
<path d="M3.1909 82.343C-0.397128 76.571 -1.32215 68.7772 2.30441 63.0294C4.69499 70.0216 9.48399 75.9437 15.8241 79.7478C18.2745 81.2061 21.152 82.573 22.1226 85.2526C22.7266 86.9199 22.4317 88.8064 21.7048 90.4239C20.9778 92.0415 19.8517 93.4417 18.7379 94.8222L18.6498 95.256C12.6001 92.1521 6.77894 88.1151 3.1909 82.343Z" fill="#44AC06"/>
<path d="M2.43377 63.0884C2.15722 68.7057 3.65921 74.2672 6.72639 78.983C7.36865 80.0099 8.1689 80.9292 9.09769 81.7072C10.027 82.4358 11.1346 82.9025 12.3054 83.0587C13.3942 83.2264 14.5273 83.2719 15.5563 83.701C16.0798 83.9285 16.5492 84.264 16.9339 84.6854C17.3185 85.1069 17.6095 85.6048 17.788 86.1465C18.2679 87.4848 18.2379 88.9156 18.1599 90.3137C18.0732 91.8661 17.9586 93.4772 18.5751 94.945C18.6498 95.1228 18.3692 95.2282 18.2946 95.0506C17.2221 92.4969 18.2822 89.6991 17.7341 87.0617C17.4783 85.831 16.8499 84.6699 15.6883 84.0905C14.6725 83.5838 13.5041 83.5359 12.4002 83.3756C11.2557 83.2399 10.162 82.8263 9.21444 82.1709C8.249 81.4427 7.41463 80.5556 6.74705 79.5478C5.20791 77.3027 4.03165 74.8298 3.26136 72.2196C2.3657 69.2455 1.98585 66.1403 2.13824 63.0382C2.14775 62.8462 2.44322 62.8977 2.43377 63.0884Z" fill="#F7F7F7"/>
<path d="M5.6494 77.5228C4.78763 77.9295 3.80921 78.0169 2.88887 77.7695C1.96853 77.522 1.16621 76.9557 0.625182 76.1718C0.516256 76.0128 0.758434 75.8362 0.867504 75.9954C1.36996 76.7263 2.11738 77.2537 2.97487 77.4824C3.83236 77.7111 4.74343 77.6261 5.54364 77.2426C5.71764 77.1594 5.8224 77.4401 5.6494 77.5228Z" fill="#F7F7F7"/>
<path d="M11.7421 83.0464C12.4157 81.2198 12.3755 79.2067 11.6295 77.4085C11.5555 77.2304 11.836 77.125 11.91 77.3029C12.6828 79.1756 12.7204 81.2706 12.0152 83.1698C11.9479 83.3508 11.6752 83.2264 11.7421 83.0464Z" fill="#F7F7F7"/>
<path d="M2.76084 69.2917C3.1271 69.2037 3.46576 69.0263 3.74641 68.7752C4.02705 68.5242 4.2409 68.2074 4.36874 67.8534C4.43374 67.6717 4.70641 67.7963 4.64182 67.9768C4.49876 68.3673 4.26217 68.7168 3.95271 68.9949C3.64325 69.2729 3.27035 69.471 2.86659 69.5719C2.82933 69.5846 2.78863 69.5826 2.75276 69.5664C2.71689 69.5502 2.68855 69.521 2.67348 69.4846C2.65967 69.4474 2.66109 69.4063 2.67745 69.3702C2.69381 69.3341 2.72377 69.3059 2.76084 69.2917Z" fill="#F7F7F7"/>
<path d="M25.1397 60.0804C25.1023 60.1951 25.065 60.3097 25.0291 60.4264C24.5348 61.9702 24.1668 63.5515 23.9289 65.1548C23.9085 65.2785 23.8897 65.4041 23.873 65.5281C23.3408 69.3969 23.5322 73.3308 24.4375 77.1298C24.7991 78.6412 25.2752 80.1229 25.8618 81.5621C26.6721 83.5497 27.7089 85.6403 27.8116 87.7181C27.8247 87.9347 27.8244 88.152 27.8107 88.3686L19.1858 95.3298C19.1583 95.3358 19.1322 95.3438 19.1046 95.3499L18.7729 95.6436C18.7375 95.5715 18.7023 95.4959 18.6668 95.4238C18.6461 95.3821 18.6273 95.3388 18.6066 95.297C18.5933 95.2687 18.5802 95.2403 18.5667 95.2155C18.5622 95.2061 18.5579 95.1966 18.555 95.1891C18.5415 95.1643 18.5316 95.1398 18.5196 95.117C18.3216 94.6952 18.1263 94.2713 17.9336 93.8453C17.932 93.8433 17.932 93.8433 17.9323 93.8398C16.4721 90.5898 15.2707 87.1895 14.624 83.7151C14.6046 83.6105 14.5834 83.5041 14.568 83.3964C14.2852 81.8287 14.1311 80.2405 14.1072 78.6477C14.097 77.7755 14.131 76.9033 14.209 76.0345C14.4149 73.7901 14.9729 71.592 15.8625 69.5209C17.6365 65.3923 20.7124 61.8766 24.8243 60.2051C24.9295 60.1624 25.0329 60.1212 25.1397 60.0804Z" fill="#44AC06"/>
<path d="M25.2093 60.2053C21.6035 64.524 19.4513 69.868 19.0585 75.4784C18.9525 76.6846 19.0375 77.9001 19.3103 79.0799C19.6132 80.2207 20.2163 81.2595 21.057 82.0886C21.8253 82.8774 22.7026 83.5953 23.2657 84.557C23.5465 85.0535 23.7192 85.6037 23.7723 86.1716C23.8254 86.7395 23.7578 87.3121 23.5739 87.8521C23.1506 89.2093 22.2644 90.3336 21.3596 91.403C20.3549 92.5904 19.2926 93.8078 18.9003 95.3505C18.8528 95.5375 18.5652 95.4528 18.6127 95.2662C19.2953 92.5821 21.8276 90.9858 22.9793 88.5503C23.5167 87.4138 23.7146 86.1087 23.1363 84.9473C22.6306 83.9317 21.7265 83.1906 20.9417 82.3987C20.1097 81.6019 19.4857 80.6137 19.1241 79.5204C18.792 78.3582 18.6604 77.1481 18.7347 75.9418C18.8587 73.2233 19.4097 70.5413 20.3675 67.9939C21.4446 65.0805 23.0125 62.3726 25.0035 59.9874C25.1268 59.8399 25.3317 60.0587 25.2093 60.2053Z" fill="#F7F7F7"/>
<path d="M19.078 73.6645C18.1448 73.4709 17.3109 72.9522 16.7252 72.2009C16.1395 71.4497 15.8401 70.515 15.8806 69.5636C15.8826 69.5248 15.8996 69.4883 15.928 69.4618C15.9564 69.4353 15.994 69.4208 16.0328 69.4215C16.0717 69.4221 16.1088 69.4378 16.1363 69.4652C16.1638 69.4927 16.1796 69.5297 16.1803 69.5685C16.1411 70.4544 16.42 71.3251 16.9668 72.0235C17.5137 72.7219 18.2924 73.202 19.1624 73.3772C19.3514 73.4155 19.2659 73.7026 19.078 73.6645Z" fill="#F7F7F7"/>
<path d="M20.6142 81.74C22.2527 80.6868 23.4337 79.0553 23.9217 77.1707C23.9699 76.984 24.2574 77.0685 24.2093 77.2551C23.6978 79.2152 22.4654 80.9106 20.7579 82.0028C20.595 82.1068 20.4523 81.8434 20.6142 81.74Z" fill="#F7F7F7"/>
<path d="M21.732 65.3549C22.0774 65.505 22.4548 65.567 22.8301 65.5354C23.2055 65.5038 23.5671 65.3795 23.8825 65.1737C24.0439 65.0677 24.1866 65.3312 24.0262 65.4365C23.6767 65.6623 23.2771 65.799 22.8625 65.8349C22.4478 65.8707 22.0307 65.8046 21.6476 65.6422C21.6102 65.63 21.5788 65.6039 21.56 65.5694C21.5411 65.5349 21.5361 65.4945 21.546 65.4564C21.5573 65.4184 21.5832 65.3864 21.6181 65.3674C21.6529 65.3484 21.6938 65.3439 21.732 65.3549Z" fill="#F7F7F7"/>
<path d="M69.796 23.4242C75.0405 23.4242 79.2921 19.1764 79.2921 13.9365C79.2921 8.69653 75.0405 4.44873 69.796 4.44873C64.5514 4.44873 60.2998 8.69653 60.2998 13.9365C60.2998 19.1764 64.5514 23.4242 69.796 23.4242Z" fill="#FF6584"/>
<path d="M98.8709 13.4414C98.0153 12.5382 97.1119 11.6815 96.1646 10.8748C94.3147 9.30737 92.2666 7.97459 89.9837 7.13502C89.1242 6.8179 88.2361 6.58431 87.3317 6.4375C87.2231 6.41996 87.1161 6.40239 87.0074 6.38802C86.9995 6.38723 86.9914 6.38723 86.9835 6.38802C86.9668 6.3833 86.9497 6.38009 86.9324 6.37845C86.7103 6.34972 86.4882 6.32737 86.2646 6.31141C85.0601 6.23141 83.8505 6.3402 82.6797 6.63384C82.0003 6.80508 81.3375 7.03581 80.6987 7.32336C80.0588 7.63637 79.4383 7.98763 78.8407 8.37522C78.5198 8.56998 78.1892 8.74844 77.8503 8.90992C76.8606 9.3784 75.813 9.71333 74.735 9.90592C74.007 10.0364 73.2699 10.109 72.5304 10.123C71.8882 10.1358 71.2827 10.1581 70.674 10.3895C70.0244 10.6334 69.441 11.0257 68.9702 11.5351C68.4995 12.0445 68.1545 12.6569 67.963 13.3232C67.9479 13.3824 67.9521 13.4449 67.9751 13.5015C67.9981 13.558 68.0387 13.6058 68.0908 13.6377C68.2553 13.7558 68.4151 13.8899 68.5892 13.9952C68.7429 14.0653 68.9069 14.11 69.0749 14.1277C69.3497 14.1852 69.625 14.241 69.9008 14.2953C70.9153 14.4964 71.934 14.6746 72.9569 14.83C75.0146 15.1412 77.084 15.3604 79.165 15.4876C79.1777 15.4895 79.1905 15.4905 79.2034 15.4908C81.5545 15.6326 83.9112 15.6555 86.2646 15.5594C86.6208 15.5451 86.9755 15.5275 87.3317 15.5068C88.8159 15.4238 90.2963 15.2929 91.7729 15.1141C93.1388 14.9481 94.4994 14.7422 95.8547 14.4964C96.8228 14.3208 97.7872 14.125 98.7479 13.909C98.7945 13.8952 98.8368 13.8697 98.8707 13.8348C98.9046 13.7999 98.9289 13.7568 98.9412 13.7098C98.9536 13.6628 98.9536 13.6134 98.9413 13.5664C98.929 13.5193 98.9047 13.4763 98.8709 13.4414Z" fill="#E6E6E6"/>
<path d="M79.1332 26.0924C77.7584 24.623 76.2437 23.2909 74.6105 22.1148C74.069 21.7349 73.5114 21.3774 72.9379 21.0502C72.2348 20.6446 71.5045 20.2879 70.7524 19.9823C70.5847 19.9137 70.4154 19.8483 70.246 19.786C69.284 19.43 68.286 19.1795 67.2698 19.039C67.2618 19.0374 67.2538 19.039 67.2458 19.0374C67.2299 19.0343 67.2123 19.0311 67.1963 19.0279C66.7037 18.964 66.2073 18.9336 65.7106 18.9369C65.3543 18.9369 64.9965 18.956 64.6418 18.9912C64.0688 19.0476 63.5007 19.1457 62.942 19.2848C62.6656 19.3535 62.3909 19.4333 62.1209 19.5243C61.7271 19.6537 61.3405 19.804 60.9627 19.9744C60.9563 19.9776 60.9515 19.9792 60.9451 19.9823C60.3108 20.2924 59.6962 20.641 59.1047 21.0262C59.0919 21.0342 59.0776 21.0422 59.0648 21.0502C58.3929 21.4517 57.6821 21.7844 56.9432 22.043C56.309 22.2646 55.6584 22.4364 54.9974 22.5569C54.2695 22.6877 53.5323 22.7598 52.7928 22.7724C52.1506 22.7852 51.5451 22.8075 50.938 23.0406C50.2882 23.2844 49.7045 23.6766 49.2335 24.186C48.7625 24.6954 48.4173 25.3078 48.2254 25.9742C48.2106 26.0334 48.215 26.0958 48.238 26.1523C48.2609 26.2088 48.3013 26.2566 48.3532 26.2887C48.5177 26.4068 48.6791 26.5393 48.8516 26.6446C49.0051 26.7152 49.1692 26.76 49.3373 26.7771C49.6121 26.8346 49.8868 26.892 50.1632 26.9463C51.1777 27.1474 52.1969 27.3251 53.2209 27.4794C54.6252 27.6917 56.0353 27.8614 57.4513 27.9886C58.1222 28.0508 58.7937 28.1019 59.4658 28.1418C61.1895 28.2455 62.9149 28.286 64.6418 28.2631C64.9981 28.2583 65.3543 28.2503 65.7106 28.2392C67.8258 28.1769 69.9345 28.0184 72.0369 27.7635C74.3803 27.4803 76.7077 27.078 79.0102 26.5584C79.0568 26.5448 79.099 26.5194 79.1329 26.4846C79.1667 26.4499 79.191 26.407 79.2034 26.3601C79.2158 26.3132 79.2158 26.2639 79.2035 26.217C79.1912 26.1701 79.167 26.1272 79.1332 26.0924Z" fill="#E6E6E6"/>
<path d="M55.4636 0.629339L63.8294 116.135L47.0977 117.619V2.0989C49.0914 0.542912 51.9534 0.299474 55.4636 0.629339Z" fill="#CCCCCC"/>
<path d="M96.7585 0.629339L88.3926 116.135L105.124 117.619V2.0989C103.131 0.542912 100.269 0.299474 96.7585 0.629339Z" fill="#CCCCCC"/>
<path d="M105.518 2.14928C104.999 0.87743 103.895 -0.000610352 102.619 -0.000610352H49.4249C47.6501 -0.000610352 46.2075 1.70083 46.2075 3.79419V118.598C46.192 119.66 46.5894 120.686 47.3162 121.462C47.6964 121.861 48.1779 122.149 48.7092 122.296C48.9423 122.361 49.1831 122.393 49.4249 122.392H102.619C102.86 122.393 103.101 122.361 103.334 122.296C104.766 121.912 105.836 120.401 105.836 118.598V3.7942C105.838 3.23051 105.73 2.67189 105.518 2.14928ZM104.769 118.598C104.769 119.996 103.804 121.134 102.619 121.134H49.4249C48.4424 121.134 47.6101 120.352 47.3561 119.287C47.3018 119.061 47.2745 118.83 47.2746 118.598V3.7942C47.2746 2.39611 48.2396 1.25994 49.4249 1.25994H102.619C102.837 1.25976 103.053 1.29869 103.258 1.37487C104.132 1.69519 104.769 2.65802 104.769 3.7942V118.598Z" fill="#CCCCCC"/>
<path d="M105.302 34.8956H46.7412V35.9627H105.302V34.8956Z" fill="#CCCCCC"/>
<path d="M105.302 12.869H46.7412V13.9361H105.302V12.869Z" fill="#CCCCCC"/>
<path d="M105.302 52.6797H46.7412V53.7468H105.302V52.6797Z" fill="#CCCCCC"/>
<path d="M65.7447 0.478271H64.6768V67.796H65.7447V0.478271Z" fill="#CCCCCC"/>
<path d="M87.3668 0.478271H86.2988V67.796H87.3668V0.478271Z" fill="#CCCCCC"/>
<path d="M111.977 115.724H41.8465C40.5724 115.725 39.351 116.232 38.4502 117.132C37.5493 118.032 37.0425 119.252 37.041 120.525C37.0404 121.137 37.1581 121.744 37.3877 122.311C37.7444 123.201 38.3598 123.964 39.1545 124.502C39.9491 125.04 40.8867 125.327 41.8465 125.328H111.977C112.816 125.327 113.64 125.108 114.368 124.691C115.096 124.273 115.701 123.673 116.125 122.949C116.245 122.745 116.35 122.532 116.438 122.311C116.667 121.744 116.785 121.137 116.784 120.525C116.782 119.252 116.275 118.032 115.374 117.131C114.473 116.231 113.252 115.725 111.977 115.724Z" fill="#CCCCCC"/>
<path d="M105.303 65.3062H47.0977V68.863H105.303V65.3062Z" fill="#CCCCCC"/>
<path d="M75.666 64.2394H76.734C77.2533 64.2394 77.7513 64.4455 78.1185 64.8124C78.4857 65.1792 78.6919 65.6768 78.6919 66.1956H73.708C73.708 65.9387 73.7587 65.6843 73.857 65.447C73.9554 65.2097 74.0997 64.994 74.2815 64.8123C74.4633 64.6307 74.6791 64.4866 74.9167 64.3883C75.1543 64.29 75.4089 64.2394 75.666 64.2394Z" fill="#CCCCCC"/>
<path d="M77.227 75.3373C83.3192 75.3373 88.2578 70.4031 88.2578 64.3164C88.2578 58.2297 83.3192 53.2954 77.227 53.2954C71.1349 53.2954 66.1963 58.2297 66.1963 64.3164C66.1963 70.4031 71.1349 75.3373 77.227 75.3373Z" fill="#EDB18B"/>
<path d="M64.9219 53.7141C65.0053 52.4485 65.843 51.1534 68.5045 50.4766C68.5045 50.4766 73.0721 44.641 79.279 47.7013C79.279 47.7013 82.288 47.1841 84.5193 50.3033C84.5193 50.3033 86.7315 48.9997 87.6648 51.3103C87.6648 51.3103 90.2594 56.0233 89.3042 60.8306C88.349 65.6379 87.8601 66.2378 87.8601 66.2378C87.8601 66.2378 89.0776 56.294 82.0649 56.9835C75.0523 57.6731 69.4064 55.2091 67.8183 60.6038C66.4996 65.0834 66.6657 67.4099 66.6657 67.4099C66.6657 67.4099 62.256 62.9411 63.7553 59.4223C64.5221 57.6226 64.7933 55.6659 64.9219 53.7141Z" fill="#2F2E41"/>
<path d="M47.2295 124.546H108.244C107.836 119.896 107.569 102.121 107.569 100.951C107.569 95.7909 103.344 90.1599 103.344 90.1599L101.831 89.3246L89.1988 85.387L85.9298 81.1444C85.5874 80.6988 85.1464 80.3387 84.6412 80.0922C84.136 79.8458 83.5805 79.7198 83.0183 79.7241L72.6917 79.8015C71.783 79.8085 70.9096 80.1543 70.2428 80.7711L63.8482 86.698L54.4693 91.1727L54.4533 91.1568L54.3554 91.2296L52.9634 92.2311L52.0682 92.8775C52.0682 92.8775 49.7194 95.693 47.8423 104.137C47.5598 105.407 47.3616 121.848 47.2295 124.546Z" fill="#F3901B"/>
<path d="M122.366 122.311C122.219 122.445 122.07 122.578 121.921 122.71C121.359 123.21 120.789 123.701 120.21 124.183C119.337 124.911 118.445 125.617 117.535 126.301H35.398C33.7254 125.047 32.1145 123.717 30.5654 122.311H122.366Z" fill="#CCCCCC"/>
<path d="M92.2581 123.269H62.0645L62.7034 120.236H91.619L92.2581 123.269Z" fill="#2F2E41"/>
<path d="M119.576 110.18H111.719C111.542 110.18 111.366 110.218 111.205 110.293C111.044 110.367 110.902 110.476 110.787 110.611C110.678 110.59 110.567 110.58 110.455 110.579C110.21 110.579 109.968 110.627 109.742 110.721C109.515 110.814 109.31 110.951 109.136 111.124C108.963 111.297 108.826 111.502 108.732 111.728C108.638 111.954 108.59 112.197 108.59 112.441C108.59 112.686 108.638 112.928 108.732 113.154C108.826 113.38 108.963 113.586 109.136 113.759C109.31 113.931 109.515 114.069 109.742 114.162C109.968 114.255 110.21 114.303 110.455 114.303C110.737 114.303 111.014 114.239 111.267 114.115L111.398 115.724L111.919 122.083C111.943 122.162 111.977 122.239 112.018 122.311C112.123 122.504 112.278 122.665 112.467 122.778C112.657 122.89 112.873 122.949 113.093 122.95H118.202C118.422 122.949 118.638 122.89 118.828 122.778C119.017 122.665 119.173 122.504 119.278 122.311C119.318 122.238 119.351 122.162 119.376 122.083L120.75 111.769C120.806 111.585 120.819 111.391 120.787 111.201C120.754 111.012 120.678 110.833 120.564 110.679C120.45 110.524 120.301 110.399 120.129 110.312C119.957 110.225 119.768 110.18 119.576 110.18ZM110.455 113.772C110.102 113.771 109.764 113.631 109.515 113.382C109.265 113.132 109.125 112.794 109.125 112.441C109.125 112.089 109.265 111.751 109.515 111.501C109.764 111.252 110.102 111.111 110.455 111.111C110.479 111.111 110.502 111.117 110.525 111.119C110.473 111.333 110.48 111.558 110.545 111.769L111.107 113.595C110.909 113.71 110.684 113.771 110.455 113.772Z" fill="#3F3D56"/>
<path d="M101.829 76.4332H52.0944C51.6671 76.4339 51.2575 76.6038 50.9553 76.9057C50.6532 77.2076 50.4831 77.6168 50.4824 78.0437V111.575C50.4828 112.002 50.6528 112.412 50.955 112.714C51.2572 113.016 51.667 113.185 52.0944 113.186H101.829C102.257 113.185 102.667 113.016 102.969 112.714C103.271 112.412 103.441 112.002 103.441 111.575V78.0437C103.441 77.6168 103.271 77.2076 102.968 76.9057C102.666 76.6038 102.257 76.4339 101.829 76.4332Z" fill="#3F3D56"/>
<path d="M82.5634 103.301H70.9284C70.7638 103.301 70.6061 103.367 70.4899 103.483C70.3736 103.6 70.3084 103.758 70.3086 103.922V122.286H83.1849V103.922C83.1849 103.84 83.1689 103.76 83.1377 103.684C83.1065 103.609 83.0607 103.541 83.003 103.483C82.9453 103.425 82.8767 103.38 82.8013 103.348C82.7259 103.317 82.6451 103.301 82.5634 103.301ZM76.7851 113.735C76.4212 113.733 76.0728 113.588 75.8155 113.331C75.5582 113.074 75.4129 112.726 75.4112 112.362V110.244C75.4116 109.881 75.5565 109.532 75.8141 109.275C76.0718 109.018 76.421 108.873 76.7851 108.873C77.1492 108.873 77.4984 109.018 77.756 109.275C78.0136 109.532 78.1586 109.881 78.159 110.244V112.362C78.1573 112.726 78.012 113.074 77.7547 113.331C77.4974 113.588 77.149 113.733 76.7851 113.735Z" fill="#2F2E41"/>
<path d="M70.2686 121.698V123.47C70.2687 123.562 70.3053 123.65 70.3703 123.715C70.4353 123.779 70.5233 123.816 70.6152 123.816H82.8781C82.9699 123.816 83.0578 123.779 83.1227 123.714C83.1876 123.649 83.2243 123.562 83.2247 123.47V121.698H70.2686Z" fill="#3F3D56"/>
<path d="M100.771 111.225C101.205 111.225 101.557 110.873 101.557 110.44C101.557 110.007 101.205 109.656 100.771 109.656C100.338 109.656 99.9863 110.007 99.9863 110.44C99.9863 110.873 100.338 111.225 100.771 111.225Z" fill="#2F2E41"/>
<path d="M58.3724 109.303C58.3364 109.303 58.3006 109.31 58.2673 109.324C58.2339 109.337 58.2036 109.358 58.1781 109.383C58.1526 109.409 58.1324 109.439 58.1186 109.472C58.1048 109.505 58.0977 109.541 58.0977 109.577V110.99C58.0978 111.062 58.1269 111.132 58.1784 111.183C58.2299 111.235 58.2997 111.264 58.3724 111.264C58.4452 111.264 58.515 111.235 58.5665 111.183C58.618 111.132 58.647 111.062 58.6472 110.99V109.577C58.6472 109.541 58.6401 109.505 58.6263 109.472C58.6125 109.439 58.5923 109.409 58.5667 109.383C58.5412 109.358 58.5109 109.337 58.4776 109.324C58.4443 109.31 58.4085 109.303 58.3724 109.303Z" fill="#2F2E41"/>
<path d="M59.8646 109.303C59.8285 109.303 59.7928 109.31 59.7595 109.324C59.7261 109.337 59.6958 109.358 59.6703 109.383C59.6448 109.409 59.6246 109.439 59.6108 109.472C59.597 109.505 59.5898 109.541 59.5898 109.577V110.99C59.5898 111.063 59.6188 111.132 59.6703 111.184C59.7219 111.235 59.7918 111.264 59.8646 111.264C59.9375 111.264 60.0074 111.235 60.0589 111.184C60.1105 111.132 60.1394 111.063 60.1394 110.99V109.577C60.1394 109.541 60.1323 109.505 60.1185 109.472C60.1047 109.439 60.0844 109.409 60.0589 109.383C60.0334 109.358 60.0031 109.337 59.9698 109.324C59.9364 109.31 59.9007 109.303 59.8646 109.303Z" fill="#2F2E41"/>
<path d="M61.3568 109.303C61.3207 109.303 61.285 109.31 61.2517 109.324C61.2183 109.337 61.188 109.358 61.1625 109.383C61.137 109.409 61.1168 109.439 61.1029 109.472C61.0891 109.505 61.082 109.541 61.082 109.577V110.99C61.0822 111.062 61.1112 111.132 61.1628 111.183C61.2143 111.235 61.2841 111.264 61.3568 111.264C61.4296 111.264 61.4993 111.235 61.5509 111.183C61.6024 111.132 61.6314 111.062 61.6316 110.99V109.577C61.6316 109.541 61.6245 109.505 61.6107 109.472C61.5969 109.439 61.5766 109.409 61.5511 109.383C61.5256 109.358 61.4953 109.337 61.462 109.324C61.4286 109.31 61.3929 109.303 61.3568 109.303Z" fill="#2F2E41"/>
<path d="M62.849 109.303C62.8129 109.303 62.7772 109.31 62.7438 109.324C62.7105 109.337 62.6802 109.358 62.6547 109.383C62.6292 109.409 62.6089 109.439 62.5951 109.472C62.5813 109.505 62.5742 109.541 62.5742 109.577V110.99C62.5744 111.062 62.6034 111.132 62.6549 111.183C62.7065 111.235 62.7762 111.264 62.849 111.264C62.9218 111.264 62.9915 111.235 63.043 111.183C63.0946 111.132 63.1236 111.062 63.1238 110.99V109.577C63.1238 109.541 63.1167 109.505 63.1029 109.472C63.0891 109.439 63.0688 109.409 63.0433 109.383C63.0178 109.358 62.9875 109.337 62.9541 109.324C62.9208 109.31 62.8851 109.303 62.849 109.303Z" fill="#2F2E41"/>
<path d="M64.0394 122.47C66.3334 122.47 68.193 120.612 68.193 118.32C68.193 116.029 66.3334 114.171 64.0394 114.171C61.7454 114.171 59.8857 116.029 59.8857 118.32C59.8857 120.612 61.7454 122.47 64.0394 122.47Z" fill="#EDB18B"/>
<path d="M93.057 123.269C95.3509 123.269 97.2106 121.411 97.2106 119.119C97.2106 116.827 95.3509 114.969 93.057 114.969C90.763 114.969 88.9033 116.827 88.9033 119.119C88.9033 121.411 90.763 123.269 93.057 123.269Z" fill="#EDB18B"/>
<path d="M135.93 69.0274C135.519 68.3491 135.033 67.625 134.271 67.4035C133.389 67.147 132.483 67.6565 131.715 68.1593C129.416 69.6629 127.202 71.2924 125.084 73.0403L125.086 73.0666C126.736 72.953 128.104 77.3345 129.754 77.2209C130.945 77.1388 132.458 72.5502 133.511 71.987C133.911 71.7733 134.3 71.4878 134.753 71.4679C135.316 71.4432 135.806 71.8357 136.192 72.2458C138.472 74.6719 139.132 78.3819 141.69 80.5133C140.077 76.5385 138.151 72.6979 135.93 69.0274Z" fill="#3F3D56"/>
<path d="M140.318 74.9203C141.521 77.091 142.797 79.2187 144.146 81.3032V81.3048C144.138 81.3782 144.127 81.4517 144.116 81.5251C143.953 81.2761 143.792 81.026 143.632 80.7749C142.421 78.8771 141.27 76.9431 140.179 74.9729C139.662 74.036 139.157 73.0916 138.665 72.1398C138.285 71.4024 137.913 70.6607 137.548 69.9148C137.444 69.7009 137.344 69.487 137.243 69.2715C137.007 68.7672 136.773 68.2596 136.524 67.7616C136.24 67.1934 135.893 66.5996 135.371 66.2181C135.133 66.0372 134.849 65.9276 134.551 65.9021C134.132 65.9046 133.721 66.0222 133.364 66.2421C130.662 67.6613 128.139 69.3991 125.851 71.4183C123.56 73.4296 121.512 75.7014 119.748 78.1876C119.694 78.2642 119.566 78.1907 119.621 78.1125C119.836 77.8093 120.054 77.5108 120.277 77.2139C123.049 73.5311 126.448 70.364 130.318 67.8573C130.968 67.436 131.631 67.0343 132.307 66.6523C132.647 66.4591 132.989 66.2692 133.337 66.0904C133.671 65.8952 134.044 65.7794 134.43 65.752C135.756 65.7313 136.443 67.2317 136.914 68.2404C137.061 68.5581 137.211 68.8752 137.363 69.1917C137.936 70.3888 138.532 71.5764 139.151 72.7543C139.531 73.4806 139.92 74.2025 140.318 74.9203Z" fill="#3F3D56"/>
<path d="M125.722 70.677C125.645 70.5913 125.568 70.5055 125.491 70.4197C124.879 69.7442 124.223 69.0766 123.384 68.6893C122.984 68.4989 122.547 68.3977 122.103 68.3928C121.646 68.4053 121.195 68.5036 120.774 68.6825C120.574 68.7624 120.378 68.8531 120.185 68.9496C119.965 69.0604 119.748 69.1786 119.533 69.2977C119.129 69.5212 118.73 69.7545 118.336 69.9976C117.552 70.4815 116.793 71.0022 116.059 71.5599C115.678 71.8491 115.305 72.1478 114.94 72.4559C114.601 72.7422 114.268 73.0361 113.942 73.3378C113.873 73.402 113.769 73.2981 113.838 73.2339C113.924 73.154 114.011 73.0746 114.098 72.9961C114.343 72.7746 114.593 72.5572 114.846 72.3442C115.307 71.955 115.781 71.5808 116.267 71.2216C117.022 70.6628 117.803 70.1419 118.61 69.6589C119.013 69.4178 119.422 69.1867 119.836 68.9658C119.961 68.8991 120.088 68.834 120.216 68.7722C120.507 68.6258 120.809 68.503 121.119 68.405C121.558 68.263 122.023 68.2173 122.482 68.2712C122.925 68.3356 123.352 68.4831 123.74 68.706C124.564 69.1663 125.204 69.878 125.826 70.5726C125.889 70.6432 125.785 70.7476 125.722 70.677Z" fill="#3F3D56"/>
<path d="M119.69 73.9272C119.48 73.9375 119.273 73.8783 119.101 73.7587C118.645 73.4134 118.657 72.5842 119.137 71.2234C119.268 70.8547 119.473 70.5167 119.74 70.2303C120.007 69.9439 120.329 69.7152 120.688 69.5583C121.024 69.4082 121.388 69.3296 121.756 69.3274C122.124 69.3252 122.488 69.3995 122.826 69.5456C122.885 69.5711 122.943 69.5986 123 69.628C123.391 69.8467 123.758 70.1065 124.093 70.4029C124.379 70.6504 124.683 70.875 125.004 71.0748L125.111 71.1375L125.009 71.2089C122.422 73.0292 120.667 73.9272 119.69 73.9272Z" fill="#3F3D56"/>
<path d="M129.642 63.0942C128.791 63.0941 127.966 62.7989 127.309 62.2591C126.652 61.7193 126.202 60.9682 126.037 60.1342C125.326 60.2781 124.673 60.6294 124.161 61.1437C123.649 61.658 123.301 62.3123 123.161 63.024C123.021 63.7357 123.095 64.4729 123.374 65.1425C123.653 65.8122 124.124 66.3843 124.728 66.7867C125.332 67.1891 126.041 67.4038 126.767 67.4035C127.493 67.4033 128.203 67.1882 128.807 66.7854C129.41 66.3826 129.881 65.8102 130.16 65.1403C130.438 64.4705 130.512 63.7333 130.371 63.0217C130.131 63.07 129.887 63.0943 129.642 63.0942Z" fill="#3F3D56"/>
<path opacity="0.74" d="M31.283 69.0001C34.3113 69.0001 36.7662 66.5474 36.7662 63.5217C36.7662 60.4961 34.3113 58.0434 31.283 58.0434C28.2547 58.0434 25.7998 60.4961 25.7998 63.5217C25.7998 66.5474 28.2547 69.0001 31.283 69.0001Z" fill="#3F3D56"/>
<path opacity="0.74" d="M36.7664 69.0001C39.7947 69.0001 42.2496 66.5474 42.2496 63.5217C42.2496 60.4961 39.7947 58.0434 36.7664 58.0434C33.7381 58.0434 31.2832 60.4961 31.2832 63.5217C31.2832 66.5474 33.7381 69.0001 36.7664 69.0001Z" fill="#F3901B"/>
<path opacity="0.74" d="M34.0721 64.6338C37.1004 64.6338 39.5553 62.1811 39.5553 59.1555C39.5553 56.1299 37.1004 53.6771 34.0721 53.6771C31.0438 53.6771 28.5889 56.1299 28.5889 59.1555C28.5889 62.1811 31.0438 64.6338 34.0721 64.6338Z" fill="#FF6584"/>
<path d="M48.4094 57.5857L34.3252 62.0065L34.421 62.311L48.5052 57.8902L48.4094 57.5857Z" fill="#3F3D56"/>
<path d="M48.4994 58.3253C48.8523 58.3253 49.1384 58.0394 49.1384 57.6868C49.1384 57.3342 48.8523 57.0483 48.4994 57.0483C48.1464 57.0483 47.8604 57.3342 47.8604 57.6868C47.8604 58.0394 48.1464 58.3253 48.4994 58.3253Z" fill="#3F3D56"/>
<path d="M139.933 86.4155C140.869 87.0747 141.769 87.7467 142.797 88.2543C142.778 88.3325 142.757 88.4123 142.738 88.4905C142.612 88.4315 142.489 88.3692 142.366 88.3054C141.323 87.7595 140.425 87.0173 139.446 86.3724C138.96 86.0372 138.43 85.7718 137.871 85.5839C137.287 85.4089 136.678 85.3375 136.07 85.3732C133.535 85.4978 131.362 87.0093 129.006 87.7706C127.852 88.1441 126.625 88.3437 125.422 88.109C124.219 87.8744 123.151 87.2359 122.088 86.6581C121.04 86.0867 119.898 85.5121 118.674 85.5121C117.677 85.5137 116.629 85.9127 116.096 86.7938C116.079 86.8201 116.053 86.8389 116.023 86.8463C115.993 86.8536 115.961 86.8489 115.934 86.8331C115.907 86.8173 115.887 86.7917 115.879 86.7618C115.871 86.7318 115.875 86.6998 115.89 86.6725C116.009 86.4717 116.156 86.2885 116.326 86.1282C117.022 85.469 118.047 85.2089 118.987 85.2855C120.205 85.3844 121.315 85.959 122.368 86.5368C123.485 87.1498 124.628 87.809 125.919 87.943C127.194 88.0771 128.456 87.7435 129.638 87.295C131.928 86.4251 134.187 84.9758 136.733 85.137C137.934 85.2136 138.963 85.734 139.933 86.4155Z" fill="#3F3D56"/>
<path d="M39.7276 40.2536V40.5776C39.6203 40.5564 39.5111 40.5457 39.4017 40.5457H37.7307V44.1306C37.7304 44.6614 37.5192 45.1703 37.1436 45.5456C36.7679 45.9209 36.2586 46.1319 35.7273 46.1322H33.2575V46.6845C33.2575 46.9058 33.3015 47.125 33.3869 47.3293H33.045C32.9736 47.1218 32.9374 46.9039 32.938 46.6845V46.1322H31.5801V45.813H32.938V42.228C32.9383 41.6973 33.1495 41.1884 33.5251 40.8131C33.9007 40.4378 34.4101 40.2268 34.9413 40.2265H37.4111V39.6678H37.7307V40.2265H39.4017C39.5109 40.2266 39.6199 40.2357 39.7276 40.2536Z" fill="#F3901B"/>
<path d="M35.7274 37.6727H31.267C30.7358 37.673 30.2264 37.884 29.8508 38.2593C29.4751 38.6345 29.264 39.1435 29.2637 39.6742V44.1306C29.264 44.6614 29.4751 45.1703 29.8508 45.5456C30.2264 45.9209 30.7358 46.1319 31.267 46.1322H35.7274C36.2586 46.1319 36.768 45.9209 37.1436 45.5456C37.5192 45.1703 37.7304 44.6614 37.7307 44.1306V39.6679C37.7288 39.1382 37.5169 38.6308 37.1414 38.2569C36.766 37.883 36.2575 37.6729 35.7274 37.6727ZM37.4112 44.1306C37.4106 44.5766 37.233 45.0042 36.9173 45.3196C36.6017 45.6349 36.1738 45.8124 35.7274 45.813H31.267C30.8206 45.8124 30.3927 45.6349 30.077 45.3196C29.7614 45.0042 29.5838 44.5766 29.5832 44.1306V39.6742C29.5838 39.2282 29.7614 38.8007 30.077 38.4853C30.3927 38.1699 30.8206 37.9925 31.267 37.9919H35.7274C36.1727 37.9924 36.5997 38.1689 36.9152 38.483C37.2307 38.797 37.409 39.2229 37.4112 39.6678V44.1306Z" fill="#3F3D56"/>
<path d="M32.9375 45.813V46.1322H33.257V45.813H32.9375ZM32.9375 45.813V46.1322H33.257V45.813H32.9375ZM39.7271 40.2536C39.6194 40.2357 39.5104 40.2266 39.4012 40.2265H34.9408C34.4096 40.2268 33.9002 40.4378 33.5246 40.8131C33.149 41.1884 32.9378 41.6973 32.9375 42.2281V46.6845C32.9369 46.9039 32.9731 47.1218 33.0445 47.3293C33.1794 47.7249 33.4347 48.0684 33.7748 48.3117C34.1149 48.555 34.5226 48.6859 34.9408 48.686H39.4012C39.9324 48.6857 40.4418 48.4747 40.8174 48.0994C41.1931 47.7241 41.4042 47.2152 41.4045 46.6845V42.2281C41.4044 41.7537 41.2357 41.2949 40.9285 40.9333C40.6213 40.5717 40.1955 40.3308 39.7271 40.2536ZM41.085 46.6845C41.0844 47.1305 40.9068 47.558 40.5912 47.8734C40.2755 48.1888 39.8476 48.3662 39.4012 48.3668H34.9408C34.4945 48.3662 34.0665 48.1887 33.7509 47.8734C33.4353 47.558 33.2577 47.1305 33.257 46.6845V42.2281C33.2576 41.7821 33.4352 41.3545 33.7509 41.0391C34.0665 40.7238 34.4944 40.5463 34.9408 40.5457H39.4012C39.8477 40.5459 40.2759 40.7232 40.5917 41.0387C40.9074 41.3541 41.0849 41.7819 41.085 42.2281V46.6845ZM32.9375 45.813V46.1322H33.257V45.813H32.9375Z" fill="#3F3D56"/>
<path d="M29.7833 87.4226H10.8363C10.7044 87.4227 10.5779 87.475 10.4845 87.568C10.3911 87.661 10.3384 87.7872 10.3379 87.919V89.0411C10.963 91.4332 11.7198 93.7889 12.6048 96.0976H29.7833C29.8486 96.0977 29.9132 96.0849 29.9735 96.06C30.0338 96.035 30.0886 95.9985 30.1348 95.9524C30.1809 95.9063 30.2175 95.8515 30.2425 95.7913C30.2674 95.731 30.2802 95.6664 30.2802 95.6012V87.919C30.28 87.7874 30.2276 87.6612 30.1345 87.5682C30.0413 87.4751 29.9151 87.4227 29.7833 87.4226Z" fill="#F3901B"/>
<path d="M27.9782 98.5893H13.6162C13.7871 98.9899 13.9613 99.3874 14.1418 99.7832H27.9782C28.7578 99.7944 28.7498 98.5781 27.9782 98.5893Z" fill="#E4E4E4"/>
<path d="M27.9772 101.325H14.8613C15.053 101.726 15.2501 102.124 15.4524 102.519H27.9772C28.7568 102.53 28.7488 101.315 27.9772 101.325Z" fill="#E4E4E4"/>
<path d="M27.9778 104.063H16.2598C16.4738 104.463 16.6943 104.861 16.918 105.256H27.9778C28.7574 105.268 28.7494 104.051 27.9778 104.063Z" fill="#E4E4E4"/>
<path d="M126.203 30.486H126.112C126.395 30.4863 126.675 30.5523 126.928 30.6789H126.514C126.067 30.6794 125.639 30.8568 125.324 31.1722C125.008 31.4875 124.831 31.9151 124.83 32.3612V36.8177C124.831 37.2637 125.008 37.6913 125.324 38.0067C125.639 38.3221 126.067 38.4995 126.514 38.5H126.778C126.566 38.5831 126.34 38.626 126.112 38.6263H126.203C126.692 38.6258 127.16 38.4315 127.506 38.0862C127.851 37.7409 128.046 37.2728 128.046 36.7844V32.3279C128.046 31.8396 127.851 31.3714 127.506 31.0261C127.16 30.6808 126.692 30.4866 126.203 30.486Z" fill="#3F3D56"/>
<path opacity="0.21" d="M126.203 30.486H126.112C126.395 30.4863 126.675 30.5523 126.928 30.6789H126.514C126.067 30.6794 125.639 30.8568 125.324 31.1722C125.008 31.4875 124.831 31.9151 124.83 32.3612V36.8177C124.831 37.2637 125.008 37.6913 125.324 38.0067C125.639 38.3221 126.067 38.4995 126.514 38.5H126.778C126.566 38.5831 126.34 38.626 126.112 38.6263H126.203C126.692 38.6258 127.16 38.4315 127.506 38.0862C127.851 37.7409 128.046 37.2728 128.046 36.7844V32.3279C128.046 31.8396 127.851 31.3714 127.506 31.0261C127.16 30.6808 126.692 30.4866 126.203 30.486Z" fill="black"/>
<path d="M114.382 30.486H114.291C114.574 30.4863 114.853 30.5523 115.107 30.6789H114.693C114.246 30.6794 113.818 30.8568 113.503 31.1722C113.187 31.4875 113.009 31.9151 113.009 32.3612V36.8177C113.009 37.2637 113.187 37.6913 113.503 38.0067C113.818 38.3221 114.246 38.4995 114.693 38.5H114.957C114.744 38.5831 114.519 38.626 114.291 38.6263H114.382C114.87 38.6258 115.339 38.4315 115.685 38.0862C116.03 37.7409 116.225 37.2728 116.225 36.7844V32.3279C116.225 31.8396 116.03 31.3714 115.685 31.0261C115.339 30.6808 114.87 30.4866 114.382 30.486Z" fill="#F3901B"/>
<path opacity="0.21" d="M114.382 30.486H114.291C114.574 30.4863 114.853 30.5523 115.107 30.6789H114.693C114.246 30.6794 113.818 30.8568 113.503 31.1722C113.187 31.4875 113.009 31.9151 113.009 32.3612V36.8177C113.009 37.2637 113.187 37.6913 113.503 38.0067C113.818 38.3221 114.246 38.4995 114.693 38.5H114.957C114.744 38.5831 114.519 38.626 114.291 38.6263H114.382C114.87 38.6258 115.339 38.4315 115.685 38.0862C116.03 37.7409 116.225 37.2728 116.225 36.7844V32.3279C116.225 31.8396 116.03 31.3714 115.685 31.0261C115.339 30.6808 114.87 30.4866 114.382 30.486Z" fill="black"/>
<path d="M114.711 38.5138C114.264 38.5133 113.836 38.3359 113.521 38.0205C113.205 37.7052 113.028 37.2776 113.027 36.8316V32.375C113.028 31.929 113.205 31.5014 113.521 31.186C113.836 30.8707 114.264 30.6933 114.711 30.6928H115.125C114.872 30.5662 114.592 30.5001 114.309 30.4999H109.848C109.36 30.5004 108.891 30.6947 108.545 31.04C108.2 31.3853 108.005 31.8534 108.005 32.3417V36.7983C108.005 37.2866 108.2 37.7548 108.545 38.1001C108.891 38.4454 109.36 38.6396 109.848 38.6402H114.309C114.537 38.6399 114.763 38.597 114.975 38.5138L114.711 38.5138Z" fill="#F3901B"/>
<path d="M126.532 38.5138C126.086 38.5133 125.658 38.3359 125.342 38.0205C125.026 37.7052 124.849 37.2776 124.848 36.8316V32.375C124.849 31.929 125.026 31.5014 125.342 31.186C125.658 30.8707 126.086 30.6933 126.532 30.6928H126.946C126.693 30.5662 126.414 30.5001 126.13 30.4999H121.67C121.181 30.5004 120.712 30.6947 120.367 31.04C120.021 31.3853 119.827 31.8534 119.826 32.3417V36.7983C119.827 37.2866 120.021 37.7548 120.367 38.1001C120.712 38.4454 121.181 38.6396 121.67 38.6402H126.13C126.358 38.6399 126.584 38.597 126.796 38.5138L126.532 38.5138Z" fill="#3F3D56"/>
<path d="M131.799 31.6089C133.436 33.859 134.934 36.2071 136.284 38.6399H133.491C133.002 38.6392 132.534 38.4449 132.188 38.0996C131.843 37.7544 131.648 37.2863 131.647 36.798V32.3416C131.647 32.0896 131.699 31.8402 131.799 31.6089Z" fill="#FF6584"/>
<path d="M126.2 40.9783L124.637 38.6399L123.495 36.9305C123.428 36.8306 123.335 36.7517 123.225 36.7028C123.115 36.6539 122.994 36.6371 122.875 36.6543C122.756 36.6715 122.645 36.722 122.553 36.8C122.462 36.878 122.395 36.9802 122.359 37.0949L121.878 38.6399L120.91 41.7444C120.872 41.8681 120.872 42.0005 120.911 42.1239C120.95 42.2474 121.026 42.356 121.129 42.4352C121.231 42.5145 121.355 42.5607 121.485 42.5676C121.614 42.5745 121.742 42.5418 121.853 42.4738L122.196 42.2616C122.265 42.219 122.344 42.1947 122.425 42.1911C122.507 42.1875 122.587 42.2047 122.66 42.241C122.732 42.2773 122.795 42.3315 122.84 42.3985C122.886 42.4655 122.914 42.5431 122.922 42.6239L123.236 46.0556C123.251 46.2132 123.324 46.3597 123.441 46.4665C123.558 46.5733 123.71 46.6328 123.869 46.6334C123.888 46.6334 123.907 46.6318 123.928 46.6302L124.41 46.5871C124.494 46.5795 124.575 46.5557 124.649 46.5168C124.723 46.478 124.788 46.4249 124.842 46.3607C124.895 46.2965 124.935 46.2224 124.96 46.1427C124.985 46.0629 124.993 45.9791 124.986 45.896L124.661 42.3525C124.654 42.2693 124.668 42.1855 124.703 42.1096C124.738 42.0337 124.792 41.9683 124.861 41.9201C124.929 41.8719 125.009 41.8425 125.092 41.8349C125.176 41.8273 125.26 41.8418 125.335 41.8769L125.406 41.9088C125.532 41.9667 125.673 41.9819 125.808 41.9522C125.944 41.9224 126.066 41.8493 126.155 41.7439C126.245 41.6386 126.298 41.5067 126.306 41.3685C126.314 41.2303 126.277 41.0933 126.2 40.9783Z" fill="#CCCCCC"/>
</g>
<defs>
<linearGradient id="paint0_linear_980_993" x1="75.8269" y1="8.40088" x2="75.8269" y2="139.999" gradientUnits="userSpaceOnUse">
<stop stop-color="#F7F7F7"/>
<stop offset="1" stop-color="#A4DD82"/>
</linearGradient>
<clipPath id="clip0_980_993">
<rect width="144.179" height="140" fill="white"/>
</clipPath>
</defs>
</svg>
