<svg width="357" height="373" viewBox="0 0 357 373" fill="none" xmlns="http://www.w3.org/2000/svg">
<path d="M100 112C100 105.373 105.373 100 112 100H261C267.627 100 273 105.373 273 112V261C273 267.627 267.627 273 261 273H112C105.373 273 100 267.627 100 261V112Z" fill="#F7F7F7"/>
<g filter="url(#filter0_f_980_1077)">
<path d="M173.4 265.414C186.756 238.498 221.731 263.788 240.179 243.305C266.691 213.867 259.529 172.728 234.932 141.648C216.517 118.378 166.723 133.477 166.723 108.723C166.723 83.9698 117.746 117.294 105.43 141.648C92.0019 168.198 105.925 190.57 120.693 216.388C134.682 240.844 160.045 292.331 173.4 265.414Z" fill="url(#paint0_linear_980_1077)"/>
</g>
<g clip-path="url(#clip0_980_1077)">
<circle cx="178.5" cy="187.5" r="67.5" fill="url(#paint1_linear_980_1077)"/>
<path d="M185.291 256.983C184.79 256.994 184.288 257 183.783 257C171.796 257 156.72 250.597 143.038 241.734C141.906 241.001 140.784 240.251 139.672 239.484L140.647 233.55L170.167 229.63L184.983 240.96L185.291 256.983Z" fill="#2F2E41"/>
<path d="M186.712 151.025H182.505C182.375 151.025 182.25 151.077 182.158 151.169C182.066 151.261 182.014 151.386 182.014 151.517V155.725C182.014 155.79 182.026 155.853 182.051 155.913C182.076 155.972 182.112 156.026 182.158 156.072C182.203 156.117 182.258 156.153 182.317 156.178C182.377 156.202 182.441 156.215 182.505 156.215H186.712C186.842 156.215 186.966 156.163 187.058 156.071C187.151 155.98 187.203 155.855 187.203 155.725V151.517C187.203 151.386 187.151 151.262 187.059 151.17C186.967 151.078 186.842 151.026 186.712 151.025Z" fill="#F7F7F7"/>
<path d="M186.712 158.197H182.505C182.375 158.197 182.25 158.249 182.158 158.341C182.066 158.433 182.014 158.558 182.014 158.688V162.897C182.014 162.961 182.026 163.025 182.051 163.084C182.076 163.144 182.112 163.198 182.158 163.243C182.203 163.289 182.258 163.325 182.317 163.349C182.377 163.374 182.441 163.386 182.505 163.386H186.712C186.842 163.386 186.966 163.335 187.058 163.243C187.151 163.151 187.203 163.027 187.203 162.897V158.688C187.203 158.558 187.151 158.433 187.059 158.341C186.967 158.249 186.842 158.197 186.712 158.197Z" fill="#E6E6E6"/>
<path d="M186.712 165.369H182.505C182.375 165.369 182.25 165.421 182.158 165.513C182.065 165.605 182.014 165.73 182.014 165.86V170.067C182.014 170.131 182.026 170.195 182.051 170.255C182.075 170.314 182.112 170.369 182.157 170.414C182.203 170.46 182.257 170.496 182.317 170.521C182.376 170.545 182.44 170.558 182.505 170.558H186.712C186.842 170.558 186.967 170.506 187.059 170.414C187.151 170.322 187.203 170.197 187.203 170.067V165.86C187.203 165.73 187.151 165.605 187.059 165.513C186.967 165.421 186.842 165.369 186.712 165.369Z" fill="#E6E6E6"/>
<path d="M187.195 172.945C187.174 172.832 187.115 172.729 187.026 172.655C186.938 172.582 186.827 172.541 186.712 172.54H182.505C182.375 172.54 182.25 172.592 182.158 172.684C182.066 172.776 182.014 172.901 182.014 173.032V177.238C182.014 177.303 182.026 177.367 182.051 177.427C182.075 177.486 182.112 177.54 182.157 177.586C182.203 177.632 182.257 177.668 182.317 177.693C182.376 177.717 182.44 177.73 182.505 177.73H186.712C186.842 177.73 186.967 177.678 187.059 177.586C187.151 177.494 187.203 177.369 187.203 177.238V173.032C187.203 173.003 187.201 172.973 187.195 172.945Z" fill="#E6E6E6"/>
<path d="M186.902 179.75C186.842 179.725 186.777 179.712 186.712 179.712H182.505C182.44 179.712 182.376 179.725 182.317 179.749C182.257 179.774 182.203 179.81 182.157 179.856C182.112 179.901 182.075 179.956 182.051 180.015C182.026 180.075 182.014 180.139 182.014 180.203V184.41C182.013 184.475 182.026 184.539 182.05 184.598C182.075 184.658 182.111 184.712 182.157 184.758C182.203 184.804 182.257 184.84 182.317 184.865C182.376 184.889 182.44 184.902 182.505 184.901H186.712C186.842 184.901 186.967 184.85 187.059 184.757C187.151 184.665 187.203 184.54 187.203 184.41V180.203C187.203 180.107 187.174 180.012 187.121 179.932C187.067 179.851 186.991 179.788 186.902 179.75Z" fill="#E6E6E6"/>
<path d="M195.549 151.025H191.342C191.212 151.025 191.087 151.077 190.995 151.169C190.902 151.261 190.851 151.386 190.851 151.517V155.725C190.851 155.79 190.863 155.853 190.888 155.913C190.913 155.972 190.949 156.026 190.995 156.072C191.04 156.117 191.095 156.153 191.154 156.178C191.214 156.202 191.277 156.215 191.342 156.215H195.549C195.679 156.215 195.803 156.163 195.895 156.071C195.987 155.98 196.039 155.855 196.04 155.725V151.517C196.04 151.386 195.988 151.262 195.896 151.17C195.803 151.078 195.679 151.026 195.549 151.025Z" fill="#E6E6E6"/>
<path d="M195.549 158.197H191.342C191.212 158.197 191.087 158.249 190.995 158.341C190.902 158.433 190.851 158.558 190.851 158.688V162.897C190.851 162.961 190.863 163.025 190.888 163.084C190.913 163.144 190.949 163.198 190.995 163.243C191.04 163.289 191.095 163.325 191.154 163.349C191.214 163.374 191.277 163.386 191.342 163.386H195.549C195.679 163.386 195.803 163.335 195.895 163.243C195.987 163.151 196.039 163.027 196.04 162.897V158.688C196.04 158.558 195.988 158.433 195.896 158.341C195.803 158.249 195.679 158.197 195.549 158.197Z" fill="#F3901B"/>
<path d="M195.549 165.369H191.342C191.212 165.369 191.087 165.421 190.995 165.513C190.902 165.605 190.851 165.73 190.851 165.86V170.067C190.85 170.131 190.863 170.195 190.888 170.255C190.912 170.314 190.949 170.369 190.994 170.414C191.04 170.46 191.094 170.496 191.154 170.521C191.213 170.545 191.277 170.558 191.342 170.558H195.549C195.679 170.558 195.804 170.506 195.896 170.414C195.988 170.322 196.04 170.197 196.04 170.067V165.86C196.04 165.73 195.988 165.605 195.896 165.513C195.803 165.421 195.679 165.369 195.549 165.369Z" fill="#F3901B"/>
<path d="M195.549 172.54H191.342C191.239 172.54 191.139 172.573 191.055 172.633C190.972 172.694 190.909 172.779 190.877 172.877C190.86 172.927 190.851 172.979 190.851 173.032V177.238C190.85 177.303 190.863 177.367 190.888 177.427C190.912 177.486 190.949 177.54 190.994 177.586C191.04 177.632 191.094 177.668 191.154 177.693C191.213 177.717 191.277 177.73 191.342 177.73H195.549C195.679 177.73 195.804 177.678 195.896 177.586C195.988 177.494 196.04 177.369 196.04 177.238V173.032C196.04 172.902 195.988 172.777 195.896 172.685C195.803 172.593 195.679 172.541 195.549 172.54Z" fill="#F3901B"/>
<path d="M195.549 179.712H191.342C191.277 179.712 191.213 179.725 191.154 179.749C191.094 179.774 191.04 179.81 190.994 179.856C190.949 179.901 190.912 179.956 190.888 180.015C190.863 180.075 190.85 180.139 190.851 180.203V184.41C190.85 184.475 190.863 184.539 190.888 184.598C190.912 184.658 190.949 184.712 190.994 184.758C191.04 184.803 191.094 184.84 191.154 184.864C191.213 184.889 191.277 184.901 191.342 184.901H195.549C195.679 184.901 195.804 184.85 195.896 184.757C195.988 184.665 196.04 184.54 196.04 184.41V180.203C196.04 180.073 195.988 179.948 195.896 179.856C195.804 179.764 195.679 179.712 195.549 179.712Z" fill="#E6E6E6"/>
<path d="M204.385 151.025H200.179C200.049 151.025 199.924 151.077 199.831 151.169C199.739 151.261 199.688 151.386 199.688 151.517V155.725C199.688 155.79 199.7 155.853 199.725 155.913C199.75 155.972 199.786 156.026 199.832 156.072C199.877 156.117 199.931 156.153 199.991 156.178C200.051 156.202 200.114 156.215 200.179 156.215H204.385C204.515 156.215 204.64 156.163 204.732 156.071C204.824 155.98 204.876 155.855 204.877 155.725V151.517C204.876 151.386 204.825 151.262 204.732 151.17C204.64 151.078 204.516 151.026 204.385 151.025Z" fill="#F3901B"/>
<path d="M204.385 158.197H200.179C200.049 158.197 199.924 158.249 199.831 158.341C199.739 158.433 199.688 158.558 199.688 158.688V162.897C199.688 162.961 199.7 163.025 199.725 163.084C199.75 163.144 199.786 163.198 199.832 163.243C199.877 163.289 199.931 163.325 199.991 163.349C200.051 163.374 200.114 163.386 200.179 163.386H204.385C204.515 163.386 204.64 163.335 204.732 163.243C204.824 163.151 204.876 163.027 204.877 162.897V158.688C204.876 158.558 204.825 158.433 204.732 158.341C204.64 158.249 204.516 158.197 204.385 158.197Z" fill="#F3901B"/>
<path d="M204.385 165.369H200.179C200.049 165.369 199.924 165.421 199.831 165.513C199.739 165.605 199.688 165.73 199.688 165.86V170.067C199.687 170.131 199.7 170.195 199.725 170.255C199.749 170.314 199.785 170.369 199.831 170.414C199.877 170.46 199.931 170.496 199.991 170.521C200.05 170.545 200.114 170.558 200.179 170.558H204.385C204.516 170.558 204.641 170.506 204.733 170.414C204.825 170.322 204.877 170.197 204.877 170.067V165.86C204.876 165.73 204.825 165.605 204.732 165.513C204.64 165.421 204.516 165.369 204.385 165.369Z" fill="#E6E6E6"/>
<path d="M204.385 172.54H200.179C200.049 172.54 199.924 172.592 199.831 172.684C199.739 172.776 199.688 172.901 199.688 173.032V177.238C199.687 177.303 199.7 177.367 199.725 177.427C199.749 177.486 199.785 177.54 199.831 177.586C199.877 177.632 199.931 177.668 199.991 177.693C200.05 177.717 200.114 177.73 200.179 177.73H204.385C204.516 177.73 204.641 177.678 204.733 177.586C204.825 177.494 204.877 177.369 204.877 177.238V173.032C204.876 172.902 204.825 172.777 204.732 172.685C204.64 172.593 204.516 172.541 204.385 172.54Z" fill="#F3901B"/>
<path d="M204.385 179.712H200.179C200.114 179.712 200.05 179.725 199.991 179.749C199.931 179.774 199.877 179.81 199.831 179.856C199.785 179.901 199.749 179.956 199.725 180.015C199.7 180.075 199.687 180.139 199.688 180.203V184.41C199.687 184.475 199.7 184.539 199.725 184.598C199.749 184.658 199.785 184.712 199.831 184.758C199.877 184.803 199.931 184.84 199.991 184.864C200.05 184.889 200.114 184.901 200.179 184.901H204.385C204.516 184.901 204.641 184.85 204.733 184.757C204.825 184.665 204.877 184.54 204.877 184.41V180.203C204.877 180.073 204.825 179.948 204.733 179.856C204.641 179.764 204.516 179.712 204.385 179.712Z" fill="#F3901B"/>
<path d="M213.221 151.025H209.015C208.884 151.025 208.76 151.077 208.667 151.169C208.575 151.261 208.524 151.386 208.523 151.517V155.725C208.524 155.79 208.536 155.853 208.561 155.913C208.586 155.972 208.622 156.026 208.668 156.072C208.713 156.117 208.767 156.153 208.827 156.178C208.887 156.202 208.95 156.215 209.015 156.215H213.221C213.351 156.215 213.476 156.163 213.568 156.071C213.66 155.98 213.712 155.855 213.713 155.725V151.517C213.712 151.386 213.66 151.262 213.568 151.17C213.476 151.078 213.352 151.026 213.221 151.025Z" fill="#F3901B"/>
<path d="M213.221 158.197H209.015C208.884 158.197 208.76 158.249 208.667 158.341C208.575 158.433 208.523 158.558 208.523 158.688V162.897C208.524 162.961 208.536 163.025 208.561 163.084C208.586 163.144 208.622 163.198 208.668 163.243C208.713 163.289 208.767 163.325 208.827 163.349C208.887 163.374 208.95 163.386 209.015 163.386H213.221C213.351 163.386 213.476 163.335 213.568 163.243C213.66 163.151 213.712 163.027 213.713 162.897V158.688C213.712 158.558 213.66 158.433 213.568 158.341C213.476 158.249 213.352 158.197 213.221 158.197Z" fill="#F7F7F7"/>
<path d="M213.221 165.369H209.015C208.884 165.369 208.76 165.421 208.667 165.513C208.575 165.605 208.523 165.73 208.523 165.86V170.067C208.523 170.131 208.536 170.195 208.561 170.255C208.585 170.314 208.621 170.369 208.667 170.414C208.713 170.46 208.767 170.496 208.827 170.521C208.886 170.545 208.95 170.558 209.015 170.558H213.221C213.352 170.558 213.477 170.506 213.569 170.414C213.661 170.322 213.713 170.197 213.713 170.067V165.86C213.712 165.73 213.66 165.605 213.568 165.513C213.476 165.421 213.352 165.369 213.221 165.369Z" fill="#F7F7F7"/>
<path d="M213.221 172.54H209.015C208.884 172.54 208.76 172.592 208.667 172.684C208.575 172.776 208.524 172.901 208.523 173.032V177.238C208.523 177.303 208.536 177.367 208.561 177.427C208.585 177.486 208.621 177.54 208.667 177.586C208.713 177.632 208.767 177.668 208.827 177.693C208.886 177.717 208.95 177.73 209.015 177.73H213.221C213.352 177.73 213.477 177.678 213.569 177.586C213.661 177.494 213.713 177.369 213.713 177.238V173.032C213.712 172.902 213.66 172.777 213.568 172.685C213.476 172.593 213.352 172.541 213.221 172.54Z" fill="#E6E6E6"/>
<path d="M213.221 179.712H209.015C208.95 179.712 208.886 179.725 208.827 179.749C208.767 179.774 208.713 179.81 208.667 179.856C208.621 179.901 208.585 179.956 208.561 180.015C208.536 180.075 208.523 180.139 208.523 180.203V184.41C208.523 184.475 208.536 184.539 208.561 184.598C208.585 184.658 208.621 184.712 208.667 184.758C208.713 184.803 208.767 184.84 208.827 184.864C208.886 184.889 208.95 184.901 209.015 184.901H213.221C213.352 184.901 213.477 184.85 213.569 184.757C213.661 184.665 213.713 184.54 213.713 184.41V180.203C213.713 180.073 213.661 179.948 213.569 179.856C213.477 179.764 213.352 179.712 213.221 179.712Z" fill="#F3901B"/>
<path d="M222.058 151.025H217.85C217.72 151.026 217.595 151.078 217.504 151.17C217.412 151.262 217.36 151.387 217.36 151.517V155.725C217.36 155.855 217.412 155.979 217.504 156.071C217.596 156.163 217.72 156.215 217.85 156.215H222.058C222.188 156.215 222.313 156.163 222.405 156.071C222.497 155.98 222.549 155.855 222.55 155.725V151.517C222.549 151.386 222.497 151.262 222.405 151.17C222.313 151.078 222.189 151.026 222.058 151.025Z" fill="#F7F7F7"/>
<path d="M222.058 158.197H217.85C217.72 158.197 217.595 158.249 217.504 158.341C217.412 158.434 217.36 158.558 217.36 158.688V162.897C217.36 163.027 217.412 163.151 217.504 163.243C217.596 163.335 217.72 163.386 217.85 163.386H222.058C222.188 163.386 222.313 163.335 222.405 163.243C222.497 163.151 222.549 163.027 222.55 162.897V158.688C222.549 158.558 222.497 158.433 222.405 158.341C222.313 158.249 222.189 158.197 222.058 158.197Z" fill="#F7F7F7"/>
<path d="M222.058 165.369H217.85C217.72 165.369 217.595 165.421 217.504 165.513C217.412 165.605 217.36 165.73 217.36 165.86V170.067C217.36 170.131 217.373 170.195 217.397 170.254C217.422 170.314 217.458 170.368 217.503 170.414C217.549 170.459 217.603 170.496 217.662 170.52C217.722 170.545 217.785 170.558 217.85 170.558H222.058C222.189 170.558 222.314 170.506 222.406 170.414C222.498 170.322 222.55 170.197 222.55 170.067V165.86C222.549 165.73 222.497 165.605 222.405 165.513C222.313 165.421 222.189 165.369 222.058 165.369Z" fill="#F7F7F7"/>
<path d="M222.058 172.54H217.85C217.72 172.541 217.595 172.593 217.504 172.685C217.412 172.777 217.36 172.902 217.36 173.032V177.238C217.36 177.303 217.373 177.367 217.397 177.426C217.422 177.486 217.458 177.54 217.503 177.586C217.549 177.631 217.603 177.667 217.662 177.692C217.722 177.717 217.785 177.73 217.85 177.73H222.058C222.189 177.73 222.314 177.678 222.406 177.586C222.498 177.494 222.55 177.369 222.55 177.238V173.032C222.549 172.902 222.497 172.777 222.405 172.685C222.313 172.593 222.189 172.541 222.058 172.54Z" fill="#F3901B"/>
<path d="M222.058 179.712H217.85C217.785 179.712 217.722 179.725 217.662 179.75C217.603 179.774 217.549 179.811 217.503 179.856C217.458 179.902 217.422 179.956 217.397 180.016C217.373 180.075 217.36 180.139 217.36 180.203V184.41C217.36 184.474 217.373 184.538 217.397 184.598C217.422 184.657 217.458 184.712 217.503 184.757C217.549 184.803 217.603 184.839 217.662 184.864C217.722 184.889 217.785 184.901 217.85 184.901H222.058C222.189 184.901 222.314 184.85 222.406 184.757C222.498 184.665 222.55 184.54 222.55 184.41V180.203C222.55 180.073 222.498 179.948 222.406 179.856C222.314 179.764 222.189 179.712 222.058 179.712Z" fill="#E6E6E6"/>
<path d="M230.895 151.025H226.687C226.557 151.026 226.432 151.078 226.34 151.17C226.249 151.262 226.197 151.387 226.197 151.517V155.725C226.197 155.855 226.249 155.979 226.341 156.071C226.432 156.163 226.557 156.215 226.687 156.215H230.895C231.025 156.215 231.15 156.163 231.242 156.071C231.334 155.98 231.386 155.855 231.387 155.725V151.517C231.386 151.386 231.334 151.262 231.242 151.17C231.15 151.078 231.025 151.026 230.895 151.025Z" fill="#F7F7F7"/>
<path d="M230.895 158.197H226.687C226.557 158.197 226.432 158.249 226.34 158.341C226.249 158.434 226.197 158.558 226.197 158.688V162.897C226.197 163.027 226.249 163.151 226.341 163.243C226.432 163.335 226.557 163.386 226.687 163.386H230.895C231.025 163.386 231.15 163.335 231.242 163.243C231.334 163.151 231.386 163.027 231.387 162.897V158.688C231.386 158.558 231.334 158.433 231.242 158.341C231.15 158.249 231.025 158.197 230.895 158.197Z" fill="#F7F7F7"/>
<path d="M230.895 165.369H226.687C226.557 165.369 226.432 165.421 226.34 165.513C226.249 165.605 226.197 165.73 226.197 165.86V170.067C226.197 170.131 226.21 170.195 226.234 170.254C226.259 170.314 226.295 170.368 226.34 170.414C226.386 170.459 226.44 170.496 226.499 170.52C226.559 170.545 226.622 170.558 226.687 170.558H230.895C231.026 170.558 231.15 170.506 231.243 170.414C231.335 170.322 231.387 170.197 231.387 170.067V165.86C231.386 165.73 231.334 165.605 231.242 165.513C231.15 165.421 231.025 165.369 230.895 165.369Z" fill="#F3901B"/>
<path d="M230.895 172.54H226.687C226.557 172.541 226.432 172.593 226.34 172.685C226.249 172.777 226.197 172.902 226.197 173.032V177.238C226.197 177.303 226.21 177.367 226.234 177.426C226.259 177.486 226.295 177.54 226.34 177.586C226.386 177.631 226.44 177.667 226.499 177.692C226.559 177.717 226.622 177.73 226.687 177.73H230.895C231.026 177.73 231.15 177.678 231.243 177.586C231.335 177.494 231.387 177.369 231.387 177.238V173.032C231.386 172.902 231.334 172.777 231.242 172.685C231.15 172.593 231.025 172.541 230.895 172.54Z" fill="#E6E6E6"/>
<path d="M230.895 179.712H226.687C226.622 179.712 226.559 179.725 226.499 179.75C226.44 179.774 226.386 179.811 226.34 179.856C226.295 179.902 226.259 179.956 226.234 180.016C226.21 180.075 226.197 180.139 226.197 180.203V184.41C226.197 184.474 226.21 184.538 226.234 184.598C226.259 184.657 226.295 184.712 226.34 184.757C226.386 184.803 226.44 184.839 226.499 184.864C226.559 184.889 226.622 184.901 226.687 184.901H230.895C231.026 184.901 231.15 184.85 231.243 184.757C231.335 184.665 231.387 184.54 231.387 184.41V180.203C231.387 180.073 231.335 179.948 231.243 179.856C231.15 179.764 231.026 179.712 230.895 179.712Z" fill="#F7F7F7"/>
<path d="M239.731 151.025H235.523C235.393 151.026 235.268 151.078 235.176 151.17C235.085 151.262 235.033 151.387 235.033 151.517V155.725C235.033 155.855 235.085 155.979 235.177 156.071C235.268 156.163 235.393 156.215 235.523 156.215H239.731C239.861 156.215 239.986 156.163 240.078 156.071C240.17 155.98 240.222 155.855 240.223 155.725V151.517C240.222 151.386 240.17 151.262 240.078 151.17C239.986 151.078 239.861 151.026 239.731 151.025Z" fill="#F3901B"/>
<path d="M239.731 158.197H235.523C235.393 158.197 235.268 158.249 235.176 158.341C235.085 158.434 235.033 158.558 235.033 158.688V162.897C235.033 163.027 235.085 163.151 235.177 163.243C235.268 163.335 235.393 163.386 235.523 163.386H239.731C239.861 163.386 239.986 163.335 240.078 163.243C240.17 163.151 240.222 163.027 240.223 162.897V158.688C240.222 158.558 240.17 158.433 240.078 158.341C239.986 158.249 239.861 158.197 239.731 158.197Z" fill="#F3901B"/>
<path d="M239.731 165.369H235.523C235.393 165.369 235.268 165.421 235.176 165.513C235.085 165.605 235.033 165.73 235.033 165.86V170.067C235.033 170.131 235.046 170.195 235.07 170.254C235.095 170.314 235.131 170.368 235.176 170.414C235.222 170.459 235.276 170.496 235.335 170.52C235.394 170.545 235.458 170.558 235.523 170.558H239.731C239.861 170.558 239.986 170.506 240.079 170.414C240.171 170.322 240.222 170.197 240.223 170.067V165.86C240.222 165.73 240.17 165.605 240.078 165.513C239.986 165.421 239.861 165.369 239.731 165.369Z" fill="#E6E6E6"/>
<path d="M239.731 172.54H235.523C235.393 172.541 235.268 172.593 235.176 172.685C235.085 172.777 235.033 172.902 235.033 173.032V177.238C235.033 177.303 235.046 177.367 235.07 177.426C235.095 177.486 235.131 177.54 235.176 177.586C235.222 177.631 235.276 177.667 235.335 177.692C235.394 177.717 235.458 177.73 235.523 177.73H239.731C239.861 177.73 239.986 177.678 240.079 177.586C240.171 177.494 240.222 177.369 240.223 177.238V173.032C240.222 172.902 240.17 172.777 240.078 172.685C239.986 172.593 239.861 172.541 239.731 172.54Z" fill="#F7F7F7"/>
<path d="M239.731 179.712H235.523C235.458 179.712 235.394 179.725 235.335 179.75C235.276 179.774 235.222 179.811 235.176 179.856C235.131 179.902 235.095 179.956 235.07 180.016C235.046 180.075 235.033 180.139 235.033 180.203V184.41C235.033 184.474 235.046 184.538 235.07 184.598C235.095 184.657 235.131 184.712 235.176 184.757C235.222 184.803 235.276 184.839 235.335 184.864C235.394 184.889 235.458 184.901 235.523 184.901H239.731C239.861 184.901 239.986 184.85 240.079 184.757C240.171 184.665 240.222 184.54 240.223 184.41V180.203C240.222 180.073 240.171 179.948 240.079 179.856C239.986 179.764 239.861 179.712 239.731 179.712Z" fill="#F3901B"/>
<path d="M248.568 151.025H244.36C244.23 151.026 244.105 151.078 244.013 151.17C243.922 151.262 243.87 151.387 243.87 151.517V155.725C243.87 155.855 243.922 155.979 244.013 156.071C244.105 156.163 244.23 156.215 244.36 156.215H248.568C248.698 156.215 248.823 156.163 248.915 156.071C249.007 155.98 249.059 155.855 249.059 155.725V151.517C249.059 151.386 249.007 151.262 248.915 151.17C248.823 151.078 248.698 151.026 248.568 151.025Z" fill="#F3901B"/>
<path d="M248.568 158.197H244.36C244.23 158.197 244.105 158.249 244.013 158.341C243.922 158.434 243.87 158.558 243.87 158.688V162.897C243.87 163.027 243.922 163.151 244.013 163.243C244.105 163.335 244.23 163.386 244.36 163.386H248.568C248.698 163.386 248.823 163.335 248.915 163.243C249.007 163.151 249.059 163.027 249.059 162.897V158.688C249.059 158.558 249.007 158.433 248.915 158.341C248.823 158.249 248.698 158.197 248.568 158.197Z" fill="#F3901B"/>
<path d="M248.568 165.369H244.36C244.23 165.369 244.105 165.421 244.013 165.513C243.922 165.605 243.87 165.73 243.87 165.86V170.067C243.87 170.131 243.882 170.195 243.907 170.254C243.931 170.314 243.967 170.368 244.013 170.414C244.058 170.459 244.112 170.496 244.172 170.52C244.231 170.545 244.295 170.558 244.36 170.558H248.568C248.698 170.558 248.823 170.506 248.915 170.414C249.008 170.322 249.059 170.197 249.059 170.067V165.86C249.059 165.73 249.007 165.605 248.915 165.513C248.823 165.421 248.698 165.369 248.568 165.369Z" fill="#E6E6E6"/>
<path d="M248.568 172.54H244.36C244.23 172.541 244.105 172.593 244.013 172.685C243.922 172.777 243.87 172.902 243.87 173.032V177.238C243.87 177.303 243.882 177.367 243.907 177.426C243.931 177.486 243.967 177.54 244.013 177.586C244.058 177.631 244.112 177.667 244.172 177.692C244.231 177.717 244.295 177.73 244.36 177.73H248.568C248.698 177.73 248.823 177.678 248.915 177.586C249.008 177.494 249.059 177.369 249.059 177.238V173.032C249.059 172.902 249.007 172.777 248.915 172.685C248.823 172.593 248.698 172.541 248.568 172.54Z" fill="#F3901B"/>
<path d="M248.568 179.712H244.36C244.295 179.712 244.231 179.725 244.172 179.75C244.112 179.774 244.058 179.811 244.013 179.856C243.967 179.902 243.931 179.956 243.907 180.016C243.882 180.075 243.87 180.139 243.87 180.203V184.41C243.87 184.474 243.882 184.538 243.907 184.598C243.931 184.657 243.967 184.712 244.013 184.757C244.058 184.803 244.112 184.839 244.172 184.864C244.231 184.889 244.295 184.901 244.36 184.901H248.568C248.698 184.901 248.823 184.85 248.915 184.757C249.008 184.665 249.059 184.54 249.059 184.41V180.203C249.059 180.073 249.008 179.948 248.915 179.856C248.823 179.764 248.698 179.712 248.568 179.712Z" fill="#F3901B"/>
<path d="M257.405 151.025H253.196C253.066 151.026 252.942 151.078 252.85 151.17C252.758 151.262 252.707 151.387 252.707 151.517V155.725C252.707 155.855 252.759 155.979 252.85 156.071C252.942 156.163 253.067 156.215 253.196 156.215H257.405C257.535 156.215 257.66 156.163 257.752 156.071C257.844 155.98 257.896 155.855 257.896 155.725V151.517C257.896 151.386 257.844 151.262 257.752 151.17C257.66 151.078 257.535 151.026 257.405 151.025Z" fill="#E6E6E6"/>
<path d="M257.405 158.197H253.196C253.066 158.197 252.942 158.249 252.85 158.341C252.758 158.434 252.707 158.558 252.707 158.688V162.897C252.707 163.027 252.759 163.151 252.85 163.243C252.942 163.335 253.067 163.386 253.196 163.386H257.405C257.535 163.386 257.66 163.335 257.752 163.243C257.844 163.151 257.896 163.027 257.896 162.897V158.688C257.896 158.558 257.844 158.433 257.752 158.341C257.66 158.249 257.535 158.197 257.405 158.197Z" fill="#F3901B"/>
<path d="M257.405 165.369H253.196C253.066 165.369 252.942 165.421 252.85 165.513C252.758 165.605 252.707 165.73 252.707 165.86V170.067C252.707 170.131 252.719 170.195 252.744 170.254C252.768 170.314 252.804 170.368 252.85 170.414C252.895 170.459 252.949 170.496 253.009 170.52C253.068 170.545 253.132 170.558 253.196 170.558H257.405C257.535 170.558 257.66 170.506 257.752 170.414C257.844 170.322 257.896 170.197 257.896 170.067V165.86C257.896 165.73 257.844 165.605 257.752 165.513C257.66 165.421 257.535 165.369 257.405 165.369Z" fill="#F3901B"/>
<path d="M257.405 172.54H253.196C253.066 172.541 252.942 172.593 252.85 172.685C252.758 172.777 252.707 172.902 252.707 173.032V177.238C252.707 177.303 252.719 177.367 252.744 177.426C252.768 177.486 252.804 177.54 252.85 177.586C252.895 177.631 252.949 177.667 253.009 177.692C253.068 177.717 253.132 177.73 253.196 177.73H257.405C257.535 177.73 257.66 177.678 257.752 177.586C257.845 177.494 257.896 177.369 257.896 177.238V173.032C257.896 172.902 257.844 172.777 257.752 172.685C257.66 172.593 257.535 172.541 257.405 172.54Z" fill="#F3901B"/>
<path d="M257.405 179.712H253.196C253.132 179.712 253.068 179.725 253.009 179.75C252.949 179.774 252.895 179.811 252.85 179.856C252.804 179.902 252.768 179.956 252.744 180.016C252.719 180.075 252.707 180.139 252.707 180.203V184.41C252.707 184.474 252.719 184.538 252.744 184.598C252.768 184.657 252.804 184.712 252.85 184.757C252.895 184.803 252.949 184.839 253.009 184.864C253.068 184.889 253.132 184.901 253.196 184.901H257.405C257.535 184.901 257.66 184.85 257.752 184.757C257.845 184.665 257.896 184.54 257.896 184.41V180.203C257.896 180.073 257.845 179.948 257.752 179.856C257.66 179.764 257.535 179.712 257.405 179.712Z" fill="#E6E6E6"/>
<path d="M266.241 151.025H262.032C261.902 151.026 261.778 151.078 261.686 151.17C261.594 151.262 261.543 151.387 261.543 151.517V155.725C261.543 155.855 261.595 155.979 261.686 156.071C261.778 156.163 261.903 156.215 262.032 156.215H266.241C266.371 156.215 266.496 156.163 266.588 156.071C266.68 155.98 266.732 155.855 266.732 155.725V151.517C266.732 151.386 266.68 151.262 266.588 151.17C266.496 151.078 266.371 151.026 266.241 151.025Z" fill="#E6E6E6"/>
<path d="M266.241 158.197H262.032C261.902 158.197 261.778 158.249 261.686 158.341C261.594 158.434 261.543 158.558 261.543 158.688V162.897C261.543 163.027 261.595 163.151 261.686 163.243C261.778 163.335 261.903 163.386 262.032 163.386H266.241C266.371 163.386 266.496 163.335 266.588 163.243C266.68 163.151 266.732 163.027 266.732 162.897V158.688C266.732 158.558 266.68 158.433 266.588 158.341C266.496 158.249 266.371 158.197 266.241 158.197Z" fill="#E6E6E6"/>
<path d="M266.241 165.369H262.032C261.902 165.369 261.778 165.421 261.686 165.513C261.594 165.605 261.543 165.73 261.543 165.86V170.067C261.543 170.131 261.555 170.195 261.58 170.254C261.604 170.314 261.64 170.368 261.686 170.414C261.731 170.459 261.785 170.496 261.845 170.52C261.904 170.545 261.968 170.558 262.032 170.558H266.241C266.371 170.558 266.496 170.506 266.588 170.414C266.68 170.322 266.732 170.197 266.732 170.067V165.86C266.732 165.73 266.68 165.605 266.588 165.513C266.496 165.421 266.371 165.369 266.241 165.369Z" fill="#F3901B"/>
<path d="M266.241 172.54H262.032C261.902 172.541 261.778 172.593 261.686 172.685C261.594 172.777 261.543 172.902 261.543 173.032V177.238C261.543 177.303 261.555 177.367 261.58 177.426C261.604 177.486 261.64 177.54 261.686 177.586C261.731 177.631 261.785 177.667 261.845 177.692C261.904 177.717 261.968 177.73 262.032 177.73H266.241C266.371 177.73 266.496 177.678 266.588 177.586C266.68 177.494 266.732 177.369 266.732 177.238V173.032C266.732 172.902 266.68 172.777 266.588 172.685C266.496 172.593 266.371 172.541 266.241 172.54Z" fill="#E6E6E6"/>
<path d="M266.241 179.712H262.032C261.968 179.712 261.904 179.725 261.845 179.75C261.785 179.774 261.731 179.811 261.686 179.856C261.64 179.902 261.604 179.956 261.58 180.016C261.555 180.075 261.543 180.139 261.543 180.203V184.41C261.543 184.474 261.555 184.538 261.58 184.598C261.604 184.657 261.64 184.712 261.686 184.757C261.731 184.803 261.785 184.839 261.845 184.864C261.904 184.889 261.968 184.901 262.032 184.901H266.241C266.371 184.901 266.496 184.85 266.588 184.757C266.68 184.665 266.732 184.54 266.732 184.41V180.203C266.732 180.073 266.68 179.948 266.588 179.856C266.496 179.764 266.371 179.712 266.241 179.712Z" fill="#E6E6E6"/>
<path d="M169.515 241.735H169.397L169.498 241.721L169.515 241.735Z" fill="#2F2E41"/>
<path d="M159.446 163.31C166.577 163.31 172.358 157.529 172.358 150.398C172.358 143.268 166.577 137.487 159.446 137.487C152.316 137.487 146.535 143.268 146.535 150.398C146.535 157.529 152.316 163.31 159.446 163.31Z" fill="#EDB18B"/>
<path d="M170.753 140.932C170.753 140.932 174.13 134.476 166.7 133.89C166.7 133.89 160.367 128.144 153.911 132.839C153.911 132.839 150.39 132.839 148.464 136.824C148.464 136.824 145.695 135.774 145.086 138.585C145.086 138.585 143.06 144.453 145.086 149.735C147.113 155.017 147.786 155.604 147.786 155.604C147.786 155.604 144.456 144.53 152.561 143.943C160.667 143.356 169.737 138.291 170.412 144.747C171.088 151.202 172.104 152.793 172.104 152.793C172.104 152.793 178.52 143.573 170.753 140.932Z" fill="#2F2E41"/>
<path d="M192.844 182.218L192.802 182.437L192.336 184.901L189.11 201.947L188.919 202.951L188.518 205.073L187.97 207.968L186.755 214.384L186.407 216.222L186.277 216.912L186.232 217.154L185.871 219.057L185.761 219.632L184.88 226.157L184.111 231.843L186.685 234.417L185.151 235.952L184.143 241.721L184.145 241.734H143.037C141.374 240.657 139.735 239.547 138.12 238.403L138.458 235.87C138.458 235.87 139.622 231.348 139.133 230.808C138.645 230.267 137.576 229.302 137.576 229.302L138.923 226.157L139.11 225.72L138.796 219.214L138.789 219.057L138.685 216.912L138.672 216.636L138.651 216.222L138.252 207.968L138.245 207.832L138.124 205.33L138.01 202.951L137.961 201.947L137.475 191.907L137.147 185.088L136.859 179.153L138.014 178.761L150.364 174.564L155.479 167.914L166.126 167.993L171.338 168.033L180.035 176.099L182.014 177.044L182.029 177.051L183.448 177.73L187.046 179.447L190.85 181.265L192.802 182.197L192.844 182.218Z" fill="#F3901B"/>
<path d="M156.856 222.364C156.076 222.667 155.239 222.794 154.404 222.738C153.569 222.682 152.757 222.443 152.024 222.039C151.291 221.635 150.656 221.075 150.163 220.399C149.671 219.723 149.332 218.947 149.171 218.126L129.034 215.269L136.034 207.35L154.084 211.277C155.481 211.099 156.895 211.439 158.059 212.234C159.222 213.029 160.053 214.223 160.395 215.59C160.736 216.956 160.565 218.401 159.913 219.649C159.26 220.898 158.173 221.864 156.856 222.364Z" fill="#EDB18B"/>
<path d="M147.878 207.968C147.505 207.495 146.977 207.169 146.387 207.048L138.125 205.33L137.276 205.154C136.783 205.051 136.317 204.845 135.909 204.55C135.501 204.255 135.16 203.876 134.908 203.44C134.647 202.982 134.489 202.473 134.445 201.947C134.406 201.469 134.463 200.989 134.613 200.534L137.476 191.907L139.334 186.309C139.559 185.634 139.692 184.932 139.729 184.221C139.833 182.254 139.224 180.316 138.015 178.761C136.952 177.395 135.478 176.407 133.81 175.943C132.142 175.478 130.369 175.563 128.753 176.184C128.706 176.201 128.657 176.22 128.61 176.239C127.451 176.701 126.415 177.427 125.585 178.359C124.755 179.291 124.153 180.403 123.827 181.607L121.808 188.949L117.645 204.084C117.228 205.601 117.144 207.189 117.398 208.741C117.652 210.293 118.239 211.772 119.118 213.076C119.996 214.381 121.146 215.48 122.489 216.298C123.832 217.117 125.336 217.636 126.898 217.819L138.797 219.214L144.304 219.86C144.941 219.937 145.583 219.771 146.103 219.395C146.623 219.019 146.982 218.461 147.109 217.833C147.118 217.798 147.124 217.764 147.129 217.729L147.262 216.912L148.382 210.037L148.394 209.967C148.452 209.616 148.436 209.257 148.347 208.913C148.259 208.569 148.099 208.247 147.878 207.968Z" fill="#F8C78C"/>
<path d="M169.683 222.585C170.498 222.774 171.344 222.782 172.163 222.609C172.982 222.436 173.752 222.085 174.421 221.581C175.089 221.078 175.639 220.434 176.031 219.695C176.424 218.956 176.65 218.14 176.693 217.305L196.226 211.637L188.179 204.784L170.864 211.217C169.455 211.238 168.103 211.775 167.064 212.725C166.024 213.676 165.37 214.975 165.224 216.377C165.079 217.778 165.452 219.184 166.274 220.328C167.096 221.472 168.309 222.275 169.683 222.585Z" fill="#EDB18B"/>
<path d="M205.923 198.958L196.633 177.577C195.873 175.821 194.516 174.392 192.803 173.542C192.273 173.281 191.717 173.078 191.144 172.937C191.055 172.915 190.966 172.894 190.877 172.877C189.662 172.611 188.401 172.635 187.196 172.945C186.094 173.228 185.065 173.74 184.175 174.447C183.284 175.155 182.553 176.042 182.029 177.051C182.023 177.06 182.018 177.068 182.014 177.078C181.428 178.211 181.117 179.465 181.105 180.74C181.093 182.015 181.38 183.276 181.944 184.419L182.059 184.65L188.624 197.835C188.849 198.286 188.975 198.779 188.995 199.282C189.015 199.785 188.929 200.287 188.741 200.754C188.554 201.222 188.27 201.644 187.908 201.994C187.546 202.344 187.114 202.613 186.64 202.784L186.179 202.951L177.887 205.946C177.265 206.168 176.753 206.623 176.459 207.215C176.165 207.806 176.113 208.489 176.313 209.119L176.333 209.185L178.658 216.623C178.669 216.657 178.68 216.691 178.694 216.725C178.714 216.789 178.739 216.852 178.769 216.912C179.016 217.466 179.453 217.914 180.001 218.175C180.548 218.436 181.171 218.493 181.757 218.335L186.232 217.154L187.145 216.912L198.701 213.86C200.221 213.458 201.637 212.733 202.851 211.733C204.065 210.733 205.049 209.483 205.735 208.068C206.421 206.652 206.793 205.106 206.825 203.533C206.858 201.961 206.55 200.4 205.923 198.958Z" fill="#F8C78C"/>
<path d="M114.484 216.912C117.162 220.178 120.05 223.267 123.13 226.157H208.542C209.365 226.158 210.154 226.486 210.736 227.068C211.317 227.65 211.644 228.439 211.645 229.262L211.768 250.905C217.022 248.491 221.943 245.409 226.408 241.734C227.648 240.716 228.849 239.653 230.012 238.546C230.773 237.824 231.517 237.085 232.242 236.328C237.678 230.665 242.079 224.094 245.247 216.912H114.484Z" fill="#3F3D56"/>
<path d="M232.242 236.328C231.519 237.086 230.775 237.825 230.013 238.546H211.831V236.328H232.242Z" fill="#F7F7F7"/>
<path d="M192.675 165.369C192.585 165.203 192.452 165.064 192.29 164.968C192.128 164.871 191.943 164.821 191.754 164.821H129.8C129.522 164.821 129.256 164.932 129.06 165.129C128.863 165.325 128.753 165.592 128.753 165.869V202.951H192.803V165.869C192.804 165.694 192.76 165.522 192.675 165.369Z" fill="#3F3D56"/>
<path d="M128.696 201.947V206.523C128.696 206.712 128.734 206.9 128.806 207.075C128.879 207.251 128.985 207.41 129.119 207.544C129.254 207.678 129.413 207.784 129.588 207.857C129.763 207.93 129.951 207.967 130.141 207.967H153.781V216.998H153.467C153.443 216.998 153.418 217.002 153.395 217.012C153.373 217.021 153.352 217.035 153.334 217.053C153.317 217.07 153.303 217.091 153.294 217.113C153.284 217.136 153.28 217.161 153.28 217.185V217.813C153.28 217.838 153.284 217.862 153.294 217.885C153.303 217.908 153.317 217.929 153.334 217.946C153.352 217.963 153.373 217.977 153.395 217.987C153.418 217.996 153.443 218.001 153.467 218.001H168.143C168.168 218.001 168.192 217.996 168.215 217.987C168.237 217.977 168.258 217.963 168.276 217.946C168.293 217.929 168.307 217.908 168.316 217.885C168.326 217.862 168.331 217.838 168.331 217.813V217.185C168.331 217.161 168.326 217.136 168.316 217.113C168.307 217.091 168.293 217.07 168.276 217.053C168.258 217.035 168.237 217.021 168.215 217.012C168.192 217.002 168.168 216.998 168.143 216.998H167.829V207.967H191.469C191.659 207.967 191.847 207.93 192.022 207.857C192.197 207.784 192.357 207.678 192.491 207.544C192.625 207.41 192.731 207.251 192.804 207.075C192.876 206.9 192.914 206.712 192.914 206.523V201.947H128.696Z" fill="#3F3D56"/>
<path d="M160.029 188.813C163.297 188.813 165.946 186.165 165.946 182.897C165.946 179.63 163.297 176.981 160.029 176.981C156.762 176.981 154.113 179.63 154.113 182.897C154.113 186.165 156.762 188.813 160.029 188.813Z" fill="#F3901B"/>
<path d="M175.103 149.693H174.158C174.158 142.55 167.089 137.869 159.957 137.865C158.919 137.862 157.884 137.963 156.867 138.165C155.722 138.394 154.533 138.668 153.365 139.025C148.76 140.437 144.489 143.166 144.489 149.693C144.488 150.961 144.649 152.223 144.969 153.45L144.054 153.688C143.715 152.383 143.543 151.041 143.544 149.693C143.544 143.99 145.885 140.072 149.929 137.736C152.055 136.508 154.65 135.716 157.623 135.331C158.86 135.166 160.11 135.128 161.355 135.217C169.557 135.807 175.103 142.096 175.103 149.693Z" fill="#F3901B"/>
<path d="M176.677 150.216L176.305 147.465C176.213 146.77 175.879 146.13 175.36 145.658C175.027 145.351 174.629 145.123 174.195 144.992C173.762 144.861 173.304 144.83 172.856 144.902L172.265 144.984C172.103 145.005 171.947 145.058 171.806 145.14C171.665 145.222 171.541 145.332 171.443 145.462C171.343 145.591 171.271 145.74 171.229 145.898C171.187 146.056 171.177 146.22 171.199 146.382L172.059 152.72C172.094 152.979 172.21 153.219 172.39 153.408C172.569 153.597 172.804 153.725 173.06 153.773C173.136 153.788 173.213 153.796 173.291 153.796C173.347 153.796 173.402 153.792 173.457 153.784L174.119 153.696C174.522 153.642 174.91 153.507 175.259 153.298C175.608 153.089 175.911 152.811 176.148 152.48C176.199 152.409 176.248 152.335 176.294 152.259C176.648 151.641 176.783 150.921 176.677 150.216Z" fill="#F3901B"/>
<path d="M171.883 145.099C171.71 145.183 171.559 145.308 171.443 145.462C171.343 145.591 171.271 145.74 171.229 145.898C171.187 146.056 171.177 146.22 171.199 146.382L172.059 152.72C172.094 152.979 172.21 153.219 172.39 153.408C172.569 153.597 172.804 153.725 173.06 153.773L171.883 145.099Z" fill="#F7F7F7"/>
<path d="M176.678 150.216L176.305 147.465C176.213 146.77 175.879 146.13 175.36 145.658L176.216 151.964C176.229 152.066 176.255 152.165 176.294 152.259C176.648 151.641 176.783 150.921 176.678 150.216Z" fill="#3F3D56"/>
<path d="M173.735 152.199C173.993 152.164 174.123 151.549 174.025 150.825C173.927 150.101 173.638 149.542 173.379 149.577C173.121 149.612 172.991 150.228 173.089 150.952C173.187 151.676 173.476 152.234 173.735 152.199Z" fill="#3F3D56"/>
<path d="M173.169 148.797C173.427 148.762 173.557 148.147 173.459 147.423C173.361 146.699 173.071 146.141 172.813 146.176C172.554 146.211 172.424 146.826 172.523 147.55C172.621 148.274 172.91 148.832 173.169 148.797Z" fill="#3F3D56"/>
<path d="M176.758 150.12C177.017 150.085 177.147 149.47 177.049 148.746C176.95 148.022 176.661 147.463 176.403 147.499C176.144 147.534 176.014 148.149 176.112 148.873C176.211 149.597 176.5 150.155 176.758 150.12Z" fill="#3F3D56"/>
<path d="M159.957 137.865C158.919 137.862 157.884 137.963 156.867 138.165C155.722 138.394 154.533 138.668 153.365 139.025C151.542 138.936 150.2 138.464 149.93 137.736C152.056 136.508 154.65 135.716 157.623 135.331C158.86 135.166 160.111 135.128 161.355 135.217C161.487 135.295 161.601 135.399 161.69 135.523C161.778 135.648 161.839 135.789 161.869 135.939C161.958 136.597 161.208 137.296 159.957 137.865Z" fill="#3F3D56"/>
<path d="M147.892 156.25L146.437 150.201C146.385 149.983 146.27 149.785 146.106 149.632C145.942 149.479 145.736 149.378 145.515 149.341C145.452 149.332 145.389 149.327 145.326 149.326C145.237 149.327 145.148 149.337 145.061 149.358L144.498 149.495C143.773 149.67 143.147 150.126 142.758 150.762C142.368 151.398 142.247 152.163 142.421 152.889L143.073 155.602C143.222 156.241 143.577 156.813 144.082 157.231C144.164 157.297 144.25 157.359 144.339 157.415C144.656 157.613 145.01 157.746 145.379 157.806C145.748 157.866 146.125 157.851 146.488 157.762L147.049 157.626C147.198 157.592 147.337 157.527 147.459 157.435C147.641 157.303 147.779 157.12 147.856 156.909C147.933 156.698 147.946 156.469 147.892 156.25Z" fill="#F3901B"/>
<path d="M144.842 155.125C145.096 155.064 145.163 154.439 144.992 153.728C144.821 153.018 144.477 152.492 144.223 152.553C143.969 152.614 143.902 153.239 144.073 153.949C144.244 154.66 144.588 155.186 144.842 155.125Z" fill="#3F3D56"/>
<path d="M142.951 155.692C143.205 155.631 143.272 155.006 143.101 154.295C142.93 153.585 142.586 153.059 142.332 153.12C142.079 153.181 142.012 153.806 142.183 154.516C142.353 155.227 142.698 155.753 142.951 155.692Z" fill="#3F3D56"/>
<path d="M147.985 156.228L146.53 150.179C146.473 149.943 146.348 149.728 146.17 149.563C145.993 149.398 145.77 149.288 145.53 149.249L147.516 157.511C147.713 157.367 147.862 157.169 147.945 156.94C148.029 156.712 148.042 156.464 147.985 156.228Z" fill="#F7F7F7"/>
<path d="M142.751 151.69C142.711 151.522 142.635 151.364 142.53 151.227C142.325 151.757 142.287 152.337 142.422 152.889L143.074 155.602C143.223 156.241 143.577 156.813 144.083 157.231L142.751 151.69Z" fill="#3F3D56"/>
</g>
<defs>
<filter id="filter0_f_980_1077" x="0" y="0" width="357" height="373" filterUnits="userSpaceOnUse" color-interpolation-filters="sRGB">
<feFlood flood-opacity="0" result="BackgroundImageFix"/>
<feBlend mode="normal" in="SourceGraphic" in2="BackgroundImageFix" result="shape"/>
<feGaussianBlur stdDeviation="50" result="effect1_foregroundBlur_980_1077"/>
</filter>
<linearGradient id="paint0_linear_980_1077" x1="100" y1="186.5" x2="257" y2="186.5" gradientUnits="userSpaceOnUse">
<stop stop-color="#D3EFC3"/>
<stop offset="1" stop-color="#FCE8CF"/>
</linearGradient>
<linearGradient id="paint1_linear_980_1077" x1="178.5" y1="120" x2="178.5" y2="255" gradientUnits="userSpaceOnUse">
<stop stop-color="#F7F7F7"/>
<stop offset="1" stop-color="#FCE8CF"/>
</linearGradient>
<clipPath id="clip0_980_1077">
<rect width="160.732" height="140" fill="white" transform="translate(106 117)"/>
</clipPath>
</defs>
</svg>
