<svg width="392" height="240" viewBox="0 0 392 240" fill="none" xmlns="http://www.w3.org/2000/svg">
<path d="M0.5 16C0.5 7.43958 7.43959 0.5 16 0.5H376C384.56 0.5 391.5 7.43959 391.5 16V223.866C391.5 232.426 384.56 239.366 376 239.366H16C7.43958 239.366 0.5 232.426 0.5 223.866V16Z" fill="#FDD8DA"/>
<path d="M0.5 16C0.5 7.43958 7.43959 0.5 16 0.5H376C384.56 0.5 391.5 7.43959 391.5 16V223.866C391.5 232.426 384.56 239.366 376 239.366H16C7.43958 239.366 0.5 232.426 0.5 223.866V16Z" stroke="#FAA5A8"/>
<g clip-path="url(#clip0_1794_3266)">
<path fill-rule="evenodd" clip-rule="evenodd" d="M71.8146 32.1523C71.5744 32.0121 68.9511 32.0121 68.7112 32.1523L68.709 42.2632L71.8216 39.2112C71.8222 39.1888 71.8225 39.165 71.8227 39.14C71.8384 36.8263 71.8424 34.4651 71.8146 32.1523ZM68.709 42.3651L68.7088 42.7987L68.7095 42.798L68.7088 42.3651H68.709ZM81.6408 39.8677C81.6599 39.2865 82.1742 38.7442 82.4625 38.542C84.1336 37.37 86.2777 38.4622 86.39 39.867L81.6408 39.8679V39.8677ZM89.186 43.2833H85.9386C85.8613 43.3123 85.0476 44.5608 83.3537 44.1026C82.4353 43.8542 81.7133 43.1914 81.5805 42.1743H89.5673C90.1632 38.9365 87.9198 36.1134 85.4358 35.5667C81.9758 34.805 79.4364 36.8753 78.6455 39.4101C76.7836 45.3786 84.3366 49.363 88.118 44.9652C88.3867 44.6527 89.096 43.7797 89.1859 43.2831L89.186 43.2833ZM33.0811 41.1161C33.0811 45.729 38.1777 48.5635 42.3074 45.6962C43.0537 45.178 44.2316 43.7147 44.4216 42.402H41.1659C40.4101 44.4465 36.3109 44.5544 36.3109 41.0392C36.3109 38.1591 39.6267 37.7297 40.8269 39.3247C41.4597 40.1657 40.7279 39.9067 44.4106 39.9067C43.9437 37.3148 41.3625 35.1481 38.2039 35.4476C35.3501 35.7183 33.0811 38.0073 33.0811 41.1159V41.1161ZM67.8168 42.4189C64.1364 42.4004 64.914 42.1369 64.1829 42.9967C63.974 43.2424 63.8264 43.3627 63.5495 43.5138C62.9859 43.8216 62.2883 43.9286 61.5722 43.7591C60.4512 43.4939 59.7214 42.4551 59.7128 41.1161C59.7042 39.7811 60.4571 38.7168 61.5847 38.4779C62.5799 38.267 63.5228 38.5152 64.1619 39.2583C64.9111 40.1294 63.8631 39.9069 67.7953 39.9069C67.3597 37.1487 64.5229 35.1586 61.5501 35.4519C58.7122 35.7317 56.475 38.0731 56.4826 41.1171C56.4946 45.9186 61.801 48.5029 65.7174 45.6817C66.5288 45.0973 67.5279 43.8511 67.8168 42.4191V42.4189ZM96.4022 46.5114V43.6308C93.2971 43.5773 93.851 42.0007 93.851 38.4689L96.8918 38.4674L96.9202 35.788L93.8508 35.7754L93.8472 32.1018L90.69 32.0908C90.5899 32.6254 90.6203 41.0965 90.6677 42.116C90.8298 45.5981 92.9598 46.5072 96.402 46.5114H96.4022ZM45.4253 46.475L48.6345 46.4929C48.6345 44.8023 48.6377 43.1126 48.6343 41.4232C48.6303 39.3043 49.1757 39.0733 51.1519 38.8916V35.8053C49.8536 35.645 49.0576 36.3466 48.4327 37.2643C48.4327 36.8084 48.5074 36.198 48.3792 35.7761L45.457 35.7777L45.4254 46.4748L45.4253 46.475Z" fill="#3E3E3E"/>
<path fill-rule="evenodd" clip-rule="evenodd" d="M72.2956 43.3431C72.4508 43.0839 74.318 41.2188 74.5826 41.0734C74.7702 40.7471 77.7903 37.778 78.45 37.1413C78.7528 36.849 79.5761 36.1569 79.7534 35.7869L75.6607 35.7808C75.0908 35.7898 75.0691 35.9902 74.7638 36.297C74.589 36.4726 74.1865 36.8816 73.7375 37.3321C73.2637 37.8072 72.738 38.3283 72.3726 38.6702L68.708 42.2633C68.7097 44.2319 68.7213 46.4971 68.77 46.7663L71.3568 44.1833C71.6758 43.9196 72.0148 43.5184 72.2955 43.3431H72.2956Z" fill="#3E3E3E"/>
<path fill-rule="evenodd" clip-rule="evenodd" d="M52.356 46.4559C52.9621 46.5403 54.8257 46.4937 55.5565 46.4918C55.5565 44.9149 55.6144 36.6475 55.5302 35.775L53.0077 35.7742C52.6252 35.7685 52.4045 35.6714 52.3522 35.9751L52.356 46.4559ZM72.2956 43.3431C72.9231 44.0693 74.999 46.4966 75.7377 46.4969L79.7561 46.4917C74.5172 41.0078 79.7561 46.4917 74.5827 41.0732C74.318 41.2187 72.4508 43.0837 72.2958 43.3429L72.2956 43.3431ZM34.7336 50.1612L33.4775 50.1634L34.9256 54.9805H35.9264C36.3305 54.1355 36.4435 52.864 36.8475 51.985C36.9262 52.4088 37.5928 54.7203 37.7451 54.9837L38.7106 54.9423C38.9481 54.6625 40.1653 50.2737 40.1861 50.1587L38.9687 50.1615L38.1953 53.352L37.7166 51.8045C37.6133 51.4369 37.4594 50.5016 37.191 50.3123H36.4998C36.1496 50.5534 35.7559 52.8478 35.5146 53.3514L34.7336 50.1614V50.1612ZM46.8874 52.0571C47.1447 50.5464 49.2941 50.6343 49.5912 52.0571H46.8874ZM50.5478 53.4972H49.4784C49.0035 53.8377 48.9658 54.2802 47.9456 54.1024C47.3327 53.9957 46.9259 53.5724 46.8673 52.9427H50.7182C50.9632 49.4367 46.5642 49.0868 45.7767 51.8555C45.1441 54.0791 47.4584 55.8656 49.431 54.815C49.8285 54.6032 50.4299 53.9957 50.5476 53.4972H50.5478ZM54.7607 52.0571C55.0579 50.5315 57.2474 50.6718 57.4654 52.0571H54.7607ZM53.5657 52.6356C53.5657 53.8343 54.5123 54.8795 55.5661 55.0748C56.907 55.3234 58.2298 54.4352 58.4106 53.4972H57.3887C57.0419 53.6338 57.0228 54.1306 56.2368 54.1306C55.3843 54.1306 54.8536 53.7627 54.7418 52.9436L58.6008 52.9257C58.6982 51.3466 57.8078 50.1386 56.314 50.02C55.4994 49.9554 54.7698 50.2833 54.3538 50.6754C53.9048 51.0982 53.5659 51.8045 53.5659 52.6356H53.5657ZM63.7511 53.5741C63.6728 55.5782 67.3622 55.7163 67.3781 53.5567C67.3865 52.3989 66.5107 52.2999 65.5778 51.9727C64.0449 51.435 65.7471 50.2564 66.1318 51.4668H67.2214C67.123 49.2122 63.304 49.7409 63.8472 51.855C64.0804 52.7629 65.2293 52.7499 65.9261 53.1621C66.3569 53.4169 66.3282 54.0345 65.8159 54.1605C65.1855 54.3155 64.9836 53.9895 64.8404 53.5741H63.7511ZM60.4722 53.5741H59.3709C59.3721 55.2393 61.7762 55.637 62.7221 54.4342C63.2327 53.785 63.0099 52.8016 62.482 52.4573C61.8868 52.0689 60.8533 52.1076 60.5877 51.4838C60.5235 51.06 61.4233 50.4785 61.7634 51.4669H62.8439C62.8648 50.5053 62.0067 49.9464 60.9961 50.0079C60.0804 50.0636 59.2181 50.804 59.4817 51.8445C59.7012 52.7116 60.8485 52.8068 61.4983 53.1356C61.9836 53.3812 61.9745 53.9962 61.5045 54.1451C60.7317 54.3901 60.5796 53.8304 60.4723 53.5741H60.4722ZM52.3679 34.7709L55.5396 34.8038L55.5302 32.0888C54.8809 32.09 53.0556 32 52.5548 32.0861C52.2235 32.1432 52.3557 32.397 52.3559 33.2828C52.356 33.7628 52.3334 34.2981 52.3677 34.7709H52.3679ZM51.5999 54.9766L52.6791 54.9803C52.8749 54.2047 52.7236 49.6477 52.7236 48.486L51.568 48.5053L51.5999 54.9766ZM44.1224 50.713L44.1119 50.1585H43.0277L43.0309 54.9803H44.1413C44.257 54.4251 44.1695 53.1227 44.1785 52.4786C44.1937 51.3948 44.5118 51.3415 45.4374 51.1286L45.4509 50.0494C44.7879 49.9319 44.3743 50.3878 44.1226 50.7129L44.1224 50.713ZM40.7896 50.1585C40.7896 51.0306 40.6797 54.3912 40.8365 54.9818L41.9329 54.9685L41.9358 50.1639L40.7896 50.1585ZM40.7896 49.5064H41.6453L41.9359 49.4936L41.9356 48.5054L41.6455 48.4852L40.7896 48.4885V49.5064Z" fill="#3E3E3E"/>
</g>
<path d="M38.0724 72.0474C38.0192 71.5976 37.8031 71.2484 37.4244 70.9998C37.0456 70.7513 36.581 70.627 36.0305 70.627C35.6281 70.627 35.2759 70.6921 34.9741 70.8223C34.6752 70.9525 34.4414 71.1315 34.2727 71.3594C34.107 71.5873 34.0241 71.8462 34.0241 72.1362C34.0241 72.3789 34.0819 72.5875 34.1973 72.7621C34.3156 72.9337 34.4666 73.0772 34.65 73.1927C34.8335 73.3051 35.0259 73.3983 35.2271 73.4723C35.4283 73.5433 35.6133 73.601 35.782 73.6454L36.7053 73.894C36.942 73.9562 37.2054 74.042 37.4954 74.1515C37.7884 74.261 38.068 74.4104 38.3343 74.5998C38.6036 74.7862 38.8256 75.0259 39.0002 75.3189C39.1748 75.6119 39.2621 75.9714 39.2621 76.3976C39.2621 76.8888 39.1333 77.3327 38.8759 77.7292C38.6214 78.1258 38.2485 78.4409 37.7573 78.6747C37.269 78.9085 36.6757 79.0254 35.9773 79.0254C35.3262 79.0254 34.7625 78.9203 34.286 78.7102C33.8126 78.5001 33.4397 78.2072 33.1674 77.8313C32.8981 77.4555 32.7457 77.019 32.7102 76.5219H33.8466C33.8762 76.8651 33.9916 77.1492 34.1928 77.3741C34.397 77.5961 34.6545 77.7618 34.9652 77.8713C35.2789 77.9778 35.6162 78.0311 35.9773 78.0311C36.3975 78.0311 36.7748 77.963 37.1092 77.8269C37.4436 77.6878 37.7085 77.4955 37.9038 77.2498C38.0991 77.0013 38.1967 76.7112 38.1967 76.3798C38.1967 76.078 38.1124 75.8323 37.9437 75.6429C37.775 75.4536 37.5531 75.2997 37.2779 75.1813C37.0027 75.0629 36.7053 74.9594 36.3857 74.8706L35.267 74.551C34.5568 74.3468 33.9946 74.0553 33.5803 73.6765C33.166 73.2977 32.9588 72.802 32.9588 72.1895C32.9588 71.6805 33.0964 71.2366 33.3716 70.8578C33.6498 70.476 34.0227 70.1801 34.4902 69.97C34.9608 69.7569 35.486 69.6504 36.0661 69.6504C36.652 69.6504 37.1728 69.7555 37.6286 69.9656C38.0843 70.1727 38.4453 70.4568 38.7116 70.8178C38.9809 71.1789 39.123 71.5887 39.1378 72.0474H38.0724ZM43.7887 79.0076C43.1317 79.0076 42.565 78.8626 42.0886 78.5726C41.6151 78.2797 41.2496 77.8713 40.9921 77.3475C40.7376 76.8207 40.6104 76.2082 40.6104 75.5098C40.6104 74.8114 40.7376 74.1959 40.9921 73.6632C41.2496 73.1276 41.6077 72.7103 42.0664 72.4114C42.528 72.1096 43.0666 71.9586 43.6821 71.9586C44.0372 71.9586 44.3879 72.0178 44.7342 72.1362C45.0804 72.2546 45.3956 72.4469 45.6796 72.7133C45.9637 72.9766 46.1901 73.3258 46.3588 73.7608C46.5275 74.1959 46.6118 74.7315 46.6118 75.3677V75.8116H41.3561V74.9061H45.5465C45.5465 74.5214 45.4695 74.1781 45.3157 73.8763C45.1647 73.5744 44.9487 73.3362 44.6676 73.1616C44.3894 72.987 44.0609 72.8997 43.6821 72.8997C43.2649 72.8997 42.9038 73.0033 42.599 73.2104C42.2972 73.4146 42.0649 73.6809 41.9021 74.0094C41.7394 74.3379 41.658 74.6901 41.658 75.0659V75.6696C41.658 76.1845 41.7468 76.621 41.9243 76.9791C42.1048 77.3342 42.3549 77.6049 42.6745 77.7914C42.9941 77.9749 43.3655 78.0666 43.7887 78.0666C44.0639 78.0666 44.3125 78.0281 44.5344 77.9512C44.7593 77.8713 44.9531 77.7529 45.1159 77.5961C45.2787 77.4363 45.4044 77.238 45.4932 77.0013L46.5053 77.2853C46.3987 77.6286 46.2197 77.9305 45.9682 78.1909C45.7166 78.4483 45.4059 78.6496 45.036 78.7946C44.6661 78.9366 44.2503 79.0076 43.7887 79.0076ZM49.253 74.764V78.8656H48.2054V72.0474H49.2175V73.1128H49.3062C49.466 72.7665 49.7087 72.4884 50.0342 72.2782C50.3597 72.0652 50.78 71.9586 51.2949 71.9586C51.7565 71.9586 52.1605 72.0533 52.5067 72.2427C52.8529 72.4292 53.1222 72.7133 53.3146 73.095C53.5069 73.4738 53.6031 73.9532 53.6031 74.5332V78.8656H52.5555V74.6042C52.5555 74.0686 52.4164 73.6513 52.1383 73.3525C51.8601 73.0506 51.4784 72.8997 50.993 72.8997C50.6586 72.8997 50.3597 72.9722 50.0964 73.1172C49.836 73.2622 49.6303 73.4738 49.4794 73.752C49.3284 74.0301 49.253 74.3675 49.253 74.764ZM55.5174 78.8656V72.0474H56.565V78.8656H55.5174ZM56.0501 70.9111C55.8459 70.9111 55.6698 70.8415 55.5218 70.7024C55.3768 70.5633 55.3043 70.3961 55.3043 70.2008C55.3043 70.0055 55.3768 69.8383 55.5218 69.6992C55.6698 69.5601 55.8459 69.4906 56.0501 69.4906C56.2543 69.4906 56.4289 69.5601 56.5739 69.6992C56.7218 69.8383 56.7958 70.0055 56.7958 70.2008C56.7958 70.3961 56.7218 70.5633 56.5739 70.7024C56.4289 70.8415 56.2543 70.9111 56.0501 70.9111ZM61.2536 79.0076C60.6381 79.0076 60.098 78.8612 59.6334 78.5682C59.1717 78.2752 58.8107 77.8654 58.5503 77.3386C58.2928 76.8119 58.1641 76.1963 58.1641 75.492C58.1641 74.7818 58.2928 74.1618 58.5503 73.6321C58.8107 73.1024 59.1717 72.6911 59.6334 72.3981C60.098 72.1051 60.6381 71.9586 61.2536 71.9586C61.8691 71.9586 62.4077 72.1051 62.8694 72.3981C63.334 72.6911 63.695 73.1024 63.9525 73.6321C64.2129 74.1618 64.3431 74.7818 64.3431 75.492C64.3431 76.1963 64.2129 76.8119 63.9525 77.3386C63.695 77.8654 63.334 78.2752 62.8694 78.5682C62.4077 78.8612 61.8691 79.0076 61.2536 79.0076ZM61.2536 78.0666C61.7212 78.0666 62.1059 77.9467 62.4077 77.707C62.7096 77.4673 62.933 77.1522 63.078 76.7616C63.223 76.3709 63.2955 75.9478 63.2955 75.492C63.2955 75.0363 63.223 74.6116 63.078 74.2181C62.933 73.8245 62.7096 73.5063 62.4077 73.2637C62.1059 73.021 61.7212 72.8997 61.2536 72.8997C60.786 72.8997 60.4013 73.021 60.0995 73.2637C59.7976 73.5063 59.5742 73.8245 59.4292 74.2181C59.2842 74.6116 59.2117 75.0363 59.2117 75.492C59.2117 75.9478 59.2842 76.3709 59.4292 76.7616C59.5742 77.1522 59.7976 77.4673 60.0995 77.707C60.4013 77.9467 60.786 78.0666 61.2536 78.0666ZM65.9422 78.8656V72.0474H66.9543V73.0772H67.0253C67.1496 72.7399 67.3745 72.4662 67.7 72.256C68.0255 72.0459 68.3925 71.9409 68.8009 71.9409C68.8778 71.9409 68.974 71.9424 69.0894 71.9453C69.2048 71.9483 69.2921 71.9527 69.3513 71.9586V73.024C69.3158 73.0151 69.2344 73.0018 69.1072 72.984C68.9829 72.9633 68.8512 72.953 68.7121 72.953C68.3807 72.953 68.0847 73.0225 67.8243 73.1616C67.5669 73.2977 67.3627 73.4871 67.2117 73.7298C67.0638 73.9695 66.9898 74.2432 66.9898 74.551V78.8656H65.9422ZM79.2223 72.0474C79.1691 71.5976 78.9531 71.2484 78.5743 70.9998C78.1955 70.7513 77.7309 70.627 77.1804 70.627C76.778 70.627 76.4258 70.6921 76.124 70.8223C75.8251 70.9525 75.5913 71.1315 75.4226 71.3594C75.2569 71.5873 75.1741 71.8462 75.1741 72.1362C75.1741 72.3789 75.2318 72.5875 75.3472 72.7621C75.4655 72.9337 75.6165 73.0772 75.7999 73.1927C75.9834 73.3051 76.1758 73.3983 76.377 73.4723C76.5782 73.5433 76.7632 73.601 76.9319 73.6454L77.8552 73.894C78.0919 73.9562 78.3553 74.042 78.6453 74.1515C78.9383 74.261 79.2179 74.4104 79.4842 74.5998C79.7535 74.7862 79.9755 75.0259 80.1501 75.3189C80.3247 75.6119 80.412 75.9714 80.412 76.3976C80.412 76.8888 80.2832 77.3327 80.0258 77.7292C79.7713 78.1258 79.3984 78.4409 78.9072 78.6747C78.4189 78.9085 77.8256 79.0254 77.1272 79.0254C76.4761 79.0254 75.9124 78.9203 75.4359 78.7102C74.9625 78.5001 74.5896 78.2072 74.3173 77.8313C74.048 77.4555 73.8956 77.019 73.8601 76.5219H74.9965C75.0261 76.8651 75.1415 77.1492 75.3427 77.3741C75.5469 77.5961 75.8044 77.7618 76.1151 77.8713C76.4288 77.9778 76.7661 78.0311 77.1272 78.0311C77.5474 78.0311 77.9247 77.963 78.2591 77.8269C78.5935 77.6878 78.8584 77.4955 79.0537 77.2498C79.249 77.0013 79.3466 76.7112 79.3466 76.3798C79.3466 76.078 79.2623 75.8323 79.0936 75.6429C78.9249 75.4536 78.703 75.2997 78.4278 75.1813C78.1526 75.0629 77.8552 74.9594 77.5356 74.8706L76.4169 74.551C75.7067 74.3468 75.1445 74.0553 74.7302 73.6765C74.3159 73.2977 74.1087 72.802 74.1087 72.1895C74.1087 71.6805 74.2463 71.2366 74.5215 70.8578C74.7997 70.476 75.1726 70.1801 75.6401 69.97C76.1107 69.7569 76.6359 69.6504 77.216 69.6504C77.8019 69.6504 78.3227 69.7555 78.7785 69.9656C79.2342 70.1727 79.5952 70.4568 79.8616 70.8178C80.1308 71.1789 80.2729 71.5887 80.2877 72.0474H79.2223ZM84.8498 79.0076C84.2343 79.0076 83.6942 78.8612 83.2296 78.5682C82.7679 78.2752 82.4069 77.8654 82.1465 77.3386C81.889 76.8119 81.7603 76.1963 81.7603 75.492C81.7603 74.7818 81.889 74.1618 82.1465 73.6321C82.4069 73.1024 82.7679 72.6911 83.2296 72.3981C83.6942 72.1051 84.2343 71.9586 84.8498 71.9586C85.4653 71.9586 86.0039 72.1051 86.4656 72.3981C86.9302 72.6911 87.2912 73.1024 87.5487 73.6321C87.8091 74.1618 87.9393 74.7818 87.9393 75.492C87.9393 76.1963 87.8091 76.8119 87.5487 77.3386C87.2912 77.8654 86.9302 78.2752 86.4656 78.5682C86.0039 78.8612 85.4653 79.0076 84.8498 79.0076ZM84.8498 78.0666C85.3174 78.0666 85.7021 77.9467 86.0039 77.707C86.3058 77.4673 86.5292 77.1522 86.6742 76.7616C86.8192 76.3709 86.8917 75.9478 86.8917 75.492C86.8917 75.0363 86.8192 74.6116 86.6742 74.2181C86.5292 73.8245 86.3058 73.5063 86.0039 73.2637C85.7021 73.021 85.3174 72.8997 84.8498 72.8997C84.3822 72.8997 83.9975 73.021 83.6957 73.2637C83.3938 73.5063 83.1704 73.8245 83.0254 74.2181C82.8804 74.6116 82.8079 75.0363 82.8079 75.492C82.8079 75.9478 82.8804 76.3709 83.0254 76.7616C83.1704 77.1522 83.3938 77.4673 83.6957 77.707C83.9975 77.9467 84.3822 78.0666 84.8498 78.0666ZM92.5746 72.0474V72.9352H88.8992V72.0474H92.5746ZM90 78.8656V71.1064C90 70.7157 90.0918 70.3902 90.2753 70.1298C90.4587 69.8694 90.697 69.6741 90.9899 69.5439C91.2829 69.4137 91.5921 69.3486 91.9177 69.3486C92.1751 69.3486 92.3852 69.3693 92.548 69.4107C92.7107 69.4521 92.8321 69.4906 92.912 69.5261L92.6101 70.4317C92.5569 70.4139 92.4829 70.3917 92.3882 70.3651C92.2964 70.3384 92.1751 70.3251 92.0242 70.3251C91.678 70.3251 91.4279 70.4124 91.274 70.587C91.1231 70.7616 91.0476 71.0176 91.0476 71.3549V78.8656H90ZM97.008 72.0474V72.9352H93.4746V72.0474H97.008ZM94.5044 70.4139H95.552V76.9125C95.552 77.2084 95.5949 77.4303 95.6808 77.5783C95.7695 77.7233 95.882 77.821 96.0181 77.8713C96.1572 77.9186 96.3037 77.9423 96.4576 77.9423C96.573 77.9423 96.6677 77.9364 96.7417 77.9245C96.8156 77.9098 96.8748 77.8979 96.9192 77.889L97.1323 78.8301C97.0613 78.8567 96.9621 78.8834 96.8349 78.91C96.7076 78.9396 96.5463 78.9544 96.351 78.9544C96.0551 78.9544 95.7651 78.8908 95.481 78.7635C95.1999 78.6363 94.9661 78.4424 94.7797 78.182C94.5962 77.9216 94.5044 77.5931 94.5044 77.1966V70.4139ZM100.129 78.8656L98.0511 72.0474H99.152L100.626 77.2676H100.697L102.153 72.0474H103.271L104.71 77.2498H104.781L106.254 72.0474H107.355L105.278 78.8656H104.248L102.756 73.6277H102.65L101.158 78.8656H100.129ZM110.746 79.0254C110.314 79.0254 109.922 78.944 109.57 78.7813C109.218 78.6155 108.938 78.3773 108.731 78.0666C108.524 77.7529 108.42 77.3741 108.42 76.9302C108.42 76.5396 108.497 76.223 108.651 75.9803C108.805 75.7347 109.011 75.5423 109.268 75.4032C109.526 75.2642 109.81 75.1606 110.121 75.0925C110.434 75.0215 110.749 74.9653 111.066 74.9238C111.48 74.8706 111.816 74.8306 112.074 74.804C112.334 74.7744 112.523 74.7256 112.642 74.6575C112.763 74.5894 112.824 74.4711 112.824 74.3024V74.2669C112.824 73.8289 112.704 73.4886 112.464 73.2459C112.228 73.0033 111.868 72.8819 111.386 72.8819C110.886 72.8819 110.493 72.9914 110.209 73.2104C109.925 73.4294 109.725 73.6632 109.61 73.9118L108.616 73.5567C108.793 73.1424 109.03 72.8198 109.326 72.589C109.625 72.3552 109.95 72.1924 110.303 72.1007C110.658 72.006 111.007 71.9586 111.35 71.9586C111.569 71.9586 111.821 71.9853 112.105 72.0385C112.392 72.0888 112.669 72.1939 112.935 72.3537C113.204 72.5135 113.428 72.7547 113.605 73.0772C113.783 73.3998 113.871 73.8319 113.871 74.3734V78.8656H112.824V77.9423H112.771C112.7 78.0903 112.581 78.2486 112.415 78.4173C112.25 78.5859 112.029 78.7295 111.754 78.8478C111.479 78.9662 111.143 79.0254 110.746 79.0254ZM110.906 78.0844C111.321 78.0844 111.67 78.003 111.954 77.8402C112.241 77.6774 112.457 77.4673 112.602 77.2099C112.75 76.9524 112.824 76.6817 112.824 76.3976V75.4388C112.779 75.492 112.682 75.5408 112.531 75.5852C112.383 75.6267 112.211 75.6637 112.016 75.6962C111.824 75.7258 111.636 75.7524 111.452 75.7761C111.272 75.7968 111.125 75.8146 111.013 75.8294C110.741 75.8649 110.486 75.9226 110.249 76.0025C110.016 76.0794 109.826 76.1963 109.681 76.3532C109.539 76.5071 109.468 76.7172 109.468 76.9835C109.468 77.3475 109.603 77.6227 109.872 77.8091C110.144 77.9926 110.489 78.0844 110.906 78.0844ZM115.784 78.8656V72.0474H116.796V73.0772H116.867C116.991 72.7399 117.216 72.4662 117.541 72.256C117.867 72.0459 118.234 71.9409 118.642 71.9409C118.719 71.9409 118.815 71.9424 118.931 71.9453C119.046 71.9483 119.133 71.9527 119.193 71.9586V73.024C119.157 73.0151 119.076 73.0018 118.948 72.984C118.824 72.9633 118.692 72.953 118.553 72.953C118.222 72.953 117.926 73.0225 117.666 73.1616C117.408 73.2977 117.204 73.4871 117.053 73.7298C116.905 73.9695 116.831 74.2432 116.831 74.551V78.8656H115.784ZM123.086 79.0076C122.429 79.0076 121.862 78.8626 121.385 78.5726C120.912 78.2797 120.546 77.8713 120.289 77.3475C120.035 76.8207 119.907 76.2082 119.907 75.5098C119.907 74.8114 120.035 74.1959 120.289 73.6632C120.546 73.1276 120.905 72.7103 121.363 72.4114C121.825 72.1096 122.363 71.9586 122.979 71.9586C123.334 71.9586 123.685 72.0178 124.031 72.1362C124.377 72.2546 124.692 72.4469 124.977 72.7133C125.261 72.9766 125.487 73.3258 125.656 73.7608C125.824 74.1959 125.909 74.7315 125.909 75.3677V75.8116H120.653V74.9061H124.843C124.843 74.5214 124.766 74.1781 124.613 73.8763C124.462 73.5744 124.246 73.3362 123.964 73.1616C123.686 72.987 123.358 72.8997 122.979 72.8997C122.562 72.8997 122.201 73.0033 121.896 73.2104C121.594 73.4146 121.362 73.6809 121.199 74.0094C121.036 74.3379 120.955 74.6901 120.955 75.0659V75.6696C120.955 76.1845 121.044 76.621 121.221 76.9791C121.402 77.3342 121.652 77.6049 121.971 77.7914C122.291 77.9749 122.662 78.0666 123.086 78.0666C123.361 78.0666 123.609 78.0281 123.831 77.9512C124.056 77.8713 124.25 77.7529 124.413 77.5961C124.576 77.4363 124.701 77.238 124.79 77.0013L125.802 77.2853C125.696 77.6286 125.517 77.9305 125.265 78.1909C125.014 78.4483 124.703 78.6496 124.333 78.7946C123.963 78.9366 123.547 79.0076 123.086 79.0076ZM133.592 79.0076C133.024 79.0076 132.523 78.8641 132.088 78.5771C131.653 78.2871 131.312 77.8787 131.067 77.3519C130.821 76.8222 130.698 76.1963 130.698 75.4743C130.698 74.7581 130.821 74.1367 131.067 73.6099C131.312 73.0832 131.654 72.6763 132.092 72.3892C132.53 72.1022 133.036 71.9586 133.61 71.9586C134.054 71.9586 134.405 72.0326 134.662 72.1806C134.923 72.3256 135.121 72.4913 135.257 72.6777C135.396 72.8612 135.504 73.0121 135.581 73.1305H135.67V69.7747H136.717V78.8656H135.705V77.818H135.581C135.504 77.9423 135.395 78.0991 135.253 78.2885C135.111 78.475 134.908 78.6422 134.644 78.7901C134.381 78.9351 134.03 79.0076 133.592 79.0076ZM133.735 78.0666C134.155 78.0666 134.51 77.9571 134.8 77.7381C135.09 77.5162 135.31 77.2099 135.461 76.8193C135.612 76.4257 135.688 75.9714 135.688 75.4565C135.688 74.9475 135.614 74.5021 135.466 74.1204C135.318 73.7357 135.099 73.4368 134.809 73.2237C134.519 73.0077 134.161 72.8997 133.735 72.8997C133.291 72.8997 132.921 73.0136 132.625 73.2415C132.332 73.4664 132.111 73.7727 131.963 74.1603C131.818 74.5451 131.746 74.9771 131.746 75.4565C131.746 75.9418 131.82 76.3828 131.968 76.7793C132.119 77.1729 132.341 77.4866 132.634 77.7204C132.93 77.9512 133.297 78.0666 133.735 78.0666ZM141.64 79.0076C140.983 79.0076 140.417 78.8626 139.94 78.5726C139.467 78.2797 139.101 77.8713 138.844 77.3475C138.589 76.8207 138.462 76.2082 138.462 75.5098C138.462 74.8114 138.589 74.1959 138.844 73.6632C139.101 73.1276 139.459 72.7103 139.918 72.4114C140.38 72.1096 140.918 71.9586 141.534 71.9586C141.889 71.9586 142.239 72.0178 142.586 72.1362C142.932 72.2546 143.247 72.4469 143.531 72.7133C143.815 72.9766 144.042 73.3258 144.21 73.7608C144.379 74.1959 144.463 74.7315 144.463 75.3677V75.8116H139.208V74.9061H143.398C143.398 74.5214 143.321 74.1781 143.167 73.8763C143.016 73.5744 142.8 73.3362 142.519 73.1616C142.241 72.987 141.912 72.8997 141.534 72.8997C141.116 72.8997 140.755 73.0033 140.451 73.2104C140.149 73.4146 139.916 73.6809 139.754 74.0094C139.591 74.3379 139.51 74.6901 139.51 75.0659V75.6696C139.51 76.1845 139.598 76.621 139.776 76.9791C139.956 77.3342 140.206 77.6049 140.526 77.7914C140.846 77.9749 141.217 78.0666 141.64 78.0666C141.915 78.0666 142.164 78.0281 142.386 77.9512C142.611 77.8713 142.805 77.7529 142.967 77.5961C143.13 77.4363 143.256 77.238 143.345 77.0013L144.357 77.2853C144.25 77.6286 144.071 77.9305 143.82 78.1909C143.568 78.4483 143.257 78.6496 142.888 78.7946C142.518 78.9366 142.102 79.0076 141.64 79.0076ZM150.886 73.5744L149.945 73.8407C149.886 73.6839 149.799 73.5315 149.684 73.3835C149.571 73.2326 149.417 73.1083 149.222 73.0107C149.027 72.913 148.777 72.8642 148.472 72.8642C148.054 72.8642 147.707 72.9604 147.429 73.1527C147.153 73.3421 147.016 73.5833 147.016 73.8763C147.016 74.1367 147.11 74.3423 147.3 74.4933C147.489 74.6442 147.785 74.77 148.188 74.8706L149.2 75.1192C149.809 75.2671 150.264 75.4935 150.562 75.7983C150.861 76.1002 151.011 76.4893 151.011 76.9657C151.011 77.3564 150.898 77.7056 150.673 78.0133C150.451 78.3211 150.141 78.5638 149.741 78.7413C149.342 78.9189 148.877 79.0076 148.347 79.0076C147.652 79.0076 147.076 78.8567 146.621 78.5549C146.165 78.253 145.876 77.8121 145.755 77.2321L146.749 76.9835C146.844 77.3504 147.023 77.6257 147.287 77.8091C147.553 77.9926 147.901 78.0844 148.33 78.0844C148.818 78.0844 149.206 77.9808 149.493 77.7736C149.783 77.5635 149.928 77.312 149.928 77.019C149.928 76.7823 149.845 76.584 149.679 76.4242C149.513 76.2614 149.259 76.1401 148.916 76.0602L147.779 75.7939C147.155 75.6459 146.696 75.4166 146.403 75.1058C146.113 74.7922 145.968 74.4 145.968 73.9295C145.968 73.5448 146.076 73.2045 146.292 72.9086C146.511 72.6126 146.809 72.3803 147.184 72.2117C147.563 72.043 147.992 71.9586 148.472 71.9586C149.146 71.9586 149.676 72.1066 150.061 72.4025C150.449 72.6985 150.724 73.0891 150.886 73.5744ZM152.588 78.8656V72.0474H153.635V78.8656H152.588ZM153.12 70.9111C152.916 70.9111 152.74 70.8415 152.592 70.7024C152.447 70.5633 152.375 70.3961 152.375 70.2008C152.375 70.0055 152.447 69.8383 152.592 69.6992C152.74 69.5601 152.916 69.4906 153.12 69.4906C153.325 69.4906 153.499 69.5601 153.644 69.6992C153.792 69.8383 153.866 70.0055 153.866 70.2008C153.866 70.3961 153.792 70.5633 153.644 70.7024C153.499 70.8415 153.325 70.9111 153.12 70.9111ZM158.306 81.5645C157.8 81.5645 157.365 81.4994 157.001 81.3692C156.637 81.2419 156.334 81.0732 156.091 80.8631C155.851 80.656 155.661 80.434 155.519 80.1973L156.353 79.6113C156.448 79.7356 156.568 79.8777 156.713 80.0375C156.858 80.2002 157.056 80.3408 157.307 80.4592C157.562 80.5805 157.895 80.6412 158.306 80.6412C158.857 80.6412 159.311 80.508 159.669 80.2417C160.027 79.9753 160.206 79.5581 160.206 78.9899V77.6049H160.117C160.04 77.7292 159.931 77.8831 159.789 78.0666C159.65 78.2471 159.448 78.4084 159.185 78.5504C158.925 78.6895 158.572 78.7591 158.129 78.7591C157.578 78.7591 157.084 78.6289 156.646 78.3684C156.211 78.108 155.866 77.7292 155.612 77.2321C155.36 76.7349 155.234 76.1312 155.234 75.421C155.234 74.7226 155.357 74.1145 155.603 73.5966C155.848 73.0758 156.19 72.6733 156.628 72.3892C157.066 72.1022 157.572 71.9586 158.146 71.9586C158.59 71.9586 158.942 72.0326 159.203 72.1806C159.466 72.3256 159.667 72.4913 159.807 72.6777C159.949 72.8612 160.058 73.0121 160.135 73.1305H160.242V72.0474H161.254V79.0609C161.254 79.6469 161.12 80.1233 160.854 80.4902C160.591 80.8602 160.236 81.1309 159.789 81.3026C159.345 81.4772 158.851 81.5645 158.306 81.5645ZM158.271 77.818C158.691 77.818 159.046 77.7218 159.336 77.5295C159.626 77.3371 159.846 77.0604 159.997 76.6994C160.148 76.3384 160.224 75.9063 160.224 75.4032C160.224 74.912 160.15 74.4785 160.002 74.1026C159.854 73.7268 159.635 73.4324 159.345 73.2193C159.055 73.0062 158.697 72.8997 158.271 72.8997C157.827 72.8997 157.457 73.0121 157.161 73.237C156.868 73.462 156.647 73.7638 156.5 74.1426C156.355 74.5214 156.282 74.9416 156.282 75.4032C156.282 75.8767 156.356 76.2955 156.504 76.6595C156.655 77.0205 156.877 77.3046 157.17 77.5117C157.466 77.7159 157.833 77.818 158.271 77.818ZM164.219 74.764V78.8656H163.171V72.0474H164.183V73.1128H164.272C164.432 72.7665 164.675 72.4884 165 72.2782C165.326 72.0652 165.746 71.9586 166.261 71.9586C166.722 71.9586 167.126 72.0533 167.473 72.2427C167.819 72.4292 168.088 72.7133 168.28 73.095C168.473 73.4738 168.569 73.9532 168.569 74.5332V78.8656H167.521V74.6042C167.521 74.0686 167.382 73.6513 167.104 73.3525C166.826 73.0506 166.444 72.8997 165.959 72.8997C165.624 72.8997 165.326 72.9722 165.062 73.1172C164.802 73.2622 164.596 73.4738 164.445 73.752C164.294 74.0301 164.219 74.3675 164.219 74.764ZM173.342 79.0076C172.685 79.0076 172.118 78.8626 171.642 78.5726C171.168 78.2797 170.803 77.8713 170.545 77.3475C170.291 76.8207 170.164 76.2082 170.164 75.5098C170.164 74.8114 170.291 74.1959 170.545 73.6632C170.803 73.1276 171.161 72.7103 171.62 72.4114C172.081 72.1096 172.62 71.9586 173.235 71.9586C173.59 71.9586 173.941 72.0178 174.287 72.1362C174.634 72.2546 174.949 72.4469 175.233 72.7133C175.517 72.9766 175.743 73.3258 175.912 73.7608C176.081 74.1959 176.165 74.7315 176.165 75.3677V75.8116H170.909V74.9061H175.1C175.1 74.5214 175.023 74.1781 174.869 73.8763C174.718 73.5744 174.502 73.3362 174.221 73.1616C173.943 72.987 173.614 72.8997 173.235 72.8997C172.818 72.8997 172.457 73.0033 172.152 73.2104C171.85 73.4146 171.618 73.6809 171.455 74.0094C171.293 74.3379 171.211 74.6901 171.211 75.0659V75.6696C171.211 76.1845 171.3 76.621 171.478 76.9791C171.658 77.3342 171.908 77.6049 172.228 77.7914C172.547 77.9749 172.919 78.0666 173.342 78.0666C173.617 78.0666 173.866 78.0281 174.088 77.9512C174.313 77.8713 174.506 77.7529 174.669 77.5961C174.832 77.4363 174.958 77.238 175.046 77.0013L176.059 77.2853C175.952 77.6286 175.773 77.9305 175.521 78.1909C175.27 78.4483 174.959 78.6496 174.589 78.7946C174.219 78.9366 173.804 79.0076 173.342 79.0076ZM177.759 78.8656V72.0474H178.771V73.0772H178.842C178.966 72.7399 179.191 72.4662 179.516 72.256C179.842 72.0459 180.209 71.9409 180.617 71.9409C180.694 71.9409 180.79 71.9424 180.906 71.9453C181.021 71.9483 181.109 71.9527 181.168 71.9586V73.024C181.132 73.0151 181.051 73.0018 180.924 72.984C180.799 72.9633 180.668 72.953 180.528 72.953C180.197 72.953 179.901 73.0225 179.641 73.1616C179.383 73.2977 179.179 73.4871 179.028 73.7298C178.88 73.9695 178.806 74.2432 178.806 74.551V78.8656H177.759ZM183.191 77.6227L183.12 78.1021C183.069 78.4395 182.992 78.8005 182.889 79.1852C182.788 79.5699 182.683 79.9324 182.574 80.2727C182.464 80.6131 182.374 80.8838 182.303 81.0851H181.504C181.542 80.8957 181.593 80.6456 181.655 80.3349C181.717 80.0242 181.779 79.6764 181.841 79.2917C181.906 78.91 181.96 78.5194 182.001 78.1199L182.054 77.6227H183.191ZM32.9411 98.8656V98.0666L35.9418 94.7818C36.2939 94.3971 36.5839 94.0627 36.8118 93.7786C37.0397 93.4915 37.2083 93.2223 37.3178 92.9707C37.4303 92.7162 37.4865 92.4499 37.4865 92.1717C37.4865 91.8521 37.4096 91.5754 37.2557 91.3416C37.1048 91.1078 36.8976 90.9273 36.6342 90.8001C36.3709 90.6728 36.0749 90.6092 35.7464 90.6092C35.3973 90.6092 35.0924 90.6817 34.832 90.8267C34.5746 90.9688 34.3748 91.1685 34.2328 91.426C34.0937 91.6834 34.0241 91.9853 34.0241 92.3315H32.9766C32.9766 91.7988 33.0994 91.3313 33.345 90.9288C33.5906 90.5263 33.925 90.2127 34.3482 89.9878C34.7743 89.7629 35.2522 89.6504 35.782 89.6504C36.3146 89.6504 36.7866 89.7629 37.198 89.9878C37.6093 90.2127 37.9319 90.516 38.1657 90.8977C38.3994 91.2795 38.5163 91.7041 38.5163 92.1717C38.5163 92.5061 38.4557 92.8331 38.3343 93.1527C38.216 93.4694 38.0088 93.823 37.7129 94.2136C37.4199 94.6013 37.013 95.0748 36.4922 95.6341L34.4503 97.818V97.889H38.6761V98.8656H32.9411ZM43.4746 98.9899C42.8058 98.9899 42.2362 98.8079 41.7656 98.4439C41.2951 98.077 40.9355 97.5458 40.687 96.8503C40.4384 96.1519 40.3141 95.3085 40.3141 94.3201C40.3141 93.3377 40.4384 92.4987 40.687 91.8033C40.9385 91.1049 41.2995 90.5722 41.7701 90.2053C42.2435 89.8354 42.8117 89.6504 43.4746 89.6504C44.1375 89.6504 44.7042 89.8354 45.1747 90.2053C45.6482 90.5722 46.0092 91.1049 46.2578 91.8033C46.5094 92.4987 46.6351 93.3377 46.6351 94.3201C46.6351 95.3085 46.5108 96.1519 46.2623 96.8503C46.0137 97.5458 45.6541 98.077 45.1836 98.4439C44.7131 98.8079 44.1434 98.9899 43.4746 98.9899ZM43.4746 98.0133C44.1375 98.0133 44.6524 97.6937 45.0194 97.0545C45.3863 96.4153 45.5698 95.5039 45.5698 94.3201C45.5698 93.533 45.4854 92.8627 45.3168 92.3093C45.151 91.7559 44.9113 91.3342 44.5977 91.0442C44.2869 90.7542 43.9126 90.6092 43.4746 90.6092C42.8176 90.6092 42.3042 90.9332 41.9343 91.5813C41.5644 92.2265 41.3794 93.1394 41.3794 94.3201C41.3794 95.1073 41.4623 95.7761 41.628 96.3265C41.7937 96.877 42.032 97.2957 42.3427 97.5828C42.6564 97.8698 43.0337 98.0133 43.4746 98.0133ZM51.5179 89.7747V98.8656H50.4171V90.9288H50.3638L48.1444 92.4025V91.2839L50.4171 89.7747H51.5179ZM56.9734 98.9899C56.4525 98.9899 55.9835 98.8863 55.5662 98.6792C55.149 98.472 54.8146 98.1879 54.563 97.8269C54.3115 97.4659 54.1739 97.0545 54.1502 96.5929H55.2156C55.257 97.0042 55.4434 97.3445 55.7749 97.6138C56.1093 97.8802 56.5088 98.0133 56.9734 98.0133C57.3462 98.0133 57.6777 97.926 57.9677 97.7514C58.2607 97.5768 58.49 97.3371 58.6557 97.0323C58.8244 96.7246 58.9087 96.3768 58.9087 95.9892C58.9087 95.5926 58.8214 95.239 58.6468 94.9283C58.4752 94.6146 58.2385 94.3675 57.9366 94.187C57.6348 94.0065 57.29 93.9147 56.9023 93.9118C56.6242 93.9088 56.3386 93.9517 56.0456 94.0405C55.7527 94.1263 55.5115 94.2373 55.3221 94.3734L54.2923 94.2491L54.8427 89.7747H59.5657V90.7513H55.766L55.4464 93.4324H55.4996C55.6861 93.2844 55.9199 93.1616 56.201 93.0639C56.4821 92.9663 56.7751 92.9174 57.0799 92.9174C57.6362 92.9174 58.1319 93.0506 58.5669 93.3169C59.0049 93.5803 59.3482 93.9414 59.5968 94.4C59.8483 94.8587 59.9741 95.3825 59.9741 95.9714C59.9741 96.5514 59.8439 97.0693 59.5835 97.525C59.326 97.9778 58.9709 98.3359 58.5181 98.5993C58.0653 98.8597 57.5504 98.9899 56.9734 98.9899ZM65.6614 93.8319V94.8084H61.6842V93.8319H65.6614ZM67.0597 98.8656V98.0666L70.0604 94.7818C70.4126 94.3971 70.7026 94.0627 70.9304 93.7786C71.1583 93.4915 71.327 93.2223 71.4365 92.9707C71.5489 92.7162 71.6052 92.4499 71.6052 92.1717C71.6052 91.8521 71.5282 91.5754 71.3743 91.3416C71.2234 91.1078 71.0163 90.9273 70.7529 90.8001C70.4895 90.6728 70.1936 90.6092 69.8651 90.6092C69.5159 90.6092 69.2111 90.6817 68.9507 90.8267C68.6932 90.9688 68.4935 91.1685 68.3514 91.426C68.2123 91.6834 68.1428 91.9853 68.1428 92.3315H67.0952C67.0952 91.7988 67.218 91.3313 67.4636 90.9288C67.7093 90.5263 68.0437 90.2127 68.4668 89.9878C68.893 89.7629 69.3709 89.6504 69.9006 89.6504C70.4333 89.6504 70.9053 89.7629 71.3166 89.9878C71.728 90.2127 72.0505 90.516 72.2843 90.8977C72.5181 91.2795 72.635 91.7041 72.635 92.1717C72.635 92.5061 72.5743 92.8331 72.453 93.1527C72.3346 93.4694 72.1275 93.823 71.8315 94.2136C71.5386 94.6013 71.1317 95.0748 70.6108 95.6341L68.5689 97.818V97.889H72.7948V98.8656H67.0597ZM77.5933 98.9899C76.9245 98.9899 76.3548 98.8079 75.8843 98.4439C75.4138 98.077 75.0542 97.5458 74.8056 96.8503C74.557 96.1519 74.4328 95.3085 74.4328 94.3201C74.4328 93.3377 74.557 92.4987 74.8056 91.8033C75.0572 91.1049 75.4182 90.5722 75.8887 90.2053C76.3622 89.8354 76.9304 89.6504 77.5933 89.6504C78.2561 89.6504 78.8228 89.8354 79.2934 90.2053C79.7669 90.5722 80.1279 91.1049 80.3765 91.8033C80.628 92.4987 80.7538 93.3377 80.7538 94.3201C80.7538 95.3085 80.6295 96.1519 80.3809 96.8503C80.1323 97.5458 79.7728 98.077 79.3022 98.4439C78.8317 98.8079 78.2621 98.9899 77.5933 98.9899ZM77.5933 98.0133C78.2561 98.0133 78.7711 97.6937 79.138 97.0545C79.505 96.4153 79.6884 95.5039 79.6884 94.3201C79.6884 93.533 79.6041 92.8627 79.4354 92.3093C79.2697 91.7559 79.03 91.3342 78.7163 91.0442C78.4056 90.7542 78.0312 90.6092 77.5933 90.6092C76.9363 90.6092 76.4229 90.9332 76.053 91.5813C75.683 92.2265 75.4981 93.1394 75.4981 94.3201C75.4981 95.1073 75.581 95.7761 75.7467 96.3265C75.9124 96.877 76.1506 97.2957 76.4613 97.5828C76.775 97.8698 77.1523 98.0133 77.5933 98.0133ZM85.6366 89.7747V98.8656H84.5357V90.9288H84.4825L82.263 92.4025V91.2839L84.5357 89.7747H85.6366ZM91.163 98.9899C90.5534 98.9899 90.0148 98.8819 89.5473 98.6658C89.0827 98.4469 88.7202 98.1465 88.4597 97.7647C88.1993 97.38 88.0706 96.9421 88.0736 96.4508C88.0706 96.0661 88.1461 95.711 88.2999 95.3855C88.4538 95.057 88.6639 94.7833 88.9303 94.5643C89.1996 94.3423 89.4999 94.2018 89.8314 94.1426V94.0893C89.3964 93.9769 89.0501 93.7327 88.7927 93.3569C88.5352 92.9781 88.408 92.5475 88.4109 92.0652C88.408 91.6035 88.5248 91.1907 88.7616 90.8267C88.9983 90.4627 89.3238 90.1757 89.7381 89.9656C90.1554 89.7555 90.6304 89.6504 91.163 89.6504C91.6898 89.6504 92.1603 89.7555 92.5746 89.9656C92.9889 90.1757 93.3144 90.4627 93.5512 90.8267C93.7909 91.1907 93.9122 91.6035 93.9152 92.0652C93.9122 92.5475 93.7805 92.9781 93.5201 93.3569C93.2627 93.7327 92.9209 93.9769 92.4947 94.0893V94.1426C92.8232 94.2018 93.1191 94.3423 93.3825 94.5643C93.6459 94.7833 93.856 95.057 94.0128 95.3855C94.1697 95.711 94.2496 96.0661 94.2525 96.4508C94.2496 96.9421 94.1164 97.38 93.853 97.7647C93.5926 98.1465 93.2301 98.4469 92.7655 98.6658C92.3038 98.8819 91.7697 98.9899 91.163 98.9899ZM91.163 98.0133C91.5744 98.0133 91.9295 97.9467 92.2284 97.8136C92.5273 97.6804 92.7581 97.4925 92.9209 97.2498C93.0836 97.0072 93.1665 96.7231 93.1694 96.3976C93.1665 96.0543 93.0777 95.751 92.9031 95.4876C92.7285 95.2242 92.4903 95.0171 92.1884 94.8661C91.8895 94.7152 91.5477 94.6397 91.163 94.6397C90.7754 94.6397 90.4291 94.7152 90.1243 94.8661C89.8225 95.0171 89.5843 95.2242 89.4097 95.4876C89.238 95.751 89.1537 96.0543 89.1566 96.3976C89.1537 96.7231 89.2321 97.0072 89.3919 97.2498C89.5547 97.4925 89.787 97.6804 90.0888 97.8136C90.3907 97.9467 90.7487 98.0133 91.163 98.0133ZM91.163 93.6987C91.4886 93.6987 91.7771 93.6336 92.0286 93.5034C92.2831 93.3732 92.4829 93.1912 92.6279 92.9574C92.7729 92.7236 92.8469 92.4499 92.8498 92.1362C92.8469 91.8284 92.7744 91.5606 92.6323 91.3328C92.4903 91.1019 92.2935 90.9244 92.0419 90.8001C91.7904 90.6728 91.4974 90.6092 91.163 90.6092C90.8227 90.6092 90.5253 90.6728 90.2708 90.8001C90.0163 90.9244 89.8195 91.1019 89.6804 91.3328C89.5414 91.5606 89.4733 91.8284 89.4763 92.1362C89.4733 92.4499 89.5428 92.7236 89.6849 92.9574C89.8299 93.1912 90.0296 93.3732 90.2841 93.5034C90.5386 93.6336 90.8316 93.6987 91.163 93.6987Z" fill="#3E3E3E"/>
<path d="M35.5227 131.866L32.3409 120.229H33.7727L36.2045 129.707H36.3182L38.7955 120.229H40.3864L42.8636 129.707H42.9773L45.4091 120.229H46.8409L43.6591 131.866H42.2045L39.6364 122.593H39.5455L36.9773 131.866H35.5227ZM51.1477 132.047C50.3598 132.047 49.6686 131.86 49.0739 131.485C48.483 131.11 48.0208 130.585 47.6875 129.911C47.358 129.237 47.1932 128.449 47.1932 127.547C47.1932 126.638 47.358 125.845 47.6875 125.167C48.0208 124.489 48.483 123.962 49.0739 123.587C49.6686 123.212 50.3598 123.025 51.1477 123.025C51.9356 123.025 52.625 123.212 53.2159 123.587C53.8106 123.962 54.2727 124.489 54.6023 125.167C54.9356 125.845 55.1023 126.638 55.1023 127.547C55.1023 128.449 54.9356 129.237 54.6023 129.911C54.2727 130.585 53.8106 131.11 53.2159 131.485C52.625 131.86 51.9356 132.047 51.1477 132.047ZM51.1477 130.843C51.7462 130.843 52.2386 130.689 52.625 130.383C53.0114 130.076 53.2973 129.672 53.483 129.172C53.6686 128.672 53.7614 128.131 53.7614 127.547C53.7614 126.964 53.6686 126.421 53.483 125.917C53.2973 125.413 53.0114 125.006 52.625 124.695C52.2386 124.385 51.7462 124.229 51.1477 124.229C50.5492 124.229 50.0568 124.385 49.6705 124.695C49.2841 125.006 48.9981 125.413 48.8125 125.917C48.6269 126.421 48.5341 126.964 48.5341 127.547C48.5341 128.131 48.6269 128.672 48.8125 129.172C48.9981 129.672 49.2841 130.076 49.6705 130.383C50.0568 130.689 50.5492 130.843 51.1477 130.843ZM57.1491 131.866V123.138H58.4446V124.457H58.5355C58.6946 124.025 58.9825 123.674 59.3991 123.405C59.8158 123.136 60.2855 123.002 60.8082 123.002C60.9067 123.002 61.0298 123.004 61.1776 123.008C61.3253 123.011 61.437 123.017 61.5128 123.025V124.388C61.4673 124.377 61.3632 124.36 61.2003 124.337C61.0412 124.311 60.8726 124.297 60.6946 124.297C60.2704 124.297 59.8916 124.386 59.5582 124.564C59.2287 124.739 58.9673 124.981 58.7741 125.292C58.5848 125.599 58.4901 125.949 58.4901 126.343V131.866H57.1491ZM64.3523 128.684L64.3295 127.025H64.6023L68.4205 123.138H70.0795L66.0114 127.252H65.8977L64.3523 128.684ZM63.1023 131.866V120.229H64.4432V131.866H63.1023ZM68.6477 131.866L65.2386 127.547L66.1932 126.616L70.3523 131.866H68.6477ZM75.1051 132.047C74.2642 132.047 73.5388 131.862 72.929 131.491C72.3229 131.116 71.8551 130.593 71.5256 129.922C71.1998 129.248 71.0369 128.464 71.0369 127.57C71.0369 126.676 71.1998 125.888 71.5256 125.207C71.8551 124.521 72.3134 123.987 72.9006 123.604C73.4915 123.218 74.1809 123.025 74.9688 123.025C75.4233 123.025 75.8722 123.1 76.3153 123.252C76.7585 123.403 77.1619 123.65 77.5256 123.991C77.8892 124.328 78.179 124.775 78.3949 125.332C78.6108 125.888 78.7188 126.574 78.7188 127.388V127.957H71.9915V126.797H77.3551C77.3551 126.305 77.2566 125.866 77.0597 125.479C76.8665 125.093 76.59 124.788 76.2301 124.564C75.8741 124.341 75.4536 124.229 74.9688 124.229C74.4347 124.229 73.9725 124.362 73.5824 124.627C73.196 124.888 72.8987 125.229 72.6903 125.65C72.482 126.07 72.3778 126.521 72.3778 127.002V127.775C72.3778 128.434 72.4915 128.992 72.7188 129.451C72.9498 129.905 73.2699 130.252 73.679 130.491C74.0881 130.725 74.5634 130.843 75.1051 130.843C75.4574 130.843 75.7756 130.794 76.0597 130.695C76.3475 130.593 76.5956 130.441 76.804 130.241C77.0123 130.036 77.1733 129.782 77.2869 129.479L78.5824 129.843C78.446 130.282 78.2169 130.669 77.8949 131.002C77.5729 131.332 77.1752 131.589 76.7017 131.775C76.2282 131.957 75.696 132.047 75.1051 132.047ZM84.054 132.047C83.3267 132.047 82.6847 131.864 82.1278 131.496C81.571 131.125 81.1354 130.602 80.821 129.928C80.5066 129.25 80.3494 128.449 80.3494 127.525C80.3494 126.608 80.5066 125.813 80.821 125.138C81.1354 124.464 81.5729 123.943 82.1335 123.576C82.6941 123.208 83.3419 123.025 84.0767 123.025C84.6449 123.025 85.0938 123.119 85.4233 123.309C85.7566 123.494 86.0104 123.707 86.1847 123.945C86.3627 124.18 86.5009 124.373 86.5994 124.525H86.7131V120.229H88.054V131.866H86.7585V130.525H86.5994C86.5009 130.684 86.3608 130.885 86.179 131.127C85.9972 131.366 85.7377 131.58 85.4006 131.769C85.0634 131.955 84.6146 132.047 84.054 132.047ZM84.2358 130.843C84.7737 130.843 85.2282 130.703 85.5994 130.422C85.9706 130.138 86.2528 129.746 86.446 129.246C86.6392 128.742 86.7358 128.161 86.7358 127.502C86.7358 126.85 86.6411 126.28 86.4517 125.792C86.2623 125.299 85.982 124.917 85.6108 124.644C85.2396 124.367 84.7813 124.229 84.2358 124.229C83.6676 124.229 83.1941 124.375 82.8153 124.667C82.4403 124.955 82.1581 125.347 81.9688 125.843C81.7831 126.335 81.6903 126.888 81.6903 127.502C81.6903 128.123 81.785 128.688 81.9744 129.195C82.1676 129.699 82.4517 130.1 82.8267 130.4C83.2055 130.695 83.6752 130.843 84.2358 130.843ZM98.7415 132.047C97.9536 132.047 97.2623 131.86 96.6676 131.485C96.0767 131.11 95.6146 130.585 95.2812 129.911C94.9517 129.237 94.7869 128.449 94.7869 127.547C94.7869 126.638 94.9517 125.845 95.2812 125.167C95.6146 124.489 96.0767 123.962 96.6676 123.587C97.2623 123.212 97.9536 123.025 98.7415 123.025C99.5294 123.025 100.219 123.212 100.81 123.587C101.404 123.962 101.866 124.489 102.196 125.167C102.529 125.845 102.696 126.638 102.696 127.547C102.696 128.449 102.529 129.237 102.196 129.911C101.866 130.585 101.404 131.11 100.81 131.485C100.219 131.86 99.5294 132.047 98.7415 132.047ZM98.7415 130.843C99.34 130.843 99.8324 130.689 100.219 130.383C100.605 130.076 100.891 129.672 101.077 129.172C101.262 128.672 101.355 128.131 101.355 127.547C101.355 126.964 101.262 126.421 101.077 125.917C100.891 125.413 100.605 125.006 100.219 124.695C99.8324 124.385 99.34 124.229 98.7415 124.229C98.143 124.229 97.6506 124.385 97.2642 124.695C96.8778 125.006 96.5919 125.413 96.4062 125.917C96.2206 126.421 96.1278 126.964 96.1278 127.547C96.1278 128.131 96.2206 128.672 96.4062 129.172C96.5919 129.672 96.8778 130.076 97.2642 130.383C97.6506 130.689 98.143 130.843 98.7415 130.843ZM106.084 126.616V131.866H104.743V123.138H106.038V124.502H106.152C106.357 124.059 106.667 123.703 107.084 123.434C107.5 123.161 108.038 123.025 108.697 123.025C109.288 123.025 109.805 123.146 110.249 123.388C110.692 123.627 111.036 123.991 111.283 124.479C111.529 124.964 111.652 125.578 111.652 126.32V131.866H110.311V126.411C110.311 125.725 110.133 125.191 109.777 124.809C109.421 124.422 108.932 124.229 108.311 124.229C107.883 124.229 107.5 124.322 107.163 124.508C106.83 124.693 106.567 124.964 106.374 125.32C106.18 125.676 106.084 126.108 106.084 126.616ZM121.17 132.07C120.617 132.07 120.116 131.966 119.665 131.758C119.214 131.546 118.856 131.241 118.591 130.843C118.326 130.441 118.193 129.957 118.193 129.388C118.193 128.888 118.292 128.483 118.489 128.172C118.686 127.858 118.949 127.612 119.278 127.434C119.608 127.256 119.972 127.123 120.369 127.036C120.771 126.945 121.174 126.873 121.58 126.82C122.11 126.752 122.54 126.701 122.869 126.667C123.203 126.629 123.445 126.566 123.597 126.479C123.752 126.392 123.83 126.241 123.83 126.025V125.979C123.83 125.419 123.676 124.983 123.369 124.672C123.066 124.362 122.606 124.207 121.989 124.207C121.348 124.207 120.847 124.347 120.483 124.627C120.119 124.907 119.864 125.207 119.716 125.525L118.443 125.07C118.67 124.54 118.973 124.127 119.352 123.832C119.735 123.532 120.152 123.324 120.602 123.207C121.057 123.085 121.504 123.025 121.943 123.025C122.223 123.025 122.545 123.059 122.909 123.127C123.277 123.191 123.631 123.326 123.972 123.53C124.316 123.735 124.602 124.044 124.83 124.457C125.057 124.869 125.17 125.422 125.17 126.116V131.866H123.83V130.684H123.761C123.67 130.873 123.519 131.076 123.307 131.292C123.095 131.508 122.813 131.691 122.46 131.843C122.108 131.994 121.678 132.07 121.17 132.07ZM121.375 130.866C121.905 130.866 122.352 130.761 122.716 130.553C123.083 130.345 123.36 130.076 123.545 129.746C123.735 129.417 123.83 129.07 123.83 128.707V127.479C123.773 127.547 123.648 127.61 123.455 127.667C123.265 127.72 123.045 127.767 122.795 127.809C122.549 127.847 122.309 127.881 122.074 127.911C121.843 127.938 121.655 127.96 121.511 127.979C121.163 128.025 120.837 128.099 120.534 128.201C120.235 128.299 119.992 128.449 119.807 128.65C119.625 128.847 119.534 129.116 119.534 129.457C119.534 129.922 119.706 130.275 120.051 130.513C120.4 130.748 120.841 130.866 121.375 130.866ZM135.663 132.047C134.845 132.047 134.141 131.854 133.55 131.468C132.959 131.082 132.504 130.549 132.186 129.871C131.868 129.193 131.709 128.419 131.709 127.547C131.709 126.661 131.872 125.879 132.197 125.201C132.527 124.519 132.985 123.987 133.572 123.604C134.163 123.218 134.853 123.025 135.641 123.025C136.254 123.025 136.807 123.138 137.3 123.366C137.792 123.593 138.196 123.911 138.51 124.32C138.824 124.729 139.019 125.207 139.095 125.752H137.754C137.652 125.354 137.425 125.002 137.072 124.695C136.724 124.385 136.254 124.229 135.663 124.229C135.141 124.229 134.682 124.366 134.288 124.638C133.898 124.907 133.593 125.288 133.374 125.78C133.158 126.269 133.05 126.843 133.05 127.502C133.05 128.176 133.156 128.763 133.368 129.263C133.584 129.763 133.887 130.152 134.277 130.428C134.671 130.705 135.133 130.843 135.663 130.843C136.012 130.843 136.328 130.782 136.612 130.661C136.896 130.54 137.137 130.366 137.334 130.138C137.531 129.911 137.671 129.638 137.754 129.32H139.095C139.019 129.835 138.832 130.299 138.533 130.712C138.237 131.121 137.845 131.447 137.357 131.689C136.872 131.928 136.307 132.047 135.663 132.047ZM146.555 128.297V123.138H147.896V131.866H146.555V130.388H146.464C146.26 130.832 145.942 131.208 145.51 131.519C145.078 131.826 144.533 131.979 143.874 131.979C143.328 131.979 142.843 131.86 142.419 131.621C141.995 131.379 141.661 131.015 141.419 130.53C141.177 130.042 141.055 129.426 141.055 128.684V123.138H142.396V128.593C142.396 129.229 142.574 129.737 142.93 130.116C143.29 130.494 143.749 130.684 144.305 130.684C144.639 130.684 144.978 130.599 145.322 130.428C145.671 130.258 145.963 129.996 146.197 129.644C146.436 129.292 146.555 128.843 146.555 128.297ZM156.534 125.093L155.33 125.434C155.254 125.233 155.142 125.038 154.994 124.849C154.85 124.655 154.653 124.496 154.403 124.371C154.153 124.246 153.833 124.184 153.443 124.184C152.909 124.184 152.464 124.307 152.108 124.553C151.756 124.796 151.58 125.104 151.58 125.479C151.58 125.813 151.701 126.076 151.943 126.269C152.186 126.462 152.564 126.623 153.08 126.752L154.375 127.07C155.155 127.26 155.737 127.549 156.119 127.939C156.502 128.326 156.693 128.824 156.693 129.434C156.693 129.934 156.549 130.381 156.261 130.775C155.977 131.169 155.58 131.479 155.068 131.707C154.557 131.934 153.962 132.047 153.284 132.047C152.394 132.047 151.657 131.854 151.074 131.468C150.491 131.082 150.121 130.517 149.966 129.775L151.239 129.457C151.36 129.926 151.589 130.278 151.926 130.513C152.267 130.748 152.712 130.866 153.261 130.866C153.886 130.866 154.383 130.733 154.75 130.468C155.121 130.199 155.307 129.877 155.307 129.502C155.307 129.199 155.201 128.945 154.989 128.741C154.777 128.532 154.451 128.377 154.011 128.275L152.557 127.934C151.758 127.744 151.17 127.451 150.795 127.053C150.424 126.652 150.239 126.15 150.239 125.547C150.239 125.055 150.377 124.619 150.653 124.241C150.934 123.862 151.314 123.564 151.795 123.349C152.28 123.133 152.83 123.025 153.443 123.025C154.307 123.025 154.985 123.214 155.477 123.593C155.973 123.972 156.326 124.472 156.534 125.093ZM162.507 123.138V124.275H157.984V123.138H162.507ZM159.303 121.047H160.643V129.366C160.643 129.744 160.698 130.028 160.808 130.218C160.922 130.403 161.066 130.528 161.24 130.593C161.418 130.653 161.606 130.684 161.803 130.684C161.95 130.684 162.071 130.676 162.166 130.661C162.261 130.642 162.337 130.627 162.393 130.616L162.666 131.82C162.575 131.854 162.448 131.888 162.286 131.922C162.123 131.96 161.916 131.979 161.666 131.979C161.287 131.979 160.916 131.898 160.553 131.735C160.193 131.572 159.893 131.324 159.655 130.991C159.42 130.657 159.303 130.237 159.303 129.729V121.047ZM167.976 132.047C167.188 132.047 166.497 131.86 165.902 131.485C165.311 131.11 164.849 130.585 164.516 129.911C164.186 129.237 164.021 128.449 164.021 127.547C164.021 126.638 164.186 125.845 164.516 125.167C164.849 124.489 165.311 123.962 165.902 123.587C166.497 123.212 167.188 123.025 167.976 123.025C168.764 123.025 169.453 123.212 170.044 123.587C170.639 123.962 171.101 124.489 171.43 125.167C171.764 125.845 171.93 126.638 171.93 127.547C171.93 128.449 171.764 129.237 171.43 129.911C171.101 130.585 170.639 131.11 170.044 131.485C169.453 131.86 168.764 132.047 167.976 132.047ZM167.976 130.843C168.574 130.843 169.067 130.689 169.453 130.383C169.839 130.076 170.125 129.672 170.311 129.172C170.497 128.672 170.589 128.131 170.589 127.547C170.589 126.964 170.497 126.421 170.311 125.917C170.125 125.413 169.839 125.006 169.453 124.695C169.067 124.385 168.574 124.229 167.976 124.229C167.377 124.229 166.885 124.385 166.499 124.695C166.112 125.006 165.826 125.413 165.641 125.917C165.455 126.421 165.362 126.964 165.362 127.547C165.362 128.131 165.455 128.672 165.641 129.172C165.826 129.672 166.112 130.076 166.499 130.383C166.885 130.689 167.377 130.843 167.976 130.843ZM173.977 131.866V123.138H175.273V124.502H175.386C175.568 124.036 175.862 123.674 176.267 123.417C176.672 123.155 177.159 123.025 177.727 123.025C178.303 123.025 178.782 123.155 179.165 123.417C179.551 123.674 179.852 124.036 180.068 124.502H180.159C180.383 124.051 180.718 123.693 181.165 123.428C181.612 123.159 182.148 123.025 182.773 123.025C183.553 123.025 184.191 123.269 184.688 123.758C185.184 124.242 185.432 124.998 185.432 126.025V131.866H184.091V126.025C184.091 125.381 183.915 124.921 183.562 124.644C183.21 124.367 182.795 124.229 182.318 124.229C181.705 124.229 181.229 124.415 180.892 124.786C180.555 125.153 180.386 125.619 180.386 126.184V131.866H179.023V125.888C179.023 125.392 178.862 124.992 178.54 124.689C178.218 124.383 177.803 124.229 177.295 124.229C176.947 124.229 176.621 124.322 176.318 124.508C176.019 124.693 175.777 124.951 175.591 125.28C175.409 125.606 175.318 125.983 175.318 126.411V131.866H173.977ZM191.543 132.047C190.702 132.047 189.976 131.862 189.366 131.491C188.76 131.116 188.293 130.593 187.963 129.922C187.637 129.248 187.474 128.464 187.474 127.57C187.474 126.676 187.637 125.888 187.963 125.207C188.293 124.521 188.751 123.987 189.338 123.604C189.929 123.218 190.618 123.025 191.406 123.025C191.861 123.025 192.31 123.1 192.753 123.252C193.196 123.403 193.599 123.65 193.963 123.991C194.327 124.328 194.616 124.775 194.832 125.332C195.048 125.888 195.156 126.574 195.156 127.388V127.957H188.429V126.797H193.793C193.793 126.305 193.694 125.866 193.497 125.479C193.304 125.093 193.027 124.788 192.668 124.564C192.312 124.341 191.891 124.229 191.406 124.229C190.872 124.229 190.41 124.362 190.02 124.627C189.634 124.888 189.336 125.229 189.128 125.65C188.92 126.07 188.815 126.521 188.815 127.002V127.775C188.815 128.434 188.929 128.992 189.156 129.451C189.387 129.905 189.707 130.252 190.116 130.491C190.526 130.725 191.001 130.843 191.543 130.843C191.895 130.843 192.213 130.794 192.497 130.695C192.785 130.593 193.033 130.441 193.241 130.241C193.45 130.036 193.611 129.782 193.724 129.479L195.02 129.843C194.884 130.282 194.654 130.669 194.332 131.002C194.01 131.332 193.613 131.589 193.139 131.775C192.666 131.957 192.134 132.047 191.543 132.047ZM197.196 131.866V123.138H198.491V124.457H198.582C198.741 124.025 199.029 123.674 199.446 123.405C199.863 123.136 200.332 123.002 200.855 123.002C200.954 123.002 201.077 123.004 201.224 123.008C201.372 123.011 201.484 123.017 201.56 123.025V124.388C201.514 124.377 201.41 124.36 201.247 124.337C201.088 124.311 200.92 124.297 200.741 124.297C200.317 124.297 199.938 124.386 199.605 124.564C199.276 124.739 199.014 124.981 198.821 125.292C198.632 125.599 198.537 125.949 198.537 126.343V131.866H197.196ZM207.649 131.866V123.138H208.945V124.502H209.058C209.24 124.036 209.534 123.674 209.939 123.417C210.344 123.155 210.831 123.025 211.399 123.025C211.975 123.025 212.454 123.155 212.837 123.417C213.223 123.674 213.524 124.036 213.74 124.502H213.831C214.054 124.051 214.39 123.693 214.837 123.428C215.284 123.159 215.82 123.025 216.445 123.025C217.225 123.025 217.863 123.269 218.359 123.758C218.856 124.242 219.104 124.998 219.104 126.025V131.866H217.763V126.025C217.763 125.381 217.587 124.921 217.234 124.644C216.882 124.367 216.467 124.229 215.99 124.229C215.376 124.229 214.901 124.415 214.564 124.786C214.227 125.153 214.058 125.619 214.058 126.184V131.866H212.695V125.888C212.695 125.392 212.534 124.992 212.212 124.689C211.89 124.383 211.475 124.229 210.967 124.229C210.619 124.229 210.293 124.322 209.99 124.508C209.691 124.693 209.448 124.951 209.263 125.28C209.081 125.606 208.99 125.983 208.99 126.411V131.866H207.649ZM224.124 132.07C223.571 132.07 223.069 131.966 222.618 131.758C222.167 131.546 221.809 131.241 221.544 130.843C221.279 130.441 221.146 129.957 221.146 129.388C221.146 128.888 221.245 128.483 221.442 128.172C221.639 127.858 221.902 127.612 222.232 127.434C222.561 127.256 222.925 127.123 223.322 127.036C223.724 126.945 224.127 126.873 224.533 126.82C225.063 126.752 225.493 126.701 225.822 126.667C226.156 126.629 226.398 126.566 226.55 126.479C226.705 126.392 226.783 126.241 226.783 126.025V125.979C226.783 125.419 226.629 124.983 226.322 124.672C226.019 124.362 225.559 124.207 224.942 124.207C224.302 124.207 223.8 124.347 223.436 124.627C223.072 124.907 222.817 125.207 222.669 125.525L221.396 125.07C221.624 124.54 221.927 124.127 222.305 123.832C222.688 123.532 223.105 123.324 223.555 123.207C224.01 123.085 224.457 123.025 224.896 123.025C225.177 123.025 225.499 123.059 225.862 123.127C226.23 123.191 226.584 123.326 226.925 123.53C227.269 123.735 227.555 124.044 227.783 124.457C228.01 124.869 228.124 125.422 228.124 126.116V131.866H226.783V130.684H226.714C226.624 130.873 226.472 131.076 226.26 131.292C226.048 131.508 225.766 131.691 225.413 131.843C225.061 131.994 224.631 132.07 224.124 132.07ZM224.328 130.866C224.858 130.866 225.305 130.761 225.669 130.553C226.036 130.345 226.313 130.076 226.499 129.746C226.688 129.417 226.783 129.07 226.783 128.707V127.479C226.726 127.547 226.601 127.61 226.408 127.667C226.218 127.72 225.999 127.767 225.749 127.809C225.502 127.847 225.262 127.881 225.027 127.911C224.796 127.938 224.608 127.96 224.464 127.979C224.116 128.025 223.79 128.099 223.487 128.201C223.188 128.299 222.946 128.449 222.76 128.65C222.578 128.847 222.487 129.116 222.487 129.457C222.487 129.922 222.66 130.275 223.004 130.513C223.353 130.748 223.794 130.866 224.328 130.866ZM231.912 126.616V131.866H230.571V123.138H231.866V124.502H231.98C232.185 124.059 232.495 123.703 232.912 123.434C233.329 123.161 233.866 123.025 234.526 123.025C235.116 123.025 235.634 123.146 236.077 123.388C236.52 123.627 236.865 123.991 237.111 124.479C237.357 124.964 237.48 125.578 237.48 126.32V131.866H236.139V126.411C236.139 125.725 235.961 125.191 235.605 124.809C235.249 124.422 234.76 124.229 234.139 124.229C233.711 124.229 233.329 124.322 232.991 124.508C232.658 124.693 232.395 124.964 232.202 125.32C232.009 125.676 231.912 126.108 231.912 126.616ZM242.499 132.07C241.946 132.07 241.444 131.966 240.993 131.758C240.542 131.546 240.184 131.241 239.919 130.843C239.654 130.441 239.521 129.957 239.521 129.388C239.521 128.888 239.62 128.483 239.817 128.172C240.014 127.858 240.277 127.612 240.607 127.434C240.936 127.256 241.3 127.123 241.697 127.036C242.099 126.945 242.502 126.873 242.908 126.82C243.438 126.752 243.868 126.701 244.197 126.667C244.531 126.629 244.773 126.566 244.925 126.479C245.08 126.392 245.158 126.241 245.158 126.025V125.979C245.158 125.419 245.004 124.983 244.697 124.672C244.394 124.362 243.934 124.207 243.317 124.207C242.677 124.207 242.175 124.347 241.811 124.627C241.447 124.907 241.192 125.207 241.044 125.525L239.771 125.07C239.999 124.54 240.302 124.127 240.68 123.832C241.063 123.532 241.48 123.324 241.93 123.207C242.385 123.085 242.832 123.025 243.271 123.025C243.552 123.025 243.874 123.059 244.237 123.127C244.605 123.191 244.959 123.326 245.3 123.53C245.644 123.735 245.93 124.044 246.158 124.457C246.385 124.869 246.499 125.422 246.499 126.116V131.866H245.158V130.684H245.089C244.999 130.873 244.847 131.076 244.635 131.292C244.423 131.508 244.141 131.691 243.788 131.843C243.436 131.994 243.006 132.07 242.499 132.07ZM242.703 130.866C243.233 130.866 243.68 130.761 244.044 130.553C244.411 130.345 244.688 130.076 244.874 129.746C245.063 129.417 245.158 129.07 245.158 128.707V127.479C245.101 127.547 244.976 127.61 244.783 127.667C244.593 127.72 244.374 127.767 244.124 127.809C243.877 127.847 243.637 127.881 243.402 127.911C243.171 127.938 242.983 127.96 242.839 127.979C242.491 128.025 242.165 128.099 241.862 128.201C241.563 128.299 241.321 128.449 241.135 128.65C240.953 128.847 240.862 129.116 240.862 129.457C240.862 129.922 241.035 130.275 241.379 130.513C241.728 130.748 242.169 130.866 242.703 130.866ZM252.469 135.32C251.821 135.32 251.264 135.237 250.798 135.07C250.332 134.907 249.944 134.691 249.634 134.422C249.327 134.157 249.082 133.873 248.901 133.57L249.969 132.82C250.09 132.979 250.243 133.161 250.429 133.366C250.615 133.574 250.868 133.754 251.19 133.905C251.516 134.061 251.942 134.138 252.469 134.138C253.173 134.138 253.755 133.968 254.213 133.627C254.671 133.286 254.901 132.752 254.901 132.025V130.252H254.787C254.688 130.411 254.548 130.608 254.366 130.843C254.188 131.074 253.931 131.28 253.594 131.462C253.26 131.64 252.81 131.729 252.241 131.729C251.537 131.729 250.904 131.563 250.344 131.229C249.787 130.896 249.346 130.411 249.02 129.775C248.698 129.138 248.537 128.366 248.537 127.457C248.537 126.563 248.694 125.784 249.009 125.121C249.323 124.455 249.76 123.939 250.321 123.576C250.882 123.208 251.529 123.025 252.264 123.025C252.832 123.025 253.283 123.119 253.616 123.309C253.954 123.494 254.211 123.707 254.389 123.945C254.571 124.18 254.711 124.373 254.81 124.525H254.946V123.138H256.241V132.116C256.241 132.866 256.071 133.475 255.73 133.945C255.393 134.419 254.938 134.765 254.366 134.985C253.798 135.208 253.166 135.32 252.469 135.32ZM252.423 130.525C252.961 130.525 253.416 130.402 253.787 130.155C254.158 129.909 254.44 129.555 254.634 129.093C254.827 128.631 254.923 128.078 254.923 127.434C254.923 126.805 254.829 126.25 254.639 125.769C254.45 125.288 254.17 124.911 253.798 124.638C253.427 124.366 252.969 124.229 252.423 124.229C251.855 124.229 251.382 124.373 251.003 124.661C250.628 124.949 250.346 125.335 250.156 125.82C249.971 126.305 249.878 126.843 249.878 127.434C249.878 128.04 249.973 128.576 250.162 129.042C250.355 129.504 250.639 129.867 251.014 130.133C251.393 130.394 251.863 130.525 252.423 130.525ZM262.355 132.047C261.514 132.047 260.789 131.862 260.179 131.491C259.573 131.116 259.105 130.593 258.776 129.922C258.45 129.248 258.287 128.464 258.287 127.57C258.287 126.676 258.45 125.888 258.776 125.207C259.105 124.521 259.563 123.987 260.151 123.604C260.741 123.218 261.431 123.025 262.219 123.025C262.673 123.025 263.122 123.1 263.565 123.252C264.009 123.403 264.412 123.65 264.776 123.991C265.139 124.328 265.429 124.775 265.645 125.332C265.861 125.888 265.969 126.574 265.969 127.388V127.957H259.241V126.797H264.605C264.605 126.305 264.507 125.866 264.31 125.479C264.116 125.093 263.84 124.788 263.48 124.564C263.124 124.341 262.704 124.229 262.219 124.229C261.685 124.229 261.223 124.362 260.832 124.627C260.446 124.888 260.149 125.229 259.94 125.65C259.732 126.07 259.628 126.521 259.628 127.002V127.775C259.628 128.434 259.741 128.992 259.969 129.451C260.2 129.905 260.52 130.252 260.929 130.491C261.338 130.725 261.813 130.843 262.355 130.843C262.707 130.843 263.026 130.794 263.31 130.695C263.598 130.593 263.846 130.441 264.054 130.241C264.262 130.036 264.423 129.782 264.537 129.479L265.832 129.843C265.696 130.282 265.467 130.669 265.145 131.002C264.823 131.332 264.425 131.589 263.952 131.775C263.478 131.957 262.946 132.047 262.355 132.047ZM268.009 131.866V123.138H269.304V124.502H269.418C269.599 124.036 269.893 123.674 270.298 123.417C270.704 123.155 271.19 123.025 271.759 123.025C272.334 123.025 272.813 123.155 273.196 123.417C273.582 123.674 273.884 124.036 274.099 124.502H274.19C274.414 124.051 274.749 123.693 275.196 123.428C275.643 123.159 276.179 123.025 276.804 123.025C277.584 123.025 278.223 123.269 278.719 123.758C279.215 124.242 279.463 124.998 279.463 126.025V131.866H278.122V126.025C278.122 125.381 277.946 124.921 277.594 124.644C277.241 124.367 276.827 124.229 276.349 124.229C275.736 124.229 275.26 124.415 274.923 124.786C274.586 125.153 274.418 125.619 274.418 126.184V131.866H273.054V125.888C273.054 125.392 272.893 124.992 272.571 124.689C272.249 124.383 271.834 124.229 271.327 124.229C270.978 124.229 270.652 124.322 270.349 124.508C270.05 124.693 269.808 124.951 269.622 125.28C269.44 125.606 269.349 125.983 269.349 126.411V131.866H268.009ZM285.574 132.047C284.733 132.047 284.008 131.862 283.398 131.491C282.792 131.116 282.324 130.593 281.994 129.922C281.669 129.248 281.506 128.464 281.506 127.57C281.506 126.676 281.669 125.888 281.994 125.207C282.324 124.521 282.782 123.987 283.369 123.604C283.96 123.218 284.65 123.025 285.438 123.025C285.892 123.025 286.341 123.1 286.784 123.252C287.227 123.403 287.631 123.65 287.994 123.991C288.358 124.328 288.648 124.775 288.864 125.332C289.08 125.888 289.188 126.574 289.188 127.388V127.957H282.46V126.797H287.824C287.824 126.305 287.725 125.866 287.528 125.479C287.335 125.093 287.059 124.788 286.699 124.564C286.343 124.341 285.922 124.229 285.438 124.229C284.903 124.229 284.441 124.362 284.051 124.627C283.665 124.888 283.367 125.229 283.159 125.65C282.951 126.07 282.847 126.521 282.847 127.002V127.775C282.847 128.434 282.96 128.992 283.188 129.451C283.419 129.905 283.739 130.252 284.148 130.491C284.557 130.725 285.032 130.843 285.574 130.843C285.926 130.843 286.244 130.794 286.528 130.695C286.816 130.593 287.064 130.441 287.273 130.241C287.481 130.036 287.642 129.782 287.756 129.479L289.051 129.843C288.915 130.282 288.686 130.669 288.364 131.002C288.042 131.332 287.644 131.589 287.17 131.775C286.697 131.957 286.165 132.047 285.574 132.047ZM292.568 126.616V131.866H291.227V123.138H292.523V124.502H292.636C292.841 124.059 293.152 123.703 293.568 123.434C293.985 123.161 294.523 123.025 295.182 123.025C295.773 123.025 296.29 123.146 296.733 123.388C297.176 123.627 297.521 123.991 297.767 124.479C298.013 124.964 298.136 125.578 298.136 126.32V131.866H296.795V126.411C296.795 125.725 296.617 125.191 296.261 124.809C295.905 124.422 295.417 124.229 294.795 124.229C294.367 124.229 293.985 124.322 293.648 124.508C293.314 124.693 293.051 124.964 292.858 125.32C292.665 125.676 292.568 126.108 292.568 126.616ZM304.382 123.138V124.275H299.859V123.138H304.382ZM301.178 121.047H302.518V129.366C302.518 129.744 302.573 130.028 302.683 130.218C302.797 130.403 302.941 130.528 303.115 130.593C303.293 130.653 303.481 130.684 303.678 130.684C303.825 130.684 303.946 130.676 304.041 130.661C304.136 130.642 304.212 130.627 304.268 130.616L304.541 131.82C304.45 131.854 304.323 131.888 304.161 131.922C303.998 131.96 303.791 131.979 303.541 131.979C303.162 131.979 302.791 131.898 302.428 131.735C302.068 131.572 301.768 131.324 301.53 130.991C301.295 130.657 301.178 130.237 301.178 129.729V121.047ZM312.876 131.866L310.217 123.138H311.626L313.513 129.82H313.604L315.467 123.138H316.899L318.74 129.797H318.831L320.717 123.138H322.126L319.467 131.866H318.149L316.24 125.161H316.104L314.195 131.866H312.876ZM327.261 132.047C326.42 132.047 325.695 131.862 325.085 131.491C324.479 131.116 324.011 130.593 323.682 129.922C323.356 129.248 323.193 128.464 323.193 127.57C323.193 126.676 323.356 125.888 323.682 125.207C324.011 124.521 324.47 123.987 325.057 123.604C325.648 123.218 326.337 123.025 327.125 123.025C327.58 123.025 328.028 123.1 328.472 123.252C328.915 123.403 329.318 123.65 329.682 123.991C330.045 124.328 330.335 124.775 330.551 125.332C330.767 125.888 330.875 126.574 330.875 127.388V127.957H324.148V126.797H329.511C329.511 126.305 329.413 125.866 329.216 125.479C329.023 125.093 328.746 124.788 328.386 124.564C328.03 124.341 327.61 124.229 327.125 124.229C326.591 124.229 326.129 124.362 325.739 124.627C325.352 124.888 325.055 125.229 324.847 125.65C324.638 126.07 324.534 126.521 324.534 127.002V127.775C324.534 128.434 324.648 128.992 324.875 129.451C325.106 129.905 325.426 130.252 325.835 130.491C326.244 130.725 326.72 130.843 327.261 130.843C327.614 130.843 327.932 130.794 328.216 130.695C328.504 130.593 328.752 130.441 328.96 130.241C329.169 130.036 329.33 129.782 329.443 129.479L330.739 129.843C330.602 130.282 330.373 130.669 330.051 131.002C329.729 131.332 329.331 131.589 328.858 131.775C328.384 131.957 327.852 132.047 327.261 132.047ZM333.097 131.866V120.229H334.438V124.525H334.551C334.65 124.373 334.786 124.18 334.96 123.945C335.138 123.707 335.392 123.494 335.722 123.309C336.055 123.119 336.506 123.025 337.074 123.025C337.809 123.025 338.456 123.208 339.017 123.576C339.578 123.943 340.015 124.464 340.33 125.138C340.644 125.813 340.801 126.608 340.801 127.525C340.801 128.449 340.644 129.25 340.33 129.928C340.015 130.602 339.58 131.125 339.023 131.496C338.466 131.864 337.824 132.047 337.097 132.047C336.536 132.047 336.087 131.955 335.75 131.769C335.413 131.58 335.153 131.366 334.972 131.127C334.79 130.885 334.65 130.684 334.551 130.525H334.392V131.866H333.097ZM334.415 127.502C334.415 128.161 334.511 128.742 334.705 129.246C334.898 129.746 335.18 130.138 335.551 130.422C335.922 130.703 336.377 130.843 336.915 130.843C337.475 130.843 337.943 130.695 338.318 130.4C338.697 130.1 338.981 129.699 339.17 129.195C339.364 128.688 339.46 128.123 339.46 127.502C339.46 126.888 339.366 126.335 339.176 125.843C338.991 125.347 338.708 124.955 338.33 124.667C337.955 124.375 337.483 124.229 336.915 124.229C336.369 124.229 335.911 124.367 335.54 124.644C335.169 124.917 334.888 125.299 334.699 125.792C334.509 126.28 334.415 126.85 334.415 127.502ZM33.2273 163.138V151.138H34.5227V152.525H34.6818C34.7803 152.373 34.9167 152.18 35.0909 151.945C35.2689 151.707 35.5227 151.494 35.8523 151.309C36.1856 151.119 36.6364 151.025 37.2045 151.025C37.9394 151.025 38.5871 151.208 39.1477 151.576C39.7083 151.943 40.1458 152.464 40.4602 153.138C40.7746 153.813 40.9318 154.608 40.9318 155.525C40.9318 156.449 40.7746 157.25 40.4602 157.928C40.1458 158.602 39.7102 159.125 39.1534 159.496C38.5966 159.864 37.9545 160.047 37.2273 160.047C36.6667 160.047 36.2178 159.955 35.8807 159.769C35.5436 159.58 35.2841 159.366 35.1023 159.127C34.9205 158.885 34.7803 158.684 34.6818 158.525H34.5682V163.138H33.2273ZM34.5455 155.502C34.5455 156.161 34.642 156.742 34.8352 157.246C35.0284 157.746 35.3106 158.138 35.6818 158.422C36.053 158.703 36.5076 158.843 37.0455 158.843C37.6061 158.843 38.0739 158.695 38.4489 158.4C38.8277 158.1 39.1117 157.699 39.3011 157.195C39.4943 156.688 39.5909 156.123 39.5909 155.502C39.5909 154.888 39.4962 154.335 39.3068 153.843C39.1212 153.347 38.839 152.955 38.4602 152.667C38.0852 152.375 37.6136 152.229 37.0455 152.229C36.5 152.229 36.0417 152.367 35.6705 152.644C35.2992 152.917 35.0189 153.299 34.8295 153.792C34.6402 154.28 34.5455 154.85 34.5455 155.502ZM46.5227 160.047C45.7348 160.047 45.0436 159.86 44.4489 159.485C43.858 159.11 43.3958 158.585 43.0625 157.911C42.733 157.237 42.5682 156.449 42.5682 155.547C42.5682 154.638 42.733 153.845 43.0625 153.167C43.3958 152.489 43.858 151.962 44.4489 151.587C45.0436 151.212 45.7348 151.025 46.5227 151.025C47.3106 151.025 48 151.212 48.5909 151.587C49.1856 151.962 49.6477 152.489 49.9773 153.167C50.3106 153.845 50.4773 154.638 50.4773 155.547C50.4773 156.449 50.3106 157.237 49.9773 157.911C49.6477 158.585 49.1856 159.11 48.5909 159.485C48 159.86 47.3106 160.047 46.5227 160.047ZM46.5227 158.843C47.1212 158.843 47.6136 158.689 48 158.383C48.3864 158.076 48.6723 157.672 48.858 157.172C49.0436 156.672 49.1364 156.131 49.1364 155.547C49.1364 154.964 49.0436 154.421 48.858 153.917C48.6723 153.413 48.3864 153.006 48 152.695C47.6136 152.385 47.1212 152.229 46.5227 152.229C45.9242 152.229 45.4318 152.385 45.0455 152.695C44.6591 153.006 44.3731 153.413 44.1875 153.917C44.0019 154.421 43.9091 154.964 43.9091 155.547C43.9091 156.131 44.0019 156.672 44.1875 157.172C44.3731 157.672 44.6591 158.076 45.0455 158.383C45.4318 158.689 45.9242 158.843 46.5227 158.843ZM52.5241 159.866V151.138H53.8196V152.457H53.9105C54.0696 152.025 54.3575 151.674 54.7741 151.405C55.1908 151.136 55.6605 151.002 56.1832 151.002C56.2817 151.002 56.4048 151.004 56.5526 151.008C56.7003 151.011 56.812 151.017 56.8878 151.025V152.388C56.8423 152.377 56.7382 152.36 56.5753 152.337C56.4162 152.311 56.2476 152.297 56.0696 152.297C55.6454 152.297 55.2666 152.386 54.9332 152.564C54.6037 152.739 54.3423 152.981 54.1491 153.292C53.9598 153.599 53.8651 153.949 53.8651 154.343V159.866H52.5241ZM62.8196 151.138V152.275H58.2969V151.138H62.8196ZM59.6151 149.047H60.956V157.366C60.956 157.744 61.0109 158.028 61.1207 158.218C61.2344 158.403 61.3783 158.528 61.5526 158.593C61.7306 158.653 61.9181 158.684 62.1151 158.684C62.2628 158.684 62.384 158.676 62.4787 158.661C62.5734 158.642 62.6491 158.627 62.706 158.616L62.9787 159.82C62.8878 159.854 62.7609 159.888 62.598 159.922C62.4351 159.96 62.2287 159.979 61.9787 159.979C61.5999 159.979 61.2287 159.898 60.8651 159.735C60.5052 159.572 60.206 159.324 59.9673 158.991C59.7325 158.657 59.6151 158.237 59.6151 157.729V149.047ZM67.4048 160.07C66.8518 160.07 66.3499 159.966 65.8991 159.758C65.4484 159.546 65.0904 159.241 64.8253 158.843C64.5601 158.441 64.4276 157.957 64.4276 157.388C64.4276 156.888 64.526 156.483 64.723 156.172C64.92 155.858 65.1832 155.612 65.5128 155.434C65.8423 155.256 66.206 155.123 66.6037 155.036C67.0052 154.945 67.4086 154.873 67.8139 154.82C68.3442 154.752 68.7741 154.701 69.1037 154.667C69.437 154.629 69.6795 154.566 69.831 154.479C69.9863 154.392 70.0639 154.241 70.0639 154.025V153.979C70.0639 153.419 69.9105 152.983 69.6037 152.672C69.3007 152.362 68.8404 152.207 68.223 152.207C67.5829 152.207 67.081 152.347 66.7173 152.627C66.3537 152.907 66.098 153.207 65.9503 153.525L64.6776 153.07C64.9048 152.54 65.2079 152.127 65.5866 151.832C65.9692 151.532 66.3859 151.324 66.8366 151.207C67.2912 151.085 67.7382 151.025 68.1776 151.025C68.4579 151.025 68.7798 151.059 69.1435 151.127C69.5109 151.191 69.8651 151.326 70.206 151.53C70.5507 151.735 70.8366 152.044 71.0639 152.457C71.2912 152.869 71.4048 153.422 71.4048 154.116V159.866H70.0639V158.684H69.9957C69.9048 158.873 69.7533 159.076 69.5412 159.292C69.3291 159.508 69.0469 159.691 68.6946 159.843C68.3423 159.994 67.9124 160.07 67.4048 160.07ZM67.6094 158.866C68.1397 158.866 68.5866 158.761 68.9503 158.553C69.3177 158.345 69.5942 158.076 69.7798 157.746C69.9692 157.417 70.0639 157.07 70.0639 156.707V155.479C70.0071 155.547 69.8821 155.61 69.6889 155.667C69.4995 155.72 69.2798 155.767 69.0298 155.809C68.7836 155.847 68.5431 155.881 68.3082 155.911C68.0772 155.938 67.8897 155.96 67.7457 155.979C67.3973 156.025 67.0715 156.099 66.7685 156.201C66.4692 156.299 66.2268 156.449 66.0412 156.65C65.8594 156.847 65.7685 157.116 65.7685 157.457C65.7685 157.922 65.9408 158.275 66.2855 158.513C66.634 158.748 67.0753 158.866 67.6094 158.866ZM75.1932 148.229V159.866H73.8523V148.229H75.1932Z" fill="black"/>
<path d="M44 176.366H144C150.351 176.366 155.5 181.514 155.5 187.866V195.866C155.5 202.217 150.351 207.366 144 207.366H44C37.6487 207.366 32.5 202.217 32.5 195.866V187.866C32.5 181.514 37.6487 176.366 44 176.366Z" stroke="#F64C53"/>
<path d="M58.0666 189.878H56.1408C56.0859 189.562 55.9846 189.283 55.837 189.039C55.6894 188.792 55.5057 188.582 55.286 188.411C55.0663 188.239 54.8158 188.11 54.5343 188.025C54.2562 187.935 53.9558 187.891 53.6332 187.891C53.0599 187.891 52.5518 188.035 52.109 188.323C51.6662 188.608 51.3195 189.027 51.0689 189.58C50.8183 190.129 50.693 190.8 50.693 191.593C50.693 192.4 50.8183 193.079 51.0689 193.632C51.3229 194.181 51.6696 194.597 52.109 194.878C52.5518 195.156 53.0582 195.295 53.628 195.295C53.9438 195.295 54.2391 195.254 54.5137 195.172C54.7917 195.086 55.0406 194.96 55.2603 194.796C55.4834 194.631 55.6705 194.428 55.8216 194.188C55.976 193.948 56.0824 193.673 56.1408 193.364L58.0666 193.374C57.9945 193.876 57.8383 194.346 57.598 194.785C57.3612 195.225 57.0505 195.613 56.666 195.949C56.2815 196.282 55.8319 196.543 55.3169 196.732C54.802 196.917 54.2305 197.01 53.6023 197.01C52.6754 197.01 51.8481 196.795 51.1204 196.366C50.3926 195.937 49.8194 195.317 49.4006 194.507C48.9818 193.697 48.7724 192.726 48.7724 191.593C48.7724 190.457 48.9835 189.485 49.4057 188.678C49.8279 187.868 50.4029 187.249 51.1307 186.82C51.8584 186.391 52.6823 186.176 53.6023 186.176C54.1893 186.176 54.7351 186.258 55.2397 186.423C55.7443 186.588 56.194 186.83 56.5888 187.149C56.9835 187.465 57.3079 187.853 57.562 188.313C57.8194 188.769 57.9876 189.291 58.0666 189.878ZM62.0095 197.025C61.5084 197.025 61.057 196.936 60.6553 196.757C60.2571 196.576 59.9413 196.308 59.7079 195.954C59.4779 195.601 59.3629 195.165 59.3629 194.646C59.3629 194.2 59.4453 193.831 59.61 193.539C59.7748 193.247 59.9997 193.014 60.2846 192.839C60.5695 192.664 60.8905 192.532 61.2475 192.442C61.6079 192.35 61.9804 192.283 62.3648 192.242C62.8283 192.194 63.2041 192.151 63.4925 192.113C63.7809 192.072 63.9902 192.01 64.1207 191.928C64.2546 191.842 64.3215 191.71 64.3215 191.531V191.5C64.3215 191.112 64.2065 190.812 63.9765 190.599C63.7465 190.386 63.4153 190.28 62.9827 190.28C62.5262 190.28 62.164 190.379 61.8963 190.578C61.6319 190.778 61.4534 191.013 61.3608 191.284L59.6203 191.037C59.7576 190.556 59.9842 190.155 60.3 189.832C60.6158 189.506 61.002 189.262 61.4586 189.101C61.9151 188.936 62.4198 188.854 62.9724 188.854C63.3535 188.854 63.7328 188.898 64.1104 188.987C64.488 189.077 64.833 189.224 65.1454 189.43C65.4578 189.633 65.7083 189.909 65.8972 190.259C66.0894 190.609 66.1855 191.047 66.1855 191.572V196.866H64.3936V195.779H64.3318C64.2185 195.999 64.0589 196.205 63.8529 196.397C63.6504 196.586 63.3947 196.739 63.0857 196.855C62.7802 196.969 62.4215 197.025 62.0095 197.025ZM62.4936 195.656C62.8677 195.656 63.1921 195.582 63.4668 195.434C63.7414 195.283 63.9525 195.084 64.1001 194.837C64.2511 194.59 64.3267 194.32 64.3267 194.028V193.096C64.2683 193.144 64.1688 193.189 64.028 193.23C63.8907 193.271 63.7362 193.308 63.5646 193.338C63.3929 193.369 63.223 193.397 63.0548 193.421C62.8866 193.445 62.7407 193.465 62.6171 193.483C62.3391 193.52 62.0902 193.582 61.8705 193.668C61.6508 193.754 61.4775 193.874 61.3505 194.028C61.2234 194.179 61.1599 194.375 61.1599 194.615C61.1599 194.959 61.2852 195.218 61.5358 195.393C61.7864 195.568 62.1057 195.656 62.4936 195.656ZM74.3109 191.047L72.6116 191.232C72.5636 191.061 72.4795 190.899 72.3593 190.748C72.2426 190.597 72.0847 190.476 71.8856 190.383C71.6865 190.29 71.4428 190.244 71.1544 190.244C70.7665 190.244 70.4404 190.328 70.1761 190.496C69.9152 190.664 69.7865 190.882 69.7899 191.15C69.7865 191.38 69.8706 191.567 70.0422 191.711C70.2173 191.855 70.5056 191.974 70.9073 192.067L72.2563 192.355C73.0047 192.516 73.5608 192.772 73.9247 193.122C74.292 193.472 74.4773 193.931 74.4808 194.497C74.4773 194.995 74.3315 195.434 74.0431 195.815C73.7582 196.193 73.3617 196.488 72.8536 196.701C72.3456 196.914 71.762 197.02 71.1029 197.02C70.1349 197.02 69.3557 196.818 68.7652 196.412C68.1748 196.004 67.8229 195.436 67.7097 194.708L69.5273 194.533C69.6097 194.89 69.7848 195.16 70.0525 195.341C70.3203 195.523 70.6687 195.614 71.0978 195.614C71.5406 195.614 71.8959 195.523 72.1637 195.341C72.4349 195.16 72.5704 194.935 72.5704 194.667C72.5704 194.44 72.4829 194.253 72.3078 194.106C72.1362 193.958 71.8684 193.845 71.5046 193.766L70.1555 193.483C69.3969 193.325 68.8356 193.059 68.4717 192.684C68.1079 192.307 67.9276 191.83 67.9311 191.253C67.9276 190.766 68.0598 190.343 68.3275 189.986C68.5987 189.626 68.9746 189.348 69.4552 189.152C69.9392 188.953 70.4971 188.854 71.1287 188.854C72.0555 188.854 72.785 189.051 73.3171 189.446C73.8526 189.84 74.1838 190.374 74.3109 191.047ZM79.5192 197.02C78.7263 197.02 78.0414 196.855 77.4647 196.526C76.8914 196.193 76.4503 195.722 76.1414 195.115C75.8324 194.504 75.678 193.785 75.678 192.957C75.678 192.144 75.8324 191.43 76.1414 190.815C76.4538 190.197 76.8897 189.717 77.4493 189.374C78.0088 189.027 78.6662 188.854 79.4214 188.854C79.9088 188.854 80.3688 188.932 80.8014 189.09C81.2373 189.245 81.6218 189.485 81.9548 189.811C82.2912 190.137 82.5555 190.553 82.7477 191.057C82.94 191.559 83.0361 192.156 83.0361 192.849V193.421H76.5533V192.164H81.2493C81.2459 191.807 81.1687 191.49 81.0176 191.212C80.8666 190.93 80.6555 190.709 80.3843 190.548C80.1165 190.386 79.8041 190.306 79.4471 190.306C79.0661 190.306 78.7314 190.398 78.443 190.584C78.1547 190.766 77.9299 191.006 77.7685 191.305C77.6106 191.6 77.5299 191.924 77.5265 192.278V193.374C77.5265 193.834 77.6106 194.229 77.7788 194.559C77.947 194.885 78.1822 195.135 78.4842 195.311C78.7863 195.482 79.1399 195.568 79.545 195.568C79.8162 195.568 80.0616 195.53 80.2813 195.455C80.501 195.376 80.6915 195.261 80.8528 195.11C81.0142 194.959 81.1361 194.772 81.2184 194.548L82.9589 194.744C82.849 195.204 82.6396 195.606 82.3307 195.949C82.0251 196.289 81.6338 196.553 81.1566 196.742C80.6795 196.927 80.1337 197.02 79.5192 197.02ZM94.4608 191.047L92.7615 191.232C92.7135 191.061 92.6294 190.899 92.5092 190.748C92.3925 190.597 92.2346 190.476 92.0355 190.383C91.8364 190.29 91.5927 190.244 91.3043 190.244C90.9164 190.244 90.5903 190.328 90.326 190.496C90.0651 190.664 89.9364 190.882 89.9398 191.15C89.9364 191.38 90.0205 191.567 90.1921 191.711C90.3672 191.855 90.6555 191.974 91.0572 192.067L92.4062 192.355C93.1546 192.516 93.7107 192.772 94.0746 193.122C94.4419 193.472 94.6272 193.931 94.6307 194.497C94.6272 194.995 94.4814 195.434 94.193 195.815C93.9081 196.193 93.5116 196.488 93.0036 196.701C92.4955 196.914 91.9119 197.02 91.2528 197.02C90.2848 197.02 89.5056 196.818 88.9151 196.412C88.3247 196.004 87.9728 195.436 87.8596 194.708L89.6772 194.533C89.7596 194.89 89.9347 195.16 90.2024 195.341C90.4702 195.523 90.8186 195.614 91.2477 195.614C91.6905 195.614 92.0458 195.523 92.3136 195.341C92.5848 195.16 92.7203 194.935 92.7203 194.667C92.7203 194.44 92.6328 194.253 92.4577 194.106C92.2861 193.958 92.0183 193.845 91.6545 193.766L90.3054 193.483C89.5468 193.325 88.9855 193.059 88.6216 192.684C88.2578 192.307 88.0775 191.83 88.081 191.253C88.0775 190.766 88.2097 190.343 88.4775 189.986C88.7486 189.626 89.1245 189.348 89.6051 189.152C90.0891 188.953 90.647 188.854 91.2786 188.854C92.2054 188.854 92.9349 189.051 93.467 189.446C94.0025 189.84 94.3337 190.374 94.4608 191.047ZM100.117 188.957V190.398H95.5704V188.957H100.117ZM96.6929 187.062H98.5569V194.487C98.5569 194.737 98.5947 194.93 98.6702 195.063C98.7491 195.194 98.8521 195.283 98.9791 195.331C99.1061 195.379 99.2469 195.403 99.4014 195.403C99.5181 195.403 99.6245 195.395 99.7206 195.377C99.8202 195.36 99.8957 195.345 99.9472 195.331L100.261 196.788C100.162 196.823 100.019 196.86 99.8339 196.902C99.652 196.943 99.4288 196.967 99.1645 196.974C98.6977 196.987 98.2771 196.917 97.903 196.763C97.5288 196.605 97.2319 196.361 97.0122 196.031C96.7959 195.702 96.6895 195.29 96.6929 194.796V187.062ZM106.717 193.539V188.957H108.581V196.866H106.774V195.46H106.691C106.513 195.903 106.219 196.265 105.811 196.546C105.406 196.828 104.906 196.969 104.312 196.969C103.794 196.969 103.336 196.854 102.938 196.624C102.543 196.39 102.234 196.052 102.011 195.609C101.788 195.163 101.676 194.624 101.676 193.992V188.957H103.54V193.704C103.54 194.205 103.677 194.603 103.952 194.899C104.227 195.194 104.587 195.341 105.033 195.341C105.308 195.341 105.574 195.275 105.831 195.141C106.089 195.007 106.3 194.808 106.465 194.543C106.633 194.276 106.717 193.941 106.717 193.539ZM113.433 197.005C112.811 197.005 112.255 196.845 111.764 196.526C111.274 196.207 110.886 195.743 110.601 195.135C110.316 194.528 110.173 193.79 110.173 192.921C110.173 192.043 110.318 191.301 110.606 190.697C110.898 190.089 111.291 189.631 111.785 189.322C112.279 189.01 112.83 188.854 113.438 188.854C113.901 188.854 114.282 188.932 114.581 189.09C114.88 189.245 115.117 189.432 115.292 189.652C115.467 189.868 115.602 190.072 115.698 190.264H115.776V186.32H117.645V196.866H115.812V195.62H115.698C115.602 195.812 115.463 196.016 115.281 196.232C115.099 196.445 114.859 196.627 114.56 196.778C114.262 196.929 113.886 197.005 113.433 197.005ZM113.953 195.475C114.348 195.475 114.684 195.369 114.962 195.156C115.24 194.94 115.451 194.639 115.595 194.255C115.74 193.871 115.812 193.423 115.812 192.911C115.812 192.4 115.74 191.955 115.595 191.577C115.455 191.2 115.245 190.906 114.967 190.697C114.693 190.488 114.354 190.383 113.953 190.383C113.537 190.383 113.191 190.491 112.913 190.707C112.635 190.923 112.425 191.222 112.285 191.603C112.144 191.984 112.073 192.42 112.073 192.911C112.073 193.405 112.144 193.846 112.285 194.234C112.429 194.619 112.64 194.923 112.918 195.146C113.199 195.365 113.544 195.475 113.953 195.475ZM120.79 199.832C120.536 199.832 120.3 199.811 120.084 199.77C119.871 199.732 119.701 199.687 119.574 199.636L120.007 198.184C120.278 198.263 120.52 198.3 120.733 198.297C120.946 198.294 121.133 198.227 121.294 198.096C121.459 197.969 121.598 197.756 121.711 197.458L121.871 197.03L119.003 188.957H120.98L122.803 194.93H122.885L124.713 188.957H126.696L123.529 197.823C123.381 198.242 123.186 198.601 122.942 198.9C122.698 199.202 122.4 199.432 122.046 199.589C121.696 199.751 121.277 199.832 120.79 199.832Z" fill="#F64C53"/>
<path d="M140.5 188.866L143.5 191.866L140.5 194.866" stroke="#F64C53" stroke-linecap="round" stroke-linejoin="round"/>
<defs>
<clipPath id="clip0_1794_3266">
<rect width="66" height="23.8656" fill="white" transform="translate(32 32)"/>
</clipPath>
</defs>
</svg>
