<svg width="392" height="195" viewBox="0 0 392 195" fill="none" xmlns="http://www.w3.org/2000/svg">
<path d="M0.5 16C0.5 7.43959 7.43959 0.5 16 0.5H376C384.56 0.5 391.5 7.43959 391.5 16V179C391.5 187.56 384.56 194.5 376 194.5H16C7.43958 194.5 0.5 187.56 0.5 179V16Z" fill="#FCFCFC"/>
<path d="M0.5 16C0.5 7.43959 7.43959 0.5 16 0.5H376C384.56 0.5 391.5 7.43959 391.5 16V179C391.5 187.56 384.56 194.5 376 194.5H16C7.43958 194.5 0.5 187.56 0.5 179V16Z" stroke="#CFCFCF"/>
<g clip-path="url(#clip0_1794_3267)">
<path fill-rule="evenodd" clip-rule="evenodd" d="M72.8579 46.8416C69.0479 49.5193 63.5062 50.946 58.7264 50.946C52.0301 50.946 46.0266 48.5975 41.4546 44.6906C41.1083 44.3833 41.4084 43.9663 41.8472 44.2077C46.7655 46.9294 52.8383 48.5536 59.1189 48.5536C63.3445 48.5536 68.0088 47.7195 72.3037 45.9856C72.9502 45.7441 73.4813 46.4026 72.8579 46.8416Z" fill="#3E3E3E"/>
<path fill-rule="evenodd" clip-rule="evenodd" d="M74.4503 45.1076C73.9654 44.515 71.2176 44.8223 69.9938 44.9759C69.6243 45.0198 69.5551 44.7126 69.9014 44.4931C72.095 43.0225 75.6741 43.4615 76.0897 43.9444C76.5054 44.4272 75.9743 47.8512 73.9192 49.4754C73.5959 49.7169 73.2958 49.5852 73.4343 49.2559C73.8961 48.1585 74.9352 45.7222 74.4503 45.1076Z" fill="#3E3E3E"/>
<path fill-rule="evenodd" clip-rule="evenodd" d="M70.0635 34.1772V32.7505C70.0635 32.531 70.2251 32.3993 70.4329 32.3993H77.1292C77.337 32.3993 77.5218 32.553 77.5218 32.7505V33.9577C77.5218 34.1552 77.337 34.4186 77.0138 34.8576L73.5502 39.5546C74.8432 39.5327 76.2056 39.7082 77.3601 40.3228C77.6141 40.4545 77.6834 40.674 77.7065 40.8715V42.386C77.7065 42.6055 77.4756 42.8469 77.2216 42.7152C75.1665 41.6836 72.4187 41.5739 70.1558 42.7372C69.9249 42.8469 69.6709 42.6274 69.6709 42.4079V40.9593C69.6709 40.7398 69.6709 40.3448 69.9249 39.9936L73.9427 34.5284H70.456C70.2482 34.5284 70.0635 34.3747 70.0635 34.1772ZM45.6567 43.0225H43.6247C43.44 43.0005 43.2783 42.8688 43.2553 42.6933V32.7725C43.2553 32.5749 43.44 32.4213 43.6478 32.4213H45.5412C45.749 32.4213 45.8876 32.5749 45.9107 32.7505V34.0455H45.9569C46.4418 32.7944 47.3885 32.2018 48.6354 32.2018C49.9054 32.2018 50.7135 32.7944 51.2677 34.0455C51.7526 32.7944 52.884 32.2018 54.0848 32.2018C54.9391 32.2018 55.8627 32.531 56.44 33.2992C57.0865 34.1333 56.948 35.3405 56.948 36.4159V42.6933C56.948 42.8908 56.7633 43.0444 56.5555 43.0444H54.5466C54.3388 43.0225 54.1771 42.8688 54.1771 42.6933V37.4256C54.1771 37.0086 54.2233 35.955 54.1309 35.5599C53.9693 34.9015 53.5306 34.704 52.9302 34.704C52.4453 34.704 51.9142 35.0112 51.7064 35.5161C51.4986 36.0209 51.5217 36.8549 51.5217 37.4256V42.6933C51.5217 42.8908 51.337 43.0444 51.1292 43.0444H49.0972C48.8894 43.0225 48.7277 42.8688 48.7277 42.6933V37.4256C48.7277 36.3281 48.9125 34.682 47.4808 34.682C46.0261 34.682 46.0723 36.2623 46.0723 37.4256V42.6933C46.0492 42.8688 45.8876 43.0225 45.6567 43.0225ZM83.2944 32.2018C86.3193 32.2018 87.9587 34.6601 87.9587 37.7987C87.9587 40.8276 86.1577 43.242 83.2944 43.242C80.3388 43.242 78.7225 40.7837 78.7225 37.7109C78.6994 34.6162 80.3388 32.2018 83.2944 32.2018ZM83.2944 34.243C81.7935 34.243 81.7012 36.1965 81.7012 37.4036C81.7012 38.6108 81.6781 41.2008 83.2713 41.2008C84.8415 41.2008 84.9338 39.1156 84.9338 37.8426C84.9338 37.0086 84.8877 35.9989 84.6337 35.2088C84.4028 34.5064 83.941 34.243 83.2944 34.243ZM91.861 43.0225H89.8291C89.6212 43.0005 89.4596 42.8469 89.4596 42.6713V32.7286C89.4827 32.553 89.6443 32.3993 89.8522 32.3993H91.7456C91.9303 32.3993 92.0689 32.531 92.115 32.6847V34.1991H92.1612C92.7385 32.8383 93.5236 32.2018 94.9321 32.2018C95.8326 32.2018 96.7332 32.5091 97.3104 33.3651C97.8415 34.1552 97.8415 35.4941 97.8415 36.4598V42.7152C97.8184 42.8908 97.6568 43.0225 97.449 43.0225H95.417C95.2323 43.0005 95.0706 42.8688 95.0475 42.7152V37.3158C95.0475 36.2184 95.1861 34.6381 93.7776 34.6381C93.2927 34.6381 92.8308 34.9454 92.5999 35.4283C92.3228 36.0428 92.2767 36.6354 92.2767 37.3158V42.6713C92.2536 42.8689 92.0689 43.0225 91.861 43.0225ZM64.7295 38.2816C64.7295 39.0278 64.7526 39.6643 64.3601 40.3448C64.0368 40.8935 63.5288 41.2227 62.9516 41.2227C62.1665 41.2227 61.7047 40.652 61.7047 39.818C61.7047 38.1718 63.2517 37.8646 64.7295 37.8646V38.2816ZM66.7846 43.0005C66.6461 43.1103 66.4613 43.1322 66.2997 43.0444C65.6301 42.5177 65.4915 42.2543 65.1221 41.7495C64.0137 42.825 63.2056 43.1542 61.7739 43.1542C60.0652 43.1542 58.726 42.1445 58.726 40.1472C58.726 38.5669 59.6265 37.5134 60.8965 36.9866C62.0048 36.5257 63.5519 36.4379 64.7295 36.3062V36.0648C64.7295 35.6038 64.7757 35.0551 64.4755 34.6601C64.2215 34.3089 63.7597 34.1552 63.3441 34.1552C62.559 34.1552 61.8663 34.5284 61.7047 35.3185C61.6585 35.4941 61.543 35.6697 61.3583 35.6697L59.3956 35.4722C59.234 35.4283 59.0492 35.3185 59.0954 35.0771C59.5572 32.7944 61.7047 32.114 63.6443 32.114C64.6372 32.114 65.9303 32.3554 66.7153 33.0798C67.7082 33.9577 67.6159 35.1429 67.6159 36.4159V39.4229C67.6159 40.3228 68.0084 40.7179 68.3779 41.2227C68.5164 41.3983 68.5395 41.6178 68.3779 41.7275C67.9391 42.0567 67.2002 42.6713 66.7846 43.0005ZM38.0599 38.2816C38.0599 39.0278 38.0829 39.6643 37.6904 40.3448C37.3671 40.8935 36.8591 41.2227 36.2819 41.2227C35.4968 41.2227 35.035 40.652 35.035 39.818C35.035 38.1718 36.5821 37.8646 38.0599 37.8646V38.2816ZM40.0918 43.0005C39.9533 43.1103 39.7686 43.1322 39.6069 43.0444C38.9373 42.5177 38.7988 42.2543 38.4293 41.7495C37.321 42.825 36.5128 43.1542 35.0812 43.1542C33.3725 43.1542 32.0332 42.1445 32.0332 40.1472C32.0332 38.5669 32.9337 37.5134 34.2037 36.9866C35.3121 36.5257 36.8591 36.4379 38.0368 36.3062V36.0648C38.0368 35.6038 38.0829 35.0551 37.7828 34.6601C37.5288 34.3089 37.067 34.1552 36.6513 34.1552C35.8662 34.1552 35.1735 34.5284 35.0119 35.3185C34.9657 35.4941 34.8503 35.6697 34.6655 35.6697L32.7028 35.4722C32.5412 35.4283 32.3565 35.3185 32.4027 35.0771C32.8645 32.7944 35.0119 32.114 36.9515 32.114C37.9444 32.114 39.2375 32.3554 40.0226 33.0798C41.0155 33.9577 40.9231 35.1429 40.9231 36.4159V39.4229C40.9231 40.3228 41.3156 40.7179 41.6851 41.2227C41.8236 41.3983 41.8467 41.6178 41.6851 41.7275C41.2464 42.0567 40.5075 42.6713 40.0918 43.0005Z" fill="#3E3E3E"/>
</g>
<path d="M40.4162 67.75H39.3153C39.2502 67.4334 39.1363 67.1552 38.9735 66.9155C38.8137 66.6758 38.6184 66.4746 38.3876 66.3118C38.1597 66.1461 37.9067 66.0218 37.6286 65.9389C37.3504 65.8561 37.0604 65.8146 36.7585 65.8146C36.2081 65.8146 35.7095 65.9537 35.2626 66.2319C34.8187 66.5101 34.4651 66.9199 34.2017 67.4615C33.9413 68.003 33.8111 68.6674 33.8111 69.4545C33.8111 70.2417 33.9413 70.9061 34.2017 71.4476C34.4651 71.9892 34.8187 72.399 35.2626 72.6772C35.7095 72.9554 36.2081 73.0945 36.7585 73.0945C37.0604 73.0945 37.3504 73.053 37.6286 72.9702C37.9067 72.8873 38.1597 72.7645 38.3876 72.6017C38.6184 72.436 38.8137 72.2333 38.9735 71.9936C39.1363 71.7509 39.2502 71.4728 39.3153 71.1591H40.4162C40.3333 71.6237 40.1824 72.0395 39.9634 72.4064C39.7444 72.7734 39.4722 73.0856 39.1467 73.343C38.8211 73.5975 38.4557 73.7914 38.0502 73.9245C37.6478 74.0577 37.2172 74.1243 36.7585 74.1243C35.9832 74.1243 35.2937 73.9349 34.69 73.5561C34.0863 73.1773 33.6113 72.6387 33.2651 71.9403C32.9189 71.242 32.7457 70.4134 32.7457 69.4545C32.7457 68.4957 32.9189 67.6671 33.2651 66.9688C33.6113 66.2704 34.0863 65.7318 34.69 65.353C35.2937 64.9742 35.9832 64.7848 36.7585 64.7848C37.2172 64.7848 37.6478 64.8514 38.0502 64.9846C38.4557 65.1177 38.8211 65.313 39.1467 65.5705C39.4722 65.825 39.7444 66.1357 39.9634 66.5027C40.1824 66.8667 40.3333 67.2824 40.4162 67.75ZM44.0594 74.1598C43.6274 74.1598 43.2353 74.0784 42.8831 73.9157C42.531 73.7499 42.2513 73.5117 42.0442 73.201C41.837 72.8873 41.7334 72.5085 41.7334 72.0646C41.7334 71.674 41.8104 71.3574 41.9643 71.1147C42.1181 70.8691 42.3238 70.6767 42.5813 70.5376C42.8387 70.3986 43.1228 70.295 43.4335 70.2269C43.7472 70.1559 44.0624 70.0997 44.379 70.0582C44.7933 70.005 45.1292 69.965 45.3867 69.9384C45.6471 69.9088 45.8365 69.86 45.9549 69.7919C46.0762 69.7238 46.1369 69.6055 46.1369 69.4368V69.4013C46.1369 68.9633 46.017 68.623 45.7773 68.3803C45.5406 68.1377 45.181 68.0163 44.6986 68.0163C44.1985 68.0163 43.8064 68.1258 43.5223 68.3448C43.2382 68.5638 43.0385 68.7976 42.9231 69.0462L41.9288 68.6911C42.1063 68.2768 42.3431 67.9542 42.639 67.7234C42.9379 67.4896 43.2634 67.3268 43.6155 67.2351C43.9707 67.1404 44.3199 67.093 44.6631 67.093C44.8821 67.093 45.1337 67.1197 45.4177 67.1729C45.7048 67.2232 45.9815 67.3283 46.2478 67.4881C46.5171 67.6479 46.7405 67.8891 46.9181 68.2116C47.0957 68.5342 47.1844 68.9663 47.1844 69.5078V74H46.1369V73.0767H46.0836C46.0126 73.2247 45.8942 73.383 45.7285 73.5517C45.5628 73.7203 45.3423 73.8639 45.0671 73.9822C44.7919 74.1006 44.456 74.1598 44.0594 74.1598ZM44.2192 73.2188C44.6335 73.2188 44.9827 73.1374 45.2668 72.9746C45.5539 72.8118 45.7699 72.6017 45.9149 72.3443C46.0629 72.0868 46.1369 71.8161 46.1369 71.532V70.5732C46.0925 70.6264 45.9948 70.6752 45.8439 70.7196C45.6959 70.7611 45.5243 70.7981 45.329 70.8306C45.1366 70.8602 44.9487 70.8868 44.7652 70.9105C44.5847 70.9312 44.4382 70.949 44.3258 70.9638C44.0535 70.9993 43.799 71.057 43.5623 71.1369C43.3285 71.2138 43.1391 71.3307 42.9941 71.4876C42.8521 71.6415 42.781 71.8516 42.781 72.1179C42.781 72.4819 42.9157 72.7571 43.185 72.9435C43.4572 73.127 43.802 73.2188 44.2192 73.2188ZM52.0617 67.1818V68.0696H48.5283V67.1818H52.0617ZM49.5581 65.5483H50.6057V72.0469C50.6057 72.3428 50.6486 72.5647 50.7345 72.7127C50.8232 72.8577 50.9357 72.9554 51.0718 73.0057C51.2109 73.053 51.3574 73.0767 51.5113 73.0767C51.6267 73.0767 51.7214 73.0708 51.7954 73.0589C51.8693 73.0442 51.9285 73.0323 51.9729 73.0234L52.186 73.9645C52.115 73.9911 52.0158 74.0178 51.8886 74.0444C51.7613 74.074 51.6001 74.0888 51.4047 74.0888C51.1088 74.0888 50.8188 74.0252 50.5347 73.8979C50.2536 73.7707 50.0198 73.5768 49.8334 73.3164C49.6499 73.056 49.5581 72.7275 49.5581 72.331V65.5483ZM55.6439 74.1598C55.2119 74.1598 54.8198 74.0784 54.4676 73.9157C54.1154 73.7499 53.8358 73.5117 53.6286 73.201C53.4215 72.8873 53.3179 72.5085 53.3179 72.0646C53.3179 71.674 53.3949 71.3574 53.5487 71.1147C53.7026 70.8691 53.9083 70.6767 54.1657 70.5376C54.4232 70.3986 54.7073 70.295 55.018 70.2269C55.3317 70.1559 55.6469 70.0997 55.9635 70.0582C56.3778 70.005 56.7137 69.965 56.9711 69.9384C57.2316 69.9088 57.421 69.86 57.5393 69.7919C57.6607 69.7238 57.7213 69.6055 57.7213 69.4368V69.4013C57.7213 68.9633 57.6015 68.623 57.3618 68.3803C57.125 68.1377 56.7655 68.0163 56.2831 68.0163C55.783 68.0163 55.3909 68.1258 55.1068 68.3448C54.8227 68.5638 54.623 68.7976 54.5075 69.0462L53.5132 68.6911C53.6908 68.2768 53.9275 67.9542 54.2235 67.7234C54.5223 67.4896 54.8479 67.3268 55.2 67.2351C55.5551 67.1404 55.9043 67.093 56.2476 67.093C56.4666 67.093 56.7181 67.1197 57.0022 67.1729C57.2893 67.2232 57.566 67.3283 57.8323 67.4881C58.1016 67.6479 58.325 67.8891 58.5026 68.2116C58.6801 68.5342 58.7689 68.9663 58.7689 69.5078V74H57.7213V73.0767H57.6681C57.597 73.2247 57.4787 73.383 57.3129 73.5517C57.1472 73.7203 56.9268 73.8639 56.6515 73.9822C56.3763 74.1006 56.0405 74.1598 55.6439 74.1598ZM55.8037 73.2188C56.218 73.2188 56.5672 73.1374 56.8513 72.9746C57.1383 72.8118 57.3544 72.6017 57.4994 72.3443C57.6473 72.0868 57.7213 71.8161 57.7213 71.532V70.5732C57.6769 70.6264 57.5793 70.6752 57.4284 70.7196C57.2804 70.7611 57.1088 70.7981 56.9134 70.8306C56.7211 70.8602 56.5332 70.8868 56.3497 70.9105C56.1692 70.9312 56.0227 70.949 55.9102 70.9638C55.638 70.9993 55.3835 71.057 55.1468 71.1369C54.913 71.2138 54.7236 71.3307 54.5786 71.4876C54.4365 71.6415 54.3655 71.8516 54.3655 72.1179C54.3655 72.4819 54.5001 72.7571 54.7694 72.9435C55.0417 73.127 55.3865 73.2188 55.8037 73.2188ZM61.7286 64.9091V74H60.681V64.9091H61.7286ZM66.4172 74.142C65.8016 74.142 65.2616 73.9956 64.797 73.7026C64.3353 73.4096 63.9743 72.9998 63.7139 72.473C63.4564 71.9463 63.3277 71.3307 63.3277 70.6264C63.3277 69.9162 63.4564 69.2962 63.7139 68.7665C63.9743 68.2368 64.3353 67.8255 64.797 67.5325C65.2616 67.2395 65.8016 67.093 66.4172 67.093C67.0327 67.093 67.5713 67.2395 68.0329 67.5325C68.4975 67.8255 68.8586 68.2368 69.116 68.7665C69.3765 69.2962 69.5067 69.9162 69.5067 70.6264C69.5067 71.3307 69.3765 71.9463 69.116 72.473C68.8586 72.9998 68.4975 73.4096 68.0329 73.7026C67.5713 73.9956 67.0327 74.142 66.4172 74.142ZM66.4172 73.201C66.8847 73.201 67.2694 73.0811 67.5713 72.8414C67.8731 72.6017 68.0966 72.2866 68.2416 71.896C68.3866 71.5053 68.4591 71.0821 68.4591 70.6264C68.4591 70.1707 68.3866 69.746 68.2416 69.3525C68.0966 68.9589 67.8731 68.6407 67.5713 68.3981C67.2694 68.1554 66.8847 68.0341 66.4172 68.0341C65.9496 68.0341 65.5649 68.1554 65.2631 68.3981C64.9612 68.6407 64.7378 68.9589 64.5928 69.3525C64.4478 69.746 64.3753 70.1707 64.3753 70.6264C64.3753 71.0821 64.4478 71.5053 64.5928 71.896C64.7378 72.2866 64.9612 72.6017 65.2631 72.8414C65.5649 73.0811 65.9496 73.201 66.4172 73.201ZM73.8579 76.6989C73.3519 76.6989 72.9169 76.6338 72.5529 76.5036C72.1889 76.3763 71.8855 76.2076 71.6429 75.9975C71.4032 75.7904 71.2123 75.5684 71.0703 75.3317L71.9048 74.7457C71.9995 74.87 72.1193 75.0121 72.2643 75.1719C72.4093 75.3346 72.6076 75.4752 72.8592 75.5936C73.1137 75.7149 73.4466 75.7756 73.8579 75.7756C74.4083 75.7756 74.8626 75.6424 75.2207 75.3761C75.5787 75.1097 75.7578 74.6925 75.7578 74.1243V72.7393H75.669C75.592 72.8636 75.4826 73.0175 75.3405 73.201C75.2014 73.3815 75.0002 73.5428 74.7368 73.6848C74.4764 73.8239 74.1242 73.8935 73.6804 73.8935C73.1299 73.8935 72.6357 73.7633 72.1978 73.5028C71.7627 73.2424 71.418 72.8636 71.1635 72.3665C70.9119 71.8693 70.7862 71.2656 70.7862 70.5554C70.7862 69.857 70.909 69.2489 71.1546 68.731C71.4002 68.2102 71.742 67.8077 72.18 67.5236C72.618 67.2366 73.124 67.093 73.6981 67.093C74.142 67.093 74.4942 67.167 74.7546 67.315C75.0179 67.46 75.2192 67.6257 75.3583 67.8121C75.5003 67.9956 75.6098 68.1465 75.6867 68.2649H75.7933V67.1818H76.8054V74.1953C76.8054 74.7812 76.6722 75.2577 76.4059 75.6246C76.1425 75.9946 75.7874 76.2653 75.3405 76.437C74.8966 76.6116 74.4024 76.6989 73.8579 76.6989ZM73.8224 72.9524C74.2426 72.9524 74.5977 72.8562 74.8877 72.6639C75.1777 72.4715 75.3982 72.1948 75.5491 71.8338C75.7001 71.4728 75.7755 71.0407 75.7755 70.5376C75.7755 70.0464 75.7015 69.6129 75.5536 69.237C75.4056 68.8612 75.1866 68.5668 74.8966 68.3537C74.6066 68.1406 74.2485 68.0341 73.8224 68.0341C73.3785 68.0341 73.0086 68.1465 72.7127 68.3714C72.4197 68.5964 72.1992 68.8982 72.0513 69.277C71.9063 69.6558 71.8338 70.076 71.8338 70.5376C71.8338 71.0111 71.9077 71.4299 72.0557 71.7939C72.2066 72.1549 72.4286 72.439 72.7215 72.6461C73.0175 72.8503 73.3844 72.9524 73.8224 72.9524ZM82.7535 74H81.5994L84.9375 64.9091H86.0738L89.4119 74H88.2578L85.5411 66.3473H85.4701L82.7535 74ZM83.1796 70.4489H87.8316V71.4254H83.1796V70.4489ZM95.5154 68.7088L94.5744 68.9751C94.5152 68.8183 94.4279 68.6659 94.3125 68.5179C94.2 68.367 94.0461 68.2427 93.8508 68.1451C93.6555 68.0474 93.4054 67.9986 93.1006 67.9986C92.6834 67.9986 92.3357 68.0948 92.0575 68.2871C91.7823 68.4765 91.6447 68.7177 91.6447 69.0107C91.6447 69.2711 91.7394 69.4767 91.9288 69.6277C92.1181 69.7786 92.4141 69.9044 92.8165 70.005L93.8286 70.2536C94.4382 70.4015 94.8925 70.6279 95.1914 70.9327C95.4902 71.2346 95.6397 71.6237 95.6397 72.1001C95.6397 72.4908 95.5272 72.84 95.3023 73.1477C95.0804 73.4555 94.7697 73.6982 94.3702 73.8757C93.9707 74.0533 93.5061 74.142 92.9763 74.142C92.2809 74.142 91.7053 73.9911 91.2496 73.6893C90.7939 73.3874 90.5053 72.9465 90.384 72.3665L91.3783 72.1179C91.473 72.4848 91.6521 72.7601 91.9154 72.9435C92.1818 73.127 92.5295 73.2188 92.9586 73.2188C93.4469 73.2188 93.8345 73.1152 94.1216 72.908C94.4116 72.6979 94.5566 72.4464 94.5566 72.1534C94.5566 71.9167 94.4737 71.7184 94.308 71.5586C94.1423 71.3958 93.8878 71.2745 93.5445 71.1946L92.4082 70.9283C91.7838 70.7803 91.3251 70.551 91.0321 70.2402C90.7421 69.9266 90.5971 69.5344 90.5971 69.0639C90.5971 68.6792 90.7051 68.3389 90.9211 68.043C91.1401 67.747 91.4375 67.5147 91.8133 67.3461C92.1921 67.1774 92.6212 67.093 93.1006 67.093C93.7753 67.093 94.3051 67.241 94.6898 67.5369C95.0774 67.8329 95.3526 68.2235 95.5154 68.7088ZM102.046 68.7088L101.105 68.9751C101.046 68.8183 100.959 68.6659 100.843 68.5179C100.731 68.367 100.577 68.2427 100.382 68.1451C100.186 68.0474 99.9362 67.9986 99.6314 67.9986C99.2141 67.9986 98.8664 68.0948 98.5882 68.2871C98.313 68.4765 98.1754 68.7177 98.1754 69.0107C98.1754 69.2711 98.2701 69.4767 98.4595 69.6277C98.6489 69.7786 98.9448 69.9044 99.3473 70.005L100.359 70.2536C100.969 70.4015 101.423 70.6279 101.722 70.9327C102.021 71.2346 102.17 71.6237 102.17 72.1001C102.17 72.4908 102.058 72.84 101.833 73.1477C101.611 73.4555 101.3 73.6982 100.901 73.8757C100.501 74.0533 100.037 74.142 99.5071 74.142C98.8117 74.142 98.2361 73.9911 97.7804 73.6893C97.3246 73.3874 97.0361 72.9465 96.9148 72.3665L97.9091 72.1179C98.0038 72.4848 98.1828 72.7601 98.4462 72.9435C98.7125 73.127 99.0603 73.2188 99.4893 73.2188C99.9776 73.2188 100.365 73.1152 100.652 72.908C100.942 72.6979 101.087 72.4464 101.087 72.1534C101.087 71.9167 101.004 71.7184 100.839 71.5586C100.673 71.3958 100.419 71.2745 100.075 71.1946L98.9389 70.9283C98.3145 70.7803 97.8558 70.551 97.5629 70.2402C97.2728 69.9266 97.1278 69.5344 97.1278 69.0639C97.1278 68.6792 97.2359 68.3389 97.4519 68.043C97.6709 67.747 97.9683 67.5147 98.3441 67.3461C98.7229 67.1774 99.152 67.093 99.6314 67.093C100.306 67.093 100.836 67.241 101.221 67.5369C101.608 67.8329 101.883 68.2235 102.046 68.7088ZM106.517 74.142C105.902 74.142 105.362 73.9956 104.897 73.7026C104.435 73.4096 104.074 72.9998 103.814 72.473C103.557 71.9463 103.428 71.3307 103.428 70.6264C103.428 69.9162 103.557 69.2962 103.814 68.7665C104.074 68.2368 104.435 67.8255 104.897 67.5325C105.362 67.2395 105.902 67.093 106.517 67.093C107.133 67.093 107.671 67.2395 108.133 67.5325C108.598 67.8255 108.959 68.2368 109.216 68.7665C109.477 69.2962 109.607 69.9162 109.607 70.6264C109.607 71.3307 109.477 71.9463 109.216 72.473C108.959 72.9998 108.598 73.4096 108.133 73.7026C107.671 73.9956 107.133 74.142 106.517 74.142ZM106.517 73.201C106.985 73.201 107.37 73.0811 107.671 72.8414C107.973 72.6017 108.197 72.2866 108.342 71.896C108.487 71.5053 108.559 71.0821 108.559 70.6264C108.559 70.1707 108.487 69.746 108.342 69.3525C108.197 68.9589 107.973 68.6407 107.671 68.3981C107.37 68.1554 106.985 68.0341 106.517 68.0341C106.05 68.0341 105.665 68.1554 105.363 68.3981C105.061 68.6407 104.838 68.9589 104.693 69.3525C104.548 69.746 104.475 70.1707 104.475 70.6264C104.475 71.0821 104.548 71.5053 104.693 71.896C104.838 72.2866 105.061 72.6017 105.363 72.8414C105.665 73.0811 106.05 73.201 106.517 73.201ZM113.976 74.142C113.337 74.142 112.786 73.9911 112.324 73.6893C111.863 73.3874 111.508 72.9717 111.259 72.4419C111.011 71.9122 110.886 71.3071 110.886 70.6264C110.886 69.9339 111.014 69.3229 111.268 68.7931C111.525 68.2605 111.884 67.8447 112.342 67.5458C112.804 67.244 113.342 67.093 113.958 67.093C114.437 67.093 114.869 67.1818 115.254 67.3594C115.639 67.5369 115.954 67.7855 116.2 68.1051C116.445 68.4247 116.598 68.7976 116.657 69.2237H115.609C115.529 68.913 115.352 68.6378 115.077 68.3981C114.804 68.1554 114.437 68.0341 113.976 68.0341C113.567 68.0341 113.209 68.1406 112.902 68.3537C112.597 68.5638 112.359 68.8612 112.187 69.2459C112.018 69.6277 111.934 70.076 111.934 70.5909C111.934 71.1177 112.017 71.5763 112.182 71.967C112.351 72.3576 112.588 72.6609 112.893 72.877C113.2 73.093 113.561 73.201 113.976 73.201C114.248 73.201 114.495 73.1536 114.717 73.0589C114.939 72.9643 115.127 72.8281 115.281 72.6506C115.435 72.473 115.544 72.2599 115.609 72.0114H116.657C116.598 72.4138 116.451 72.7763 116.217 73.0989C115.987 73.4185 115.68 73.673 115.299 73.8624C114.92 74.0488 114.479 74.142 113.976 74.142ZM118.188 74V67.1818H119.236V74H118.188ZM118.721 66.0455C118.517 66.0455 118.341 65.9759 118.193 65.8368C118.048 65.6977 117.975 65.5305 117.975 65.3352C117.975 65.1399 118.048 64.9727 118.193 64.8336C118.341 64.6945 118.517 64.625 118.721 64.625C118.925 64.625 119.1 64.6945 119.245 64.8336C119.393 64.9727 119.467 65.1399 119.467 65.3352C119.467 65.5305 119.393 65.6977 119.245 65.8368C119.1 65.9759 118.925 66.0455 118.721 66.0455ZM123.161 74.1598C122.729 74.1598 122.337 74.0784 121.985 73.9157C121.633 73.7499 121.353 73.5117 121.146 73.201C120.939 72.8873 120.835 72.5085 120.835 72.0646C120.835 71.674 120.912 71.3574 121.066 71.1147C121.22 70.8691 121.425 70.6767 121.683 70.5376C121.94 70.3986 122.224 70.295 122.535 70.2269C122.849 70.1559 123.164 70.0997 123.481 70.0582C123.895 70.005 124.231 69.965 124.488 69.9384C124.749 69.9088 124.938 69.86 125.056 69.7919C125.178 69.7238 125.238 69.6055 125.238 69.4368V69.4013C125.238 68.9633 125.119 68.623 124.879 68.3803C124.642 68.1377 124.283 68.0163 123.8 68.0163C123.3 68.0163 122.908 68.1258 122.624 68.3448C122.34 68.5638 122.14 68.7976 122.025 69.0462L121.03 68.6911C121.208 68.2768 121.445 67.9542 121.741 67.7234C122.039 67.4896 122.365 67.3268 122.717 67.2351C123.072 67.1404 123.421 67.093 123.765 67.093C123.984 67.093 124.235 67.1197 124.519 67.1729C124.806 67.2232 125.083 67.3283 125.349 67.4881C125.619 67.6479 125.842 67.8891 126.02 68.2116C126.197 68.5342 126.286 68.9663 126.286 69.5078V74H125.238V73.0767H125.185C125.114 73.2247 124.996 73.383 124.83 73.5517C124.664 73.7203 124.444 73.8639 124.169 73.9822C123.893 74.1006 123.558 74.1598 123.161 74.1598ZM123.321 73.2188C123.735 73.2188 124.084 73.1374 124.368 72.9746C124.655 72.8118 124.871 72.6017 125.016 72.3443C125.164 72.0868 125.238 71.8161 125.238 71.532V70.5732C125.194 70.6264 125.096 70.6752 124.945 70.7196C124.797 70.7611 124.626 70.7981 124.431 70.8306C124.238 70.8602 124.05 70.8868 123.867 70.9105C123.686 70.9312 123.54 70.949 123.427 70.9638C123.155 70.9993 122.901 71.057 122.664 71.1369C122.43 71.2138 122.241 71.3307 122.096 71.4876C121.954 71.6415 121.883 71.8516 121.883 72.1179C121.883 72.4819 122.017 72.7571 122.287 72.9435C122.559 73.127 122.904 73.2188 123.321 73.2188ZM131.163 67.1818V68.0696H127.63V67.1818H131.163ZM128.66 65.5483H129.707V72.0469C129.707 72.3428 129.75 72.5647 129.836 72.7127C129.925 72.8577 130.037 72.9554 130.173 73.0057C130.312 73.053 130.459 73.0767 130.613 73.0767C130.728 73.0767 130.823 73.0708 130.897 73.0589C130.971 73.0442 131.03 73.0323 131.074 73.0234L131.288 73.9645C131.217 73.9911 131.117 74.0178 130.99 74.0444C130.863 74.074 130.702 74.0888 130.506 74.0888C130.21 74.0888 129.92 74.0252 129.636 73.8979C129.355 73.7707 129.121 73.5768 128.935 73.3164C128.751 73.056 128.66 72.7275 128.66 72.331V65.5483ZM135.525 74.142C134.868 74.142 134.301 73.997 133.824 73.707C133.351 73.4141 132.985 73.0057 132.728 72.4819C132.473 71.9551 132.346 71.3426 132.346 70.6442C132.346 69.9458 132.473 69.3303 132.728 68.7976C132.985 68.262 133.344 67.8447 133.802 67.5458C134.264 67.244 134.802 67.093 135.418 67.093C135.773 67.093 136.124 67.1522 136.47 67.2706C136.816 67.389 137.131 67.5813 137.415 67.8477C137.7 68.111 137.926 68.4602 138.095 68.8952C138.263 69.3303 138.348 69.8659 138.348 70.5021V70.946H133.092V70.0405H137.282C137.282 69.6558 137.205 69.3125 137.051 69.0107C136.901 68.7088 136.685 68.4706 136.403 68.296C136.125 68.1214 135.797 68.0341 135.418 68.0341C135.001 68.0341 134.64 68.1377 134.335 68.3448C134.033 68.549 133.801 68.8153 133.638 69.1438C133.475 69.4723 133.394 69.8245 133.394 70.2003V70.804C133.394 71.3189 133.483 71.7554 133.66 72.1135C133.841 72.4686 134.091 72.7393 134.41 72.9258C134.73 73.1093 135.101 73.201 135.525 73.201C135.8 73.201 136.048 73.1625 136.27 73.0856C136.495 73.0057 136.689 72.8873 136.852 72.7305C137.015 72.5707 137.14 72.3724 137.229 72.1357L138.241 72.4197C138.135 72.763 137.956 73.0649 137.704 73.3253C137.452 73.5827 137.142 73.784 136.772 73.929C136.402 74.071 135.986 74.142 135.525 74.142ZM141.504 72.7571L141.433 73.2365C141.382 73.5739 141.305 73.9349 141.202 74.3196C141.101 74.7043 140.996 75.0668 140.887 75.4071C140.777 75.7475 140.687 76.0182 140.616 76.2195H139.817C139.855 76.0301 139.906 75.78 139.968 75.4693C140.03 75.1586 140.092 74.8108 140.154 74.4261C140.219 74.0444 140.273 73.6538 140.314 73.2543L140.367 72.7571H141.504ZM32.9411 94V93.201L35.9418 89.9162C36.2939 89.5315 36.5839 89.1971 36.8118 88.913C37.0397 88.6259 37.2083 88.3567 37.3178 88.1051C37.4303 87.8506 37.4865 87.5843 37.4865 87.3061C37.4865 86.9865 37.4096 86.7098 37.2557 86.476C37.1048 86.2422 36.8976 86.0617 36.6342 85.9345C36.3709 85.8072 36.0749 85.7436 35.7464 85.7436C35.3973 85.7436 35.0924 85.8161 34.832 85.9611C34.5746 86.1032 34.3748 86.3029 34.2328 86.5604C34.0937 86.8178 34.0241 87.1197 34.0241 87.4659H32.9766C32.9766 86.9332 33.0994 86.4657 33.345 86.0632C33.5906 85.6607 33.925 85.3471 34.3482 85.1222C34.7743 84.8973 35.2522 84.7848 35.782 84.7848C36.3146 84.7848 36.7866 84.8973 37.198 85.1222C37.6093 85.3471 37.9319 85.6504 38.1657 86.0321C38.3994 86.4139 38.5163 86.8385 38.5163 87.3061C38.5163 87.6405 38.4557 87.9675 38.3343 88.2871C38.216 88.6038 38.0088 88.9574 37.7129 89.348C37.4199 89.7357 37.013 90.2092 36.4922 90.7685L34.4503 92.9524V93.0234H38.6761V94H32.9411ZM43.4746 94.1243C42.8058 94.1243 42.2362 93.9423 41.7656 93.5783C41.2951 93.2114 40.9355 92.6802 40.687 91.9847C40.4384 91.2863 40.3141 90.4429 40.3141 89.4545C40.3141 88.4721 40.4384 87.6331 40.687 86.9377C40.9385 86.2393 41.2995 85.7066 41.7701 85.3397C42.2435 84.9698 42.8117 84.7848 43.4746 84.7848C44.1375 84.7848 44.7042 84.9698 45.1747 85.3397C45.6482 85.7066 46.0092 86.2393 46.2578 86.9377C46.5094 87.6331 46.6351 88.4721 46.6351 89.4545C46.6351 90.4429 46.5108 91.2863 46.2623 91.9847C46.0137 92.6802 45.6541 93.2114 45.1836 93.5783C44.7131 93.9423 44.1434 94.1243 43.4746 94.1243ZM43.4746 93.1477C44.1375 93.1477 44.6524 92.8281 45.0194 92.1889C45.3863 91.5497 45.5698 90.6383 45.5698 89.4545C45.5698 88.6674 45.4854 87.9971 45.3168 87.4437C45.151 86.8903 44.9113 86.4686 44.5977 86.1786C44.2869 85.8886 43.9126 85.7436 43.4746 85.7436C42.8176 85.7436 42.3042 86.0676 41.9343 86.7157C41.5644 87.3609 41.3794 88.2738 41.3794 89.4545C41.3794 90.2417 41.4623 90.9105 41.628 91.4609C41.7937 92.0114 42.032 92.4301 42.3427 92.7172C42.6564 93.0042 43.0337 93.1477 43.4746 93.1477ZM51.5179 84.9091V94H50.4171V86.0632H50.3638L48.1444 87.5369V86.4183L50.4171 84.9091H51.5179ZM56.9734 94.1243C56.4525 94.1243 55.9835 94.0207 55.5662 93.8136C55.149 93.6064 54.8146 93.3223 54.563 92.9613C54.3115 92.6003 54.1739 92.1889 54.1502 91.7273H55.2156C55.257 92.1386 55.4434 92.4789 55.7749 92.7482C56.1093 93.0146 56.5088 93.1477 56.9734 93.1477C57.3462 93.1477 57.6777 93.0604 57.9677 92.8858C58.2607 92.7112 58.49 92.4715 58.6557 92.1667C58.8244 91.859 58.9087 91.5112 58.9087 91.1236C58.9087 90.727 58.8214 90.3734 58.6468 90.0627C58.4752 89.749 58.2385 89.5019 57.9366 89.3214C57.6348 89.1409 57.29 89.0491 56.9023 89.0462C56.6242 89.0432 56.3386 89.0861 56.0456 89.1749C55.7527 89.2607 55.5115 89.3717 55.3221 89.5078L54.2923 89.3835L54.8427 84.9091H59.5657V85.8857H55.766L55.4464 88.5668H55.4996C55.6861 88.4188 55.9199 88.296 56.201 88.1983C56.4821 88.1007 56.7751 88.0518 57.0799 88.0518C57.6362 88.0518 58.1319 88.185 58.5669 88.4513C59.0049 88.7147 59.3482 89.0758 59.5968 89.5344C59.8483 89.9931 59.9741 90.5169 59.9741 91.1058C59.9741 91.6858 59.8439 92.2037 59.5835 92.6594C59.326 93.1122 58.9709 93.4703 58.5181 93.7337C58.0653 93.9941 57.5504 94.1243 56.9734 94.1243ZM65.6614 88.9663V89.9428H61.6842V88.9663H65.6614ZM67.0597 94V93.201L70.0604 89.9162C70.4126 89.5315 70.7026 89.1971 70.9304 88.913C71.1583 88.6259 71.327 88.3567 71.4365 88.1051C71.5489 87.8506 71.6052 87.5843 71.6052 87.3061C71.6052 86.9865 71.5282 86.7098 71.3743 86.476C71.2234 86.2422 71.0163 86.0617 70.7529 85.9345C70.4895 85.8072 70.1936 85.7436 69.8651 85.7436C69.5159 85.7436 69.2111 85.8161 68.9507 85.9611C68.6932 86.1032 68.4935 86.3029 68.3514 86.5604C68.2123 86.8178 68.1428 87.1197 68.1428 87.4659H67.0952C67.0952 86.9332 67.218 86.4657 67.4636 86.0632C67.7093 85.6607 68.0437 85.3471 68.4668 85.1222C68.893 84.8973 69.3709 84.7848 69.9006 84.7848C70.4333 84.7848 70.9053 84.8973 71.3166 85.1222C71.728 85.3471 72.0505 85.6504 72.2843 86.0321C72.5181 86.4139 72.635 86.8385 72.635 87.3061C72.635 87.6405 72.5743 87.9675 72.453 88.2871C72.3346 88.6038 72.1275 88.9574 71.8315 89.348C71.5386 89.7357 71.1317 90.2092 70.6108 90.7685L68.5689 92.9524V93.0234H72.7948V94H67.0597ZM77.5933 94.1243C76.9245 94.1243 76.3548 93.9423 75.8843 93.5783C75.4138 93.2114 75.0542 92.6802 74.8056 91.9847C74.557 91.2863 74.4328 90.4429 74.4328 89.4545C74.4328 88.4721 74.557 87.6331 74.8056 86.9377C75.0572 86.2393 75.4182 85.7066 75.8887 85.3397C76.3622 84.9698 76.9304 84.7848 77.5933 84.7848C78.2561 84.7848 78.8228 84.9698 79.2934 85.3397C79.7669 85.7066 80.1279 86.2393 80.3765 86.9377C80.628 87.6331 80.7538 88.4721 80.7538 89.4545C80.7538 90.4429 80.6295 91.2863 80.3809 91.9847C80.1323 92.6802 79.7728 93.2114 79.3022 93.5783C78.8317 93.9423 78.2621 94.1243 77.5933 94.1243ZM77.5933 93.1477C78.2561 93.1477 78.7711 92.8281 79.138 92.1889C79.505 91.5497 79.6884 90.6383 79.6884 89.4545C79.6884 88.6674 79.6041 87.9971 79.4354 87.4437C79.2697 86.8903 79.03 86.4686 78.7163 86.1786C78.4056 85.8886 78.0312 85.7436 77.5933 85.7436C76.9363 85.7436 76.4229 86.0676 76.053 86.7157C75.683 87.3609 75.4981 88.2738 75.4981 89.4545C75.4981 90.2417 75.581 90.9105 75.7467 91.4609C75.9124 92.0114 76.1506 92.4301 76.4613 92.7172C76.775 93.0042 77.1523 93.1477 77.5933 93.1477ZM85.6366 84.9091V94H84.5357V86.0632H84.4825L82.263 87.5369V86.4183L84.5357 84.9091H85.6366ZM91.163 94.1243C90.5534 94.1243 90.0148 94.0163 89.5473 93.8002C89.0827 93.5813 88.7202 93.2809 88.4597 92.8991C88.1993 92.5144 88.0706 92.0765 88.0736 91.5852C88.0706 91.2005 88.1461 90.8454 88.2999 90.5199C88.4538 90.1914 88.6639 89.9177 88.9303 89.6987C89.1996 89.4767 89.4999 89.3362 89.8314 89.277V89.2237C89.3964 89.1113 89.0501 88.8671 88.7927 88.4913C88.5352 88.1125 88.408 87.6819 88.4109 87.1996C88.408 86.7379 88.5248 86.3251 88.7616 85.9611C88.9983 85.5971 89.3238 85.3101 89.7381 85.1C90.1554 84.8899 90.6304 84.7848 91.163 84.7848C91.6898 84.7848 92.1603 84.8899 92.5746 85.1C92.9889 85.3101 93.3144 85.5971 93.5512 85.9611C93.7909 86.3251 93.9122 86.7379 93.9152 87.1996C93.9122 87.6819 93.7805 88.1125 93.5201 88.4913C93.2627 88.8671 92.9209 89.1113 92.4947 89.2237V89.277C92.8232 89.3362 93.1191 89.4767 93.3825 89.6987C93.6459 89.9177 93.856 90.1914 94.0128 90.5199C94.1697 90.8454 94.2496 91.2005 94.2525 91.5852C94.2496 92.0765 94.1164 92.5144 93.853 92.8991C93.5926 93.2809 93.2301 93.5813 92.7655 93.8002C92.3038 94.0163 91.7697 94.1243 91.163 94.1243ZM91.163 93.1477C91.5744 93.1477 91.9295 93.0811 92.2284 92.948C92.5273 92.8148 92.7581 92.6269 92.9209 92.3842C93.0836 92.1416 93.1665 91.8575 93.1694 91.532C93.1665 91.1887 93.0777 90.8854 92.9031 90.622C92.7285 90.3586 92.4903 90.1515 92.1884 90.0005C91.8895 89.8496 91.5477 89.7741 91.163 89.7741C90.7754 89.7741 90.4291 89.8496 90.1243 90.0005C89.8225 90.1515 89.5843 90.3586 89.4097 90.622C89.238 90.8854 89.1537 91.1887 89.1566 91.532C89.1537 91.8575 89.2321 92.1416 89.3919 92.3842C89.5547 92.6269 89.787 92.8148 90.0888 92.948C90.3907 93.0811 90.7487 93.1477 91.163 93.1477ZM91.163 88.8331C91.4886 88.8331 91.7771 88.768 92.0286 88.6378C92.2831 88.5076 92.4829 88.3256 92.6279 88.0918C92.7729 87.858 92.8469 87.5843 92.8498 87.2706C92.8469 86.9628 92.7744 86.695 92.6323 86.4672C92.4903 86.2363 92.2935 86.0588 92.0419 85.9345C91.7904 85.8072 91.4974 85.7436 91.163 85.7436C90.8227 85.7436 90.5253 85.8072 90.2708 85.9345C90.0163 86.0588 89.8195 86.2363 89.6804 86.4672C89.5414 86.695 89.4733 86.9628 89.4763 87.2706C89.4733 87.5843 89.5428 87.858 89.6849 88.0918C89.8299 88.3256 90.0296 88.5076 90.2841 88.6378C90.5386 88.768 90.8316 88.8331 91.163 88.8331Z" fill="#3E3E3E"/>
<path d="M37 127H33.4091V115.364H37.1591C38.2879 115.364 39.2538 115.597 40.0568 116.062C40.8598 116.525 41.4754 117.189 41.9034 118.057C42.3314 118.92 42.5455 119.955 42.5455 121.159C42.5455 122.371 42.3295 123.415 41.8977 124.29C41.4659 125.161 40.8371 125.831 40.0114 126.301C39.1856 126.767 38.1818 127 37 127ZM34.8182 125.75H36.9091C37.8712 125.75 38.6686 125.564 39.3011 125.193C39.9337 124.822 40.4053 124.294 40.7159 123.608C41.0265 122.922 41.1818 122.106 41.1818 121.159C41.1818 120.22 41.0284 119.411 40.7216 118.733C40.4148 118.051 39.9564 117.528 39.3466 117.165C38.7367 116.797 37.9773 116.614 37.0682 116.614H34.8182V125.75ZM48.3864 127.182C47.5455 127.182 46.8201 126.996 46.2102 126.625C45.6042 126.25 45.1364 125.727 44.8068 125.057C44.4811 124.383 44.3182 123.598 44.3182 122.705C44.3182 121.811 44.4811 121.023 44.8068 120.341C45.1364 119.655 45.5947 119.121 46.1818 118.739C46.7727 118.352 47.4621 118.159 48.25 118.159C48.7045 118.159 49.1534 118.235 49.5966 118.386C50.0398 118.538 50.4432 118.784 50.8068 119.125C51.1705 119.462 51.4602 119.909 51.6761 120.466C51.892 121.023 52 121.708 52 122.523V123.091H45.2727V121.932H50.6364C50.6364 121.439 50.5379 121 50.3409 120.614C50.1477 120.227 49.8712 119.922 49.5114 119.699C49.1553 119.475 48.7348 119.364 48.25 119.364C47.7159 119.364 47.2538 119.496 46.8636 119.761C46.4773 120.023 46.1799 120.364 45.9716 120.784C45.7633 121.205 45.6591 121.655 45.6591 122.136V122.909C45.6591 123.568 45.7727 124.127 46 124.585C46.2311 125.04 46.5511 125.386 46.9602 125.625C47.3693 125.86 47.8447 125.977 48.3864 125.977C48.7386 125.977 49.0568 125.928 49.3409 125.83C49.6288 125.727 49.8769 125.576 50.0852 125.375C50.2936 125.17 50.4545 124.917 50.5682 124.614L51.8636 124.977C51.7273 125.417 51.4981 125.803 51.1761 126.136C50.8542 126.466 50.4564 126.723 49.983 126.909C49.5095 127.091 48.9773 127.182 48.3864 127.182ZM60.2216 120.227L59.017 120.568C58.9413 120.367 58.8295 120.172 58.6818 119.983C58.5379 119.79 58.3409 119.631 58.0909 119.506C57.8409 119.381 57.5208 119.318 57.1307 119.318C56.5966 119.318 56.1515 119.441 55.7955 119.688C55.4432 119.93 55.267 120.239 55.267 120.614C55.267 120.947 55.3883 121.21 55.6307 121.403C55.8731 121.597 56.2519 121.758 56.767 121.886L58.0625 122.205C58.8428 122.394 59.4242 122.684 59.8068 123.074C60.1894 123.46 60.3807 123.958 60.3807 124.568C60.3807 125.068 60.2367 125.515 59.9489 125.909C59.6648 126.303 59.267 126.614 58.7557 126.841C58.2443 127.068 57.6496 127.182 56.9716 127.182C56.0814 127.182 55.3447 126.989 54.7614 126.602C54.178 126.216 53.8087 125.652 53.6534 124.909L54.9261 124.591C55.0473 125.061 55.2765 125.413 55.6136 125.648C55.9545 125.883 56.3996 126 56.9489 126C57.5739 126 58.0701 125.867 58.4375 125.602C58.8087 125.333 58.9943 125.011 58.9943 124.636C58.9943 124.333 58.8883 124.08 58.6761 123.875C58.464 123.667 58.1383 123.511 57.6989 123.409L56.2443 123.068C55.4451 122.879 54.858 122.585 54.483 122.188C54.1117 121.786 53.9261 121.284 53.9261 120.682C53.9261 120.189 54.0644 119.754 54.3409 119.375C54.6212 118.996 55.0019 118.699 55.483 118.483C55.9678 118.267 56.517 118.159 57.1307 118.159C57.9943 118.159 58.6723 118.348 59.1648 118.727C59.661 119.106 60.0133 119.606 60.2216 120.227ZM62.3991 127V118.273H63.7401V127H62.3991ZM63.081 116.818C62.8196 116.818 62.5942 116.729 62.4048 116.551C62.2192 116.373 62.1264 116.159 62.1264 115.909C62.1264 115.659 62.2192 115.445 62.4048 115.267C62.5942 115.089 62.8196 115 63.081 115C63.3423 115 63.5658 115.089 63.7514 115.267C63.9408 115.445 64.0355 115.659 64.0355 115.909C64.0355 116.159 63.9408 116.373 63.7514 116.551C63.5658 116.729 63.3423 116.818 63.081 116.818ZM69.7188 130.455C69.071 130.455 68.5142 130.371 68.0483 130.205C67.5824 130.042 67.1941 129.826 66.8835 129.557C66.5767 129.292 66.3324 129.008 66.1506 128.705L67.2188 127.955C67.34 128.114 67.4934 128.295 67.679 128.5C67.8646 128.708 68.1184 128.888 68.4403 129.04C68.7661 129.195 69.1922 129.273 69.7188 129.273C70.4233 129.273 71.0047 129.102 71.4631 128.761C71.9214 128.42 72.1506 127.886 72.1506 127.159V125.386H72.0369C71.9384 125.545 71.7983 125.742 71.6165 125.977C71.4384 126.208 71.1809 126.415 70.8438 126.597C70.5104 126.775 70.0597 126.864 69.4915 126.864C68.7869 126.864 68.1544 126.697 67.5938 126.364C67.0369 126.03 66.5956 125.545 66.2699 124.909C65.9479 124.273 65.7869 123.5 65.7869 122.591C65.7869 121.697 65.9441 120.919 66.2585 120.256C66.5729 119.589 67.0104 119.074 67.571 118.71C68.1316 118.343 68.7794 118.159 69.5142 118.159C70.0824 118.159 70.5331 118.254 70.8665 118.443C71.2036 118.629 71.4612 118.841 71.6392 119.08C71.821 119.314 71.9612 119.508 72.0597 119.659H72.196V118.273H73.4915V127.25C73.4915 128 73.321 128.61 72.9801 129.08C72.643 129.553 72.1884 129.9 71.6165 130.119C71.0483 130.343 70.4157 130.455 69.7188 130.455ZM69.6733 125.659C70.2112 125.659 70.6657 125.536 71.0369 125.29C71.4081 125.044 71.6903 124.689 71.8835 124.227C72.0767 123.765 72.1733 123.212 72.1733 122.568C72.1733 121.939 72.0786 121.384 71.8892 120.903C71.6998 120.422 71.4195 120.045 71.0483 119.773C70.6771 119.5 70.2188 119.364 69.6733 119.364C69.1051 119.364 68.6316 119.508 68.2528 119.795C67.8778 120.083 67.5956 120.47 67.4062 120.955C67.2206 121.439 67.1278 121.977 67.1278 122.568C67.1278 123.174 67.2225 123.71 67.4119 124.176C67.6051 124.638 67.8892 125.002 68.2642 125.267C68.643 125.528 69.1127 125.659 69.6733 125.659ZM77.2869 121.75V127H75.946V118.273H77.2415V119.636H77.3551C77.5597 119.193 77.8703 118.837 78.2869 118.568C78.7036 118.295 79.2415 118.159 79.9006 118.159C80.4915 118.159 81.0085 118.28 81.4517 118.523C81.8949 118.761 82.2396 119.125 82.4858 119.614C82.732 120.098 82.8551 120.712 82.8551 121.455V127H81.5142V121.545C81.5142 120.86 81.3362 120.326 80.9801 119.943C80.6241 119.557 80.1354 119.364 79.5142 119.364C79.0862 119.364 78.7036 119.456 78.3665 119.642C78.0331 119.828 77.7699 120.098 77.5767 120.455C77.3835 120.811 77.2869 121.242 77.2869 121.75ZM88.9645 127.182C88.1236 127.182 87.3982 126.996 86.7884 126.625C86.1823 126.25 85.7145 125.727 85.3849 125.057C85.0592 124.383 84.8963 123.598 84.8963 122.705C84.8963 121.811 85.0592 121.023 85.3849 120.341C85.7145 119.655 86.1728 119.121 86.7599 118.739C87.3509 118.352 88.0402 118.159 88.8281 118.159C89.2827 118.159 89.7315 118.235 90.1747 118.386C90.6179 118.538 91.0213 118.784 91.3849 119.125C91.7486 119.462 92.0384 119.909 92.2543 120.466C92.4702 121.023 92.5781 121.708 92.5781 122.523V123.091H85.8509V121.932H91.2145C91.2145 121.439 91.116 121 90.919 120.614C90.7259 120.227 90.4493 119.922 90.0895 119.699C89.7334 119.475 89.313 119.364 88.8281 119.364C88.294 119.364 87.8319 119.496 87.4418 119.761C87.0554 120.023 86.758 120.364 86.5497 120.784C86.3414 121.205 86.2372 121.655 86.2372 122.136V122.909C86.2372 123.568 86.3509 124.127 86.5781 124.585C86.8092 125.04 87.1293 125.386 87.5384 125.625C87.9474 125.86 88.4228 125.977 88.9645 125.977C89.3168 125.977 89.6349 125.928 89.919 125.83C90.2069 125.727 90.455 125.576 90.6634 125.375C90.8717 125.17 91.0327 124.917 91.1463 124.614L92.4418 124.977C92.3054 125.417 92.0762 125.803 91.7543 126.136C91.4323 126.466 91.0346 126.723 90.5611 126.909C90.0876 127.091 89.5554 127.182 88.9645 127.182ZM97.9134 127.182C97.1861 127.182 96.544 126.998 95.9872 126.631C95.4304 126.259 94.9948 125.737 94.6804 125.062C94.366 124.384 94.2088 123.583 94.2088 122.659C94.2088 121.742 94.366 120.947 94.6804 120.273C94.9948 119.598 95.4323 119.078 95.9929 118.71C96.5535 118.343 97.2012 118.159 97.9361 118.159C98.5043 118.159 98.9531 118.254 99.2827 118.443C99.616 118.629 99.8698 118.841 100.044 119.08C100.222 119.314 100.36 119.508 100.459 119.659H100.572V115.364H101.913V127H100.618V125.659H100.459C100.36 125.818 100.22 126.019 100.038 126.261C99.8565 126.5 99.5971 126.714 99.2599 126.903C98.9228 127.089 98.474 127.182 97.9134 127.182ZM98.0952 125.977C98.633 125.977 99.0876 125.837 99.4588 125.557C99.83 125.273 100.112 124.881 100.305 124.381C100.499 123.877 100.595 123.295 100.595 122.636C100.595 121.985 100.5 121.415 100.311 120.926C100.122 120.434 99.8414 120.051 99.4702 119.778C99.099 119.502 98.6406 119.364 98.0952 119.364C97.527 119.364 97.0535 119.509 96.6747 119.801C96.2997 120.089 96.0175 120.481 95.8281 120.977C95.6425 121.47 95.5497 122.023 95.5497 122.636C95.5497 123.258 95.6444 123.822 95.8338 124.33C96.027 124.833 96.3111 125.235 96.6861 125.534C97.0649 125.83 97.5346 125.977 98.0952 125.977ZM109.055 127V118.273H110.351V119.636H110.464C110.646 119.17 110.94 118.809 111.345 118.551C111.75 118.29 112.237 118.159 112.805 118.159C113.381 118.159 113.86 118.29 114.243 118.551C114.629 118.809 114.93 119.17 115.146 119.636H115.237C115.461 119.186 115.796 118.828 116.243 118.562C116.69 118.294 117.226 118.159 117.851 118.159C118.631 118.159 119.269 118.403 119.766 118.892C120.262 119.377 120.51 120.133 120.51 121.159V127H119.169V121.159C119.169 120.515 118.993 120.055 118.641 119.778C118.288 119.502 117.874 119.364 117.396 119.364C116.783 119.364 116.307 119.549 115.97 119.92C115.633 120.288 115.464 120.754 115.464 121.318V127H114.101V121.023C114.101 120.527 113.94 120.127 113.618 119.824C113.296 119.517 112.881 119.364 112.374 119.364C112.025 119.364 111.699 119.456 111.396 119.642C111.097 119.828 110.855 120.085 110.669 120.415C110.487 120.741 110.396 121.117 110.396 121.545V127H109.055ZM126.507 127.182C125.719 127.182 125.028 126.994 124.433 126.619C123.842 126.244 123.38 125.72 123.047 125.045C122.717 124.371 122.553 123.583 122.553 122.682C122.553 121.773 122.717 120.979 123.047 120.301C123.38 119.623 123.842 119.097 124.433 118.722C125.028 118.347 125.719 118.159 126.507 118.159C127.295 118.159 127.984 118.347 128.575 118.722C129.17 119.097 129.632 119.623 129.962 120.301C130.295 120.979 130.462 121.773 130.462 122.682C130.462 123.583 130.295 124.371 129.962 125.045C129.632 125.72 129.17 126.244 128.575 126.619C127.984 126.994 127.295 127.182 126.507 127.182ZM126.507 125.977C127.106 125.977 127.598 125.824 127.984 125.517C128.371 125.21 128.657 124.807 128.842 124.307C129.028 123.807 129.121 123.265 129.121 122.682C129.121 122.098 129.028 121.555 128.842 121.051C128.657 120.547 128.371 120.14 127.984 119.83C127.598 119.519 127.106 119.364 126.507 119.364C125.909 119.364 125.416 119.519 125.03 119.83C124.643 120.14 124.357 120.547 124.172 121.051C123.986 121.555 123.893 122.098 123.893 122.682C123.893 123.265 123.986 123.807 124.172 124.307C124.357 124.807 124.643 125.21 125.03 125.517C125.416 125.824 125.909 125.977 126.507 125.977ZM132.509 127V118.273H133.804V119.591H133.895C134.054 119.159 134.342 118.809 134.759 118.54C135.175 118.271 135.645 118.136 136.168 118.136C136.266 118.136 136.389 118.138 136.537 118.142C136.685 118.146 136.796 118.152 136.872 118.159V119.523C136.827 119.511 136.723 119.494 136.56 119.472C136.401 119.445 136.232 119.432 136.054 119.432C135.63 119.432 135.251 119.521 134.918 119.699C134.588 119.873 134.327 120.116 134.134 120.426C133.944 120.733 133.849 121.083 133.849 121.477V127H132.509ZM141.855 127.182C141.014 127.182 140.289 126.996 139.679 126.625C139.073 126.25 138.605 125.727 138.276 125.057C137.95 124.383 137.787 123.598 137.787 122.705C137.787 121.811 137.95 121.023 138.276 120.341C138.605 119.655 139.063 119.121 139.651 118.739C140.241 118.352 140.931 118.159 141.719 118.159C142.173 118.159 142.622 118.235 143.065 118.386C143.509 118.538 143.912 118.784 144.276 119.125C144.639 119.462 144.929 119.909 145.145 120.466C145.361 121.023 145.469 121.708 145.469 122.523V123.091H138.741V121.932H144.105C144.105 121.439 144.007 121 143.81 120.614C143.616 120.227 143.34 119.922 142.98 119.699C142.624 119.475 142.204 119.364 141.719 119.364C141.185 119.364 140.723 119.496 140.332 119.761C139.946 120.023 139.649 120.364 139.44 120.784C139.232 121.205 139.128 121.655 139.128 122.136V122.909C139.128 123.568 139.241 124.127 139.469 124.585C139.7 125.04 140.02 125.386 140.429 125.625C140.838 125.86 141.313 125.977 141.855 125.977C142.207 125.977 142.526 125.928 142.81 125.83C143.098 125.727 143.346 125.576 143.554 125.375C143.762 125.17 143.923 124.917 144.037 124.614L145.332 124.977C145.196 125.417 144.967 125.803 144.645 126.136C144.323 126.466 143.925 126.723 143.452 126.909C142.978 127.091 142.446 127.182 141.855 127.182ZM155.804 118.273V119.409H151.281V118.273H155.804ZM152.599 116.182H153.94V124.5C153.94 124.879 153.995 125.163 154.105 125.352C154.219 125.538 154.363 125.663 154.537 125.727C154.715 125.788 154.902 125.818 155.099 125.818C155.247 125.818 155.368 125.811 155.463 125.795C155.558 125.777 155.634 125.761 155.69 125.75L155.963 126.955C155.872 126.989 155.745 127.023 155.582 127.057C155.42 127.095 155.213 127.114 154.963 127.114C154.584 127.114 154.213 127.032 153.849 126.869C153.49 126.706 153.19 126.458 152.952 126.125C152.717 125.792 152.599 125.371 152.599 124.864V116.182ZM159.349 121.75V127H158.009V115.364H159.349V119.636H159.463C159.668 119.186 159.974 118.828 160.384 118.562C160.796 118.294 161.346 118.159 162.031 118.159C162.626 118.159 163.147 118.278 163.594 118.517C164.041 118.752 164.387 119.114 164.634 119.602C164.884 120.087 165.009 120.705 165.009 121.455V127H163.668V121.545C163.668 120.852 163.488 120.316 163.128 119.938C162.772 119.555 162.277 119.364 161.645 119.364C161.205 119.364 160.812 119.456 160.463 119.642C160.118 119.828 159.846 120.098 159.645 120.455C159.448 120.811 159.349 121.242 159.349 121.75ZM170.03 127.205C169.477 127.205 168.975 127.1 168.524 126.892C168.073 126.68 167.715 126.375 167.45 125.977C167.185 125.576 167.053 125.091 167.053 124.523C167.053 124.023 167.151 123.617 167.348 123.307C167.545 122.992 167.808 122.746 168.138 122.568C168.467 122.39 168.831 122.258 169.229 122.17C169.63 122.08 170.034 122.008 170.439 121.955C170.969 121.886 171.399 121.835 171.729 121.801C172.062 121.763 172.304 121.701 172.456 121.614C172.611 121.527 172.689 121.375 172.689 121.159V121.114C172.689 120.553 172.536 120.117 172.229 119.807C171.926 119.496 171.465 119.341 170.848 119.341C170.208 119.341 169.706 119.481 169.342 119.761C168.979 120.042 168.723 120.341 168.575 120.659L167.303 120.205C167.53 119.674 167.833 119.261 168.212 118.966C168.594 118.667 169.011 118.458 169.462 118.341C169.916 118.22 170.363 118.159 170.803 118.159C171.083 118.159 171.405 118.193 171.768 118.261C172.136 118.326 172.49 118.46 172.831 118.665C173.176 118.869 173.462 119.178 173.689 119.591C173.916 120.004 174.03 120.557 174.03 121.25V127H172.689V125.818H172.621C172.53 126.008 172.378 126.21 172.166 126.426C171.954 126.642 171.672 126.826 171.32 126.977C170.967 127.129 170.537 127.205 170.03 127.205ZM170.234 126C170.765 126 171.212 125.896 171.575 125.688C171.943 125.479 172.219 125.21 172.405 124.881C172.594 124.551 172.689 124.205 172.689 123.841V122.614C172.632 122.682 172.507 122.744 172.314 122.801C172.125 122.854 171.905 122.902 171.655 122.943C171.409 122.981 171.168 123.015 170.933 123.045C170.702 123.072 170.515 123.095 170.371 123.114C170.022 123.159 169.696 123.233 169.393 123.335C169.094 123.434 168.852 123.583 168.666 123.784C168.484 123.981 168.393 124.25 168.393 124.591C168.393 125.057 168.566 125.409 168.911 125.648C169.259 125.883 169.7 126 170.234 126ZM177.818 121.75V127H176.477V118.273H177.773V119.636H177.886C178.091 119.193 178.402 118.837 178.818 118.568C179.235 118.295 179.773 118.159 180.432 118.159C181.023 118.159 181.54 118.28 181.983 118.523C182.426 118.761 182.771 119.125 183.017 119.614C183.263 120.098 183.386 120.712 183.386 121.455V127H182.045V121.545C182.045 120.86 181.867 120.326 181.511 119.943C181.155 119.557 180.667 119.364 180.045 119.364C179.617 119.364 179.235 119.456 178.898 119.642C178.564 119.828 178.301 120.098 178.108 120.455C177.915 120.811 177.818 121.242 177.818 121.75ZM193.95 127.159C193.284 127.159 192.683 127.027 192.149 126.761C191.615 126.496 191.187 126.133 190.865 125.67C190.543 125.208 190.367 124.682 190.337 124.091H191.7C191.753 124.617 191.992 125.053 192.416 125.398C192.844 125.739 193.356 125.909 193.95 125.909C194.428 125.909 194.852 125.797 195.223 125.574C195.598 125.35 195.892 125.044 196.104 124.653C196.32 124.259 196.428 123.814 196.428 123.318C196.428 122.811 196.316 122.358 196.092 121.96C195.873 121.559 195.57 121.242 195.183 121.011C194.797 120.78 194.356 120.663 193.859 120.659C193.503 120.655 193.138 120.71 192.763 120.824C192.388 120.934 192.079 121.076 191.837 121.25L190.518 121.091L191.223 115.364H197.268V116.614H192.405L191.996 120.045H192.064C192.303 119.856 192.602 119.699 192.962 119.574C193.321 119.449 193.696 119.386 194.087 119.386C194.799 119.386 195.433 119.557 195.99 119.898C196.551 120.235 196.99 120.697 197.308 121.284C197.63 121.871 197.791 122.542 197.791 123.295C197.791 124.038 197.625 124.701 197.291 125.284C196.962 125.864 196.507 126.322 195.928 126.659C195.348 126.992 194.689 127.159 193.95 127.159ZM203.844 127.159C202.988 127.159 202.259 126.926 201.656 126.46C201.054 125.991 200.594 125.311 200.276 124.42C199.957 123.527 199.798 122.447 199.798 121.182C199.798 119.924 199.957 118.85 200.276 117.96C200.598 117.066 201.06 116.384 201.662 115.915C202.268 115.441 202.995 115.205 203.844 115.205C204.692 115.205 205.418 115.441 206.02 115.915C206.626 116.384 207.088 117.066 207.406 117.96C207.728 118.85 207.889 119.924 207.889 121.182C207.889 122.447 207.73 123.527 207.412 124.42C207.094 125.311 206.634 125.991 206.031 126.46C205.429 126.926 204.7 127.159 203.844 127.159ZM203.844 125.909C204.692 125.909 205.351 125.5 205.821 124.682C206.291 123.864 206.526 122.697 206.526 121.182C206.526 120.174 206.418 119.316 206.202 118.608C205.99 117.9 205.683 117.36 205.281 116.989C204.884 116.617 204.404 116.432 203.844 116.432C203.003 116.432 202.346 116.847 201.872 117.676C201.399 118.502 201.162 119.67 201.162 121.182C201.162 122.189 201.268 123.045 201.48 123.75C201.692 124.455 201.997 124.991 202.395 125.358C202.796 125.725 203.279 125.909 203.844 125.909ZM213.48 124.955V117.455H214.753V124.955H213.48ZM210.366 121.841V120.568H217.866V121.841H210.366ZM228.913 118.273V119.409H224.391V118.273H228.913ZM225.709 116.182H227.05V124.5C227.05 124.879 227.105 125.163 227.214 125.352C227.328 125.538 227.472 125.663 227.646 125.727C227.824 125.788 228.012 125.818 228.209 125.818C228.357 125.818 228.478 125.811 228.572 125.795C228.667 125.777 228.743 125.761 228.8 125.75L229.072 126.955C228.982 126.989 228.855 127.023 228.692 127.057C228.529 127.095 228.322 127.114 228.072 127.114C227.694 127.114 227.322 127.032 226.959 126.869C226.599 126.706 226.3 126.458 226.061 126.125C225.826 125.792 225.709 125.371 225.709 124.864V116.182ZM234.496 127.182C233.655 127.182 232.929 126.996 232.32 126.625C231.714 126.25 231.246 125.727 230.916 125.057C230.59 124.383 230.428 123.598 230.428 122.705C230.428 121.811 230.59 121.023 230.916 120.341C231.246 119.655 231.704 119.121 232.291 118.739C232.882 118.352 233.571 118.159 234.359 118.159C234.814 118.159 235.263 118.235 235.706 118.386C236.149 118.538 236.553 118.784 236.916 119.125C237.28 119.462 237.57 119.909 237.786 120.466C238.001 121.023 238.109 121.708 238.109 122.523V123.091H231.382V121.932H236.746C236.746 121.439 236.647 121 236.45 120.614C236.257 120.227 235.981 119.922 235.621 119.699C235.265 119.475 234.844 119.364 234.359 119.364C233.825 119.364 233.363 119.496 232.973 119.761C232.587 120.023 232.289 120.364 232.081 120.784C231.873 121.205 231.768 121.655 231.768 122.136V122.909C231.768 123.568 231.882 124.127 232.109 124.585C232.34 125.04 232.661 125.386 233.07 125.625C233.479 125.86 233.954 125.977 234.496 125.977C234.848 125.977 235.166 125.928 235.45 125.83C235.738 125.727 235.986 125.576 236.195 125.375C236.403 125.17 236.564 124.917 236.678 124.614L237.973 124.977C237.837 125.417 237.607 125.803 237.286 126.136C236.964 126.466 236.566 126.723 236.092 126.909C235.619 127.091 235.087 127.182 234.496 127.182ZM240.149 127V118.273H241.445V119.636H241.558C241.74 119.17 242.034 118.809 242.439 118.551C242.844 118.29 243.331 118.159 243.899 118.159C244.475 118.159 244.954 118.29 245.337 118.551C245.723 118.809 246.024 119.17 246.24 119.636H246.331C246.554 119.186 246.89 118.828 247.337 118.562C247.784 118.294 248.32 118.159 248.945 118.159C249.725 118.159 250.363 118.403 250.859 118.892C251.356 119.377 251.604 120.133 251.604 121.159V127H250.263V121.159C250.263 120.515 250.087 120.055 249.734 119.778C249.382 119.502 248.967 119.364 248.49 119.364C247.876 119.364 247.401 119.549 247.064 119.92C246.727 120.288 246.558 120.754 246.558 121.318V127H245.195V121.023C245.195 120.527 245.034 120.127 244.712 119.824C244.39 119.517 243.975 119.364 243.467 119.364C243.119 119.364 242.793 119.456 242.49 119.642C242.191 119.828 241.948 120.085 241.763 120.415C241.581 120.741 241.49 121.117 241.49 121.545V127H240.149ZM254.055 130.273V118.273H255.351V119.659H255.51C255.608 119.508 255.745 119.314 255.919 119.08C256.097 118.841 256.351 118.629 256.68 118.443C257.014 118.254 257.464 118.159 258.033 118.159C258.768 118.159 259.415 118.343 259.976 118.71C260.536 119.078 260.974 119.598 261.288 120.273C261.603 120.947 261.76 121.742 261.76 122.659C261.76 123.583 261.603 124.384 261.288 125.062C260.974 125.737 260.538 126.259 259.982 126.631C259.425 126.998 258.783 127.182 258.055 127.182C257.495 127.182 257.046 127.089 256.709 126.903C256.372 126.714 256.112 126.5 255.93 126.261C255.749 126.019 255.608 125.818 255.51 125.659H255.396V130.273H254.055ZM255.374 122.636C255.374 123.295 255.47 123.877 255.663 124.381C255.857 124.881 256.139 125.273 256.51 125.557C256.881 125.837 257.336 125.977 257.874 125.977C258.434 125.977 258.902 125.83 259.277 125.534C259.656 125.235 259.94 124.833 260.129 124.33C260.322 123.822 260.419 123.258 260.419 122.636C260.419 122.023 260.324 121.47 260.135 120.977C259.949 120.481 259.667 120.089 259.288 119.801C258.913 119.509 258.442 119.364 257.874 119.364C257.328 119.364 256.87 119.502 256.499 119.778C256.127 120.051 255.847 120.434 255.658 120.926C255.468 121.415 255.374 121.985 255.374 122.636ZM265.146 115.364V127H263.805V115.364H265.146ZM270.17 127.205C269.617 127.205 269.116 127.1 268.665 126.892C268.214 126.68 267.856 126.375 267.591 125.977C267.326 125.576 267.193 125.091 267.193 124.523C267.193 124.023 267.292 123.617 267.489 123.307C267.686 122.992 267.949 122.746 268.278 122.568C268.608 122.39 268.972 122.258 269.369 122.17C269.771 122.08 270.174 122.008 270.58 121.955C271.11 121.886 271.54 121.835 271.869 121.801C272.203 121.763 272.445 121.701 272.597 121.614C272.752 121.527 272.83 121.375 272.83 121.159V121.114C272.83 120.553 272.676 120.117 272.369 119.807C272.066 119.496 271.606 119.341 270.989 119.341C270.348 119.341 269.847 119.481 269.483 119.761C269.119 120.042 268.864 120.341 268.716 120.659L267.443 120.205C267.67 119.674 267.973 119.261 268.352 118.966C268.735 118.667 269.152 118.458 269.602 118.341C270.057 118.22 270.504 118.159 270.943 118.159C271.223 118.159 271.545 118.193 271.909 118.261C272.277 118.326 272.631 118.46 272.972 118.665C273.316 118.869 273.602 119.178 273.83 119.591C274.057 120.004 274.17 120.557 274.17 121.25V127H272.83V125.818H272.761C272.67 126.008 272.519 126.21 272.307 126.426C272.095 126.642 271.813 126.826 271.46 126.977C271.108 127.129 270.678 127.205 270.17 127.205ZM270.375 126C270.905 126 271.352 125.896 271.716 125.688C272.083 125.479 272.36 125.21 272.545 124.881C272.735 124.551 272.83 124.205 272.83 123.841V122.614C272.773 122.682 272.648 122.744 272.455 122.801C272.265 122.854 272.045 122.902 271.795 122.943C271.549 122.981 271.309 123.015 271.074 123.045C270.843 123.072 270.655 123.095 270.511 123.114C270.163 123.159 269.837 123.233 269.534 123.335C269.235 123.434 268.992 123.583 268.807 123.784C268.625 123.981 268.534 124.25 268.534 124.591C268.534 125.057 268.706 125.409 269.051 125.648C269.4 125.883 269.841 126 270.375 126ZM280.413 118.273V119.409H275.891V118.273H280.413ZM277.209 116.182H278.55V124.5C278.55 124.879 278.605 125.163 278.714 125.352C278.828 125.538 278.972 125.663 279.146 125.727C279.324 125.788 279.512 125.818 279.709 125.818C279.857 125.818 279.978 125.811 280.072 125.795C280.167 125.777 280.243 125.761 280.3 125.75L280.572 126.955C280.482 126.989 280.355 127.023 280.192 127.057C280.029 127.095 279.822 127.114 279.572 127.114C279.194 127.114 278.822 127.032 278.459 126.869C278.099 126.706 277.8 126.458 277.561 126.125C277.326 125.792 277.209 125.371 277.209 124.864V116.182ZM285.996 127.182C285.155 127.182 284.429 126.996 283.82 126.625C283.214 126.25 282.746 125.727 282.416 125.057C282.09 124.383 281.928 123.598 281.928 122.705C281.928 121.811 282.09 121.023 282.416 120.341C282.746 119.655 283.204 119.121 283.791 118.739C284.382 118.352 285.071 118.159 285.859 118.159C286.314 118.159 286.763 118.235 287.206 118.386C287.649 118.538 288.053 118.784 288.416 119.125C288.78 119.462 289.07 119.909 289.286 120.466C289.501 121.023 289.609 121.708 289.609 122.523V123.091H282.882V121.932H288.246C288.246 121.439 288.147 121 287.95 120.614C287.757 120.227 287.481 119.922 287.121 119.699C286.765 119.475 286.344 119.364 285.859 119.364C285.325 119.364 284.863 119.496 284.473 119.761C284.087 120.023 283.789 120.364 283.581 120.784C283.373 121.205 283.268 121.655 283.268 122.136V122.909C283.268 123.568 283.382 124.127 283.609 124.585C283.84 125.04 284.161 125.386 284.57 125.625C284.979 125.86 285.454 125.977 285.996 125.977C286.348 125.977 286.666 125.928 286.95 125.83C287.238 125.727 287.486 125.576 287.695 125.375C287.903 125.17 288.064 124.917 288.178 124.614L289.473 124.977C289.337 125.417 289.107 125.803 288.786 126.136C288.464 126.466 288.066 126.723 287.592 126.909C287.119 127.091 286.587 127.182 285.996 127.182ZM297.831 120.227L296.626 120.568C296.551 120.367 296.439 120.172 296.291 119.983C296.147 119.79 295.95 119.631 295.7 119.506C295.45 119.381 295.13 119.318 294.74 119.318C294.206 119.318 293.761 119.441 293.405 119.688C293.053 119.93 292.876 120.239 292.876 120.614C292.876 120.947 292.998 121.21 293.24 121.403C293.482 121.597 293.861 121.758 294.376 121.886L295.672 122.205C296.452 122.394 297.034 122.684 297.416 123.074C297.799 123.46 297.99 123.958 297.99 124.568C297.99 125.068 297.846 125.515 297.558 125.909C297.274 126.303 296.876 126.614 296.365 126.841C295.854 127.068 295.259 127.182 294.581 127.182C293.691 127.182 292.954 126.989 292.371 126.602C291.787 126.216 291.418 125.652 291.263 124.909L292.536 124.591C292.657 125.061 292.886 125.413 293.223 125.648C293.564 125.883 294.009 126 294.558 126C295.183 126 295.679 125.867 296.047 125.602C296.418 125.333 296.604 125.011 296.604 124.636C296.604 124.333 296.498 124.08 296.286 123.875C296.073 123.667 295.748 123.511 295.308 123.409L293.854 123.068C293.054 122.879 292.467 122.585 292.092 122.188C291.721 121.786 291.536 121.284 291.536 120.682C291.536 120.189 291.674 119.754 291.95 119.375C292.231 118.996 292.611 118.699 293.092 118.483C293.577 118.267 294.126 118.159 294.74 118.159C295.604 118.159 296.282 118.348 296.774 118.727C297.27 119.106 297.623 119.606 297.831 120.227ZM308.395 118.273V119.409H303.69V118.273H308.395ZM305.099 127V117.068C305.099 116.568 305.217 116.152 305.452 115.818C305.687 115.485 305.991 115.235 306.366 115.068C306.741 114.902 307.137 114.818 307.554 114.818C307.884 114.818 308.152 114.845 308.361 114.898C308.569 114.951 308.724 115 308.827 115.045L308.44 116.205C308.372 116.182 308.277 116.153 308.156 116.119C308.039 116.085 307.884 116.068 307.69 116.068C307.247 116.068 306.927 116.18 306.73 116.403C306.537 116.627 306.44 116.955 306.44 117.386V127H305.099ZM313.46 127.182C312.672 127.182 311.981 126.994 311.386 126.619C310.795 126.244 310.333 125.72 310 125.045C309.67 124.371 309.506 123.583 309.506 122.682C309.506 121.773 309.67 120.979 310 120.301C310.333 119.623 310.795 119.097 311.386 118.722C311.981 118.347 312.672 118.159 313.46 118.159C314.248 118.159 314.938 118.347 315.528 118.722C316.123 119.097 316.585 119.623 316.915 120.301C317.248 120.979 317.415 121.773 317.415 122.682C317.415 123.583 317.248 124.371 316.915 125.045C316.585 125.72 316.123 126.244 315.528 126.619C314.938 126.994 314.248 127.182 313.46 127.182ZM313.46 125.977C314.059 125.977 314.551 125.824 314.938 125.517C315.324 125.21 315.61 124.807 315.795 124.307C315.981 123.807 316.074 123.265 316.074 122.682C316.074 122.098 315.981 121.555 315.795 121.051C315.61 120.547 315.324 120.14 314.938 119.83C314.551 119.519 314.059 119.364 313.46 119.364C312.862 119.364 312.369 119.519 311.983 119.83C311.597 120.14 311.311 120.547 311.125 121.051C310.939 121.555 310.847 122.098 310.847 122.682C310.847 123.265 310.939 123.807 311.125 124.307C311.311 124.807 311.597 125.21 311.983 125.517C312.369 125.824 312.862 125.977 313.46 125.977ZM319.462 127V118.273H320.757V119.591H320.848C321.007 119.159 321.295 118.809 321.712 118.54C322.128 118.271 322.598 118.136 323.121 118.136C323.219 118.136 323.342 118.138 323.49 118.142C323.638 118.146 323.75 118.152 323.825 118.159V119.523C323.78 119.511 323.676 119.494 323.513 119.472C323.354 119.445 323.185 119.432 323.007 119.432C322.583 119.432 322.204 119.521 321.871 119.699C321.541 119.873 321.28 120.116 321.087 120.426C320.897 120.733 320.803 121.083 320.803 121.477V127H319.462ZM332.483 127.205C331.93 127.205 331.428 127.1 330.977 126.892C330.527 126.68 330.169 126.375 329.903 125.977C329.638 125.576 329.506 125.091 329.506 124.523C329.506 124.023 329.604 123.617 329.801 123.307C329.998 122.992 330.261 122.746 330.591 122.568C330.92 122.39 331.284 122.258 331.682 122.17C332.083 122.08 332.487 122.008 332.892 121.955C333.422 121.886 333.852 121.835 334.182 121.801C334.515 121.763 334.758 121.701 334.909 121.614C335.064 121.527 335.142 121.375 335.142 121.159V121.114C335.142 120.553 334.989 120.117 334.682 119.807C334.379 119.496 333.919 119.341 333.301 119.341C332.661 119.341 332.159 119.481 331.795 119.761C331.432 120.042 331.176 120.341 331.028 120.659L329.756 120.205C329.983 119.674 330.286 119.261 330.665 118.966C331.047 118.667 331.464 118.458 331.915 118.341C332.369 118.22 332.816 118.159 333.256 118.159C333.536 118.159 333.858 118.193 334.222 118.261C334.589 118.326 334.943 118.46 335.284 118.665C335.629 118.869 335.915 119.178 336.142 119.591C336.369 120.004 336.483 120.557 336.483 121.25V127H335.142V125.818H335.074C334.983 126.008 334.831 126.21 334.619 126.426C334.407 126.642 334.125 126.826 333.773 126.977C333.42 127.129 332.991 127.205 332.483 127.205ZM332.688 126C333.218 126 333.665 125.896 334.028 125.688C334.396 125.479 334.672 125.21 334.858 124.881C335.047 124.551 335.142 124.205 335.142 123.841V122.614C335.085 122.682 334.96 122.744 334.767 122.801C334.578 122.854 334.358 122.902 334.108 122.943C333.862 122.981 333.621 123.015 333.386 123.045C333.155 123.072 332.968 123.095 332.824 123.114C332.475 123.159 332.15 123.233 331.847 123.335C331.547 123.434 331.305 123.583 331.119 123.784C330.938 123.981 330.847 124.25 330.847 124.591C330.847 125.057 331.019 125.409 331.364 125.648C331.712 125.883 332.153 126 332.688 126ZM340.271 121.75V127H338.93V118.273H340.226V119.636H340.339C340.544 119.193 340.855 118.837 341.271 118.568C341.688 118.295 342.226 118.159 342.885 118.159C343.476 118.159 343.993 118.28 344.436 118.523C344.879 118.761 345.224 119.125 345.47 119.614C345.716 120.098 345.839 120.712 345.839 121.455V127H344.499V121.545C344.499 120.86 344.321 120.326 343.964 119.943C343.608 119.557 343.12 119.364 342.499 119.364C342.071 119.364 341.688 119.456 341.351 119.642C341.018 119.828 340.754 120.098 340.561 120.455C340.368 120.811 340.271 121.242 340.271 121.75ZM36.8864 155.182C36.0455 155.182 35.3201 154.996 34.7102 154.625C34.1042 154.25 33.6364 153.727 33.3068 153.057C32.9811 152.383 32.8182 151.598 32.8182 150.705C32.8182 149.811 32.9811 149.023 33.3068 148.341C33.6364 147.655 34.0947 147.121 34.6818 146.739C35.2727 146.352 35.9621 146.159 36.75 146.159C37.2045 146.159 37.6534 146.235 38.0966 146.386C38.5398 146.538 38.9432 146.784 39.3068 147.125C39.6705 147.462 39.9602 147.909 40.1761 148.466C40.392 149.023 40.5 149.708 40.5 150.523V151.091H33.7727V149.932H39.1364C39.1364 149.439 39.0379 149 38.8409 148.614C38.6477 148.227 38.3712 147.922 38.0114 147.699C37.6553 147.475 37.2348 147.364 36.75 147.364C36.2159 147.364 35.7538 147.496 35.3636 147.761C34.9773 148.023 34.6799 148.364 34.4716 148.784C34.2633 149.205 34.1591 149.655 34.1591 150.136V150.909C34.1591 151.568 34.2727 152.127 34.5 152.585C34.7311 153.04 35.0511 153.386 35.4602 153.625C35.8693 153.86 36.3447 153.977 36.8864 153.977C37.2386 153.977 37.5568 153.928 37.8409 153.83C38.1288 153.727 38.3769 153.576 38.5852 153.375C38.7936 153.17 38.9545 152.917 39.0682 152.614L40.3636 152.977C40.2273 153.417 39.9981 153.803 39.6761 154.136C39.3542 154.466 38.9564 154.723 38.483 154.909C38.0095 155.091 37.4773 155.182 36.8864 155.182ZM47.5398 149.386V150.636H42.4489V149.386H47.5398ZM49.8991 155V146.273H51.1946V147.636H51.3082C51.4901 147.17 51.7836 146.809 52.1889 146.551C52.5942 146.29 53.081 146.159 53.6491 146.159C54.2249 146.159 54.7041 146.29 55.0866 146.551C55.473 146.809 55.7741 147.17 55.9901 147.636H56.081C56.3045 147.186 56.6397 146.828 57.0866 146.562C57.5336 146.294 58.0696 146.159 58.6946 146.159C59.4749 146.159 60.1132 146.403 60.6094 146.892C61.1056 147.377 61.3537 148.133 61.3537 149.159V155H60.0128V149.159C60.0128 148.515 59.8366 148.055 59.4844 147.778C59.1321 147.502 58.7173 147.364 58.2401 147.364C57.6264 147.364 57.151 147.549 56.8139 147.92C56.4768 148.288 56.3082 148.754 56.3082 149.318V155H54.9446V149.023C54.9446 148.527 54.7836 148.127 54.4616 147.824C54.1397 147.517 53.7249 147.364 53.2173 147.364C52.8688 147.364 52.5431 147.456 52.2401 147.642C51.9408 147.828 51.6984 148.085 51.5128 148.415C51.331 148.741 51.2401 149.117 51.2401 149.545V155H49.8991ZM66.3736 155.205C65.8205 155.205 65.3187 155.1 64.8679 154.892C64.4171 154.68 64.0592 154.375 63.794 153.977C63.5289 153.576 63.3963 153.091 63.3963 152.523C63.3963 152.023 63.4948 151.617 63.6918 151.307C63.8887 150.992 64.152 150.746 64.4815 150.568C64.8111 150.39 65.1747 150.258 65.5724 150.17C65.974 150.08 66.3774 150.008 66.7827 149.955C67.313 149.886 67.7429 149.835 68.0724 149.801C68.4058 149.763 68.6482 149.701 68.7997 149.614C68.955 149.527 69.0327 149.375 69.0327 149.159V149.114C69.0327 148.553 68.8793 148.117 68.5724 147.807C68.2694 147.496 67.8092 147.341 67.1918 147.341C66.5516 147.341 66.0497 147.481 65.6861 147.761C65.3224 148.042 65.0668 148.341 64.919 148.659L63.6463 148.205C63.8736 147.674 64.1766 147.261 64.5554 146.966C64.938 146.667 65.3546 146.458 65.8054 146.341C66.2599 146.22 66.7069 146.159 67.1463 146.159C67.4266 146.159 67.7486 146.193 68.1122 146.261C68.4796 146.326 68.8338 146.46 69.1747 146.665C69.5194 146.869 69.8054 147.178 70.0327 147.591C70.2599 148.004 70.3736 148.557 70.3736 149.25V155H69.0327V153.818H68.9645C68.8736 154.008 68.7221 154.21 68.5099 154.426C68.2978 154.642 68.0156 154.826 67.6634 154.977C67.3111 155.129 66.8812 155.205 66.3736 155.205ZM66.5781 154C67.1084 154 67.5554 153.896 67.919 153.688C68.2865 153.479 68.563 153.21 68.7486 152.881C68.938 152.551 69.0327 152.205 69.0327 151.841V150.614C68.9759 150.682 68.8509 150.744 68.6577 150.801C68.4683 150.854 68.2486 150.902 67.9986 150.943C67.7524 150.981 67.5118 151.015 67.277 151.045C67.0459 151.072 66.8584 151.095 66.7145 151.114C66.366 151.159 66.0402 151.233 65.7372 151.335C65.438 151.434 65.1955 151.583 65.0099 151.784C64.8281 151.981 64.7372 152.25 64.7372 152.591C64.7372 153.057 64.9096 153.409 65.2543 153.648C65.6027 153.883 66.044 154 66.5781 154ZM76.3438 158.455C75.696 158.455 75.1392 158.371 74.6733 158.205C74.2074 158.042 73.8191 157.826 73.5085 157.557C73.2017 157.292 72.9574 157.008 72.7756 156.705L73.8438 155.955C73.965 156.114 74.1184 156.295 74.304 156.5C74.4896 156.708 74.7434 156.888 75.0653 157.04C75.3911 157.195 75.8172 157.273 76.3438 157.273C77.0483 157.273 77.6297 157.102 78.0881 156.761C78.5464 156.42 78.7756 155.886 78.7756 155.159V153.386H78.6619C78.5634 153.545 78.4233 153.742 78.2415 153.977C78.0634 154.208 77.8059 154.415 77.4688 154.597C77.1354 154.775 76.6847 154.864 76.1165 154.864C75.4119 154.864 74.7794 154.697 74.2188 154.364C73.6619 154.03 73.2206 153.545 72.8949 152.909C72.5729 152.273 72.4119 151.5 72.4119 150.591C72.4119 149.697 72.5691 148.919 72.8835 148.256C73.1979 147.589 73.6354 147.074 74.196 146.71C74.7566 146.343 75.4044 146.159 76.1392 146.159C76.7074 146.159 77.1581 146.254 77.4915 146.443C77.8286 146.629 78.0862 146.841 78.2642 147.08C78.446 147.314 78.5862 147.508 78.6847 147.659H78.821V146.273H80.1165V155.25C80.1165 156 79.946 156.61 79.6051 157.08C79.268 157.553 78.8134 157.9 78.2415 158.119C77.6733 158.343 77.0407 158.455 76.3438 158.455ZM76.2983 153.659C76.8362 153.659 77.2907 153.536 77.6619 153.29C78.0331 153.044 78.3153 152.689 78.5085 152.227C78.7017 151.765 78.7983 151.212 78.7983 150.568C78.7983 149.939 78.7036 149.384 78.5142 148.903C78.3248 148.422 78.0445 148.045 77.6733 147.773C77.3021 147.5 76.8438 147.364 76.2983 147.364C75.7301 147.364 75.2566 147.508 74.8778 147.795C74.5028 148.083 74.2206 148.47 74.0312 148.955C73.8456 149.439 73.7528 149.977 73.7528 150.568C73.7528 151.174 73.8475 151.71 74.0369 152.176C74.2301 152.638 74.5142 153.002 74.8892 153.267C75.268 153.528 75.7377 153.659 76.2983 153.659ZM85.1392 155.205C84.5862 155.205 84.0843 155.1 83.6335 154.892C83.1828 154.68 82.8248 154.375 82.5597 153.977C82.2945 153.576 82.1619 153.091 82.1619 152.523C82.1619 152.023 82.2604 151.617 82.4574 151.307C82.6544 150.992 82.9176 150.746 83.2472 150.568C83.5767 150.39 83.9403 150.258 84.3381 150.17C84.7396 150.08 85.143 150.008 85.5483 149.955C86.0786 149.886 86.5085 149.835 86.8381 149.801C87.1714 149.763 87.4138 149.701 87.5653 149.614C87.7206 149.527 87.7983 149.375 87.7983 149.159V149.114C87.7983 148.553 87.6449 148.117 87.3381 147.807C87.035 147.496 86.5748 147.341 85.9574 147.341C85.3172 147.341 84.8153 147.481 84.4517 147.761C84.0881 148.042 83.8324 148.341 83.6847 148.659L82.4119 148.205C82.6392 147.674 82.9422 147.261 83.321 146.966C83.7036 146.667 84.1203 146.458 84.571 146.341C85.0256 146.22 85.4725 146.159 85.9119 146.159C86.1922 146.159 86.5142 146.193 86.8778 146.261C87.2453 146.326 87.5994 146.46 87.9403 146.665C88.285 146.869 88.571 147.178 88.7983 147.591C89.0256 148.004 89.1392 148.557 89.1392 149.25V155H87.7983V153.818H87.7301C87.6392 154.008 87.4877 154.21 87.2756 154.426C87.0634 154.642 86.7813 154.826 86.429 154.977C86.0767 155.129 85.6468 155.205 85.1392 155.205ZM85.3438 154C85.8741 154 86.321 153.896 86.6847 153.688C87.0521 153.479 87.3286 153.21 87.5142 152.881C87.7036 152.551 87.7983 152.205 87.7983 151.841V150.614C87.7415 150.682 87.6165 150.744 87.4233 150.801C87.2339 150.854 87.0142 150.902 86.7642 150.943C86.518 150.981 86.2775 151.015 86.0426 151.045C85.8116 151.072 85.6241 151.095 85.4801 151.114C85.1316 151.159 84.8059 151.233 84.5028 151.335C84.2036 151.434 83.9612 151.583 83.7756 151.784C83.5938 151.981 83.5028 152.25 83.5028 152.591C83.5028 153.057 83.6752 153.409 84.0199 153.648C84.3684 153.883 84.8097 154 85.3438 154ZM91.3366 155V153.977L96.2912 147.614V147.523H91.4957V146.273H98.0185V147.341L93.2003 153.659V153.75H98.1776V155H91.3366ZM100.243 155V146.273H101.584V155H100.243ZM100.925 144.818C100.663 144.818 100.438 144.729 100.249 144.551C100.063 144.373 99.9702 144.159 99.9702 143.909C99.9702 143.659 100.063 143.445 100.249 143.267C100.438 143.089 100.663 143 100.925 143C101.186 143 101.41 143.089 101.595 143.267C101.785 143.445 101.879 143.659 101.879 143.909C101.879 144.159 101.785 144.373 101.595 144.551C101.41 144.729 101.186 144.818 100.925 144.818ZM105.381 149.75V155H104.04V146.273H105.335V147.636H105.449C105.653 147.193 105.964 146.837 106.381 146.568C106.797 146.295 107.335 146.159 107.994 146.159C108.585 146.159 109.102 146.28 109.545 146.523C109.989 146.761 110.333 147.125 110.58 147.614C110.826 148.098 110.949 148.712 110.949 149.455V155H109.608V149.545C109.608 148.86 109.43 148.326 109.074 147.943C108.718 147.557 108.229 147.364 107.608 147.364C107.18 147.364 106.797 147.456 106.46 147.642C106.127 147.828 105.864 148.098 105.67 148.455C105.477 148.811 105.381 149.242 105.381 149.75ZM117.058 155.182C116.217 155.182 115.492 154.996 114.882 154.625C114.276 154.25 113.808 153.727 113.479 153.057C113.153 152.383 112.99 151.598 112.99 150.705C112.99 149.811 113.153 149.023 113.479 148.341C113.808 147.655 114.267 147.121 114.854 146.739C115.445 146.352 116.134 146.159 116.922 146.159C117.376 146.159 117.825 146.235 118.268 146.386C118.712 146.538 119.115 146.784 119.479 147.125C119.842 147.462 120.132 147.909 120.348 148.466C120.564 149.023 120.672 149.708 120.672 150.523V151.091H113.945V149.932H119.308C119.308 149.439 119.21 149 119.013 148.614C118.82 148.227 118.543 147.922 118.183 147.699C117.827 147.475 117.407 147.364 116.922 147.364C116.388 147.364 115.926 147.496 115.536 147.761C115.149 148.023 114.852 148.364 114.643 148.784C114.435 149.205 114.331 149.655 114.331 150.136V150.909C114.331 151.568 114.445 152.127 114.672 152.585C114.903 153.04 115.223 153.386 115.632 153.625C116.041 153.86 116.517 153.977 117.058 153.977C117.411 153.977 117.729 153.928 118.013 153.83C118.301 153.727 118.549 153.576 118.757 153.375C118.965 153.17 119.126 152.917 119.24 152.614L120.536 152.977C120.399 153.417 120.17 153.803 119.848 154.136C119.526 154.466 119.128 154.723 118.655 154.909C118.181 155.091 117.649 155.182 117.058 155.182ZM130.757 155.182C129.939 155.182 129.234 154.989 128.643 154.602C128.053 154.216 127.598 153.684 127.28 153.006C126.962 152.328 126.803 151.553 126.803 150.682C126.803 149.795 126.965 149.013 127.291 148.335C127.621 147.653 128.079 147.121 128.666 146.739C129.257 146.352 129.946 146.159 130.734 146.159C131.348 146.159 131.901 146.273 132.393 146.5C132.886 146.727 133.289 147.045 133.604 147.455C133.918 147.864 134.113 148.341 134.189 148.886H132.848C132.746 148.489 132.518 148.136 132.166 147.83C131.818 147.519 131.348 147.364 130.757 147.364C130.234 147.364 129.776 147.5 129.382 147.773C128.992 148.042 128.687 148.422 128.467 148.915C128.251 149.403 128.143 149.977 128.143 150.636C128.143 151.311 128.25 151.898 128.462 152.398C128.678 152.898 128.981 153.286 129.371 153.562C129.765 153.839 130.227 153.977 130.757 153.977C131.106 153.977 131.422 153.917 131.706 153.795C131.99 153.674 132.231 153.5 132.428 153.273C132.625 153.045 132.765 152.773 132.848 152.455H134.189C134.113 152.97 133.926 153.434 133.626 153.847C133.331 154.256 132.939 154.581 132.45 154.824C131.965 155.062 131.401 155.182 130.757 155.182ZM138.717 155.205C138.164 155.205 137.662 155.1 137.212 154.892C136.761 154.68 136.403 154.375 136.138 153.977C135.873 153.576 135.74 153.091 135.74 152.523C135.74 152.023 135.839 151.617 136.036 151.307C136.232 150.992 136.496 150.746 136.825 150.568C137.155 150.39 137.518 150.258 137.916 150.17C138.318 150.08 138.721 150.008 139.126 149.955C139.657 149.886 140.087 149.835 140.416 149.801C140.75 149.763 140.992 149.701 141.143 149.614C141.299 149.527 141.376 149.375 141.376 149.159V149.114C141.376 148.553 141.223 148.117 140.916 147.807C140.613 147.496 140.153 147.341 139.536 147.341C138.895 147.341 138.393 147.481 138.03 147.761C137.666 148.042 137.411 148.341 137.263 148.659L135.99 148.205C136.217 147.674 136.52 147.261 136.899 146.966C137.282 146.667 137.698 146.458 138.149 146.341C138.604 146.22 139.051 146.159 139.49 146.159C139.77 146.159 140.092 146.193 140.456 146.261C140.823 146.326 141.178 146.46 141.518 146.665C141.863 146.869 142.149 147.178 142.376 147.591C142.604 148.004 142.717 148.557 142.717 149.25V155H141.376V153.818H141.308C141.217 154.008 141.066 154.21 140.854 154.426C140.642 154.642 140.359 154.826 140.007 154.977C139.655 155.129 139.225 155.205 138.717 155.205ZM138.922 154C139.452 154 139.899 153.896 140.263 153.688C140.63 153.479 140.907 153.21 141.092 152.881C141.282 152.551 141.376 152.205 141.376 151.841V150.614C141.32 150.682 141.195 150.744 141.001 150.801C140.812 150.854 140.592 150.902 140.342 150.943C140.096 150.981 139.856 151.015 139.621 151.045C139.39 151.072 139.202 151.095 139.058 151.114C138.71 151.159 138.384 151.233 138.081 151.335C137.782 151.434 137.539 151.583 137.354 151.784C137.172 151.981 137.081 152.25 137.081 152.591C137.081 153.057 137.253 153.409 137.598 153.648C137.946 153.883 138.388 154 138.922 154ZM146.506 143.364V155H145.165V143.364H146.506ZM150.303 143.364V155H148.962V143.364H150.303ZM156.418 155.182C155.577 155.182 154.851 154.996 154.241 154.625C153.635 154.25 153.168 153.727 152.838 153.057C152.512 152.383 152.349 151.598 152.349 150.705C152.349 149.811 152.512 149.023 152.838 148.341C153.168 147.655 153.626 147.121 154.213 146.739C154.804 146.352 155.493 146.159 156.281 146.159C156.736 146.159 157.185 146.235 157.628 146.386C158.071 146.538 158.474 146.784 158.838 147.125C159.202 147.462 159.491 147.909 159.707 148.466C159.923 149.023 160.031 149.708 160.031 150.523V151.091H153.304V149.932H158.668C158.668 149.439 158.569 149 158.372 148.614C158.179 148.227 157.902 147.922 157.543 147.699C157.187 147.475 156.766 147.364 156.281 147.364C155.747 147.364 155.285 147.496 154.895 147.761C154.509 148.023 154.211 148.364 154.003 148.784C153.795 149.205 153.69 149.655 153.69 150.136V150.909C153.69 151.568 153.804 152.127 154.031 152.585C154.262 153.04 154.582 153.386 154.991 153.625C155.401 153.86 155.876 153.977 156.418 153.977C156.77 153.977 157.088 153.928 157.372 153.83C157.66 153.727 157.908 153.576 158.116 153.375C158.325 153.17 158.486 152.917 158.599 152.614L159.895 152.977C159.759 153.417 159.529 153.803 159.207 154.136C158.885 154.466 158.488 154.723 158.014 154.909C157.541 155.091 157.009 155.182 156.418 155.182ZM165.366 155.182C164.639 155.182 163.997 154.998 163.44 154.631C162.884 154.259 162.448 153.737 162.134 153.062C161.819 152.384 161.662 151.583 161.662 150.659C161.662 149.742 161.819 148.947 162.134 148.273C162.448 147.598 162.885 147.078 163.446 146.71C164.007 146.343 164.654 146.159 165.389 146.159C165.957 146.159 166.406 146.254 166.736 146.443C167.069 146.629 167.323 146.841 167.497 147.08C167.675 147.314 167.813 147.508 167.912 147.659H168.026V143.364H169.366V155H168.071V153.659H167.912C167.813 153.818 167.673 154.019 167.491 154.261C167.31 154.5 167.05 154.714 166.713 154.903C166.376 155.089 165.927 155.182 165.366 155.182ZM165.548 153.977C166.086 153.977 166.541 153.837 166.912 153.557C167.283 153.273 167.565 152.881 167.759 152.381C167.952 151.877 168.048 151.295 168.048 150.636C168.048 149.985 167.954 149.415 167.764 148.926C167.575 148.434 167.295 148.051 166.923 147.778C166.552 147.502 166.094 147.364 165.548 147.364C164.98 147.364 164.507 147.509 164.128 147.801C163.753 148.089 163.471 148.481 163.281 148.977C163.096 149.47 163.003 150.023 163.003 150.636C163.003 151.258 163.098 151.822 163.287 152.33C163.48 152.833 163.764 153.235 164.139 153.534C164.518 153.83 164.988 153.977 165.548 153.977ZM186.054 147H184.645C184.562 146.595 184.416 146.239 184.207 145.932C184.003 145.625 183.753 145.367 183.457 145.159C183.166 144.947 182.842 144.788 182.486 144.682C182.13 144.576 181.759 144.523 181.372 144.523C180.668 144.523 180.029 144.701 179.457 145.057C178.889 145.413 178.437 145.938 178.099 146.631C177.766 147.324 177.599 148.174 177.599 149.182C177.599 150.189 177.766 151.04 178.099 151.733C178.437 152.426 178.889 152.951 179.457 153.307C180.029 153.663 180.668 153.841 181.372 153.841C181.759 153.841 182.13 153.788 182.486 153.682C182.842 153.576 183.166 153.419 183.457 153.21C183.753 152.998 184.003 152.739 184.207 152.432C184.416 152.121 184.562 151.765 184.645 151.364H186.054C185.948 151.958 185.755 152.491 185.474 152.96C185.194 153.43 184.846 153.83 184.429 154.159C184.012 154.485 183.545 154.733 183.026 154.903C182.51 155.074 181.959 155.159 181.372 155.159C180.38 155.159 179.497 154.917 178.724 154.432C177.952 153.947 177.344 153.258 176.901 152.364C176.457 151.47 176.236 150.409 176.236 149.182C176.236 147.955 176.457 146.894 176.901 146C177.344 145.106 177.952 144.417 178.724 143.932C179.497 143.447 180.38 143.205 181.372 143.205C181.959 143.205 182.51 143.29 183.026 143.46C183.545 143.631 184.012 143.881 184.429 144.21C184.846 144.536 185.194 144.934 185.474 145.403C185.755 145.869 185.948 146.402 186.054 147ZM190.717 155.205C190.164 155.205 189.662 155.1 189.212 154.892C188.761 154.68 188.403 154.375 188.138 153.977C187.873 153.576 187.74 153.091 187.74 152.523C187.74 152.023 187.839 151.617 188.036 151.307C188.232 150.992 188.496 150.746 188.825 150.568C189.155 150.39 189.518 150.258 189.916 150.17C190.318 150.08 190.721 150.008 191.126 149.955C191.657 149.886 192.087 149.835 192.416 149.801C192.75 149.763 192.992 149.701 193.143 149.614C193.299 149.527 193.376 149.375 193.376 149.159V149.114C193.376 148.553 193.223 148.117 192.916 147.807C192.613 147.496 192.153 147.341 191.536 147.341C190.895 147.341 190.393 147.481 190.03 147.761C189.666 148.042 189.411 148.341 189.263 148.659L187.99 148.205C188.217 147.674 188.52 147.261 188.899 146.966C189.282 146.667 189.698 146.458 190.149 146.341C190.604 146.22 191.051 146.159 191.49 146.159C191.77 146.159 192.092 146.193 192.456 146.261C192.823 146.326 193.178 146.46 193.518 146.665C193.863 146.869 194.149 147.178 194.376 147.591C194.604 148.004 194.717 148.557 194.717 149.25V155H193.376V153.818H193.308C193.217 154.008 193.066 154.21 192.854 154.426C192.642 154.642 192.359 154.826 192.007 154.977C191.655 155.129 191.225 155.205 190.717 155.205ZM190.922 154C191.452 154 191.899 153.896 192.263 153.688C192.63 153.479 192.907 153.21 193.092 152.881C193.282 152.551 193.376 152.205 193.376 151.841V150.614C193.32 150.682 193.195 150.744 193.001 150.801C192.812 150.854 192.592 150.902 192.342 150.943C192.096 150.981 191.856 151.015 191.621 151.045C191.39 151.072 191.202 151.095 191.058 151.114C190.71 151.159 190.384 151.233 190.081 151.335C189.782 151.434 189.539 151.583 189.354 151.784C189.172 151.981 189.081 152.25 189.081 152.591C189.081 153.057 189.253 153.409 189.598 153.648C189.946 153.883 190.388 154 190.922 154ZM200.96 146.273V147.409H196.438V146.273H200.96ZM197.756 144.182H199.097V152.5C199.097 152.879 199.152 153.163 199.261 153.352C199.375 153.538 199.519 153.663 199.693 153.727C199.871 153.788 200.059 153.818 200.256 153.818C200.403 153.818 200.525 153.811 200.619 153.795C200.714 153.777 200.79 153.761 200.847 153.75L201.119 154.955C201.028 154.989 200.902 155.023 200.739 155.057C200.576 155.095 200.369 155.114 200.119 155.114C199.741 155.114 199.369 155.032 199.006 154.869C198.646 154.706 198.347 154.458 198.108 154.125C197.873 153.792 197.756 153.371 197.756 152.864V144.182ZM202.977 158.273V146.273H204.273V147.659H204.432C204.53 147.508 204.667 147.314 204.841 147.08C205.019 146.841 205.273 146.629 205.602 146.443C205.936 146.254 206.386 146.159 206.955 146.159C207.689 146.159 208.337 146.343 208.898 146.71C209.458 147.078 209.896 147.598 210.21 148.273C210.525 148.947 210.682 149.742 210.682 150.659C210.682 151.583 210.525 152.384 210.21 153.062C209.896 153.737 209.46 154.259 208.903 154.631C208.347 154.998 207.705 155.182 206.977 155.182C206.417 155.182 205.968 155.089 205.631 154.903C205.294 154.714 205.034 154.5 204.852 154.261C204.67 154.019 204.53 153.818 204.432 153.659H204.318V158.273H202.977ZM204.295 150.636C204.295 151.295 204.392 151.877 204.585 152.381C204.778 152.881 205.061 153.273 205.432 153.557C205.803 153.837 206.258 153.977 206.795 153.977C207.356 153.977 207.824 153.83 208.199 153.534C208.578 153.235 208.862 152.833 209.051 152.33C209.244 151.822 209.341 151.258 209.341 150.636C209.341 150.023 209.246 149.47 209.057 148.977C208.871 148.481 208.589 148.089 208.21 147.801C207.835 147.509 207.364 147.364 206.795 147.364C206.25 147.364 205.792 147.502 205.42 147.778C205.049 148.051 204.769 148.434 204.58 148.926C204.39 149.415 204.295 149.985 204.295 150.636ZM216.273 155.182C215.485 155.182 214.794 154.994 214.199 154.619C213.608 154.244 213.146 153.72 212.812 153.045C212.483 152.371 212.318 151.583 212.318 150.682C212.318 149.773 212.483 148.979 212.812 148.301C213.146 147.623 213.608 147.097 214.199 146.722C214.794 146.347 215.485 146.159 216.273 146.159C217.061 146.159 217.75 146.347 218.341 146.722C218.936 147.097 219.398 147.623 219.727 148.301C220.061 148.979 220.227 149.773 220.227 150.682C220.227 151.583 220.061 152.371 219.727 153.045C219.398 153.72 218.936 154.244 218.341 154.619C217.75 154.994 217.061 155.182 216.273 155.182ZM216.273 153.977C216.871 153.977 217.364 153.824 217.75 153.517C218.136 153.21 218.422 152.807 218.608 152.307C218.794 151.807 218.886 151.265 218.886 150.682C218.886 150.098 218.794 149.555 218.608 149.051C218.422 148.547 218.136 148.14 217.75 147.83C217.364 147.519 216.871 147.364 216.273 147.364C215.674 147.364 215.182 147.519 214.795 147.83C214.409 148.14 214.123 148.547 213.938 149.051C213.752 149.555 213.659 150.098 213.659 150.682C213.659 151.265 213.752 151.807 213.938 152.307C214.123 152.807 214.409 153.21 214.795 153.517C215.182 153.824 215.674 153.977 216.273 153.977ZM228.456 148.227L227.251 148.568C227.176 148.367 227.064 148.172 226.916 147.983C226.772 147.79 226.575 147.631 226.325 147.506C226.075 147.381 225.755 147.318 225.365 147.318C224.831 147.318 224.386 147.441 224.03 147.688C223.678 147.93 223.501 148.239 223.501 148.614C223.501 148.947 223.623 149.21 223.865 149.403C224.107 149.597 224.486 149.758 225.001 149.886L226.297 150.205C227.077 150.394 227.659 150.684 228.041 151.074C228.424 151.46 228.615 151.958 228.615 152.568C228.615 153.068 228.471 153.515 228.183 153.909C227.899 154.303 227.501 154.614 226.99 154.841C226.479 155.068 225.884 155.182 225.206 155.182C224.316 155.182 223.579 154.989 222.996 154.602C222.412 154.216 222.043 153.652 221.888 152.909L223.161 152.591C223.282 153.061 223.511 153.413 223.848 153.648C224.189 153.883 224.634 154 225.183 154C225.808 154 226.304 153.867 226.672 153.602C227.043 153.333 227.229 153.011 227.229 152.636C227.229 152.333 227.123 152.08 226.911 151.875C226.698 151.667 226.373 151.511 225.933 151.409L224.479 151.068C223.679 150.879 223.092 150.585 222.717 150.188C222.346 149.786 222.161 149.284 222.161 148.682C222.161 148.189 222.299 147.754 222.575 147.375C222.856 146.996 223.236 146.699 223.717 146.483C224.202 146.267 224.751 146.159 225.365 146.159C226.229 146.159 226.907 146.348 227.399 146.727C227.895 147.106 228.248 147.606 228.456 148.227ZM234.429 146.273V147.409H229.906V146.273H234.429ZM231.224 144.182H232.565V152.5C232.565 152.879 232.62 153.163 232.73 153.352C232.844 153.538 232.988 153.663 233.162 153.727C233.34 153.788 233.527 153.818 233.724 153.818C233.872 153.818 233.993 153.811 234.088 153.795C234.183 153.777 234.259 153.761 234.315 153.75L234.588 154.955C234.497 154.989 234.37 155.023 234.207 155.057C234.045 155.095 233.838 155.114 233.588 155.114C233.209 155.114 232.838 155.032 232.474 154.869C232.115 154.706 231.815 154.458 231.577 154.125C231.342 153.792 231.224 153.371 231.224 152.864V144.182Z" fill="black"/>
<defs>
<clipPath id="clip0_1794_3267">
<rect width="66" height="19" fill="white" transform="matrix(-1 0 0 -1 98 51)"/>
</clipPath>
</defs>
</svg>
