<svg width="123" height="44" viewBox="0 0 123 44" fill="none" xmlns="http://www.w3.org/2000/svg">
<g clip-path="url(#clip0_1558_3742)">
<mask id="mask0_1558_3742" style="mask-type:luminance" maskUnits="userSpaceOnUse" x="30" y="10" width="2" height="3">
<path d="M30.1688 12.6622L31.6423 10.8305L31.2409 10.1314L30.1688 12.6622Z" fill="white"/>
</mask>
<g mask="url(#mask0_1558_3742)">
<rect x="30.1687" y="10.1285" width="1.47626" height="2.53455" fill="#3E3E3E"/>
</g>
<mask id="mask1_1558_3742" style="mask-type:luminance" maskUnits="userSpaceOnUse" x="22" y="34" width="10" height="5">
<path d="M22.3562 36.3626L26.1137 38.5356L31.6441 34.9324L22.3562 36.3626Z" fill="white"/>
</mask>
<g mask="url(#mask1_1558_3742)">
<rect width="8.63536" height="5.75459" transform="matrix(1.07528 -4.11036e-07 3.01066e-06 0.62567 22.3591 34.9344)" fill="#3E3E3E"/>
</g>
<mask id="mask2_1558_3742" style="mask-type:luminance" maskUnits="userSpaceOnUse" x="9" y="38" width="1" height="1">
<path d="M9.04047 38.6797L9.95695 38.6781L9.77375 38.1042L9.04047 38.6797Z" fill="white"/>
</mask>
<g mask="url(#mask2_1558_3742)">
<rect x="9.03711" y="38.1062" width="0.916056" height="0.575193" fill="#3E3E3E"/>
</g>
<mask id="mask3_1558_3742" style="mask-type:luminance" maskUnits="userSpaceOnUse" x="8" y="4" width="40" height="35">
<path d="M8.63684 38.6813H47.6704L28.1337 4.73566L8.63684 38.6813Z" fill="white"/>
</mask>
<g mask="url(#mask3_1558_3742)">
<path d="M11.5519 43.6458L2.67419 43.6874L9.76779 38.1061L11.5519 43.6458Z" fill="#3E3E3E" stroke="url(#paint0_linear_1558_3742)" stroke-width="0.0490453" stroke-miterlimit="10"/>
</g>
<mask id="mask4_1558_3742" style="mask-type:luminance" maskUnits="userSpaceOnUse" x="8" y="38" width="2" height="1">
<path d="M9.77342 38.0803L8.74438 38.0803L8.64486 38.6807L9.6739 38.6807L9.77342 38.0803Z" fill="white"/>
</mask>
<g mask="url(#mask4_1558_3742)">
<rect x="8.63684" y="38.0766" width="1.13624" height="0.604893" fill="#3E3E3E"/>
</g>
<mask id="mask5_1558_3742" style="mask-type:luminance" maskUnits="userSpaceOnUse" x="9" y="36" width="1" height="3">
<path d="M9.4918 37.1833L9.76717 38.1017L9.97952 36.3455L9.4918 37.1833Z" fill="white"/>
</mask>
<g mask="url(#mask5_1558_3742)">
<rect width="1.61026" height="2.43405" transform="matrix(0.300688 -3.29391e-06 2.20951e-07 0.723374 9.49451 36.3459)" fill="#3E3E3E"/>
</g>
<mask id="mask6_1558_3742" style="mask-type:luminance" maskUnits="userSpaceOnUse" x="8" y="4" width="40" height="35">
<path d="M8.63733 38.6817H47.6709L28.1342 4.73608L8.63733 38.6817Z" fill="white"/>
</mask>
<g mask="url(#mask6_1558_3742)">
<path d="M10.2765 33.8555L9.76859 38.1069L7.67517 31.0874L10.2765 33.8555Z" fill="#3E3E3E" stroke="url(#paint1_linear_1558_3742)" stroke-width="0.0490453" stroke-miterlimit="10"/>
</g>
<mask id="mask7_1558_3742" style="mask-type:luminance" maskUnits="userSpaceOnUse" x="8" y="37" width="2" height="2">
<path d="M8.98166 38.0758L9.7602 38.1104L9.48879 37.1844L8.98166 38.0758Z" fill="white"/>
</mask>
<g mask="url(#mask7_1558_3742)">
<rect width="0.716287" height="1.09894" transform="matrix(1.09441 8.40599e-07 2.77785e-07 0.835066 8.9834 37.1888)" fill="#3E3E3E"/>
</g>
<mask id="mask8_1558_3742" style="mask-type:luminance" maskUnits="userSpaceOnUse" x="26" y="38" width="1" height="1">
<path d="M26.0619 38.6802L26.1669 38.6846L26.1123 38.5343L26.0619 38.6802Z" fill="white"/>
</mask>
<g mask="url(#mask8_1558_3742)">
<rect width="0.133061" height="0.1335" transform="matrix(0.777645 -1.62749e-06 -1.0812e-07 1.10317 26.0626 38.5345)" fill="#3E3E3E"/>
</g>
<mask id="mask9_1558_3742" style="mask-type:luminance" maskUnits="userSpaceOnUse" x="22" y="29" width="10" height="8">
<path d="M22.3647 36.359L31.6389 34.9351L27.7316 29.8093L22.3647 36.359Z" fill="white"/>
</mask>
<g mask="url(#mask9_1558_3742)">
<rect x="22.3585" y="29.8135" width="9.28538" height="6.54893" fill="#3E3E3E"/>
</g>
<mask id="mask10_1558_3742" style="mask-type:luminance" maskUnits="userSpaceOnUse" x="22" y="29" width="6" height="8">
<path d="M23.7889 30.8916L22.361 36.3625L27.7271 29.8159L23.7889 30.8916Z" fill="white"/>
</mask>
<g mask="url(#mask10_1558_3742)">
<rect x="22.3591" y="29.8132" width="5.374" height="6.54892" fill="#3E3E3E"/>
</g>
<mask id="mask11_1558_3742" style="mask-type:luminance" maskUnits="userSpaceOnUse" x="27" y="19" width="7" height="7">
<path d="M27.4282 21.4379L33.3821 25.2792L30.6554 19.0231L27.4282 21.4379Z" fill="white"/>
</mask>
<g mask="url(#mask11_1558_3742)">
<rect x="27.4265" y="19.0275" width="5.95764" height="6.25792" fill="#3E3E3E"/>
</g>
<path d="M31.6235 14.7889L30.6562 19.0272L33.6398 14.3003L33.4572 13.9813L31.6235 14.7889Z" fill="#3E3E3E"/>
<mask id="mask12_1558_3742" style="mask-type:luminance" maskUnits="userSpaceOnUse" x="27" y="4" width="2" height="2">
<path d="M27.8643 5.19688L28.4253 5.2463L28.1354 4.73561L27.8643 5.19688Z" fill="white"/>
</mask>
<g mask="url(#mask12_1558_3742)">
<rect x="27.8695" y="4.73572" width="0.556665" height="0.509526" fill="#3E3E3E"/>
</g>
<mask id="mask13_1558_3742" style="mask-type:luminance" maskUnits="userSpaceOnUse" x="20" y="36" width="7" height="3">
<path d="M20.6599 37.3331L26.1127 38.5354L22.3613 36.3647L20.6599 37.3331Z" fill="white"/>
</mask>
<g mask="url(#mask13_1558_3742)">
<rect width="5.27498" height="2.26042" transform="matrix(1.03386 1.67158e-06 1.3769e-06 0.961073 20.6593 36.3622)" fill="#3E3E3E"/>
</g>
<mask id="mask14_1558_3742" style="mask-type:luminance" maskUnits="userSpaceOnUse" x="36" y="26" width="6" height="2">
<path d="M36.7337 27.6031L41.3529 27.7058L40.5054 26.2333L36.7337 27.6031Z" fill="white"/>
</mask>
<g mask="url(#mask14_1558_3742)">
<rect width="4.42556" height="2.59359" transform="matrix(1.0434 2.80846e-08 2.33916e-06 0.56657 36.7356 26.2345)" fill="#3E3E3E"/>
</g>
<mask id="mask15_1558_3742" style="mask-type:luminance" maskUnits="userSpaceOnUse" x="27" y="21" width="7" height="7">
<path d="M29.5257 27.2175L33.3848 25.2814L27.4301 21.4359L29.5257 27.2175Z" fill="white"/>
</mask>
<g mask="url(#mask15_1558_3742)">
<rect x="27.427" y="21.4376" width="5.95764" height="5.77971" fill="#3E3E3E"/>
</g>
<mask id="mask16_1558_3742" style="mask-type:luminance" maskUnits="userSpaceOnUse" x="33" y="20" width="4" height="8">
<path d="M33.3865 25.2864L36.736 27.6067L36.5919 20.9392L33.3865 25.2864Z" fill="white"/>
</mask>
<g mask="url(#mask16_1558_3742)">
<rect width="4.69513" height="6.0585" transform="matrix(0.71352 1.99476e-06 6.82934e-08 1.10051 33.3851 20.9367)" fill="#3E3E3E"/>
</g>
<mask id="mask17_1558_3742" style="mask-type:luminance" maskUnits="userSpaceOnUse" x="30" y="19" width="7" height="7">
<path d="M33.3866 25.2883L36.5929 20.9356L30.6591 19.0258L33.3866 25.2883Z" fill="white"/>
</mask>
<g mask="url(#mask17_1558_3742)">
<rect x="30.6558" y="19.0269" width="5.93801" height="6.25791" fill="#3E3E3E"/>
</g>
<mask id="mask18_1558_3742" style="mask-type:luminance" maskUnits="userSpaceOnUse" x="36" y="20" width="5" height="8">
<path d="M36.739 27.6058L40.5073 26.2372L37.9146 21.7201L36.5915 20.9344L36.739 27.6058Z" fill="white"/>
</mask>
<g mask="url(#mask18_1558_3742)">
<rect width="3.91328" height="6.66743" transform="matrix(0.999999 -4.47136e-07 -1.2867e-06 1 36.5936 20.9367)" fill="#3E3E3E"/>
</g>
<mask id="mask19_1558_3742" style="mask-type:luminance" maskUnits="userSpaceOnUse" x="32" y="25" width="5" height="5">
<path d="M32.6183 29.4528L36.7347 27.6051L33.3875 25.285L32.6183 29.4528Z" fill="white"/>
</mask>
<g mask="url(#mask19_1558_3742)">
<rect width="4.19408" height="4.09802" transform="matrix(0.981573 -1.30487e-06 -4.65431e-07 1.01722 32.6178 25.2851)" fill="#3E3E3E"/>
</g>
<mask id="mask20_1558_3742" style="mask-type:luminance" maskUnits="userSpaceOnUse" x="29" y="25" width="5" height="5">
<path d="M29.5249 27.219L32.6177 29.456L33.3829 25.2843L29.5249 27.219Z" fill="white"/>
</mask>
<g mask="url(#mask20_1558_3742)">
<rect width="4.01507" height="4.03207" transform="matrix(0.961072 -3.71012e-07 -1.0407e-06 1.03386 29.5258 25.2847)" fill="#3E3E3E"/>
</g>
<mask id="mask21_1558_3742" style="mask-type:luminance" maskUnits="userSpaceOnUse" x="27" y="27" width="6" height="3">
<path d="M27.7359 29.8129L32.6183 29.4538L29.5234 27.2164L27.7359 29.8129Z" fill="white"/>
</mask>
<g mask="url(#mask21_1558_3742)">
<rect x="27.733" y="27.2177" width="4.88493" height="2.59614" fill="#3E3E3E"/>
</g>
<mask id="mask22_1558_3742" style="mask-type:luminance" maskUnits="userSpaceOnUse" x="27" y="29" width="6" height="6">
<path d="M27.7343 29.8125L31.6422 34.9309L32.6158 29.4507L27.7343 29.8125Z" fill="white"/>
</mask>
<g mask="url(#mask22_1558_3742)">
<rect width="6.49905" height="4.96603" transform="matrix(0.751635 8.7645e-07 7.96958e-08 1.10366 27.733 29.454)" fill="#3E3E3E"/>
</g>
<mask id="mask23_1558_3742" style="mask-type:luminance" maskUnits="userSpaceOnUse" x="8" y="4" width="40" height="35">
<path d="M8.63967 38.6883L47.6696 38.685L28.1295 4.73108L8.63967 38.6883Z" fill="white"/>
</mask>
<g mask="url(#mask23_1558_3742)">
<mask id="mask24_1558_3742" style="mask-type:luminance" maskUnits="userSpaceOnUse" x="12" y="18" width="7" height="11">
<path d="M18.7945 19.6252L12.5134 28.0945L15.1749 18.4625L18.7945 19.6252Z" fill="white"/>
</mask>
<g mask="url(#mask24_1558_3742)">
<rect width="3.3951" height="5.10208" transform="matrix(0.923818 -1.70996e-06 -9.96319e-08 1.05852 14.6722 22.6906)" fill="#3E3E3E"/>
</g>
</g>
<path d="M44.5333 37.1494L45.9196 35.6467L45.5539 35.0067L44.5333 37.1494Z" fill="#3E3E3E"/>
<mask id="mask25_1558_3742" style="mask-type:luminance" maskUnits="userSpaceOnUse" x="43" y="31" width="3" height="7">
<path d="M44.5364 37.1461L45.5558 35.0033L43.7749 31.9184L44.5364 37.1461Z" fill="white"/>
</mask>
<g mask="url(#mask25_1558_3742)">
<rect x="43.7747" y="31.9117" width="1.78116" height="5.23723" fill="#3E3E3E"/>
</g>
<path d="M27.4316 13.3192L29.3667 12.9673L30.1583 12.6448L31.2431 10.1527L29.3667 6.8689L27.4316 13.3192Z" fill="#3E3E3E"/>
<path d="M29.3625 12.9561L27.4365 13.3015L31.6229 14.7856L30.1696 12.6636L29.3625 12.9561Z" fill="#3E3E3E"/>
<path d="M23.7203 16.2382L25.6644 17.8405L26.7005 18.1716L31.6248 14.7855L27.4268 13.3007L23.7203 16.2382Z" fill="#3E3E3E"/>
<mask id="mask26_1558_3742" style="mask-type:luminance" maskUnits="userSpaceOnUse" x="42" y="37" width="3" height="2">
<path d="M42.5096 38.6845L44.876 38.6841L44.5366 37.1463L42.5096 38.6845Z" fill="white"/>
</mask>
<g mask="url(#mask26_1558_3742)">
<rect width="2.16962" height="2.31462" transform="matrix(1.08883 2.57096e-07 -1.69384e-06 0.662052 42.5138 37.1493)" fill="#3E3E3E"/>
</g>
<mask id="mask27_1558_3742" style="mask-type:luminance" maskUnits="userSpaceOnUse" x="25" y="17" width="2" height="4">
<path d="M25.8776 20.9388L26.6948 18.1654L25.662 17.8333L25.8776 20.9388Z" fill="white"/>
</mask>
<g mask="url(#mask27_1558_3742)">
<rect width="1.71228" height="2.91652" transform="matrix(0.603261 5.66747e-07 4.18705e-07 1.06466 25.6626 17.8347)" fill="#3E3E3E"/>
</g>
<mask id="mask28_1558_3742" style="mask-type:luminance" maskUnits="userSpaceOnUse" x="19" y="17" width="7" height="4">
<path d="M19.719 19.379L19.502 19.7569L25.8778 20.9379L25.6644 17.8351L19.719 19.379Z" fill="white"/>
</mask>
<g mask="url(#mask28_1558_3742)">
<rect x="19.5055" y="17.8347" width="6.37263" height="3.10511" fill="#3E3E3E"/>
</g>
<mask id="mask29_1558_3742" style="mask-type:luminance" maskUnits="userSpaceOnUse" x="30" y="12" width="4" height="3">
<path d="M31.6215 14.7861L33.2472 13.6175L33.0278 13.2408L30.1699 12.6632L31.6215 14.7861Z" fill="white"/>
</mask>
<g mask="url(#mask29_1558_3742)">
<rect x="30.1681" y="12.6626" width="3.07842" height="2.12339" fill="#3E3E3E"/>
</g>
<mask id="mask30_1558_3742" style="mask-type:luminance" maskUnits="userSpaceOnUse" x="24" y="21" width="6" height="7">
<path d="M24.3789 27.4914L29.5252 27.2195L27.4306 21.4382L24.3789 27.4914Z" fill="white"/>
</mask>
<g mask="url(#mask30_1558_3742)">
<rect width="6.63862" height="5.48914" transform="matrix(0.774825 -1.62555e-06 -2.4552e-07 1.10332 24.382 21.4376)" fill="#3E3E3E"/>
</g>
<mask id="mask31_1558_3742" style="mask-type:luminance" maskUnits="userSpaceOnUse" x="24" y="27" width="6" height="3">
<path d="M24.3838 27.4946L27.734 29.8149L29.5275 27.2161L24.3838 27.4946Z" fill="white"/>
</mask>
<g mask="url(#mask31_1558_3742)">
<rect width="4.90973" height="2.75759" transform="matrix(1.04767 -5.92273e-07 -2.18415e-06 0.941452 24.3817 27.2167)" fill="#3E3E3E"/>
</g>
<mask id="mask32_1558_3742" style="mask-type:luminance" maskUnits="userSpaceOnUse" x="24" y="20" width="4" height="8">
<path d="M24.3804 27.4886L27.4263 21.4347L25.8824 20.9382L24.3804 27.4886Z" fill="white"/>
</mask>
<g mask="url(#mask32_1558_3742)">
<rect x="24.3828" y="20.9399" width="3.04489" height="6.5541" fill="#3E3E3E"/>
</g>
<mask id="mask33_1558_3742" style="mask-type:luminance" maskUnits="userSpaceOnUse" x="19" y="19" width="7" height="9">
<path d="M19.2269 20.2443L24.3852 27.5004L25.8786 20.9444L19.5 19.7567L19.2269 20.2443Z" fill="white"/>
</mask>
<g mask="url(#mask33_1558_3742)">
<rect x="19.2267" y="19.7578" width="6.65109" height="7.7361" fill="#3E3E3E"/>
</g>
<mask id="mask34_1558_3742" style="mask-type:luminance" maskUnits="userSpaceOnUse" x="23" y="27" width="5" height="4">
<path d="M23.7927 30.8911L27.7341 29.8118L24.3798 27.4935L23.7927 30.8911Z" fill="white"/>
</mask>
<g mask="url(#mask34_1558_3742)">
<rect width="4.02279" height="3.33387" transform="matrix(0.979618 -1.78824e-08 1.62144e-06 1.01891 23.7924 27.4941)" fill="#3E3E3E"/>
</g>
<mask id="mask35_1558_3742" style="mask-type:luminance" maskUnits="userSpaceOnUse" x="20" y="27" width="5" height="5">
<path d="M20.4017 31.5935L23.7893 30.8923L24.384 27.4939L20.4017 31.5935Z" fill="white"/>
</mask>
<g mask="url(#mask35_1558_3742)">
<rect x="20.3994" y="27.4938" width="3.98302" height="4.0991" fill="#3E3E3E"/>
</g>
<mask id="mask36_1558_3742" style="mask-type:luminance" maskUnits="userSpaceOnUse" x="14" y="20" width="11" height="8">
<path d="M14.7833 27.9699L24.3772 27.494L19.2359 20.2402L14.7833 27.9699Z" fill="white"/>
</mask>
<g mask="url(#mask36_1558_3742)">
<rect x="14.7843" y="20.2426" width="9.59736" height="7.73471" fill="#3E3E3E"/>
</g>
<mask id="mask37_1558_3742" style="mask-type:luminance" maskUnits="userSpaceOnUse" x="14" y="27" width="11" height="5">
<path d="M14.7909 27.9788L14.279 28.8697L20.3933 31.5962L24.38 27.4972L14.7909 27.9788Z" fill="white"/>
</mask>
<g mask="url(#mask37_1558_3742)">
<rect x="14.272" y="27.4941" width="10.111" height="4.09909" fill="#3E3E3E"/>
</g>
<mask id="mask38_1558_3742" style="mask-type:luminance" maskUnits="userSpaceOnUse" x="15" y="37" width="6" height="2">
<path d="M15.0994 38.6805L20.5576 38.6777L20.6594 37.3338L15.0994 38.6805Z" fill="white"/>
</mask>
<g mask="url(#mask38_1558_3742)">
<rect x="15.1025" y="37.333" width="5.55711" height="1.3482" fill="#3E3E3E"/>
</g>
<mask id="mask39_1558_3742" style="mask-type:luminance" maskUnits="userSpaceOnUse" x="8" y="4" width="40" height="35">
<path d="M8.6366 38.6813H47.6702L28.1335 4.73566L8.6366 38.6813Z" fill="white"/>
</mask>
<g mask="url(#mask39_1558_3742)">
<path d="M20.6594 37.3331L20.3839 40.9696L14.7927 38.7565L20.6594 37.3331Z" fill="#3E3E3E" stroke="url(#paint2_linear_1558_3742)" stroke-width="0.0490453" stroke-miterlimit="10"/>
</g>
<mask id="mask40_1558_3742" style="mask-type:luminance" maskUnits="userSpaceOnUse" x="8" y="4" width="40" height="35">
<path d="M8.63758 38.6845L47.6701 38.6824L28.1334 4.73732L8.63758 38.6845Z" fill="white"/>
</mask>
<g mask="url(#mask40_1558_3742)">
<path d="M16.0429 42.1953L11.5526 43.6472L14.7932 38.7542L16.0429 42.1953Z" fill="#3E3E3E" stroke="url(#paint3_linear_1558_3742)" stroke-width="0.0660373" stroke-miterlimit="10"/>
</g>
<mask id="mask41_1558_3742" style="mask-type:luminance" maskUnits="userSpaceOnUse" x="9" y="38" width="6" height="1">
<path d="M9.95284 38.6785L14.2154 38.6802L9.77032 38.1114L9.95284 38.6785Z" fill="white"/>
</mask>
<g mask="url(#mask41_1558_3742)">
<rect width="5.69368" height="0.521493" transform="matrix(0.780619 -7.42922e-07 -4.14526e-07 1.10297 9.7677 38.1065)" fill="#3E3E3E"/>
</g>
<mask id="mask42_1558_3742" style="mask-type:luminance" maskUnits="userSpaceOnUse" x="8" y="4" width="40" height="35">
<path d="M8.6366 38.6817H47.6701L28.1335 4.73608L8.6366 38.6817Z" fill="white"/>
</mask>
<g mask="url(#mask42_1558_3742)">
<path d="M9.76794 38.1065L11.5521 43.6462L14.7924 38.7566L9.76794 38.1065Z" fill="#3E3E3E" stroke="url(#paint4_linear_1558_3742)" stroke-width="0.0490453" stroke-miterlimit="10"/>
</g>
<mask id="mask43_1558_3742" style="mask-type:luminance" maskUnits="userSpaceOnUse" x="13" y="28" width="8" height="7">
<path d="M13.1809 30.7708L14.008 34.0918L20.402 31.5913L14.2739 28.8711L13.1809 30.7708Z" fill="white"/>
</mask>
<g mask="url(#mask43_1558_3742)">
<rect x="13.182" y="28.8709" width="7.21704" height="5.21896" fill="#3E3E3E"/>
</g>
<mask id="mask44_1558_3742" style="mask-type:luminance" maskUnits="userSpaceOnUse" x="11" y="30" width="4" height="5">
<path d="M11.3679 33.9232L14.0096 34.0936L13.183 30.7642L11.3679 33.9232Z" fill="white"/>
</mask>
<g mask="url(#mask44_1558_3742)">
<rect width="3.90772" height="3.04051" transform="matrix(0.675655 1.61052e-06 1.55374e-07 1.09276 11.3696 30.7674)" fill="#3E3E3E"/>
</g>
<mask id="mask45_1558_3742" style="mask-type:luminance" maskUnits="userSpaceOnUse" x="9" y="34" width="6" height="5">
<path d="M9.7682 38.1049L14.2153 38.6804L14.7812 38.6846L14.0072 34.0897L9.7682 38.1049Z" fill="white"/>
</mask>
<g mask="url(#mask45_1558_3742)">
<rect x="9.76831" y="34.0903" width="5.01217" height="4.59119" fill="#3E3E3E"/>
</g>
<mask id="mask46_1558_3742" style="mask-type:luminance" maskUnits="userSpaceOnUse" x="8" y="4" width="40" height="35">
<path d="M8.63684 38.6813H47.6704L28.1337 4.73566L8.63684 38.6813Z" fill="white"/>
</mask>
<g mask="url(#mask46_1558_3742)">
<path d="M14.7927 38.7563L9.76831 38.1062L14.0099 34.0902L14.7927 38.7563Z" fill="#3E3E3E" stroke="url(#paint5_linear_1558_3742)" stroke-width="0.0490453" stroke-miterlimit="10"/>
</g>
<mask id="mask47_1558_3742" style="mask-type:luminance" maskUnits="userSpaceOnUse" x="9" y="33" width="6" height="6">
<path d="M9.97743 36.3424L9.76685 38.105L14.0117 34.0917L11.3655 33.926L9.97743 36.3424Z" fill="white"/>
</mask>
<g mask="url(#mask47_1558_3742)">
<rect width="4.22671" height="4.21375" transform="matrix(1.00352 -4.02667e-08 -1.14252e-06 0.992518 9.76782 33.9238)" fill="#3E3E3E"/>
</g>
<mask id="mask48_1558_3742" style="mask-type:luminance" maskUnits="userSpaceOnUse" x="19" y="30" width="5" height="7">
<path d="M19.0643 34.2013L22.3586 36.366L23.7937 30.8938L19.0643 34.2013Z" fill="white"/>
</mask>
<g mask="url(#mask48_1558_3742)">
<rect x="19.0648" y="30.8911" width="4.72688" height="5.47155" fill="#3E3E3E"/>
</g>
<mask id="mask49_1558_3742" style="mask-type:luminance" maskUnits="userSpaceOnUse" x="19" y="30" width="5" height="5">
<path d="M20.4007 31.5909L19.0642 34.2001L23.7943 30.8907L20.4007 31.5909Z" fill="white"/>
</mask>
<g mask="url(#mask49_1558_3742)">
<rect width="4.4029" height="5.32035" transform="matrix(1.07358 1.09586e-07 -2.95428e-06 0.621836 19.0658 30.8904)" fill="#3E3E3E"/>
</g>
<mask id="mask50_1558_3742" style="mask-type:luminance" maskUnits="userSpaceOnUse" x="14" y="31" width="7" height="4">
<path d="M14.0079 34.0918L19.0648 34.199L20.4017 31.5932L14.0079 34.0918Z" fill="white"/>
</mask>
<g mask="url(#mask50_1558_3742)">
<rect x="14.0095" y="31.593" width="6.38954" height="2.60621" fill="#3E3E3E"/>
</g>
<path d="M20.3995 31.5934L14.0103 34.0907L19.0657 34.1994L20.3995 31.5934Z" fill="#3E3E3E" stroke="url(#paint6_linear_1558_3742)" stroke-width="0.0490453" stroke-miterlimit="10"/>
<mask id="mask51_1558_3742" style="mask-type:luminance" maskUnits="userSpaceOnUse" x="23" y="6" width="7" height="8">
<path d="M23.993 11.9443L23.8724 12.1508L27.4348 13.2979L29.355 6.85636L29.0097 6.25768L23.993 11.9443Z" fill="white"/>
</mask>
<g mask="url(#mask51_1558_3742)">
<rect width="5.66193" height="6.84609" transform="matrix(0.968492 -1.64683e-06 5.94383e-07 1.02811 23.8722 6.26245)" fill="#3E3E3E"/>
</g>
<path d="M24.0032 11.9408L29.0084 6.27464L28.4227 5.24742L27.8786 5.20378L24.0032 11.9408Z" fill="#3E3E3E"/>
<path d="M21.4507 16.3575L21.4507 16.4039L19.7318 19.3772L25.6551 17.8209L23.7039 16.2413L27.4437 13.2913L23.8897 12.1531L21.4507 16.3575Z" fill="#3E3E3E"/>
<mask id="mask52_1558_3742" style="mask-type:luminance" maskUnits="userSpaceOnUse" x="36" y="20" width="2" height="2">
<path d="M36.5902 20.9345L37.9119 21.7266L37.0887 20.2908L36.5902 20.9345Z" fill="white"/>
</mask>
<g mask="url(#mask52_1558_3742)">
<rect width="2.08704" height="1.32426" transform="matrix(0.631497 -1.01583e-06 4.21096e-07 1.07775 36.5935 20.2977)" fill="#3E3E3E"/>
</g>
<mask id="mask53_1558_3742" style="mask-type:luminance" maskUnits="userSpaceOnUse" x="30" y="18" width="8" height="3">
<path d="M30.6565 19.0271L36.5928 20.9365L37.091 20.3005L35.8986 18.2261L30.6565 19.0271Z" fill="white"/>
</mask>
<g mask="url(#mask53_1558_3742)">
<rect x="30.6562" y="18.2241" width="6.43448" height="2.71329" fill="#3E3E3E"/>
</g>
<mask id="mask54_1558_3742" style="mask-type:luminance" maskUnits="userSpaceOnUse" x="30" y="14" width="6" height="6">
<path d="M30.6603 19.028L35.896 18.2203L33.6397 14.3021L30.6603 19.028Z" fill="white"/>
</mask>
<g mask="url(#mask54_1558_3742)">
<rect x="30.6558" y="14.3003" width="5.24076" height="4.72661" fill="#3E3E3E"/>
</g>
<mask id="mask55_1558_3742" style="mask-type:luminance" maskUnits="userSpaceOnUse" x="28" y="14" width="4" height="6">
<path d="M28.7024 18.6756L30.6549 19.0274L31.6219 14.7844L28.7024 18.6756Z" fill="white"/>
</mask>
<g mask="url(#mask55_1558_3742)">
<rect x="28.7036" y="14.7864" width="2.91984" height="4.24078" fill="#3E3E3E"/>
</g>
<mask id="mask56_1558_3742" style="mask-type:luminance" maskUnits="userSpaceOnUse" x="26" y="14" width="6" height="5">
<path d="M26.6983 18.1665L28.7058 18.6755L31.621 14.787L26.6983 18.1665Z" fill="white"/>
</mask>
<g mask="url(#mask56_1558_3742)">
<rect width="4.46504" height="5.1862" transform="matrix(1.10362 3.7114e-07 1.23377e-06 0.749879 26.6965 14.7857)" fill="#3E3E3E"/>
</g>
<mask id="mask57_1558_3742" style="mask-type:luminance" maskUnits="userSpaceOnUse" x="27" y="18" width="4" height="4">
<path d="M27.4246 21.4376L30.6556 19.0252L28.7034 18.6737L27.4246 21.4376Z" fill="white"/>
</mask>
<g mask="url(#mask57_1558_3742)">
<rect x="27.4269" y="18.6751" width="3.22854" height="2.76234" fill="#3E3E3E"/>
</g>
<mask id="mask58_1558_3742" style="mask-type:luminance" maskUnits="userSpaceOnUse" x="25" y="18" width="4" height="3">
<path d="M25.8806 20.9383L28.7029 18.6727L26.6936 18.1674L25.8806 20.9383Z" fill="white"/>
</mask>
<g mask="url(#mask58_1558_3742)">
<rect x="25.8783" y="18.1675" width="2.82529" height="2.77216" fill="#3E3E3E"/>
</g>
<mask id="mask59_1558_3742" style="mask-type:luminance" maskUnits="userSpaceOnUse" x="25" y="18" width="4" height="4">
<path d="M25.8758 20.9407L27.4274 21.4389L28.7048 18.6751L25.8758 20.9407Z" fill="white"/>
</mask>
<g mask="url(#mask59_1558_3742)">
<rect x="25.8785" y="18.6749" width="2.82528" height="2.76234" fill="#3E3E3E"/>
</g>
<mask id="mask60_1558_3742" style="mask-type:luminance" maskUnits="userSpaceOnUse" x="44" y="35" width="4" height="4">
<path d="M44.5331 37.151L47.4046 38.2262L45.9262 35.6446L44.5331 37.151Z" fill="white"/>
</mask>
<g mask="url(#mask60_1558_3742)">
<rect width="3.29807" height="2.38056" transform="matrix(0.871024 1.29271e-06 1.31979e-06 1.08334 44.5341 35.6447)" fill="#3E3E3E"/>
</g>
<path d="M44.8772 38.6822L47.6715 38.6822L47.4068 38.2233L44.536 37.1468L44.8772 38.6822Z" fill="#3E3E3E"/>
<path d="M30.1661 12.6559L33.0288 13.2422L31.6406 10.8365L30.1661 12.6559Z" fill="#3E3E3E"/>
<mask id="mask61_1558_3742" style="mask-type:luminance" maskUnits="userSpaceOnUse" x="18" y="35" width="5" height="3">
<path d="M20.6606 37.3337L22.3561 36.3631L18.6556 35.5866L20.6606 37.3337Z" fill="white"/>
</mask>
<g mask="url(#mask61_1558_3742)">
<rect x="18.6559" y="35.5847" width="3.70292" height="1.74819" fill="#3E3E3E"/>
</g>
<mask id="mask62_1558_3742" style="mask-type:luminance" maskUnits="userSpaceOnUse" x="18" y="34" width="5" height="3">
<path d="M18.6581 35.5852L22.3577 36.361L19.0661 34.2001L18.6581 35.5852Z" fill="white"/>
</mask>
<g mask="url(#mask62_1558_3742)">
<rect width="4.13178" height="2.01628" transform="matrix(0.896202 -9.05082e-07 -1.8575e-07 1.07285 18.6569 34.1993)" fill="#3E3E3E"/>
</g>
<mask id="mask63_1558_3742" style="mask-type:luminance" maskUnits="userSpaceOnUse" x="14" y="35" width="7" height="4">
<path d="M14.8849 38.6806H15.1L20.6636 37.3317L18.6545 35.5848L14.8849 38.6806Z" fill="white"/>
</mask>
<g mask="url(#mask63_1558_3742)">
<rect x="14.8845" y="35.5851" width="5.77507" height="3.09638" fill="#3E3E3E"/>
</g>
<mask id="mask64_1558_3742" style="mask-type:luminance" maskUnits="userSpaceOnUse" x="14" y="34" width="6" height="2">
<path d="M18.6574 35.5868L19.0683 34.2003L14.0124 34.0906L18.6574 35.5868Z" fill="white"/>
</mask>
<g mask="url(#mask64_1558_3742)">
<rect x="14.01" y="34.0907" width="5.05576" height="1.49479" fill="#3E3E3E"/>
</g>
<mask id="mask65_1558_3742" style="mask-type:luminance" maskUnits="userSpaceOnUse" x="14" y="34" width="5" height="5">
<path d="M14.7785 38.6845H14.883L18.6579 35.5827L14.0095 34.0879L14.7785 38.6845Z" fill="white"/>
</mask>
<g mask="url(#mask65_1558_3742)">
<rect x="14.01" y="34.0903" width="4.64648" height="4.59119" fill="#3E3E3E"/>
</g>
<path d="M14.0094 34.0905L14.7922 38.7566L18.6559 35.5853L14.0094 34.0905Z" fill="#3E3E3E" stroke="url(#paint7_linear_1558_3742)" stroke-width="0.0490453" stroke-miterlimit="10"/>
<mask id="mask66_1558_3742" style="mask-type:luminance" maskUnits="userSpaceOnUse" x="8" y="4" width="40" height="35">
<path d="M8.63907 38.6914L47.6778 38.6771L28.1369 4.72847L8.63907 38.6914Z" fill="white"/>
</mask>
<g mask="url(#mask66_1558_3742)">
<path d="M10.3502 17.7415L7.01425 11.7024L5.60512 12.22L0.256171 19.467L2.77248 25.0891L7.58941 18.9206L12.507 28.0943L15.1815 18.4605L10.3502 17.7415Z" fill="#3E3E3E"/>
</g>
<mask id="mask67_1558_3742" style="mask-type:luminance" maskUnits="userSpaceOnUse" x="8" y="4" width="40" height="35">
<path d="M8.63408 38.6836L47.6695 38.6846L28.1357 4.73529L8.63408 38.6836Z" fill="white"/>
</mask>
<g mask="url(#mask67_1558_3742)">
<path d="M15.3516 10.7948L17.8788 17.1238L18.9752 16.3726L21.9855 12.0999L15.3516 10.7948Z" fill="#3E3E3E"/>
</g>
<mask id="mask68_1558_3742" style="mask-type:luminance" maskUnits="userSpaceOnUse" x="31" y="13" width="3" height="2">
<path d="M31.6243 14.7868L33.4576 13.9836L33.3133 13.7355L31.6243 14.7868Z" fill="white"/>
</mask>
<g mask="url(#mask68_1558_3742)">
<rect width="2.2143" height="2.89249" transform="matrix(0.827648 1.39871e-07 9.48059e-07 0.363426 31.6239 13.7351)" fill="#3E3E3E"/>
</g>
<mask id="mask69_1558_3742" style="mask-type:luminance" maskUnits="userSpaceOnUse" x="31" y="13" width="3" height="2">
<path d="M31.6236 14.7871L33.3128 13.7351L33.2454 13.619L31.6236 14.7871Z" fill="white"/>
</mask>
<g mask="url(#mask69_1558_3742)">
<rect width="1.6888" height="2.28883" transform="matrix(1.00048 -1.6701e-09 9.37132e-07 0.509751 31.623 13.6198)" fill="#3E3E3E"/>
</g>
<mask id="mask70_1558_3742" style="mask-type:luminance" maskUnits="userSpaceOnUse" x="30" y="37" width="2" height="2">
<path d="M30.4672 38.6776L31.8954 38.6836L30.6237 37.7811L30.4672 38.6776Z" fill="white"/>
</mask>
<g mask="url(#mask70_1558_3742)">
<rect width="1.55194" height="0.849867" transform="matrix(0.919633 -1.6154e-06 -5.59504e-07 1.06089 30.4696 37.7798)" fill="#3E3E3E"/>
</g>
<mask id="mask71_1558_3742" style="mask-type:luminance" maskUnits="userSpaceOnUse" x="26" y="34" width="6" height="5">
<path d="M26.11 38.5363L30.6268 37.7808L31.6476 34.9353L26.11 38.5363Z" fill="white"/>
</mask>
<g mask="url(#mask71_1558_3742)">
<rect width="5.1411" height="5.73942" transform="matrix(1.07599 3.36005e-07 -1.19336e-06 0.627324 26.1127 34.9346)" fill="#3E3E3E"/>
</g>
<mask id="mask72_1558_3742" style="mask-type:luminance" maskUnits="userSpaceOnUse" x="28" y="37" width="3" height="2">
<path d="M28.6191 38.6836L30.4715 38.6832L30.6251 37.7779L28.6191 38.6836Z" fill="white"/>
</mask>
<g mask="url(#mask72_1558_3742)">
<rect width="2.2584" height="0.837842" transform="matrix(0.888945 1.02066e-06 -6.72376e-08 1.07612 28.6193 37.78)" fill="#3E3E3E"/>
</g>
<mask id="mask73_1558_3742" style="mask-type:luminance" maskUnits="userSpaceOnUse" x="26" y="37" width="5" height="2">
<path d="M26.1155 38.5342L26.1683 38.6807L28.6212 38.6804L30.6263 37.7789L26.1155 38.5342Z" fill="white"/>
</mask>
<g mask="url(#mask73_1558_3742)">
<rect width="4.51674" height="0.901032" transform="matrix(0.999349 1.27351e-06 1.22185e-07 1.00065 26.1127 37.7795)" fill="#3E3E3E"/>
</g>
<mask id="mask74_1558_3742" style="mask-type:luminance" maskUnits="userSpaceOnUse" x="31" y="29" width="3" height="7">
<path d="M31.6449 34.9326L33.9704 35.6807L32.621 29.4568L31.6449 34.9326Z" fill="white"/>
</mask>
<g mask="url(#mask74_1558_3742)">
<rect width="4.80732" height="6.38061" transform="matrix(0.483301 7.29065e-07 1.72406e-08 0.976117 31.6443 29.4529)" fill="#3E3E3E"/>
</g>
<mask id="mask75_1558_3742" style="mask-type:luminance" maskUnits="userSpaceOnUse" x="30" y="35" width="6" height="4">
<path d="M30.6241 37.7765L31.8965 38.6794L35.4557 38.6781L33.9642 35.6848L30.6241 37.7765Z" fill="white"/>
</mask>
<g mask="url(#mask75_1558_3742)">
<rect x="30.6265" y="35.682" width="4.82769" height="2.99967" fill="#3E3E3E"/>
</g>
<mask id="mask76_1558_3742" style="mask-type:luminance" maskUnits="userSpaceOnUse" x="30" y="34" width="4" height="4">
<path d="M30.626 37.779L33.9694 35.6807L31.6433 34.9331L30.626 37.779Z" fill="white"/>
</mask>
<g mask="url(#mask76_1558_3742)">
<rect width="3.105" height="3.20093" transform="matrix(1.07612 -5.92597e-07 -1.15312e-06 0.888944 30.6265 34.9349)" fill="#3E3E3E"/>
</g>
<path d="M32.6267 29.4457L33.9733 35.6713L41.9554 28.7821L41.3504 27.7087L36.7251 27.6112L32.6267 29.4457Z" fill="#3E3E3E"/>
<mask id="mask77_1558_3742" style="mask-type:luminance" maskUnits="userSpaceOnUse" x="33" y="28" width="12" height="10">
<path d="M33.964 35.6772L44.5315 37.1446L43.7755 31.9113L41.9746 28.7727L33.964 35.6772Z" fill="white"/>
</mask>
<g mask="url(#mask77_1558_3742)">
<rect x="33.9677" y="28.7778" width="10.566" height="8.37148" fill="#3E3E3E"/>
</g>
<mask id="mask78_1558_3742" style="mask-type:luminance" maskUnits="userSpaceOnUse" x="33" y="35" width="12" height="4">
<path d="M35.4524 38.6792L42.5129 38.6792L44.5351 37.1493L33.965 35.6826L35.4524 38.6792Z" fill="white"/>
</mask>
<g mask="url(#mask78_1558_3742)">
<rect x="33.9677" y="35.6821" width="10.566" height="2.99966" fill="#3E3E3E"/>
</g>
<mask id="mask79_1558_3742" style="mask-type:luminance" maskUnits="userSpaceOnUse" x="25" y="38" width="2" height="1">
<path d="M25.8655 38.6809L26.0586 38.6822L26.1121 38.5362L25.8655 38.6809Z" fill="white"/>
</mask>
<g mask="url(#mask79_1558_3742)">
<rect width="0.225459" height="0.185558" transform="matrix(1.10218 -2.57444e-07 9.95295e-07 0.789999 25.8645 38.5349)" fill="#3E3E3E"/>
</g>
<mask id="mask80_1558_3742" style="mask-type:luminance" maskUnits="userSpaceOnUse" x="20" y="37" width="7" height="2">
<path d="M20.9157 38.6785H25.8652L26.1125 38.5343L20.6613 37.3347L20.9157 38.6785Z" fill="white"/>
</mask>
<g mask="url(#mask80_1558_3742)">
<rect x="20.6587" y="37.3328" width="5.45357" height="1.3482" fill="#3E3E3E"/>
</g>
<mask id="mask81_1558_3742" style="mask-type:luminance" maskUnits="userSpaceOnUse" x="20" y="37" width="1" height="2">
<path d="M20.5572 38.6791L20.916 38.6786L20.6592 37.3333L20.5572 38.6791Z" fill="white"/>
</mask>
<g mask="url(#mask81_1558_3742)">
<rect width="0.857864" height="1.49065" transform="matrix(0.41894 1.80858e-06 -2.53678e-07 0.904437 20.5574 37.3332)" fill="#3E3E3E"/>
</g>
<mask id="mask82_1558_3742" style="mask-type:luminance" maskUnits="userSpaceOnUse" x="8" y="4" width="40" height="35">
<path d="M8.6366 38.6817H47.6702L28.1335 4.73608L8.6366 38.6817Z" fill="white"/>
</mask>
<g mask="url(#mask82_1558_3742)">
<path d="M20.6591 37.3334L20.3837 40.9699L21.4163 41.3017L20.6591 37.3334Z" fill="#3E3E3E" stroke="url(#paint8_linear_1558_3742)" stroke-width="0.0490453" stroke-miterlimit="10"/>
</g>
<path d="M28.4556 27.3043L28.6504 27.4779L28.4556 27.7016V27.7027L37.0118 20.1887L36.6682 19.5936L28.4556 26.804V27.3043Z" fill="#3E3E3E"/>
<path d="M28.4565 27.7351V27.7336L28.4551 27.7362L28.4565 27.7351Z" fill="#3E3E3E"/>
<path d="M28.4556 21.48L28.4891 21.5095L28.4556 21.5481V21.9642L34.8309 16.3657L34.4857 15.7673L28.4556 21.0623V21.48Z" fill="#3E3E3E"/>
<path d="M28.3937 22.0189L28.4558 21.9641L28.4558 21.55L28.2187 21.82L28.3937 22.0189Z" fill="#3E3E3E"/>
<path d="M28.4557 21.4821V21.0663L28.2189 21.2745L28.4557 21.4821Z" fill="#3E3E3E"/>
<path d="M27.8504 33.2584L17.2989 23.5491L16.9499 24.157L27.8504 34.1875L27.8504 33.2584Z" fill="#3E3E3E"/>
<path d="M28.393 33.2717L38.8561 23.6993L39.2025 24.2987L28.393 34.1875L28.393 33.2717Z" fill="#3E3E3E"/>
<path d="M27.8511 27.7012L27.6857 27.5108L27.8511 27.3653V26.7901L19.657 19.4556L19.3107 20.0583L27.8511 27.7026V27.7012Z" fill="#3E3E3E"/>
<path d="M27.8506 27.7009V27.7025L27.8567 27.708L27.8506 27.7009Z" fill="#3E3E3E"/>
<path d="M28.6504 27.5107L28.4556 27.3366V27.7341L28.6504 27.5107Z" fill="#3E3E3E"/>
<path d="M27.6857 27.5125L27.8505 27.7008V27.3684L27.6857 27.5125Z" fill="#3E3E3E"/>
<path d="M27.8501 21.0489L21.7791 15.7179L21.4286 16.3247L27.85 21.9636L27.8501 21.0489Z" fill="#3E3E3E"/>
<path d="M28.4892 21.5116L28.4556 21.4821V21.5505L28.4892 21.5116Z" fill="#3E3E3E"/>
<path d="M28.4561 14.8312L28.4427 15.3895L28.4561 15.3421V15.3737L32.3146 11.9536L31.9675 11.347L28.4561 14.4587V14.8312Z" fill="#3E3E3E"/>
<path d="M27.7994 14.8383L27.8125 15.3889L27.7994 15.3423V15.3737L23.9575 11.9991L24.3033 11.4005L27.7994 14.4707V14.8383Z" fill="#3E3E3E"/>
<path fill-rule="evenodd" clip-rule="evenodd" d="M27.7649 5.39147L28.1337 4.73773L28.5404 5.43718L28.5424 5.42979V38.8586H27.7649V5.39147Z" fill="#3E3E3E"/>
<path d="M53.9234 33.4119V38.3671H51.4633V26.6161H59.8339V28.6692H53.9234V31.3411H59.0909V33.4119H53.9234Z" fill="#3E3E3E"/>
<path d="M61.3025 29.6599H63.6033V38.3668H61.3025V29.6599ZM61.3025 26.4744H63.6033V28.6157H61.3025V26.4744Z" fill="#3E3E3E"/>
<path d="M70.151 38.3668V33.0933C70.151 32.4206 70.0387 31.9666 69.815 31.7304C69.5905 31.4944 69.2068 31.3765 68.6646 31.3765C67.4728 31.3765 66.8769 32.0432 66.8769 33.3764V38.3668H64.5764V29.6599H66.7709V30.9342C67.0423 30.4383 67.402 30.0639 67.8505 29.8103C68.2987 29.5566 68.8769 29.4296 69.5848 29.4296C69.9976 29.4296 70.3812 29.4918 70.7351 29.6157C71.0888 29.7394 71.3926 29.9255 71.6463 30.1732C71.9 30.4209 72.1005 30.7247 72.2479 31.0844C72.3953 31.4446 72.4694 31.8604 72.4694 32.3323V38.3668H70.151Z" fill="#3E3E3E"/>
<path d="M78.6804 34.1017C78.5621 34.2197 78.391 34.314 78.167 34.3848C77.943 34.4557 77.6188 34.5325 77.1937 34.6148C76.533 34.7448 76.0788 34.9099 75.8311 35.1104C75.5834 35.311 75.4597 35.6001 75.4597 35.9775C75.4597 36.6265 75.8311 36.9507 76.5744 36.9507C76.8692 36.9507 77.1433 36.9006 77.3973 36.8003C77.6509 36.7003 77.8689 36.5646 78.052 36.3932C78.2349 36.2224 78.3823 36.0219 78.4945 35.7916C78.6065 35.5614 78.6629 35.317 78.6629 35.0573L78.6804 34.1017ZM78.8397 38.3665C78.7689 38.1425 78.7215 37.8829 78.6981 37.588C78.4264 37.8949 78.0667 38.1395 77.6188 38.3224C77.17 38.5052 76.6512 38.5967 76.0613 38.5967C75.0584 38.5967 74.324 38.3755 73.8581 37.9333C73.3919 37.4908 73.1589 36.9153 73.1589 36.2077C73.1589 35.5824 73.2592 35.0837 73.4597 34.7121C73.6603 34.3404 73.9377 34.0486 74.2916 33.8361C74.6453 33.6238 75.0671 33.4677 75.5567 33.3671C76.0463 33.2672 76.5801 33.1756 77.1583 33.093C77.7362 33.0105 78.1256 32.9012 78.3264 32.7655C78.5269 32.6301 78.6275 32.4089 78.6275 32.1018C78.6275 31.8187 78.4945 31.5977 78.2291 31.4383C77.9637 31.2792 77.6068 31.1993 77.1583 31.1993C76.6275 31.1993 76.2469 31.3173 76.0172 31.553C75.7869 31.7895 75.6425 32.1018 75.5834 32.4911H73.442C73.4535 32.0429 73.5276 31.6301 73.6633 31.2525C73.7987 30.8748 74.0172 30.5506 74.318 30.2792C74.6191 30.0078 75.0109 29.7986 75.4951 29.6509C75.9785 29.5035 76.5684 29.4296 77.2646 29.4296C77.9485 29.4296 78.5299 29.5065 79.0079 29.6596C79.4855 29.8133 79.8689 30.0342 80.1583 30.3233C80.4468 30.6124 80.6563 30.9724 80.7863 31.4029C80.916 31.8337 80.9809 32.3203 80.9809 32.8628V38.3665H78.8397Z" fill="#3E3E3E"/>
<path d="M87.4766 38.3668V33.0933C87.4766 32.4206 87.3644 31.9666 87.1407 31.7304C86.9162 31.4944 86.5325 31.3765 85.9903 31.3765C84.7985 31.3765 84.2026 32.0432 84.2026 33.3764V38.3668H81.9021V29.6599H84.0966V30.9342C84.368 30.4383 84.7277 30.0639 85.1761 29.8103C85.6244 29.5566 86.2026 29.4296 86.9104 29.4296C87.3232 29.4296 87.7069 29.4918 88.0608 29.6157C88.4145 29.7394 88.7183 29.9255 88.972 30.1732C89.2257 30.4209 89.4262 30.7247 89.5736 31.0844C89.721 31.4446 89.7951 31.8604 89.7951 32.3323V38.3668H87.4766Z" fill="#3E3E3E"/>
<path d="M98.554 35.2169C98.4949 35.724 98.3505 36.1845 98.1205 36.597C97.8903 37.0104 97.5985 37.3643 97.2445 37.6591C96.8909 37.954 96.4862 38.1842 96.0323 38.349C95.5778 38.5144 95.0857 38.597 94.5544 38.597C93.9645 38.597 93.4247 38.4997 92.9354 38.3049C92.4457 38.1104 92.0239 37.8155 91.67 37.4202C91.316 37.0251 91.0419 36.5352 90.8471 35.9513C90.6523 35.3674 90.5553 34.6859 90.5553 33.9072C90.5553 33.1287 90.6523 32.456 90.8471 31.8898C91.0419 31.3236 91.316 30.8606 91.67 30.5004C92.0239 30.1408 92.4514 29.8724 92.9528 29.6953C93.4544 29.5184 94.0119 29.4299 94.6252 29.4299C95.1917 29.4299 95.7078 29.5067 96.174 29.6598C96.6399 29.8135 97.047 30.0378 97.3949 30.3323C97.7426 30.6274 98.017 30.9813 98.2181 31.3944C98.4184 31.8072 98.5366 32.2677 98.5718 32.7745H96.2535C96.1944 32.3265 96.0146 31.9756 95.7138 31.7217C95.413 31.468 95.044 31.341 94.6078 31.341C94.3599 31.341 94.1299 31.3827 93.9174 31.465C93.7051 31.5478 93.5193 31.6862 93.3601 31.881C93.201 32.0756 93.074 32.3353 92.9795 32.6595C92.885 32.9843 92.8378 33.3827 92.8378 33.854C92.8378 34.8099 93.0087 35.5178 93.3512 35.9777C93.6931 36.4379 94.0882 36.6679 94.537 36.6679C94.9849 36.6679 95.3688 36.5442 95.6873 36.2965C96.0056 36.0485 96.1884 35.6886 96.2358 35.2169H98.554Z" fill="#3E3E3E"/>
<path d="M99.1912 29.6599H101.492V38.3668H99.1912V29.6599ZM99.1912 26.4744H101.492V28.6157H99.1912V26.4744Z" fill="#3E3E3E"/>
<path d="M107.757 34.1017C107.639 34.2197 107.468 34.314 107.244 34.3848C107.02 34.4557 106.695 34.5325 106.27 34.6148C105.61 34.7448 105.155 34.9099 104.908 35.1104C104.66 35.311 104.536 35.6001 104.536 35.9775C104.536 36.6265 104.908 36.9507 105.651 36.9507C105.946 36.9507 106.22 36.9006 106.474 36.8003C106.728 36.7003 106.946 36.5646 107.129 36.3932C107.312 36.2224 107.459 36.0219 107.571 35.7916C107.683 35.5614 107.74 35.317 107.74 35.0573L107.757 34.1017ZM107.916 38.3665C107.846 38.1425 107.798 37.8829 107.775 37.588C107.503 37.8949 107.143 38.1395 106.695 38.3224C106.247 38.5052 105.728 38.5967 105.138 38.5967C104.135 38.5967 103.401 38.3755 102.935 37.9333C102.469 37.4908 102.236 36.9153 102.236 36.2077C102.236 35.5824 102.336 35.0837 102.536 34.7121C102.737 34.3404 103.014 34.0486 103.368 33.8361C103.722 33.6238 104.144 33.4677 104.633 33.3671C105.123 33.2672 105.657 33.1756 106.235 33.093C106.813 33.0105 107.202 32.9012 107.403 32.7655C107.604 32.6301 107.704 32.4089 107.704 32.1018C107.704 31.8187 107.571 31.5977 107.306 31.4383C107.04 31.2792 106.683 31.1993 106.235 31.1993C105.704 31.1993 105.324 31.3173 105.094 31.553C104.864 31.7895 104.719 32.1018 104.66 32.4911H102.519C102.53 32.0429 102.604 31.6301 102.74 31.2525C102.875 30.8748 103.094 30.5506 103.395 30.2792C103.696 30.0078 104.088 29.7986 104.572 29.6509C105.055 29.5035 105.645 29.4296 106.341 29.4296C107.025 29.4296 107.607 29.5065 108.085 29.6596C108.562 29.8133 108.946 30.0342 109.235 30.3233C109.523 30.6124 109.733 30.9724 109.863 31.4029C109.993 31.8337 110.058 32.3203 110.058 32.8628V38.3665H107.916Z" fill="#3E3E3E"/>
<path d="M113.277 26.4744H110.977V38.3668H113.277V26.4744Z" fill="#3E3E3E"/>
<path d="M119.416 32.2968C119.357 31.8958 119.207 31.6039 118.965 31.4208C118.723 31.238 118.354 31.1465 117.859 31.1465C117.387 31.1465 117.03 31.2026 116.788 31.3148C116.546 31.4268 116.425 31.6187 116.425 31.8898C116.425 32.126 116.546 32.3143 116.788 32.456C117.03 32.5977 117.381 32.7336 117.841 32.863C118.596 33.0753 119.233 33.2557 119.752 33.4031C120.272 33.5505 120.687 33.7243 121 33.9249C121.312 34.1257 121.537 34.3761 121.672 34.6769C121.808 34.978 121.876 35.3821 121.876 35.8894C121.876 36.6679 121.551 37.3139 120.903 37.8273C120.254 38.3403 119.292 38.597 118.018 38.597C117.393 38.597 116.826 38.5261 116.319 38.3847C115.812 38.2428 115.378 38.0395 115.018 37.7741C114.658 37.5085 114.381 37.1899 114.187 36.8186C113.992 36.4466 113.889 36.0308 113.877 35.5709H116.249C116.249 35.9837 116.411 36.3022 116.735 36.5262C117.06 36.7507 117.481 36.8627 118.001 36.8627C118.437 36.8627 118.811 36.7948 119.124 36.6592C119.436 36.5237 119.593 36.3139 119.593 36.0308C119.593 35.7123 119.478 35.4821 119.248 35.3407C119.018 35.199 118.667 35.0753 118.195 34.969C117.346 34.7804 116.661 34.5829 116.142 34.3761C115.623 34.1698 115.219 33.9426 114.93 33.6949C114.641 33.4472 114.446 33.1758 114.346 32.881C114.246 32.5862 114.196 32.2557 114.196 31.8898C114.196 31.5595 114.263 31.2467 114.399 30.9516C114.535 30.6568 114.75 30.3974 115.045 30.1732C115.34 29.9492 115.723 29.7694 116.195 29.6334C116.667 29.498 117.245 29.4299 117.93 29.4299C119.18 29.4299 120.095 29.6835 120.673 30.1909C121.251 30.6982 121.569 31.4004 121.628 32.2968H119.416Z" fill="#3E3E3E"/>
<path d="M111.471 13.9377L111.342 14.369C111.722 13.1952 112.083 12.1012 112.384 11.2426C112.096 11.984 111.784 12.8875 111.471 13.9377Z" fill="#3E3E3E"/>
<path d="M112.903 8.79675C112.885 8.82509 112.864 8.86514 112.845 8.89648C112.923 8.96759 113.044 9.15315 113.194 9.42889C113.018 9.03408 112.903 8.79675 112.903 8.79675Z" fill="#3E3E3E"/>
<path d="M51.0564 5.35754V23.3787C51.0564 25.1274 54.661 25.1274 54.661 25.1274V7.10574C54.661 5.35754 51.0564 5.35754 51.0564 5.35754Z" fill="#3E3E3E"/>
<path d="M70.1801 5.62689V16.6547C70.1801 17.973 70.5032 19.5062 70.5032 19.5062L62.6222 7.15983C61.6808 5.62689 59.9059 5.62689 57.7542 5.62689V23.3786C57.7542 25.1273 61.3582 25.1273 61.3582 25.1273V13.6153C61.3582 12.2971 61.0623 10.7641 61.0623 10.7641L68.8893 23.1908C68.8893 23.1908 69.7226 25.1273 73.7843 25.1273V7.37509C73.7843 5.62689 70.1801 5.62689 70.1801 5.62689Z" fill="#3E3E3E"/>
<path d="M79.7843 10.6023C79.7843 8.77346 81.4785 8.10072 83.8188 8.10072C86.804 8.10072 89.9775 8.6661 89.9775 11.3557C90.5688 10.2797 90.8655 9.36527 90.8655 8.63885C90.8655 6.05662 87.665 5.30377 83.7918 5.30377C79.5418 5.30377 76.0715 6.64843 76.0715 11.0058C76.0715 18.7526 87.7718 14.4755 87.7718 19.452C87.7718 21.2806 86.4005 22.3838 83.6035 22.3838C80.9935 22.3838 77.471 21.8991 77.471 19.2904C76.7982 20.2588 76.502 21.0926 76.502 21.792C76.502 24.32 80.2409 25.1538 83.6035 25.1538C88.1757 25.1538 91.5105 23.1906 91.5105 19.2095C91.5105 10.683 79.7843 15.0404 79.7843 10.6023Z" fill="#3E3E3E"/>
<path d="M106.574 5.19653C106.574 5.19653 105.633 5.62704 103.589 5.62704H94.1475C92.1042 5.62704 91.1617 5.19653 91.1617 5.19653C91.1617 6.59514 91.4852 8.28966 93.7167 8.28966H97.0259V23.3787C97.0259 25.1275 100.63 25.1275 100.63 25.1275V8.28966H104.019C106.252 8.28966 106.574 6.59514 106.574 5.19653Z" fill="#3E3E3E"/>
<path d="M120.75 20.3123L118.464 13.2386C116.662 7.69813 113.649 5.27693 113.246 5.008C112.843 5.27693 109.83 7.69813 108.028 13.2386L105.741 20.3123C105.095 22.3297 104.612 23.9433 104.074 24.7507C104.074 24.7507 104.962 25.0471 105.58 25.0471C107.391 25.0471 108.22 23.927 108.794 22.5515C108.949 22.0382 110.213 17.8696 111.342 14.3688L111.47 13.9375C111.783 12.8874 112.095 11.9839 112.383 11.2425C112.761 10.1629 113.042 9.45641 113.129 9.45641C113.144 9.45641 113.165 9.47085 113.188 9.49156C113.207 9.46022 113.228 9.42017 113.246 9.3921C113.246 9.3921 113.36 9.62779 113.535 10.0207C114.451 11.6978 117.092 20.8505 117.092 20.8505C117.764 22.8679 118.383 25.0471 120.912 25.0471C121.53 25.0471 122.418 24.7507 122.418 24.7507C121.88 23.9433 121.395 22.3297 120.75 20.3123Z" fill="#3E3E3E"/>
<path d="M112.785 8.86127C112.698 8.86127 112.416 9.57188 112.036 10.6577C112.344 9.86642 112.622 9.26916 112.845 8.89669C112.822 8.87625 112.802 8.86127 112.785 8.86127Z" fill="#3E3E3E"/>
<path d="M108.074 17.0908H118.158V19.9477H108.074V17.0908Z" fill="#3E3E3E"/>
</g>
<defs>
<linearGradient id="paint0_linear_1558_3742" x1="10.7852" y1="40.8307" x2="2.63057" y2="43.7915" gradientUnits="userSpaceOnUse">
<stop stop-color="#006DB8"/>
<stop offset="1" stop-color="#0059A7"/>
</linearGradient>
<linearGradient id="paint1_linear_1558_3742" x1="10.3614" y1="34.0084" x2="8.49284" y2="34.6868" gradientUnits="userSpaceOnUse">
<stop stop-color="#124A96"/>
<stop offset="1" stop-color="#1C4493"/>
</linearGradient>
<linearGradient id="paint2_linear_1558_3742" x1="21.1491" y1="38.5744" x2="15.4039" y2="40.6604" gradientUnits="userSpaceOnUse">
<stop stop-color="#00A094"/>
<stop offset="1" stop-color="#0096BC"/>
</linearGradient>
<linearGradient id="paint3_linear_1558_3742" x1="31.6912" y1="43.2984" x2="147.857" y2="53.6349" gradientUnits="userSpaceOnUse">
<stop stop-color="#008CD1"/>
<stop offset="1" stop-color="#0082C9"/>
</linearGradient>
<linearGradient id="paint4_linear_1558_3742" x1="15.0373" y1="39.293" x2="10.5365" y2="40.9272" gradientUnits="userSpaceOnUse">
<stop stop-color="#006CB7"/>
<stop offset="1" stop-color="#007EC5"/>
</linearGradient>
<linearGradient id="paint5_linear_1558_3742" x1="14.8345" y1="36.2645" x2="9.71278" y2="38.1242" gradientUnits="userSpaceOnUse">
<stop stop-color="#0081C8"/>
<stop offset="1" stop-color="#0071BC"/>
</linearGradient>
<linearGradient id="paint6_linear_1558_3742" x1="20.8015" y1="32.5097" x2="14.1761" y2="34.9153" gradientUnits="userSpaceOnUse">
<stop stop-color="#00A750"/>
<stop offset="1" stop-color="#00967A"/>
</linearGradient>
<linearGradient id="paint7_linear_1558_3742" x1="18.4765" y1="34.9403" x2="13.9668" y2="36.5777" gradientUnits="userSpaceOnUse">
<stop stop-color="#0087CD"/>
<stop offset="1" stop-color="#0093B0"/>
</linearGradient>
<linearGradient id="paint8_linear_1558_3742" x1="21.3676" y1="39.1259" x2="19.8778" y2="39.6669" gradientUnits="userSpaceOnUse">
<stop stop-color="#00A04F"/>
<stop offset="1" stop-color="#009D55"/>
</linearGradient>
<clipPath id="clip0_1558_3742">
<rect width="122.221" height="43.9446" fill="white" transform="translate(0.259766 0.00012207)"/>
</clipPath>
</defs>
</svg>
