<svg width="211" height="208" viewBox="0 0 211 208" fill="none" xmlns="http://www.w3.org/2000/svg">
<path d="M56.5 50.266C56.5 50.266 -13.9313 105.97 3.53698 127.29C16 142.5 36.5 153 36.5 153L107.85 207.118H136.353C136.353 207.118 179.363 206.857 186.5 187C192.061 171.527 161.122 160.168 175 146.5L210.537 111.5V0.117859L151.79 50.266L124 18L73.5 66L56.5 50.266Z" fill="url(#paint0_linear_620_552)"/>
<path d="M77.3037 206.559V38.0491C77.3037 35.888 78.5276 34.1357 80.0371 34.1357H92.2352C93.7448 34.1357 94.9687 35.8876 94.9687 38.0491V207L77.3037 206.559Z" fill="#3E3E3E"/>
<path d="M161.246 199.123C155.504 203.319 148.064 203.529 140.873 203.014C139.868 202.942 138.871 202.858 137.883 202.767C137.877 202.765 137.87 202.766 137.864 202.764C137.816 202.76 137.769 202.755 137.723 202.752C137.519 202.733 137.315 202.713 137.113 202.694L137.161 202.786L137.311 203.073C137.257 202.977 137.203 202.883 137.149 202.787C137.133 202.758 137.116 202.73 137.1 202.701C135.237 199.412 133.389 196.003 132.918 192.248C132.431 188.35 133.8 183.937 137.182 182.021C137.625 181.771 138.095 181.571 138.582 181.426C138.784 181.364 138.989 181.313 139.197 181.269C140.465 180.983 141.785 181.045 143.022 181.449C144.259 181.852 145.368 182.583 146.234 183.565C147.1 184.547 147.693 185.746 147.951 187.037C148.209 188.329 148.124 189.667 147.703 190.914C150.57 187.932 150.035 183.094 149.046 179.05C148.055 175.007 146.856 170.508 148.871 166.876C149.992 164.855 151.962 163.601 154.173 163.096C154.241 163.081 154.309 163.066 154.377 163.053C157.011 162.512 159.75 162.999 162.046 164.416C166.274 167.119 168.445 172.243 169.15 177.262C170.286 185.339 167.773 194.353 161.246 199.123Z" fill="#44AC06"/>
<path d="M159.172 186.169C159.003 187.966 158.576 189.729 157.904 191.401C157.285 192.882 156.45 194.26 155.428 195.491C153.302 198.006 150.61 199.968 147.578 201.212C145.284 202.162 142.882 202.815 140.426 203.155C139.41 203.082 138.4 202.997 137.4 202.906C137.394 202.904 137.387 202.905 137.38 202.903C137.332 202.898 137.284 202.894 137.238 202.891C137.032 202.872 136.825 202.852 136.621 202.832L136.669 202.926L136.821 203.215C136.766 203.118 136.712 203.023 136.657 202.926C136.641 202.897 136.623 202.868 136.607 202.839C138.448 200.985 139.823 198.712 140.615 196.211C141.408 193.709 141.596 191.052 141.164 188.462C140.712 185.89 139.664 183.462 138.108 181.377C138.312 181.315 138.52 181.264 138.73 181.218C139.321 182.036 139.84 182.905 140.28 183.815C141.86 187.061 142.364 190.734 141.718 194.292C141.117 197.511 139.62 200.49 137.403 202.879C137.597 202.865 137.793 202.849 137.985 202.832C141.618 202.521 145.245 201.731 148.541 200.113C151.358 198.764 153.804 196.735 155.663 194.206C157.659 191.423 158.538 188.075 158.689 184.673C158.806 181.008 158.426 177.344 157.56 173.782C156.72 170.151 155.444 166.637 153.76 163.319C153.723 163.244 153.715 163.157 153.739 163.076C153.763 162.995 153.817 162.927 153.889 162.885C153.95 162.844 154.024 162.829 154.095 162.842C154.13 162.852 154.163 162.869 154.19 162.893C154.218 162.917 154.24 162.947 154.254 162.98C154.462 163.39 154.666 163.8 154.862 164.215C156.495 167.669 157.698 171.316 158.442 175.07C159.164 178.692 159.55 182.48 159.172 186.169Z" fill="white"/>
<path d="M139.01 201.029L134.05 201.029L131.691 181.16H139.011L139.01 201.029Z" fill="#9E616A"/>
<path d="M140.58 205.735L123.848 205.734V205.537C123.848 203.925 124.534 202.38 125.756 201.24C126.977 200.101 128.633 199.461 130.36 199.461L140.58 199.461L140.58 205.735Z" fill="#2F2E41"/>
<path d="M119.664 201.029L114.35 201.029L111.822 181.16H119.665L119.664 201.029Z" fill="#9E616A"/>
<path d="M120.71 205.735L103.979 205.734V205.537C103.979 203.925 104.665 202.38 105.887 201.24C107.108 200.101 108.764 199.461 110.491 199.461L120.711 199.461L120.71 205.735Z" fill="#2F2E41"/>
<path d="M123.064 29.5289C129.561 29.5289 134.828 24.2618 134.828 17.7644C134.828 11.2671 129.561 5.99994 123.064 5.99994C116.566 5.99994 111.299 11.2671 111.299 17.7644C111.299 24.2618 116.566 29.5289 123.064 29.5289Z" fill="#44AC06"/>
<path d="M118.945 108.934C123.295 109.46 134.42 105.472 135.023 111.539C140.749 128.477 140.579 193.403 140.579 193.403L131.862 193.821C131.862 193.821 124.896 142.232 121.602 131.196C119.949 144.61 120.238 195.906 120.238 195.906L112.351 196.323C112.351 196.323 105.276 152.643 105.236 139.822C104.376 130.431 106.485 116.514 105.582 107.436C109.896 108.81 114.436 109.319 118.945 108.934Z" fill="#3F3D56"/>
<path d="M104.211 59.634C102.425 56.0335 100.243 52.6374 97.7039 49.5066C97.1734 48.8952 96.6903 48.2453 96.2587 47.5624C95.3448 45.9995 95.0728 44.1643 94.4947 42.4548C92.8795 37.6613 88.85 33.8107 87.8681 28.8539C87.5111 27.0521 84.4951 32.2888 85.2881 34.523C86.7035 38.5664 86.8863 42.8486 88.6885 46.7538C90.4907 50.6589 92.6075 54.4048 94.1632 58.3979C95.0473 60.6647 95.7529 63.007 97.0493 65.102C98.3457 67.197 100.369 68.9527 102.813 69.2669C102.796 67.7481 103.03 66.2367 103.506 64.7919C104.037 63.1411 104.981 61.1969 104.211 59.634Z" fill="#EDB18B"/>
<path d="M130.239 62.3732C130.131 59.4447 130.596 56.523 131.609 53.7668C131.996 52.7107 132.451 51.638 132.413 50.5156C132.359 49.4719 131.853 48.5152 131.394 47.5709C129.81 44.3197 128.697 40.8738 127.602 37.4362L125.495 30.9545C124.808 30.4594 128.819 30.2877 129.675 31.4515C132.472 35.2701 134.592 39.6562 136.808 43.8268C137.373 44.8206 137.855 45.8581 138.249 46.9289C138.79 48.6643 139.046 50.4735 139.007 52.2882C139.007 55.6803 138.552 59.0599 138.08 62.4229C137.781 64.531 137.389 66.8255 135.767 68.2212C134.082 66.1007 132.388 64.0299 130.239 62.3732Z" fill="#EDB18B"/>
<path d="M119.404 59.3323C124.168 59.3323 128.031 55.3527 128.031 50.4436C128.031 45.5345 124.168 41.5549 119.404 41.5549C114.639 41.5549 110.776 45.5345 110.776 50.4436C110.776 55.3527 114.639 59.3323 119.404 59.3323Z" fill="#EDB18B"/>
<path d="M112.437 41.6353C112.341 41.3708 112.319 41.0842 112.375 40.8078C112.43 40.5315 112.561 40.2764 112.751 40.0713C112.965 39.8998 113.25 39.8359 113.479 39.6722C113.806 39.3933 114.073 39.0499 114.265 38.6628C114.85 37.8296 115.708 37.2342 116.685 36.9822C117.661 36.7303 118.694 36.8381 119.6 37.2864C121.018 38.0403 121.873 39.5499 123.134 40.5663C123.774 41.093 124.516 41.4838 125.16 42.0105C126.45 43.1425 127.366 44.6494 127.787 46.3276C128.205 47.9945 128.449 49.7015 128.515 51.4204C128.582 51.9361 128.562 52.4597 128.456 52.9687C128.326 53.3955 128.131 53.7993 127.879 54.1657C126.583 56.1606 124.876 57.9722 122.736 59.0016C120.596 60.0311 117.993 60.1987 115.882 59.1214C115.67 59.0341 115.487 58.8857 115.356 58.6944C115.236 58.4031 115.208 58.0813 115.274 57.7729C115.389 56.5534 115.151 55.3265 114.591 54.2419C114.198 53.444 113.609 52.7576 113.295 51.9319C113.003 51.0074 112.878 50.037 112.926 49.0673C112.889 46.5548 113.057 44.0533 112.437 41.6353Z" fill="#2D293D"/>
<path d="M85.1557 33.7119C87.1771 33.7119 88.8157 32.0732 88.8157 30.0519C88.8157 28.0305 87.1771 26.3918 85.1557 26.3918C83.1343 26.3918 81.4956 28.0305 81.4956 30.0519C81.4956 32.0732 83.1343 33.7119 85.1557 33.7119Z" fill="#EDB18B"/>
<path d="M126.985 32.1434C129.007 32.1434 130.645 30.3877 130.645 28.2219C130.645 26.0561 129.007 24.3004 126.985 24.3004C124.964 24.3004 123.325 26.0561 123.325 28.2219C123.325 30.3877 124.964 32.1434 126.985 32.1434Z" fill="#EDB18B"/>
<path d="M136.182 74.7424C136.55 74.405 139.552 56.825 139.534 56.4288C139.488 54.2629 132.889 51.7892 131.569 52.65C130.323 53.462 128.153 62.779 126.757 64.4757L125.28 61.8871H113.542L112.83 63.2104C111.29 62.2811 109.904 61.4243 109.41 61.1407C109.24 61.0255 109.055 60.9344 108.861 60.8699C107.641 60.5967 106.495 60.0577 105.507 59.2912C104.543 58.5481 100.068 50.7648 98.8687 50.9705C97.5146 51.1972 92.9472 55.1524 92.9995 58.948C93.5745 58.9357 101.054 73.9154 101.159 74.4737C101.734 76.8333 103.63 111.246 104.242 112.85C107.062 112.577 104.836 112.09 107.565 112.85C110.504 113.668 113.606 112.783 116.637 112.455C117.899 112.33 119.167 112.274 120.436 112.287C125.047 112.308 131.629 112.564 136.094 113.71C136.119 110.78 133.549 104.44 132.597 101.673C132.473 100.846 132.477 100.004 132.61 99.1788C132.732 98.1669 135.186 75.8612 136.182 74.7424Z" fill="#F3901B"/>
<path d="M48.2827 206.599V52.8476C48.2827 50.8757 49.5066 49.2772 51.0161 49.2772H63.2142C64.7238 49.2772 65.9477 50.8757 65.9477 52.8476V207L48.2827 206.599Z" fill="#3E3E3E"/>
<path d="M18 206.82V137.94C18 137.056 19.2238 136.34 20.7334 136.34H32.9315C34.4411 136.34 35.665 137.056 35.665 137.94V207L18 206.82Z" fill="#3E3E3E"/>
<circle cx="175.723" cy="55.2917" r="27.4438" stroke="#F64C53" stroke-width="0.630891"/>
<circle opacity="0.15" cx="178.498" cy="61.7689" r="23.1327" fill="#7B2629"/>
<circle cx="175.722" cy="55.2917" r="18.5061" fill="#F7F7F7"/>
<circle cx="173.872" cy="55.2917" r="7.40246" fill="#F64C53"/>
<path d="M174.187 57.1602C174.197 56.9862 174.064 56.8372 173.89 56.8274L171.055 56.667C170.881 56.6571 170.732 56.7901 170.723 56.9641C170.713 57.138 170.846 57.287 171.02 57.2968L173.539 57.4394L173.397 59.959C173.387 60.1329 173.52 60.2819 173.694 60.2917C173.868 60.3016 174.017 60.1686 174.026 59.9946L174.187 57.1602ZM148.173 80.5103L174.082 57.3776L173.662 56.907L147.753 80.0397L148.173 80.5103Z" fill="#3E3E3E"/>
<path d="M183.412 66.2649C183.34 66.1063 183.153 66.0362 182.995 66.1083L180.41 67.2831C180.251 67.3552 180.181 67.5422 180.253 67.7008C180.325 67.8594 180.512 67.9295 180.671 67.8574L182.968 66.8132L184.013 69.1105C184.085 69.2691 184.272 69.3392 184.43 69.2672C184.589 69.1951 184.659 69.0081 184.587 68.8495L183.412 66.2649ZM177.869 81.3111L183.42 66.5062L182.83 66.2847L177.278 81.0896L177.869 81.3111Z" fill="#3E3E3E"/>
<path d="M163.895 47.4362C164.001 47.2983 163.976 47.1002 163.838 46.9938L161.59 45.2598C161.452 45.1533 161.254 45.1789 161.147 45.3169C161.041 45.4548 161.067 45.6529 161.205 45.7593L163.203 47.3006L161.661 49.2988C161.555 49.4367 161.58 49.6348 161.718 49.7412C161.856 49.8476 162.054 49.8221 162.161 49.6841L163.895 47.4362ZM148.004 49.5802L163.685 47.5564L163.605 46.9307L147.923 48.9545L148.004 49.5802Z" fill="#3E3E3E"/>
<defs>
<linearGradient id="paint0_linear_620_552" x1="107.837" y1="0.117859" x2="107.837" y2="327.728" gradientUnits="userSpaceOnUse">
<stop stop-color="#D3EFC3"/>
<stop offset="1" stop-color="#CFCFCF"/>
</linearGradient>
</defs>
</svg>
