<svg width="135" height="140" viewBox="0 0 135 140" fill="none" xmlns="http://www.w3.org/2000/svg">
<circle cx="67.5" cy="70.5" r="67.5" fill="url(#paint0_linear_1073_171)"/>
<path d="M44.3066 139.693V22.3227C44.3066 20.8175 45.1591 19.597 46.2105 19.597H54.7067C55.7582 19.597 56.6106 20.8172 56.6106 22.3227V140L44.3066 139.693Z" fill="#3E3E3E"/>
<path d="M102.773 134.514C98.7741 137.436 93.5919 137.583 88.5828 137.224C87.8834 137.174 87.1889 137.115 86.5008 137.051C86.4966 137.05 86.4912 137.051 86.487 137.05C86.4539 137.046 86.4208 137.043 86.3891 137.041C86.2471 137.028 86.105 137.014 85.9643 137.001L85.9976 137.065L86.1019 137.265C86.0644 137.198 86.0269 137.133 85.9894 137.066C85.9784 137.046 85.966 137.026 85.9551 137.006C84.6575 134.715 83.3704 132.34 83.0421 129.725C82.7028 127.01 83.6565 123.936 86.012 122.602C86.3209 122.427 86.6481 122.288 86.9874 122.188C87.1282 122.144 87.271 122.109 87.4154 122.078C88.2988 121.879 89.2186 121.922 90.08 122.203C90.9415 122.484 91.7136 122.993 92.317 123.677C92.9203 124.361 93.3331 125.196 93.513 126.096C93.6929 126.995 93.6332 127.927 93.3403 128.796C95.3374 126.718 94.9648 123.349 94.2759 120.533C93.5857 117.716 92.7502 114.583 94.154 112.053C94.9344 110.645 96.3067 109.772 97.8468 109.42C97.8941 109.41 97.9412 109.399 97.9886 109.39C99.8236 109.013 101.731 109.352 103.33 110.34C106.275 112.222 107.788 115.791 108.279 119.287C109.07 124.913 107.319 131.191 102.773 134.514Z" fill="#44AC06"/>
<path d="M101.329 125.491C101.211 126.742 100.914 127.97 100.446 129.135C100.015 130.166 99.4331 131.126 98.7209 131.983C97.2404 133.735 95.3653 135.102 93.2534 135.969C91.656 136.63 89.9823 137.085 88.2722 137.322C87.5642 137.271 86.8612 137.212 86.1647 137.148C86.1605 137.147 86.155 137.147 86.1507 137.146C86.1172 137.143 86.0837 137.14 86.0516 137.138C85.9079 137.124 85.7641 137.111 85.6217 137.097L85.6553 137.162L85.7609 137.363C85.7229 137.296 85.685 137.23 85.6471 137.163C85.6359 137.142 85.6234 137.122 85.6123 137.102C86.8944 135.811 87.8517 134.227 88.4039 132.485C88.9561 130.743 89.0871 128.892 88.786 127.088C88.4709 125.296 87.7415 123.606 86.6572 122.153C86.7998 122.11 86.9443 122.074 87.0905 122.043C87.5026 122.612 87.864 123.217 88.1707 123.851C89.2709 126.112 89.6219 128.67 89.1717 131.148C88.7532 133.391 87.7106 135.466 86.1662 137.13C86.3014 137.12 86.4379 137.109 86.5716 137.097C89.1025 136.88 91.6284 136.33 93.924 135.203C95.8862 134.264 97.5898 132.851 98.8846 131.089C100.275 129.15 100.888 126.819 100.993 124.449C101.074 121.896 100.809 119.344 100.206 116.863C99.6212 114.334 98.7324 111.887 97.5595 109.576C97.5333 109.523 97.528 109.463 97.5447 109.406C97.5614 109.35 97.5989 109.302 97.6494 109.273C97.6915 109.245 97.7431 109.234 97.7929 109.244C97.8173 109.25 97.8399 109.262 97.8591 109.279C97.8783 109.295 97.8935 109.316 97.9036 109.339C98.0483 109.625 98.1903 109.911 98.3269 110.199C99.4646 112.606 100.302 115.145 100.82 117.76C101.324 120.283 101.592 122.922 101.329 125.491Z" fill="white"/>
<path d="M87.2865 135.841L83.8318 135.841L82.1885 122.002H87.2871L87.2865 135.841Z" fill="#9E616A"/>
<path d="M88.3784 139.119L76.7246 139.118V138.981C76.7247 137.858 77.2026 136.782 78.0533 135.988C78.9039 135.195 80.0576 134.749 81.2606 134.749L88.3785 134.749L88.3784 139.119Z" fill="#2F2E41"/>
<path d="M73.8108 135.841L70.1094 135.841L68.3486 122.002H73.8114L73.8108 135.841Z" fill="#9E616A"/>
<path d="M74.5395 139.119L62.8857 139.118V138.981C62.8858 137.858 63.3637 136.782 64.2144 135.988C65.065 135.195 66.2187 134.749 67.4217 134.749L74.5397 134.749L74.5395 139.119Z" fill="#2F2E41"/>
<path d="M76.1795 16.3883C80.705 16.3883 84.3737 12.7196 84.3737 8.19411C84.3737 3.6686 80.705 -6.10352e-05 76.1795 -6.10352e-05C71.654 -6.10352e-05 67.9854 3.6686 67.9854 8.19411C67.9854 12.7196 71.654 16.3883 76.1795 16.3883Z" fill="#44AC06"/>
<path d="M73.3097 71.6951C76.3399 72.0618 84.0886 69.2841 84.5085 73.5099C88.4969 85.3072 88.3785 130.53 88.3785 130.53L82.3066 130.82C82.3066 130.82 77.4545 94.8882 75.1603 87.201C74.0089 96.5444 74.2107 132.273 74.2107 132.273L68.717 132.564C68.717 132.564 63.7892 102.139 63.761 93.2093C63.1621 86.6682 64.631 76.9752 64.0023 70.652C67.0069 71.6088 70.1692 71.9633 73.3097 71.6951Z" fill="#3F3D56"/>
<path d="M63.048 37.357C61.8036 34.8492 60.2836 32.4838 58.5154 30.3031C58.1459 29.8772 57.8094 29.4246 57.5088 28.949C56.8722 27.8604 56.6828 26.5821 56.2801 25.3914C55.1551 22.0527 52.3485 19.3706 51.6646 15.9181C51.4159 14.6632 49.3152 18.3106 49.8675 19.8668C50.8534 22.6831 50.9807 25.6657 52.236 28.3857C53.4913 31.1057 54.9656 33.7148 56.0492 36.4961C56.665 38.0749 57.1565 39.7064 58.0595 41.1656C58.9624 42.6248 60.3717 43.8476 62.074 44.0665C62.0625 43.0086 62.2255 41.9559 62.5566 40.9496C62.9266 39.7997 63.5839 38.4456 63.048 37.357Z" fill="#EDB18B"/>
<path d="M81.1766 39.2649C81.1011 37.2252 81.4249 35.1902 82.1303 33.2704C82.4003 32.5348 82.7173 31.7877 82.6908 31.0059C82.6527 30.279 82.3005 29.6126 81.9807 28.9549C80.8772 26.6903 80.1025 24.2902 79.3395 21.8959L77.8722 17.3813C77.3938 17.0364 80.1876 16.9168 80.7833 17.7275C82.7319 20.3872 84.208 23.4421 85.7517 26.3471C86.1454 27.0393 86.481 27.7619 86.7553 28.5077C87.1323 29.7165 87.3106 30.9766 87.2835 32.2406C87.2835 34.6032 86.9666 36.9571 86.6379 39.2995C86.4296 40.7679 86.1566 42.366 85.0268 43.3382C83.8529 41.8612 82.6732 40.4188 81.1766 39.2649Z" fill="#EDB18B"/>
<path d="M73.6302 37.1469C76.9489 37.1469 79.6392 34.375 79.6392 30.9557C79.6392 27.5365 76.9489 24.7646 73.6302 24.7646C70.3114 24.7646 67.6211 27.5365 67.6211 30.9557C67.6211 34.375 70.3114 37.1469 73.6302 37.1469Z" fill="#EDB18B"/>
<path d="M68.7773 24.8206C68.7103 24.6363 68.6952 24.4367 68.7338 24.2442C68.7725 24.0517 68.8633 23.8741 68.996 23.7313C69.1452 23.6118 69.3433 23.5672 69.5032 23.4532C69.7305 23.259 69.9166 23.0198 70.0501 22.7502C70.4581 22.1698 71.0553 21.7551 71.7356 21.5796C72.4159 21.4042 73.1354 21.4792 73.7665 21.7915C74.7537 22.3166 75.3498 23.3681 76.2278 24.076C76.6735 24.4428 77.1905 24.7151 77.639 25.0819C78.5372 25.8704 79.1757 26.9199 79.4684 28.0889C79.7595 29.2499 79.9295 30.4388 79.9756 31.6361C80.0223 31.9953 80.0085 32.36 79.9347 32.7145C79.8438 33.0118 79.7083 33.293 79.5328 33.5482C78.6303 34.9377 77.4408 36.1995 75.9503 36.9165C74.4598 37.6336 72.6468 37.7503 71.1769 36.9999C71.0289 36.9391 70.9016 36.8358 70.8105 36.7025C70.727 36.4996 70.707 36.2755 70.7532 36.0607C70.833 35.2113 70.6676 34.3567 70.2774 33.6013C70.0038 33.0456 69.5936 32.5674 69.3749 31.9923C69.1714 31.3484 69.0843 30.6725 69.1177 29.9971C69.0918 28.2471 69.2087 26.5047 68.7773 24.8206Z" fill="#2D293D"/>
<path d="M49.7759 19.3018C51.1838 19.3018 52.3252 18.1604 52.3252 16.7525C52.3252 15.3445 51.1838 14.2032 49.7759 14.2032C48.3679 14.2032 47.2266 15.3445 47.2266 16.7525C47.2266 18.1604 48.3679 19.3018 49.7759 19.3018Z" fill="#EDB18B"/>
<path d="M78.9106 18.2094C80.3186 18.2094 81.4599 16.9865 81.4599 15.478C81.4599 13.9695 80.3186 12.7466 78.9106 12.7466C77.5027 12.7466 76.3613 13.9695 76.3613 15.478C76.3613 16.9865 77.5027 18.2094 78.9106 18.2094Z" fill="#EDB18B"/>
<path d="M85.3159 47.8803C85.5724 47.6453 87.6629 35.4005 87.6507 35.1245C87.6185 33.616 83.0225 31.893 82.1027 32.4925C81.2349 33.0581 79.7239 39.5475 78.7514 40.7294L77.7227 38.9263H69.5467L69.0511 39.8481C67.9783 39.2008 67.0132 38.604 66.669 38.4065C66.5507 38.3262 66.4219 38.2627 66.2862 38.2179C65.4364 38.0275 64.6388 37.6521 63.9502 37.1183C63.2786 36.6007 60.1617 31.1794 59.3266 31.3227C58.3834 31.4807 55.2022 34.2355 55.2386 36.8792C55.6391 36.8707 60.849 47.3042 60.9221 47.6931C61.3222 49.3367 62.6432 73.3055 63.0695 74.4227C65.0335 74.2326 63.483 73.8934 65.3839 74.4227C67.4308 74.993 69.5916 74.3759 71.7028 74.1478C72.5819 74.0606 73.465 74.0216 74.3483 74.0308C77.5604 74.0454 82.1448 74.2238 85.2546 75.0222C85.2721 72.9809 83.4822 68.565 82.8193 66.6378C82.7325 66.0618 82.7354 65.4758 82.8281 64.9007C82.9128 64.1959 84.6226 48.6596 85.3159 47.8803Z" fill="#F3901B"/>
<path d="M24.0928 139.721V32.6301C24.0928 31.2567 24.9452 30.1432 25.9966 30.1432H34.4928C35.5443 30.1432 36.3967 31.2567 36.3967 32.6301V140L24.0928 139.721Z" fill="#3E3E3E"/>
<path d="M3 139.875V91.8983C3 91.283 3.85243 90.7842 4.90388 90.7842H13.4001C14.4515 90.7842 15.3039 91.283 15.3039 91.8983V140L3 139.875Z" fill="#3E3E3E"/>
<circle cx="112.856" cy="34.3326" r="19.1151" stroke="#F64C53" stroke-width="0.439427"/>
<circle opacity="0.15" cx="114.79" cy="38.844" r="16.1123" fill="#7B2629"/>
<circle cx="112.857" cy="34.3325" r="12.8899" fill="#F7F7F7"/>
<circle cx="111.567" cy="34.3326" r="5.15594" fill="#F64C53"/>
<path d="M111.787 35.6339C111.793 35.5128 111.701 35.409 111.58 35.4022L109.605 35.2904C109.484 35.2836 109.381 35.3762 109.374 35.4974C109.367 35.6185 109.459 35.7223 109.581 35.7291L111.335 35.8285L111.236 37.5834C111.229 37.7045 111.322 37.8083 111.443 37.8151C111.564 37.822 111.668 37.7293 111.675 37.6082L111.787 35.6339ZM93.6678 51.8977L111.714 35.7854L111.421 35.4576L93.3752 51.5699L93.6678 51.8977Z" fill="#3E3E3E"/>
<path d="M118.212 41.9755C118.162 41.8651 118.032 41.8162 117.922 41.8664L116.121 42.6847C116.011 42.7349 115.962 42.8652 116.012 42.9756C116.062 43.0861 116.193 43.135 116.303 43.0847L117.903 42.3574L118.631 43.9576C118.681 44.068 118.811 44.1169 118.922 44.0667C119.032 44.0165 119.081 43.8862 119.031 43.7757L118.212 41.9755ZM114.351 52.4555L118.218 42.1436L117.807 41.9893L113.94 52.3012L114.351 52.4555Z" fill="#3E3E3E"/>
<path d="M104.618 28.8611C104.692 28.765 104.674 28.627 104.578 28.5529L103.012 27.3451C102.916 27.271 102.778 27.2888 102.704 27.3849C102.63 27.481 102.648 27.6189 102.744 27.6931L104.136 28.7666L103.062 30.1584C102.988 30.2545 103.006 30.3924 103.102 30.4665C103.198 30.5407 103.336 30.5229 103.41 30.4268L104.618 28.8611ZM93.5495 30.3544L104.472 28.9448L104.416 28.509L93.4932 29.9186L93.5495 30.3544Z" fill="#3E3E3E"/>
<defs>
<linearGradient id="paint0_linear_1073_171" x1="67.5" y1="3" x2="67.5" y2="138" gradientUnits="userSpaceOnUse">
<stop stop-color="#F7F7F7"/>
<stop offset="1" stop-color="#9CB2FB"/>
</linearGradient>
</defs>
</svg>
