<svg width="343" height="358" viewBox="0 0 343 358" fill="none" xmlns="http://www.w3.org/2000/svg">
<path d="M100 112C100 105.373 105.373 100 112 100H231C237.627 100 243 105.373 243 112V246C243 252.627 237.627 258 231 258H112C105.373 258 100 252.627 100 246V112Z" fill="#F7F7F7"/>
<g filter="url(#filter0_f_980_1162)">
<path d="M166.855 251.072C179.02 226.49 210.876 249.587 227.679 230.879C251.827 203.994 245.303 166.422 222.9 138.037C206.127 116.785 160.773 130.574 160.773 107.967C160.773 85.3597 116.163 115.795 104.945 138.037C92.7151 162.285 105.397 182.717 118.848 206.297C131.589 228.632 154.69 275.655 166.855 251.072Z" fill="url(#paint0_linear_980_1162)"/>
</g>
<g filter="url(#filter1_d_980_1162)">
<circle cx="171.5" cy="182.5" r="67.5" fill="url(#paint1_linear_980_1162)"/>
</g>
<path d="M148.306 249.693V132.323C148.306 130.818 149.158 129.597 150.21 129.597H158.706C159.757 129.597 160.61 130.817 160.61 132.323V250L148.306 249.693Z" fill="#3E3E3E"/>
<path d="M206.773 244.514C202.774 247.436 197.592 247.583 192.583 247.224C191.883 247.174 191.189 247.115 190.501 247.051C190.497 247.05 190.491 247.051 190.487 247.05C190.454 247.046 190.421 247.043 190.389 247.041C190.247 247.028 190.105 247.014 189.964 247.001L189.998 247.065L190.102 247.265C190.064 247.198 190.027 247.133 189.989 247.066C189.978 247.046 189.966 247.026 189.955 247.006C188.657 244.715 187.37 242.34 187.042 239.725C186.703 237.01 187.656 233.936 190.012 232.602C190.321 232.427 190.648 232.288 190.987 232.188C191.128 232.144 191.271 232.109 191.415 232.078C192.299 231.879 193.219 231.922 194.08 232.203C194.941 232.484 195.714 232.993 196.317 233.677C196.92 234.361 197.333 235.196 197.513 236.096C197.693 236.995 197.633 237.927 197.34 238.796C199.337 236.718 198.965 233.349 198.276 230.533C197.586 227.716 196.75 224.583 198.154 222.053C198.934 220.645 200.307 219.772 201.847 219.42C201.894 219.41 201.941 219.399 201.989 219.39C203.824 219.013 205.731 219.352 207.33 220.34C210.275 222.222 211.788 225.791 212.279 229.287C213.07 234.913 211.319 241.191 206.773 244.514Z" fill="#44AC06"/>
<path d="M205.329 235.491C205.211 236.742 204.914 237.97 204.446 239.135C204.015 240.166 203.433 241.126 202.721 241.983C201.24 243.735 199.365 245.102 197.253 245.969C195.656 246.63 193.982 247.085 192.272 247.322C191.564 247.271 190.861 247.212 190.165 247.148C190.16 247.147 190.155 247.147 190.151 247.146C190.117 247.143 190.084 247.14 190.052 247.138C189.908 247.124 189.764 247.111 189.622 247.097L189.655 247.162L189.761 247.363C189.723 247.296 189.685 247.23 189.647 247.163C189.636 247.142 189.623 247.122 189.612 247.102C190.894 245.811 191.852 244.227 192.404 242.485C192.956 240.743 193.087 238.892 192.786 237.088C192.471 235.296 191.741 233.606 190.657 232.153C190.8 232.11 190.944 232.074 191.09 232.043C191.503 232.612 191.864 233.217 192.171 233.851C193.271 236.112 193.622 238.67 193.172 241.148C192.753 243.391 191.711 245.466 190.166 247.13C190.301 247.12 190.438 247.109 190.572 247.097C193.103 246.88 195.628 246.33 197.924 245.203C199.886 244.264 201.59 242.851 202.885 241.089C204.275 239.15 204.888 236.819 204.993 234.449C205.074 231.896 204.809 229.344 204.206 226.863C203.621 224.334 202.732 221.887 201.559 219.576C201.533 219.523 201.528 219.463 201.545 219.406C201.561 219.35 201.599 219.302 201.649 219.273C201.691 219.245 201.743 219.234 201.793 219.244C201.817 219.25 201.84 219.262 201.859 219.279C201.878 219.295 201.893 219.316 201.904 219.339C202.048 219.625 202.19 219.911 202.327 220.199C203.465 222.606 204.302 225.145 204.82 227.76C205.324 230.283 205.592 232.922 205.329 235.491Z" fill="white"/>
<path d="M191.286 245.841L187.831 245.841L186.188 232.002H191.286L191.286 245.841Z" fill="#9E616A"/>
<path d="M192.378 249.119L180.725 249.118V248.981C180.725 247.858 181.203 246.782 182.053 245.988C182.904 245.195 184.058 244.749 185.261 244.749L192.379 244.749L192.378 249.119Z" fill="#2F2E41"/>
<path d="M177.811 245.841L174.109 245.841L172.349 232.002H177.811L177.811 245.841Z" fill="#9E616A"/>
<path d="M178.539 249.119L166.886 249.118V248.981C166.886 247.858 167.364 246.782 168.214 245.988C169.065 245.195 170.219 244.749 171.422 244.749L178.54 244.749L178.539 249.119Z" fill="#2F2E41"/>
<path d="M180.179 126.388C184.704 126.388 188.373 122.72 188.373 118.194C188.373 113.669 184.704 110 180.179 110C175.653 110 171.984 113.669 171.984 118.194C171.984 122.72 175.653 126.388 180.179 126.388Z" fill="#44AC06"/>
<path d="M177.31 181.695C180.34 182.062 188.089 179.284 188.509 183.51C192.497 195.307 192.379 240.53 192.379 240.53L186.307 240.82C186.307 240.82 181.455 204.888 179.16 197.201C178.009 206.544 178.211 242.273 178.211 242.273L172.717 242.564C172.717 242.564 167.789 212.139 167.761 203.209C167.162 196.668 168.631 186.975 168.002 180.652C171.007 181.609 174.169 181.963 177.31 181.695Z" fill="#3F3D56"/>
<path d="M167.048 147.357C165.804 144.849 164.284 142.484 162.515 140.303C162.146 139.877 161.809 139.425 161.509 138.949C160.872 137.86 160.683 136.582 160.28 135.391C159.155 132.053 156.349 129.371 155.665 125.918C155.416 124.663 153.315 128.311 153.868 129.867C154.853 132.683 154.981 135.666 156.236 138.386C157.491 141.106 158.966 143.715 160.049 146.496C160.665 148.075 161.156 149.706 162.059 151.166C162.962 152.625 164.372 153.848 166.074 154.067C166.062 153.009 166.225 151.956 166.557 150.95C166.927 149.8 167.584 148.446 167.048 147.357Z" fill="#EDB18B"/>
<path d="M185.177 149.265C185.101 147.225 185.425 145.19 186.13 143.27C186.4 142.535 186.717 141.788 186.691 141.006C186.653 140.279 186.301 139.613 185.981 138.955C184.877 136.69 184.103 134.29 183.34 131.896L181.872 127.381C181.394 127.036 184.188 126.917 184.783 127.727C186.732 130.387 188.208 133.442 189.752 136.347C190.145 137.039 190.481 137.762 190.755 138.508C191.132 139.716 191.311 140.977 191.284 142.241C191.284 144.603 190.967 146.957 190.638 149.3C190.43 150.768 190.157 152.366 189.027 153.338C187.853 151.861 186.673 150.419 185.177 149.265Z" fill="#EDB18B"/>
<path d="M177.629 147.147C180.948 147.147 183.638 144.375 183.638 140.956C183.638 137.536 180.948 134.765 177.629 134.765C174.31 134.765 171.62 137.536 171.62 140.956C171.62 144.375 174.31 147.147 177.629 147.147Z" fill="#EDB18B"/>
<path d="M172.777 134.821C172.71 134.636 172.695 134.437 172.734 134.244C172.772 134.052 172.863 133.874 172.996 133.731C173.145 133.612 173.343 133.567 173.503 133.453C173.731 133.259 173.917 133.02 174.05 132.75C174.458 132.17 175.055 131.755 175.736 131.58C176.416 131.404 177.135 131.479 177.766 131.792C178.754 132.317 179.35 133.368 180.228 134.076C180.674 134.443 181.191 134.715 181.639 135.082C182.537 135.87 183.176 136.92 183.468 138.089C183.76 139.25 183.93 140.439 183.976 141.636C184.022 141.995 184.008 142.36 183.935 142.715C183.844 143.012 183.708 143.293 183.533 143.548C182.63 144.938 181.441 146.2 179.95 146.917C178.46 147.634 176.647 147.75 175.177 147C175.029 146.939 174.902 146.836 174.811 146.703C174.727 146.5 174.707 146.276 174.753 146.061C174.833 145.211 174.668 144.357 174.277 143.601C174.004 143.046 173.594 142.567 173.375 141.992C173.171 141.349 173.084 140.673 173.118 139.997C173.092 138.247 173.209 136.505 172.777 134.821Z" fill="#2D293D"/>
<path d="M153.775 129.302C155.183 129.302 156.324 128.16 156.324 126.753C156.324 125.345 155.183 124.203 153.775 124.203C152.367 124.203 151.226 125.345 151.226 126.753C151.226 128.16 152.367 129.302 153.775 129.302Z" fill="#EDB18B"/>
<path d="M182.91 128.209C184.318 128.209 185.459 126.986 185.459 125.478C185.459 123.969 184.318 122.747 182.91 122.747C181.502 122.747 180.36 123.969 180.36 125.478C180.36 126.986 181.502 128.209 182.91 128.209Z" fill="#EDB18B"/>
<path d="M189.316 157.88C189.572 157.645 191.663 145.4 191.651 145.125C191.618 143.616 187.023 141.893 186.103 142.493C185.235 143.058 183.724 149.548 182.751 150.729L181.723 148.926H173.547L173.051 149.848C171.978 149.201 171.013 148.604 170.669 148.406C170.551 148.326 170.422 148.263 170.286 148.218C169.436 148.028 168.639 147.652 167.95 147.118C167.279 146.601 164.162 141.179 163.327 141.323C162.383 141.481 159.202 144.236 159.239 146.879C159.639 146.871 164.849 157.304 164.922 157.693C165.322 159.337 166.643 183.306 167.069 184.423C169.033 184.233 167.483 183.893 169.384 184.423C171.431 184.993 173.592 184.376 175.703 184.148C176.582 184.061 177.465 184.022 178.348 184.031C181.56 184.045 186.145 184.224 189.255 185.022C189.272 182.981 187.482 178.565 186.819 176.638C186.732 176.062 186.735 175.476 186.828 174.901C186.913 174.196 188.623 158.66 189.316 157.88Z" fill="#F3901B"/>
<path d="M128.093 249.721V142.63C128.093 141.257 128.945 140.143 129.997 140.143H138.493C139.544 140.143 140.397 141.257 140.397 142.63V250L128.093 249.721Z" fill="#3E3E3E"/>
<path d="M107 249.875V201.898C107 201.283 107.852 200.784 108.904 200.784H117.4C118.452 200.784 119.304 201.283 119.304 201.898V250L107 249.875Z" fill="#3E3E3E"/>
<circle cx="216.856" cy="144.333" r="19.1151" stroke="#F64C53" stroke-width="0.439427"/>
<circle opacity="0.15" cx="218.79" cy="148.844" r="16.1123" fill="#7B2629"/>
<circle cx="216.857" cy="144.333" r="12.8899" fill="#F7F7F7"/>
<circle cx="215.567" cy="144.333" r="5.15594" fill="#F64C53"/>
<path d="M215.787 145.634C215.793 145.513 215.701 145.409 215.58 145.402L213.605 145.29C213.484 145.284 213.381 145.376 213.374 145.497C213.367 145.619 213.459 145.722 213.581 145.729L215.335 145.828L215.236 147.583C215.229 147.705 215.322 147.808 215.443 147.815C215.564 147.822 215.668 147.729 215.675 147.608L215.787 145.634ZM197.668 161.898L215.714 145.785L215.421 145.458L197.375 161.57L197.668 161.898Z" fill="#3E3E3E"/>
<path d="M222.212 151.976C222.162 151.865 222.032 151.816 221.922 151.866L220.121 152.685C220.011 152.735 219.962 152.865 220.012 152.976C220.062 153.086 220.193 153.135 220.303 153.085L221.903 152.357L222.631 153.958C222.681 154.068 222.811 154.117 222.922 154.067C223.032 154.016 223.081 153.886 223.031 153.776L222.212 151.976ZM218.351 162.455L222.218 152.144L221.807 151.989L217.94 162.301L218.351 162.455Z" fill="#3E3E3E"/>
<path d="M208.618 138.861C208.692 138.765 208.674 138.627 208.578 138.553L207.012 137.345C206.916 137.271 206.778 137.289 206.704 137.385C206.63 137.481 206.648 137.619 206.744 137.693L208.136 138.767L207.062 140.158C206.988 140.254 207.006 140.392 207.102 140.467C207.198 140.541 207.336 140.523 207.41 140.427L208.618 138.861ZM197.549 140.354L208.472 138.945L208.416 138.509L197.493 139.919L197.549 140.354Z" fill="#3E3E3E"/>
<defs>
<filter id="filter0_f_980_1162" x="0" y="0" width="343" height="358" filterUnits="userSpaceOnUse" color-interpolation-filters="sRGB">
<feFlood flood-opacity="0" result="BackgroundImageFix"/>
<feBlend mode="normal" in="SourceGraphic" in2="BackgroundImageFix" result="shape"/>
<feGaussianBlur stdDeviation="50" result="effect1_foregroundBlur_980_1162"/>
</filter>
<filter id="filter1_d_980_1162" x="74" y="105" width="195" height="195" filterUnits="userSpaceOnUse" color-interpolation-filters="sRGB">
<feFlood flood-opacity="0" result="BackgroundImageFix"/>
<feColorMatrix in="SourceAlpha" type="matrix" values="0 0 0 0 0 0 0 0 0 0 0 0 0 0 0 0 0 0 127 0" result="hardAlpha"/>
<feOffset dy="20"/>
<feGaussianBlur stdDeviation="15"/>
<feComposite in2="hardAlpha" operator="out"/>
<feColorMatrix type="matrix" values="0 0 0 0 0 0 0 0 0 0 0 0 0 0 0 0 0 0 0.05 0"/>
<feBlend mode="normal" in2="BackgroundImageFix" result="effect1_dropShadow_980_1162"/>
<feBlend mode="normal" in="SourceGraphic" in2="effect1_dropShadow_980_1162" result="shape"/>
</filter>
<linearGradient id="paint0_linear_980_1162" x1="100" y1="179" x2="243" y2="179" gradientUnits="userSpaceOnUse">
<stop stop-color="#D3EFC3"/>
<stop offset="1" stop-color="#FCE8CF"/>
</linearGradient>
<linearGradient id="paint1_linear_980_1162" x1="171.5" y1="115" x2="171.5" y2="250" gradientUnits="userSpaceOnUse">
<stop stop-color="#F7F7F7"/>
<stop offset="1" stop-color="#9CB2FB"/>
</linearGradient>
</defs>
</svg>
