<svg width="113" height="113" viewBox="0 0 113 113" fill="none" xmlns="http://www.w3.org/2000/svg">
<g clip-path="url(#clip0_620_784)">
<path d="M56.6942 112.197C87.6763 112.197 112.792 87.081 112.792 56.099C112.792 25.1169 87.6763 0.000976562 56.6942 0.000976562C25.7121 0.000976562 0.596191 25.1169 0.596191 56.099C0.596191 87.081 25.7121 112.197 56.6942 112.197Z" fill="#007AB9"/>
<path d="M90.2121 60.6129V83.7409H76.8031V62.1629C76.8031 56.7449 74.8671 53.0449 70.0121 53.0449C66.3071 53.0449 64.1061 55.5359 63.1341 57.9479C62.7811 58.8099 62.6901 60.007 62.6901 61.216V83.7399H49.2801C49.2801 83.7399 49.4601 47.1939 49.2801 43.4109H62.6911V49.1259C62.6641 49.1709 62.6261 49.2149 62.6021 49.2579H62.6911V49.1259C64.4731 46.3839 67.6511 42.4639 74.7761 42.4639C83.5981 42.4639 90.2121 48.2279 90.2121 60.6129ZM35.2521 23.9709C30.6651 23.9709 27.6641 26.9819 27.6641 30.9379C27.6641 34.8099 30.5781 37.9079 35.0761 37.9079H35.1631C39.8401 37.9079 42.7481 34.8099 42.7481 30.9379C42.6591 26.9819 39.8401 23.9709 35.2521 23.9709ZM28.4611 83.7409H41.8661V43.4109H28.4611V83.7409Z" fill="#F1F2F2"/>
</g>
<defs>
<clipPath id="clip0_620_784">
<rect width="112.196" height="112.196" fill="white" transform="translate(0.596191 0.00195312)"/>
</clipPath>
</defs>
</svg>
