<svg width="604" height="48" viewBox="0 0 604 48" fill="none" xmlns="http://www.w3.org/2000/svg">
<g clip-path="url(#clip0_1794_3392)">
<path d="M8.5 48C12.916 48 16.5 44.416 16.5 40V32H8.5C4.084 32 0.5 35.584 0.5 40C0.5 44.416 4.084 48 8.5 48Z" fill="#0ACF83"/>
<path d="M0.5 24C0.5 19.584 4.084 16 8.5 16H16.5V32H8.5C4.084 32 0.5 28.416 0.5 24Z" fill="#A259FF"/>
<path d="M0.5 8C0.5 3.584 4.084 0 8.5 0H16.5V16H8.5C4.084 16 0.5 12.416 0.5 8Z" fill="#F24E1E"/>
<path d="M16.5 0H24.5C28.916 0 32.5 3.584 32.5 8C32.5 12.416 28.916 16 24.5 16H16.5V0Z" fill="#FF7262"/>
<path d="M32.5 24C32.5 28.416 28.916 32 24.5 32C20.084 32 16.5 28.416 16.5 24C16.5 19.584 20.084 16 24.5 16C28.916 16 32.5 19.584 32.5 24Z" fill="#1ABCFE"/>
</g>
<g clip-path="url(#clip1_1794_3392)">
<path d="M97.492 0H64.66C60.1534 0 56.5 3.65336 56.5 8.16V39.7632C56.5 44.2698 60.1534 47.9232 64.66 47.9232H97.492C101.999 47.9232 105.652 44.2698 105.652 39.7632V8.16C105.652 3.65336 101.999 0 97.492 0Z" fill="#470137"/>
<path d="M82.3392 12.603L76.2062 22.7256L82.7678 33.4748C82.8099 33.55 82.8217 33.6384 82.8008 33.722C82.7906 33.7577 82.7687 33.7665 82.7352 33.7679L82.6978 33.7674L82.6525 33.7661C82.628 33.766 82.6005 33.7673 82.57 33.7723L77.8392 33.7722L77.7462 33.7708C77.4911 33.7641 77.3075 33.7277 77.1954 33.5407C76.7554 32.6834 76.3158 31.8316 75.8765 30.9853C75.4915 30.2451 75.0858 29.492 74.6593 28.726L74.4752 28.3969C73.9806 27.518 73.4915 26.6278 73.0079 25.7261H72.9749C72.5349 26.6056 72.0788 27.4849 71.6065 28.364C71.1336 29.2434 70.6665 30.1172 70.2052 30.9853C69.7436 31.8539 69.271 32.7167 68.7874 33.5737C68.7097 33.7483 68.5806 33.7847 68.4005 33.7908L68.3257 33.7919H63.8085L63.789 33.7925L63.7244 33.7984C63.6885 33.8005 63.6671 33.7927 63.6601 33.7385C63.6477 33.6581 63.6653 33.576 63.7096 33.5077L70.0733 23.0553L63.8744 12.57C63.8085 12.4824 63.7975 12.411 63.8414 12.3557C63.8908 12.2986 63.9641 12.2681 64.0393 12.2732H68.6884C68.7898 12.2677 68.8912 12.2845 68.9852 12.3227C69.0641 12.3674 69.1317 12.4294 69.183 12.5041C69.5787 13.3835 70.0184 14.2627 70.5019 15.1419C70.9852 16.0213 71.4743 16.8896 71.9692 17.7467C72.4638 18.604 72.92 19.4723 73.3376 20.3516H73.3706C73.81 19.4505 74.2552 18.5712 74.706 17.7138C75.1563 16.8565 75.6179 15.9937 76.0908 15.1254C76.5633 14.2573 77.0195 13.3945 77.4592 12.537C77.4845 12.4557 77.5299 12.382 77.5911 12.3227C77.6725 12.2814 77.7641 12.2642 77.8549 12.2732H82.1743C82.2601 12.2521 82.3491 12.2932 82.3886 12.3722C82.4245 12.444 82.4108 12.5298 82.3567 12.5868L82.3392 12.603ZM92.0295 34.1977L91.802 34.2002C90.2844 34.2233 88.7806 33.9079 87.4001 33.2769C86.1141 32.6817 85.0391 31.7102 84.3172 30.4907C83.5893 29.2818 83.2158 27.7755 83.1969 25.972L83.1961 25.8251C83.1837 24.3118 83.5704 22.8219 84.3172 21.5056C85.0651 20.2021 86.1552 19.129 87.4684 18.4017L87.5815 18.3402C89.0101 17.5489 90.7357 17.1532 92.7582 17.1532L92.8467 17.1543L92.9477 17.1574L93.061 17.1625L93.1868 17.1697L93.3985 17.1846L93.6381 17.2039L93.8133 17.2192V10.7235C93.8133 10.57 93.8793 10.4927 94.0112 10.4927H98.1657C98.2202 10.4849 98.2752 10.5033 98.3141 10.5422C98.3531 10.5811 98.3714 10.636 98.3636 10.6905V30.1775C98.3636 30.5048 98.3762 30.857 98.4015 31.2343L98.4629 32.0897L98.4955 32.5845C98.5038 32.7247 98.4252 32.8556 98.2976 32.9142C97.2258 33.3612 96.1095 33.6928 94.9674 33.9034C93.9978 34.0823 93.0151 34.1808 92.0295 34.1977ZM93.8133 30.1115V21.11C93.6351 21.0617 93.4531 21.0286 93.2693 21.011C93.0447 20.9884 92.8191 20.9775 92.5933 20.9781C91.7932 20.9701 91.0025 21.1509 90.2852 21.5056C89.5867 21.8529 88.9902 22.3755 88.5542 23.0224C88.119 23.6591 87.8939 24.4905 87.879 25.5166L87.8782 25.6272C87.8622 26.346 87.9796 27.0615 88.2244 27.7375C88.4237 28.2821 88.7387 28.7771 89.1477 29.1883C89.5393 29.5666 90.0133 29.8488 90.5325 30.0126C91.081 30.1902 91.6542 30.2792 92.2306 30.2765C92.5382 30.2765 92.824 30.2654 93.0879 30.2434C93.2986 30.2276 93.5073 30.1928 93.7116 30.1396L93.8133 30.1115Z" fill="#FF61F6"/>
</g>
<g clip-path="url(#clip2_1794_3392)">
<path d="M166.402 0H140.902C134.689 0 129.652 5.0368 129.652 11.25V36.75C129.652 42.9632 134.689 48 140.902 48H166.402C172.616 48 177.652 42.9632 177.652 36.75V11.25C177.652 5.0368 172.616 0 166.402 0Z" fill="#330000"/>
<path d="M152.853 28.5624H145.413L143.893 33.2625C143.853 33.4425 143.693 33.5625 143.513 33.5424H139.753C139.533 33.5424 139.473 33.4224 139.533 33.1824L145.973 14.6425C146.033 14.4425 146.093 14.2225 146.173 13.9825C146.253 13.5625 146.293 13.1225 146.293 12.6825C146.273 12.5825 146.353 12.4825 146.453 12.4625H146.513H151.633C151.793 12.4625 151.873 12.5225 151.893 12.6225L159.193 33.2226C159.253 33.4425 159.193 33.5424 158.993 33.5424H154.813C154.673 33.5625 154.533 33.4626 154.493 33.3225L152.853 28.5624ZM146.573 24.5025H151.653C151.533 24.0825 151.373 23.5824 151.193 23.0625C151.013 22.5225 150.833 21.9426 150.653 21.3426C150.453 20.7225 150.273 20.1225 150.073 19.5024C149.873 18.8826 149.693 18.3025 149.533 17.7225C149.373 17.1625 149.233 16.6425 149.093 16.1625H149.053C148.873 17.0225 148.653 17.8825 148.373 18.7425C148.073 19.7025 147.773 20.7024 147.453 21.7026C147.173 22.7226 146.873 23.6625 146.573 24.5025Z" fill="#FF9A00"/>
<path d="M163.653 15.9625C162.993 15.9825 162.353 15.7225 161.873 15.2625C161.413 14.7625 161.173 14.1025 161.193 13.4225C161.173 12.7425 161.433 12.1025 161.913 11.6425C162.393 11.1825 163.033 10.9425 163.693 10.9425C164.473 10.9425 165.073 11.1825 165.513 11.6425C165.953 12.1225 166.193 12.7625 166.173 13.4225C166.193 14.1025 165.953 14.7625 165.473 15.2625C165.013 15.7425 164.333 16.0025 163.653 15.9625ZM161.413 33.3225V17.9225C161.413 17.7225 161.493 17.6425 161.673 17.6425H165.633C165.813 17.6425 165.893 17.7425 165.893 17.9225V33.3225C165.893 33.5424 165.813 33.6425 165.633 33.6425H161.713C161.513 33.6425 161.413 33.5225 161.413 33.3225Z" fill="#FF9A00"/>
</g>
<g clip-path="url(#clip3_1794_3392)">
<path d="M259.997 9.20044H264.245V30.1962C264.245 35.7324 261.718 39.5973 255.857 39.5973C253.652 39.5973 251.931 39.2318 250.748 38.8139V34.7924C252.039 35.3147 253.598 35.5758 255.157 35.5758C258.76 35.5758 259.997 33.4866 259.997 30.4574V9.20044Z" fill="#253858"/>
<path d="M272.043 7.58154C273.71 7.58154 274.893 8.57388 274.893 10.3496C274.893 12.0732 273.71 13.1178 272.043 13.1178C270.376 13.1178 269.193 12.1254 269.193 10.3496C269.193 8.62611 270.376 7.58154 272.043 7.58154ZM269.946 16.4081H274.033V39.3887H269.946V16.4081Z" fill="#253858"/>
<path d="M284.141 39.3886H280.162V16.408H284.141V20.4296C285.539 17.7137 287.906 15.7813 292.53 16.0424V19.9073C287.314 19.385 284.141 20.8996 284.141 25.8091V39.3886Z" fill="#253858"/>
<path d="M311.619 35.2625C310.113 38.2917 307.263 39.8585 303.607 39.8585C297.315 39.8585 294.143 34.688 294.143 27.8982C294.143 21.4218 297.476 15.938 304.091 15.938C307.532 15.938 310.221 17.4525 311.619 20.4296V16.4079H315.706V39.3885H311.619V35.2625ZM304.682 36.2025C308.339 36.2025 311.565 33.9567 311.565 28.8383V27.0104C311.565 21.8919 308.608 19.6461 305.112 19.6461C300.542 19.6461 298.176 22.571 298.176 27.8982C298.229 33.4344 300.488 36.2025 304.682 36.2025Z" fill="#253858"/>
<path d="M238.649 4.5H220.043C220.043 8.99164 223.807 12.6476 228.432 12.6476H231.873V15.8336C231.873 20.3252 235.637 23.9813 240.262 23.9813V6.06685C240.262 5.17897 239.563 4.5 238.649 4.5Z" fill="#2684FF"/>
<path d="M229.453 13.4832H210.848C210.848 17.9748 214.612 21.6307 219.236 21.6307H222.678V24.8689C222.678 29.3605 226.442 33.0167 231.067 33.0167V15.05C231.067 14.2143 230.367 13.4832 229.453 13.4832Z" fill="url(#paint0_linear_1794_3392)"/>
<path d="M220.258 22.5187H201.652C201.652 27.0103 205.416 30.6662 210.041 30.6662H213.483V33.8522C213.483 38.3438 217.247 41.9998 221.871 41.9998V24.0854C221.871 23.1976 221.118 22.5187 220.258 22.5187Z" fill="url(#paint1_linear_1794_3392)"/>
</g>
<g clip-path="url(#clip4_1794_3392)">
<path d="M380.712 16.236H387.652V42.752H380.712V16.236ZM350.646 12.188C351.721 12.1896 352.751 12.6169 353.51 13.3764C354.27 14.1359 354.698 15.1656 354.7 16.24H361.64C361.637 13.3252 360.478 10.5307 358.417 8.46957C356.356 6.40848 353.561 5.24917 350.646 5.24599C347.731 5.24917 344.936 6.40876 342.875 8.47027C340.814 10.5318 339.655 13.3268 339.652 16.242H346.592C346.594 15.1673 347.022 14.1371 347.781 13.3771C348.541 12.6172 349.572 12.1896 350.646 12.188ZM354.7 42.758L361.64 42.754V16.24H354.7V42.758ZM372.604 42.748V35.812H365.664L361.638 35.814V42.754L372.604 42.748ZM372.604 16.236C372.606 15.1613 373.034 14.1311 373.793 13.3711C374.553 12.6112 375.584 12.1836 376.658 12.182V5.23999C373.744 5.24317 370.949 6.40248 368.888 8.46357C366.827 10.5247 365.668 13.3192 365.664 16.234V35.812H372.604V16.236ZM380.712 16.236H387.652C387.649 13.3212 386.49 10.5267 384.429 8.46557C382.368 6.40448 379.573 5.24517 376.658 5.24199V12.182C377.733 12.1836 378.763 12.6112 379.523 13.3711C380.283 14.1311 380.711 15.1613 380.712 16.236ZM339.652 42.756H346.592V16.242H339.652V42.76V42.756Z" fill="black"/>
</g>
<g clip-path="url(#clip5_1794_3392)">
<path d="M421.746 44.145L418.652 9.43298H452.652L449.554 44.14L435.632 48L421.746 44.145Z" fill="#E44D26"/>
<path d="M435.652 45.049L446.902 41.929L449.55 12.271H435.652V45.049Z" fill="#F16529"/>
<path d="M435.652 25.145H430.02L429.63 20.785H435.652V16.53H424.979L425.081 17.672L426.127 29.403H435.652V25.145ZM435.652 36.202L435.633 36.207L430.893 34.927L430.59 31.531H426.317L426.913 38.216L435.633 40.636L435.652 40.631V36.202Z" fill="#EBEBEB"/>
<path d="M421.815 0H423.978V2.138H425.958V0H428.12V6.473H425.957V4.305H423.979V6.473H421.815V0ZM430.965 2.147H429.061V0H435.033V2.147H433.128V6.473H430.965V2.147ZM435.981 0H438.236L439.624 2.274L441.01 0H443.266V6.473H441.112V3.265L439.624 5.566H439.587L438.097 3.265V6.473H435.982L435.981 0ZM444.342 0H446.507V4.333H449.549V6.473H444.342V0Z" fill="black"/>
<path d="M435.638 25.1451V29.4031H440.88L440.386 34.9231L435.638 36.2051V40.6351L444.364 38.2151L444.428 37.4961L445.428 26.2891L445.532 25.1451H444.385H435.638ZM435.638 16.5291V20.7851H445.92L446.005 19.8291L446.199 17.6711L446.301 16.5291H435.638Z" fill="white"/>
</g>
<path d="M519.791 41.6607L507.652 44.9294L495.512 41.6607L492.711 11.3123H522.593L519.791 41.6607Z" fill="#2062AF"/>
<path d="M507.652 13.7706V42.3226L507.68 42.3301L517.504 39.6847L519.771 13.7706H507.652Z" fill="#3C9CD7"/>
<path d="M500.762 6.85358V5.04724H503.397V3.07068H498.785V8.65724H503.397V6.85358H500.762ZM508.138 5.04724H509.981V3.07068H505.368V5.04724C505.985 5.66432 506.307 5.95968 507.199 6.85215C506.678 6.85215 505.368 6.85393 505.368 6.85393V8.65724H509.981V6.85358L508.138 5.04724ZM514.675 5.04724H516.518V3.07068H511.905V5.04724C512.522 5.66432 512.844 5.95968 513.737 6.85215C513.215 6.85215 511.905 6.85393 511.905 6.85393V8.65724H516.518V6.85358L514.675 5.04724Z" fill="black"/>
<path d="M507.642 21.3589L498.953 24.9774L499.241 28.56L507.642 24.9683L516.578 21.1478L516.948 17.4829L507.642 21.3589Z" fill="white"/>
<path d="M498.953 24.9774L499.241 28.5601L507.642 24.9684V21.3589L498.953 24.9774Z" fill="url(#paint2_linear_1794_3392)"/>
<path d="M516.947 17.4829L507.641 21.3588V24.9682L516.577 21.1477L516.947 17.4829Z" fill="url(#paint3_linear_1794_3392)"/>
<path d="M498.966 24.9774L499.254 28.5601L512.143 28.6011L511.855 33.3779L507.614 34.572L503.537 33.5425L503.29 30.5776H499.501L499.995 36.3015L507.655 38.5663L515.273 36.3426L516.261 24.9774H498.966Z" fill="url(#paint4_linear_1794_3392)"/>
<path opacity="0.05" d="M507.642 24.9774H498.953L499.241 28.5601L507.642 28.5869V24.9774ZM507.642 34.5606L507.601 34.5721L503.524 33.5426L503.277 30.5777H499.488L499.983 36.3016L507.642 38.5664V34.5606Z" fill="black"/>
<path d="M498.17 17.4829H516.947L516.577 21.1478H498.623L498.17 17.4829Z" fill="url(#paint5_linear_1794_3392)"/>
<path opacity="0.05" d="M507.641 17.4829H498.17L498.623 21.1478H507.641V17.4829Z" fill="black"/>
<g clip-path="url(#clip6_1794_3392)">
<path d="M592.402 0H566.902C560.689 0 555.652 5.0368 555.652 11.25V36.75C555.652 42.9632 560.689 48 566.902 48H592.402C598.616 48 603.652 42.9632 603.652 36.75V11.25C603.652 5.0368 598.616 0 592.402 0Z" fill="#242938"/>
<path d="M579.652 27.5534C581.584 27.5534 583.15 25.9872 583.15 24.0554C583.15 22.1236 581.584 20.5574 579.652 20.5574C577.72 20.5574 576.154 22.1236 576.154 24.0554C576.154 25.9872 577.72 27.5534 579.652 27.5534Z" fill="#00D8FF"/>
<path fill-rule="evenodd" clip-rule="evenodd" d="M579.653 16.9431C584.349 16.9431 588.712 17.617 592.002 18.7495C595.965 20.1141 598.402 22.1824 598.402 24.0553C598.402 26.007 595.82 28.2043 591.563 29.6145C588.345 30.6806 584.111 31.2371 579.653 31.2371C575.082 31.2371 570.753 30.7147 567.499 29.6027C563.382 28.1955 560.902 25.9699 560.902 24.0553C560.902 22.1976 563.229 20.1452 567.137 18.7828C570.439 17.6316 574.91 16.9431 579.652 16.9431H579.653Z" stroke="#00D8FF" stroke-width="1.67081"/>
<path fill-rule="evenodd" clip-rule="evenodd" d="M573.461 20.5196C575.808 16.4513 578.571 13.0084 581.196 10.7245C584.358 7.97261 587.367 6.8949 588.989 7.83043C590.68 8.80543 591.293 12.1406 590.389 16.5321C589.705 19.8523 588.071 23.7984 585.844 27.6606C583.56 31.6202 580.946 35.1088 578.357 37.3716C575.081 40.2351 571.914 41.2714 570.256 40.3149C568.646 39.3876 568.031 36.3461 568.803 32.2802C569.455 28.8446 571.092 24.6279 573.461 20.5196H573.461Z" stroke="#00D8FF" stroke-width="1.67081"/>
<path fill-rule="evenodd" clip-rule="evenodd" d="M573.467 27.6709C571.114 23.607 569.512 19.4929 568.844 16.0784C568.039 11.9645 568.608 8.81916 570.229 7.88091C571.918 6.90306 575.113 8.03738 578.466 11.0144C581.001 13.2652 583.604 16.651 585.838 20.5093C588.128 24.4652 589.845 28.473 590.512 31.8458C591.357 36.114 590.673 39.3752 589.016 40.3343C587.409 41.265 584.467 40.2797 581.33 37.5801C578.679 35.2993 575.843 31.7753 573.467 27.6709Z" stroke="#00D8FF" stroke-width="1.67081"/>
</g>
<defs>
<linearGradient id="paint0_linear_1794_3392" x1="230.671" y1="13.5282" x2="222.998" y2="21.675" gradientUnits="userSpaceOnUse">
<stop offset="0.176" stop-color="#0052CC"/>
<stop offset="1" stop-color="#2684FF"/>
</linearGradient>
<linearGradient id="paint1_linear_1794_3392" x1="221.992" y1="22.5787" x2="213.106" y2="31.481" gradientUnits="userSpaceOnUse">
<stop offset="0.176" stop-color="#0052CC"/>
<stop offset="1" stop-color="#2684FF"/>
</linearGradient>
<linearGradient id="paint2_linear_1794_3392" x1="503.297" y1="28.5602" x2="503.297" y2="21.359" gradientUnits="userSpaceOnUse">
<stop offset="0.387" stop-color="#D1D3D4" stop-opacity="0"/>
<stop offset="1" stop-color="#D1D3D4"/>
</linearGradient>
<linearGradient id="paint3_linear_1794_3392" x1="512.294" y1="24.9683" x2="512.294" y2="17.483" gradientUnits="userSpaceOnUse">
<stop offset="0.387" stop-color="#D1D3D4" stop-opacity="0"/>
<stop offset="1" stop-color="#D1D3D4"/>
</linearGradient>
<linearGradient id="paint4_linear_1794_3392" x1="498.966" y1="31.7719" x2="516.261" y2="31.7719" gradientUnits="userSpaceOnUse">
<stop stop-color="#E8E7E5"/>
<stop offset="1" stop-color="white"/>
</linearGradient>
<linearGradient id="paint5_linear_1794_3392" x1="498.17" y1="19.3154" x2="516.947" y2="19.3154" gradientUnits="userSpaceOnUse">
<stop stop-color="#E8E7E5"/>
<stop offset="1" stop-color="white"/>
</linearGradient>
<clipPath id="clip0_1794_3392">
<rect width="32" height="48" fill="white" transform="translate(0.5)"/>
</clipPath>
<clipPath id="clip1_1794_3392">
<rect width="49.152" height="48" fill="white" transform="translate(56.5)"/>
</clipPath>
<clipPath id="clip2_1794_3392">
<rect width="48" height="48" fill="white" transform="translate(129.652)"/>
</clipPath>
<clipPath id="clip3_1794_3392">
<rect width="114" height="48" fill="white" transform="translate(201.652)"/>
</clipPath>
<clipPath id="clip4_1794_3392">
<rect width="48" height="48" fill="white" transform="translate(339.652)"/>
</clipPath>
<clipPath id="clip5_1794_3392">
<rect width="48" height="48" fill="white" transform="translate(411.652)"/>
</clipPath>
<clipPath id="clip6_1794_3392">
<rect width="48" height="48" fill="white" transform="translate(555.652)"/>
</clipPath>
</defs>
</svg>
