<svg width="52" height="53" viewBox="0 0 52 53" fill="none" xmlns="http://www.w3.org/2000/svg">
<g filter="url(#filter0_d_1796_3639)">
<path d="M50 26.4286C50 39.9201 39.2548 50.8571 26 50.8571C12.7452 50.8571 2 39.9201 2 26.4286C2 12.937 12.7452 2 26 2C39.2548 2 50 12.937 50 26.4286Z" fill="#FCFCFC"/>
<path d="M49.9895 21.4065C47.0487 19.528 43.7818 18.1434 40.3187 17.3512C43.3643 20.2454 45.2631 24.3351 45.2631 28.8682C45.2631 37.6414 38.1511 44.7534 29.3779 44.7534C20.6048 44.7534 13.4927 37.6414 13.4927 28.8682C13.4927 26.8302 13.8765 24.8818 14.5758 23.0914C10.1727 26.5384 6.77478 31.1408 4.78018 36.3737C3.27291 33.2339 2.42857 29.7156 2.42857 26C2.42857 12.7452 13.1737 2 26.4286 2C38.1124 2 47.8462 10.349 49.9895 21.4065Z" fill="url(#paint0_radial_1796_3639)"/>
<path d="M49.679 20.9588C49.6546 20.9437 49.63 20.9286 49.6055 20.9136C48.7487 17.1 47.0226 13.6232 44.6503 10.7109C47.0911 13.6168 48.8496 17.115 49.679 20.9588ZM49.2265 21.1847C49.5927 22.8731 49.7857 24.6278 49.7857 26.4286C49.7857 39.8053 39.1329 50.6429 26 50.6429C12.8671 50.6429 2.21429 39.8053 2.21429 26.4286C2.21429 26.3567 2.21459 26.285 2.21521 26.2133C2.24688 29.883 3.09501 33.3585 4.587 36.4664L4.8028 36.916L4.98041 36.45C6.87036 31.4917 10.0291 27.1032 14.1132 23.7378C13.5718 25.3494 13.2784 27.0748 13.2784 28.8682C13.2784 37.7597 20.4864 44.9677 29.3779 44.9677C38.2694 44.9677 45.4774 37.7597 45.4774 28.8682C45.4774 24.5509 43.7778 20.6303 41.0117 17.7394C43.9258 18.4837 46.6909 19.6524 49.2265 21.1847ZM26.2133 2.21524C37.2817 2.31425 46.5495 10.111 49.0939 20.607C46.4015 19.0284 43.4619 17.8504 40.3665 17.1424L39.6043 16.968L40.1711 17.5066C43.1759 20.362 45.0489 24.3962 45.0489 28.8682C45.0489 37.523 38.0327 44.5391 29.3779 44.5391C20.7231 44.5391 13.707 37.523 13.707 28.8682C13.707 26.8573 14.0857 24.9353 14.7754 23.1694L15.0603 22.44L14.4437 22.9227C10.1415 26.2906 6.7925 30.7539 4.76256 35.8297C3.40118 32.8339 2.64286 29.5058 2.64286 26C2.64286 12.9353 13.176 2.33081 26.2133 2.21524Z" stroke="#F64C53" stroke-width="0.428571"/>
</g>
<defs>
<filter id="filter0_d_1796_3639" x="0.285714" y="0.285714" width="51.4286" height="52.2857" filterUnits="userSpaceOnUse" color-interpolation-filters="sRGB">
<feFlood flood-opacity="0" result="BackgroundImageFix"/>
<feColorMatrix in="SourceAlpha" type="matrix" values="0 0 0 0 0 0 0 0 0 0 0 0 0 0 0 0 0 0 127 0" result="hardAlpha"/>
<feOffset/>
<feGaussianBlur stdDeviation="0.857143"/>
<feComposite in2="hardAlpha" operator="out"/>
<feColorMatrix type="matrix" values="0 0 0 0 0.320833 0 0 0 0 0.0528038 0 0 0 0 0.0528038 0 0 0 0.2 0"/>
<feBlend mode="normal" in2="BackgroundImageFix" result="effect1_dropShadow_1796_3639"/>
<feBlend mode="normal" in="SourceGraphic" in2="effect1_dropShadow_1796_3639" result="shape"/>
</filter>
<radialGradient id="paint0_radial_1796_3639" cx="0" cy="0" r="1" gradientUnits="userSpaceOnUse" gradientTransform="translate(26.4286 26) rotate(-140.258) scale(24.8026)">
<stop offset="0.00329775" stop-color="#F64C53"/>
<stop offset="0.999069" stop-color="#FDD8DA"/>
</radialGradient>
</defs>
</svg>
